M48
; DRILL file {KiCad 7.0.5} date Mon 19 Jun 2023 02:47:56 PM CEST
; FORMAT={-:-/ absolute / metric / decimal}
; #@! TF.CreationDate,2023-06-19T14:47:56+02:00
; #@! TF.GenerationSoftware,Kicad,Pcbnew,7.0.5
; #@! TF.FileFunction,Plated,1,2,PTH
FMAT,2
METRIC
; #@! TA.AperFunction,Plated,PTH,ViaDrill
T1C0.400
; #@! TA.AperFunction,Plated,PTH,ComponentDrill
T2C0.600
; #@! TA.AperFunction,Plated,PTH,ComponentDrill
T3C1.000
%
G90
G05
T1
X104.4Y-135.825
X105.6Y-139.0
X105.717Y-136.04
X106.05Y-131.9
X106.55Y-127.7
X109.225Y-134.775
X110.2Y-124.3
X110.75Y-135.569
X112.594Y-128.363
X112.75Y-129.35
X113.05Y-130.8
X115.4Y-137.55
X120.7Y-136.8
X120.917Y-129.993
X123.9Y-130.25
X124.15Y-127.9
X124.5Y-131.85
X125.4Y-136.4
X125.7Y-124.15
X125.7Y-131.5
X126.1Y-123.1
X126.75Y-138.6
X127.0Y-126.85
X127.175Y-136.625
X127.555Y-133.055
X131.1Y-134.3
X131.3Y-125.75
X131.5Y-123.3
X132.2Y-137.9
X132.375Y-135.338
X132.8Y-127.8
X133.0Y-130.0
T3
X110.58Y-137.75
X113.12Y-137.75
X133.6Y-121.65
X136.14Y-121.65
T2
X103.825Y-125.33G85X103.025Y-125.33
G05
X103.825Y-133.97G85X103.025Y-133.97
G05
X108.155Y-125.33G85X107.055Y-125.33
G05
X108.155Y-133.97G85X107.055Y-133.97
G05
T0
M30
