%TF.GenerationSoftware,KiCad,Pcbnew,7.0.5*%
%TF.CreationDate,2023-06-23T14:23:01+02:00*%
%TF.ProjectId,candleLightfd-S01_3x3,63616e64-6c65-44c6-9967-687466642d53,R01*%
%TF.SameCoordinates,PX54d44f0PY5fbfb80*%
%TF.FileFunction,Paste,Bot*%
%TF.FilePolarity,Positive*%
%FSLAX46Y46*%
G04 Gerber Fmt 4.6, Leading zero omitted, Abs format (unit mm)*
G04 Created by KiCad (PCBNEW 7.0.5) date 2023-06-23 14:23:01*
%MOMM*%
%LPD*%
G01*
G04 APERTURE LIST*
G04 Aperture macros list*
%AMRoundRect*
0 Rectangle with rounded corners*
0 $1 Rounding radius*
0 $2 $3 $4 $5 $6 $7 $8 $9 X,Y pos of 4 corners*
0 Add a 4 corners polygon primitive as box body*
4,1,4,$2,$3,$4,$5,$6,$7,$8,$9,$2,$3,0*
0 Add four circle primitives for the rounded corners*
1,1,$1+$1,$2,$3*
1,1,$1+$1,$4,$5*
1,1,$1+$1,$6,$7*
1,1,$1+$1,$8,$9*
0 Add four rect primitives between the rounded corners*
20,1,$1+$1,$2,$3,$4,$5,0*
20,1,$1+$1,$4,$5,$6,$7,0*
20,1,$1+$1,$6,$7,$8,$9,0*
20,1,$1+$1,$8,$9,$2,$3,0*%
G04 Aperture macros list end*
%ADD10RoundRect,0.500000X-2.000000X0.500000X-2.000000X-0.500000X2.000000X-0.500000X2.000000X0.500000X0*%
%ADD11RoundRect,0.150000X-0.420000X-0.150000X0.420000X-0.150000X0.420000X0.150000X-0.420000X0.150000X0*%
%ADD12RoundRect,0.187500X0.212500X0.187500X-0.212500X0.187500X-0.212500X-0.187500X0.212500X-0.187500X0*%
%ADD13RoundRect,0.187500X-0.187500X0.212500X-0.187500X-0.212500X0.187500X-0.212500X0.187500X0.212500X0*%
%ADD14RoundRect,0.175000X-0.475000X0.175000X-0.475000X-0.175000X0.475000X-0.175000X0.475000X0.175000X0*%
G04 APERTURE END LIST*
D10*
%TO.C,X2*%
X116500000Y36045000D03*
X116500000Y38815000D03*
X116500000Y41585000D03*
X116500000Y44355000D03*
%TD*%
%TO.C,X2*%
X75800000Y36045000D03*
X75800000Y38815000D03*
X75800000Y41585000D03*
X75800000Y44355000D03*
%TD*%
%TO.C,X2*%
X75800000Y13445000D03*
X75800000Y16215000D03*
X75800000Y18985000D03*
X75800000Y21755000D03*
%TD*%
%TO.C,X2*%
X35100000Y58645000D03*
X35100000Y61415000D03*
X35100000Y64185000D03*
X35100000Y66955000D03*
%TD*%
%TO.C,X2*%
X75800000Y58645000D03*
X75800000Y61415000D03*
X75800000Y64185000D03*
X75800000Y66955000D03*
%TD*%
%TO.C,X2*%
X116500000Y58645000D03*
X116500000Y61415000D03*
X116500000Y64185000D03*
X116500000Y66955000D03*
%TD*%
%TO.C,X2*%
X35100000Y36045000D03*
X35100000Y38815000D03*
X35100000Y41585000D03*
X35100000Y44355000D03*
%TD*%
%TO.C,X2*%
X35100000Y13445000D03*
X35100000Y16215000D03*
X35100000Y18985000D03*
X35100000Y21755000D03*
%TD*%
%TO.C,X2*%
X116500000Y13445000D03*
X116500000Y16215000D03*
X116500000Y18985000D03*
X116500000Y21755000D03*
%TD*%
D11*
%TO.C,U4*%
X104450000Y9595000D03*
X104450000Y10865000D03*
X104450000Y12135000D03*
X104450000Y13405000D03*
X109850000Y13405000D03*
X109850000Y12135000D03*
X109850000Y10865000D03*
X109850000Y9595000D03*
%TD*%
D12*
%TO.C,C9*%
X108750000Y60750000D03*
X107250000Y60750000D03*
%TD*%
D11*
%TO.C,U4*%
X104450000Y32195000D03*
X104450000Y33465000D03*
X104450000Y34735000D03*
X104450000Y36005000D03*
X109850000Y36005000D03*
X109850000Y34735000D03*
X109850000Y33465000D03*
X109850000Y32195000D03*
%TD*%
D13*
%TO.C,C11*%
X62000000Y57700000D03*
X62000000Y56200000D03*
%TD*%
%TO.C,C11*%
X62000000Y35100000D03*
X62000000Y33600000D03*
%TD*%
D11*
%TO.C,U4*%
X23050000Y32195000D03*
X23050000Y33465000D03*
X23050000Y34735000D03*
X23050000Y36005000D03*
X28450000Y36005000D03*
X28450000Y34735000D03*
X28450000Y33465000D03*
X28450000Y32195000D03*
%TD*%
D14*
%TO.C,R8*%
X29850000Y41700000D03*
X29850000Y39800000D03*
%TD*%
D13*
%TO.C,C11*%
X102700000Y57700000D03*
X102700000Y56200000D03*
%TD*%
%TO.C,C11*%
X102700000Y12500000D03*
X102700000Y11000000D03*
%TD*%
D11*
%TO.C,U4*%
X63750000Y9595000D03*
X63750000Y10865000D03*
X63750000Y12135000D03*
X63750000Y13405000D03*
X69150000Y13405000D03*
X69150000Y12135000D03*
X69150000Y10865000D03*
X69150000Y9595000D03*
%TD*%
%TO.C,U4*%
X23050000Y54795000D03*
X23050000Y56065000D03*
X23050000Y57335000D03*
X23050000Y58605000D03*
X28450000Y58605000D03*
X28450000Y57335000D03*
X28450000Y56065000D03*
X28450000Y54795000D03*
%TD*%
D14*
%TO.C,R8*%
X111250000Y19100000D03*
X111250000Y17200000D03*
%TD*%
D13*
%TO.C,C11*%
X21300000Y12500000D03*
X21300000Y11000000D03*
%TD*%
%TO.C,C11*%
X102700000Y35100000D03*
X102700000Y33600000D03*
%TD*%
D12*
%TO.C,C9*%
X27350000Y15550000D03*
X25850000Y15550000D03*
%TD*%
%TO.C,C9*%
X27350000Y38150000D03*
X25850000Y38150000D03*
%TD*%
%TO.C,C9*%
X68050000Y38150000D03*
X66550000Y38150000D03*
%TD*%
D14*
%TO.C,R8*%
X111250000Y64300000D03*
X111250000Y62400000D03*
%TD*%
D13*
%TO.C,C11*%
X21300000Y35100000D03*
X21300000Y33600000D03*
%TD*%
D11*
%TO.C,U4*%
X23050000Y9595000D03*
X23050000Y10865000D03*
X23050000Y12135000D03*
X23050000Y13405000D03*
X28450000Y13405000D03*
X28450000Y12135000D03*
X28450000Y10865000D03*
X28450000Y9595000D03*
%TD*%
D12*
%TO.C,C9*%
X68050000Y60750000D03*
X66550000Y60750000D03*
%TD*%
D11*
%TO.C,U4*%
X63750000Y54795000D03*
X63750000Y56065000D03*
X63750000Y57335000D03*
X63750000Y58605000D03*
X69150000Y58605000D03*
X69150000Y57335000D03*
X69150000Y56065000D03*
X69150000Y54795000D03*
%TD*%
D12*
%TO.C,C9*%
X68050000Y15550000D03*
X66550000Y15550000D03*
%TD*%
D14*
%TO.C,R8*%
X70550000Y19100000D03*
X70550000Y17200000D03*
%TD*%
D12*
%TO.C,C9*%
X108750000Y15550000D03*
X107250000Y15550000D03*
%TD*%
D13*
%TO.C,C11*%
X21300000Y57700000D03*
X21300000Y56200000D03*
%TD*%
D12*
%TO.C,C9*%
X27350000Y60750000D03*
X25850000Y60750000D03*
%TD*%
D14*
%TO.C,R8*%
X70550000Y64300000D03*
X70550000Y62400000D03*
%TD*%
%TO.C,R8*%
X70550000Y41700000D03*
X70550000Y39800000D03*
%TD*%
%TO.C,R8*%
X29850000Y19100000D03*
X29850000Y17200000D03*
%TD*%
D11*
%TO.C,U4*%
X104450000Y54795000D03*
X104450000Y56065000D03*
X104450000Y57335000D03*
X104450000Y58605000D03*
X109850000Y58605000D03*
X109850000Y57335000D03*
X109850000Y56065000D03*
X109850000Y54795000D03*
%TD*%
D14*
%TO.C,R8*%
X111250000Y41700000D03*
X111250000Y39800000D03*
%TD*%
%TO.C,R8*%
X29850000Y64300000D03*
X29850000Y62400000D03*
%TD*%
D13*
%TO.C,C11*%
X62000000Y12500000D03*
X62000000Y11000000D03*
%TD*%
D12*
%TO.C,C9*%
X108750000Y38150000D03*
X107250000Y38150000D03*
%TD*%
D11*
%TO.C,U4*%
X63750000Y32195000D03*
X63750000Y33465000D03*
X63750000Y34735000D03*
X63750000Y36005000D03*
X69150000Y36005000D03*
X69150000Y34735000D03*
X69150000Y33465000D03*
X69150000Y32195000D03*
%TD*%
M02*
