%TF.GenerationSoftware,KiCad,Pcbnew,7.0.5*%
%TF.CreationDate,2023-06-23T14:23:02+02:00*%
%TF.ProjectId,candleLightfd-S01_3x3,63616e64-6c65-44c6-9967-687466642d53,R01*%
%TF.SameCoordinates,PX54d44f0PY5fbfb80*%
%TF.FileFunction,Profile,NP*%
%FSLAX46Y46*%
G04 Gerber Fmt 4.6, Leading zero omitted, Abs format (unit mm)*
G04 Created by KiCad (PCBNEW 7.0.5) date 2023-06-23 14:23:02*
%MOMM*%
%LPD*%
G01*
G04 APERTURE LIST*
%TA.AperFunction,Profile*%
%ADD10C,0.100000*%
%TD*%
G04 APERTURE END LIST*
D10*
X41099350Y50189765D02*
X41050318Y50177070D01*
X81451097Y7879803D02*
X81475677Y7835518D01*
X37200000Y72800000D02*
X36750000Y72800000D01*
X40731123Y72473653D02*
X40715961Y72425327D01*
X81440521Y7902823D02*
X81451097Y7879803D01*
X82400000Y75400000D02*
X82400000Y75400000D01*
X81520620Y52974314D02*
X81537603Y52955517D01*
X78279379Y50025687D02*
X78262396Y50044484D01*
X449415Y50197435D02*
X424286Y50194235D01*
X326347Y30231124D02*
X374673Y30215962D01*
X37689764Y30599351D02*
X37697434Y30649416D01*
X37648902Y27320198D02*
X37624322Y27364483D01*
X37637173Y30457350D02*
X37659478Y30502823D01*
X37200000Y30200000D02*
X37250584Y30202566D01*
X37700000Y27100000D02*
X37697434Y27150585D01*
X399350Y7610236D02*
X449415Y7602566D01*
X78359478Y49897178D02*
X78348902Y49920198D01*
X74450000Y30200000D02*
X74450000Y28900000D01*
X33750000Y27600000D02*
X4000000Y27600000D01*
X4000000Y51500000D02*
X4000000Y51500000D01*
X40855516Y50062397D02*
X40820620Y50025687D01*
X37464482Y30275678D02*
X37506052Y30304613D01*
X40521Y53102823D02*
X62826Y53057350D01*
X75677Y27364483D02*
X51097Y27320198D01*
X78397434Y72350585D02*
X78389764Y72400650D01*
X81489618Y49985635D02*
X81462826Y49942651D01*
X40702565Y8049416D02*
X40705765Y8024287D01*
X41124286Y72794235D02*
X41099350Y72789765D01*
X81849415Y30202566D02*
X81900000Y30200000D01*
X78225686Y27479380D02*
X78206052Y27495388D01*
X104612Y7793948D02*
X120620Y7774314D01*
X37200000Y50200000D02*
X36750000Y50200000D01*
X81462826Y49942651D02*
X81451097Y49920198D01*
X4000000Y75400000D02*
X33750000Y75400000D01*
X37684038Y72425327D02*
X37668876Y72473653D01*
X118885634Y50110382D02*
X118842650Y50137174D01*
X81440521Y30502823D02*
X81451097Y30479803D01*
X78377069Y49849682D02*
X78359478Y49897178D01*
X78310381Y53014366D02*
X78337173Y53057350D01*
X40751097Y72520198D02*
X40731123Y72473653D01*
X119089764Y53199351D02*
X119097434Y53249416D01*
X41700000Y5000000D02*
X36750000Y5000000D01*
X155516Y52937604D02*
X193947Y52904613D01*
X81422930Y53150319D02*
X81440521Y53102823D01*
X89618Y49985635D02*
X62826Y49942651D01*
X37420197Y30251098D02*
X37464482Y30275678D01*
X424286Y27594235D02*
X399350Y27589765D01*
X115150000Y27600000D02*
X85400000Y27600000D01*
X81400000Y8100000D02*
X81402565Y8049416D01*
X78244483Y27462397D02*
X78225686Y27479380D01*
X40700000Y49700000D02*
X40700000Y30700000D01*
X41050318Y7622931D02*
X41099350Y7610236D01*
X118944483Y50062397D02*
X118906052Y50095388D01*
X40855516Y27462397D02*
X40820620Y27425687D01*
X118979379Y27425687D02*
X118944483Y27462397D01*
X155516Y27462397D02*
X120620Y27425687D01*
X37250584Y52802566D02*
X37300649Y52810236D01*
X78262396Y72644484D02*
X78225686Y72679380D01*
X81593947Y30304613D02*
X81635517Y30275678D01*
X78397434Y27150585D02*
X78389764Y27200650D01*
X279802Y30251098D02*
X326347Y30231124D01*
X0Y75400000D02*
X1000000Y75400000D01*
X78377069Y53150319D02*
X78389764Y53199351D01*
X41700000Y30200000D02*
X41700000Y28900000D01*
X40775677Y7835518D02*
X40804612Y7793948D01*
X37349681Y7622931D02*
X37397177Y7640522D01*
X40731123Y53126348D02*
X40740521Y53102823D01*
X40715961Y49825327D02*
X40705765Y49775714D01*
X40521Y7902823D02*
X51097Y7879803D01*
X302822Y7640522D02*
X350318Y7622931D01*
X118906052Y50095388D02*
X118885634Y50110382D01*
X81799350Y52810236D02*
X81849415Y52802566D01*
X40700000Y72300000D02*
X40700000Y53300000D01*
X78097177Y7640522D02*
X78142650Y7662827D01*
X193947Y50095388D02*
X174313Y50079380D01*
X115150000Y5000000D02*
X115150000Y5000000D01*
X78000649Y7610236D02*
X78049681Y7622931D01*
X115150000Y52800000D02*
X115150000Y51500000D01*
X350318Y50177070D02*
X302822Y50159479D01*
X40893947Y52904613D02*
X40914365Y52889619D01*
X81774673Y27584039D02*
X81750318Y27577070D01*
X40702565Y72350585D02*
X40700000Y72300000D01*
X40715961Y27225327D02*
X40705765Y27175714D01*
X118979379Y7774314D02*
X119010381Y7814366D01*
X119084038Y49825327D02*
X119077069Y49849682D01*
X37442650Y50137174D02*
X37420197Y50148903D01*
X77950584Y7602566D02*
X78000649Y7610236D01*
X36750000Y75400000D02*
X41700000Y75400000D01*
X41700000Y51500000D02*
X41700000Y50200000D01*
X81402565Y30649416D02*
X81405765Y30624287D01*
X81440521Y72497178D02*
X81422930Y72449682D01*
X120620Y52974314D02*
X155516Y52937604D01*
X40855516Y72662397D02*
X40820620Y72625687D01*
X81504612Y52993948D02*
X81520620Y52974314D01*
X41700000Y7600000D02*
X41700000Y5000000D01*
X118600000Y27600000D02*
X118150000Y27600000D01*
X235517Y27524323D02*
X193947Y27495388D01*
X82400000Y30200000D02*
X82400000Y28900000D01*
X119089764Y7999351D02*
X119097434Y8049416D01*
X78359478Y53102823D02*
X78377069Y53150319D01*
X78348902Y27320198D02*
X78324322Y27364483D01*
X302822Y52840522D02*
X350318Y52822931D01*
X118979379Y72625687D02*
X118944483Y72662397D01*
X37544483Y27462397D02*
X37506052Y27495388D01*
X41050318Y27577070D02*
X41002822Y27559479D01*
X118650584Y72797435D02*
X118600000Y72800000D01*
X118820197Y50148903D02*
X118773652Y50168877D01*
X78400000Y30700000D02*
X78400000Y49700000D01*
X37300649Y52810236D02*
X37349681Y52822931D01*
X257349Y50137174D02*
X235517Y50124323D01*
X78310381Y30414366D02*
X78337173Y30457350D01*
X74450000Y51500000D02*
X74450000Y51500000D01*
X119099358Y49725325D02*
X119094234Y49775714D01*
X77450000Y5000000D02*
X77450000Y7600000D01*
X36750000Y51500000D02*
X36750000Y52800000D01*
X40702565Y53249416D02*
X40705765Y53224287D01*
X37697434Y27150585D02*
X37694234Y27175714D01*
X31123Y72473653D02*
X15961Y72425327D01*
X37397177Y72759479D02*
X37349681Y72777070D01*
X33750000Y5000000D02*
X4000000Y5000000D01*
X155516Y72662397D02*
X120620Y72625687D01*
X40751097Y49920198D02*
X40731123Y49873653D01*
X37624322Y49964483D02*
X37595387Y50006053D01*
X37637173Y7857350D02*
X37659478Y7902823D01*
X85400000Y75400000D02*
X115150000Y75400000D01*
X37579379Y50025687D02*
X37544483Y50062397D01*
X81702822Y50159479D02*
X81679802Y50148903D01*
X78000649Y30210236D02*
X78049681Y30222931D01*
X1000000Y75400000D02*
X1000000Y72800000D01*
X78206052Y27495388D02*
X78164482Y27524323D01*
X193947Y30304613D02*
X214365Y30289619D01*
X41149415Y30202566D02*
X41200000Y30200000D01*
X41050318Y52822931D02*
X41099350Y52810236D01*
X37694234Y49775714D02*
X37684038Y49825327D01*
X36750000Y5000000D02*
X36750000Y7600000D01*
X81504612Y7793948D02*
X81520620Y7774314D01*
X31123Y53126348D02*
X40521Y53102823D01*
X81462826Y72542651D02*
X81451097Y72520198D01*
X78359478Y30502823D02*
X78377069Y30550319D01*
X81614365Y50110382D02*
X81574313Y50079380D01*
X2565Y72350585D02*
X0Y72300000D01*
X120620Y50025687D02*
X89618Y49985635D01*
X81402565Y72350585D02*
X81400000Y72300000D01*
X40820620Y52974314D02*
X40855516Y52937604D01*
X40731123Y49873653D02*
X40715961Y49825327D01*
X40705765Y30624287D02*
X40715961Y30574674D01*
X118995387Y50006053D02*
X118979379Y50025687D01*
X41149415Y72797435D02*
X41124286Y72794235D01*
X37637173Y49942651D02*
X37624322Y49964483D01*
X118820197Y27548903D02*
X118797177Y27559479D01*
X78397434Y53249416D02*
X78400000Y53300000D01*
X37700000Y53300000D02*
X37700000Y72300000D01*
X81415961Y53174674D02*
X81422930Y53150319D01*
X78397434Y49750585D02*
X78389764Y49800650D01*
X115150000Y28900000D02*
X115150000Y27600000D01*
X214365Y30289619D02*
X257349Y30262827D01*
X449415Y72797435D02*
X424286Y72794235D01*
X81849415Y50197435D02*
X81799350Y50189765D01*
X41074673Y30215962D02*
X41124286Y30205766D01*
X40893947Y27495388D02*
X40874313Y27479380D01*
X119094234Y72375714D02*
X119084038Y72425327D01*
X119010381Y53014366D02*
X119037173Y53057350D01*
X41200000Y7600000D02*
X41700000Y7600000D01*
X44700000Y52800000D02*
X74450000Y52800000D01*
X81774673Y72784039D02*
X81726347Y72768877D01*
X4000000Y7600000D02*
X33750000Y7600000D01*
X37544483Y52937604D02*
X37579379Y52974314D01*
X78097177Y30240522D02*
X78142650Y30262827D01*
X37397177Y27559479D02*
X37349681Y27577070D01*
X40837603Y30355517D02*
X40855516Y30337604D01*
X81504612Y30393948D02*
X81520620Y30374314D01*
X118979379Y30374314D02*
X119010381Y30414366D01*
X174313Y27479380D02*
X155516Y27462397D01*
X118150000Y5000000D02*
X118150000Y7600000D01*
X399350Y27589765D02*
X350318Y27577070D01*
X81415961Y7974674D02*
X81422930Y7950319D01*
X40789618Y49985635D02*
X40762826Y49942651D01*
X78000649Y72789765D02*
X77950584Y72797435D01*
X0Y80400000D02*
X0Y75400000D01*
X81475677Y7835518D02*
X81504612Y7793948D01*
X81520620Y7774314D02*
X81555516Y7737604D01*
X1000000Y5000000D02*
X0Y5000000D01*
X36750000Y30200000D02*
X37200000Y30200000D01*
X78262396Y52955517D02*
X78295387Y52993948D01*
X118600000Y30200000D02*
X118650584Y30202566D01*
X118773652Y50168877D02*
X118749681Y50177070D01*
X119100000Y53300000D02*
X119100000Y72300000D01*
X118797177Y27559479D02*
X118749681Y27577070D01*
X78377069Y72449682D02*
X78359478Y72497178D01*
X77950584Y30202566D02*
X78000649Y30210236D01*
X77450000Y27600000D02*
X77450000Y28900000D01*
X81520620Y72625687D02*
X81489618Y72585635D01*
X81679802Y27548903D02*
X81635517Y27524323D01*
X33750000Y28900000D02*
X33750000Y27600000D01*
X37689764Y7999351D02*
X37697434Y8049416D01*
X81451097Y27320198D02*
X81440521Y27297178D01*
X40893947Y72695388D02*
X40874313Y72679380D01*
X85400000Y27600000D02*
X85400000Y28900000D01*
X78400000Y27100000D02*
X78397434Y27150585D01*
X78295387Y52993948D02*
X78310381Y53014366D01*
X44700000Y75400000D02*
X74450000Y75400000D01*
X40874313Y27479380D02*
X40855516Y27462397D01*
X40935517Y50124323D02*
X40893947Y50095388D01*
X174313Y72679380D02*
X155516Y72662397D01*
X118749681Y52822931D02*
X118797177Y52840522D01*
X118150000Y72800000D02*
X118150000Y75400000D01*
X51097Y27320198D02*
X31123Y27273653D01*
X37659478Y27297178D02*
X37648902Y27320198D01*
X82400000Y75400000D02*
X82400000Y72800000D01*
X44700000Y27600000D02*
X44700000Y27600000D01*
X78377069Y30550319D02*
X78389764Y30599351D01*
X37684038Y27225327D02*
X37668876Y27273653D01*
X85400000Y30200000D02*
X115150000Y30200000D01*
X1000000Y50200000D02*
X500000Y50200000D01*
X41200000Y52800000D02*
X41700000Y52800000D01*
X37689764Y53199351D02*
X37697434Y53249416D01*
X37677069Y7950319D02*
X37689764Y7999351D01*
X41124286Y50194235D02*
X41099350Y50189765D01*
X44700000Y51500000D02*
X44700000Y52800000D01*
X37442650Y27537174D02*
X37420197Y27548903D01*
X81402565Y49750585D02*
X81400000Y49700000D01*
X82400000Y52800000D02*
X82400000Y51500000D01*
X37579379Y7774314D02*
X37610381Y7814366D01*
X40705765Y53224287D02*
X40715961Y53174674D01*
X77450000Y72800000D02*
X77450000Y75400000D01*
X41700000Y27600000D02*
X41200000Y27600000D01*
X40762826Y72542651D02*
X40751097Y72520198D01*
X119059478Y72497178D02*
X119048902Y72520198D01*
X85400000Y7600000D02*
X115150000Y7600000D01*
X118749681Y30222931D02*
X118797177Y30240522D01*
X78389764Y27200650D02*
X78384038Y27225327D01*
X78324322Y49964483D02*
X78295387Y50006053D01*
X118650584Y27597435D02*
X118600000Y27600000D01*
X78389764Y72400650D02*
X78384038Y72425327D01*
X118700649Y7610236D02*
X118749681Y7622931D01*
X81520620Y27425687D02*
X81504612Y27406053D01*
X78225686Y50079380D02*
X78185634Y50110382D01*
X51097Y7879803D02*
X75677Y7835518D01*
X500000Y27600000D02*
X449415Y27597435D01*
X41149415Y50197435D02*
X41124286Y50194235D01*
X78295387Y72606053D02*
X78279379Y72625687D01*
X424286Y72794235D02*
X399350Y72789765D01*
X37694234Y72375714D02*
X37684038Y72425327D01*
X81702822Y27559479D02*
X81679802Y27548903D01*
X40893947Y7704613D02*
X40914365Y7689619D01*
X81410235Y72400650D02*
X81402565Y72350585D01*
X74450000Y7600000D02*
X74450000Y7600000D01*
X119037173Y53057350D02*
X119059478Y53102823D01*
X4000000Y51500000D02*
X4000000Y52800000D01*
X118797177Y7640522D02*
X118842650Y7662827D01*
X2565Y53249416D02*
X5765Y53224287D01*
X81750318Y7622931D02*
X81799350Y7610236D01*
X118600000Y50200000D02*
X118150000Y50200000D01*
X77450000Y30200000D02*
X77900000Y30200000D01*
X81824286Y30205766D02*
X81849415Y30202566D01*
X81702822Y7640522D02*
X81750318Y7622931D01*
X81679802Y7651098D02*
X81702822Y7640522D01*
X118700649Y30210236D02*
X118749681Y30222931D01*
X40715961Y7974674D02*
X40731123Y7926348D01*
X40820620Y27425687D02*
X40804612Y27406053D01*
X37684038Y49825327D02*
X37668876Y49873653D01*
X37464482Y52875678D02*
X37506052Y52904613D01*
X78142650Y52862827D02*
X78185634Y52889619D01*
X118700649Y50189765D02*
X118650584Y50197435D01*
X74450000Y27600000D02*
X44700000Y27600000D01*
X37397177Y50159479D02*
X37349681Y50177070D01*
X119099358Y72325325D02*
X119094234Y72375714D01*
X37275713Y30205766D02*
X37325326Y30215962D01*
X81679802Y52851098D02*
X81726347Y52831124D01*
X40700000Y8100000D02*
X40702565Y8049416D01*
X41099350Y7610236D02*
X41149415Y7602566D01*
X0Y5000000D02*
X0Y0D01*
X118150000Y75400000D02*
X119100000Y75400000D01*
X40702565Y49750585D02*
X40700000Y49700000D01*
X81799350Y7610236D02*
X81849415Y7602566D01*
X81726347Y72768877D02*
X81702822Y72759479D01*
X37595387Y27406053D02*
X37579379Y27425687D01*
X119100000Y75400000D02*
X119100000Y80400000D01*
X37697434Y49750585D02*
X37694234Y49775714D01*
X78400000Y49700000D02*
X78397434Y49750585D01*
X0Y27100000D02*
X0Y8100000D01*
X449415Y30202566D02*
X500000Y30200000D01*
X81574313Y27479380D02*
X81537603Y27444484D01*
X40715961Y72425327D02*
X40705765Y72375714D01*
X115150000Y72800000D02*
X85400000Y72800000D01*
X62826Y72542651D02*
X51097Y72520198D01*
X85400000Y5000000D02*
X85400000Y7600000D01*
X81410235Y7999351D02*
X81415961Y7974674D01*
X74450000Y72800000D02*
X44700000Y72800000D01*
X118842650Y7662827D02*
X118885634Y7689619D01*
X119024322Y72564483D02*
X118995387Y72606053D01*
X85400000Y28900000D02*
X85400000Y28900000D01*
X118906052Y72695388D02*
X118885634Y72710382D01*
X36750000Y7600000D02*
X37200000Y7600000D01*
X37442650Y7662827D02*
X37485634Y7689619D01*
X119037173Y7857350D02*
X119059478Y7902823D01*
X350318Y7622931D02*
X399350Y7610236D01*
X81402565Y8049416D02*
X81410235Y7999351D01*
X40957349Y72737174D02*
X40935517Y72724323D01*
X37442650Y52862827D02*
X37464482Y52875678D01*
X78000649Y27589765D02*
X77950584Y27597435D01*
X81555516Y7737604D02*
X81574313Y7720621D01*
X214365Y7689619D02*
X257349Y7662827D01*
X500000Y30200000D02*
X1000000Y30200000D01*
X119100000Y8100000D02*
X119100000Y27100000D01*
X118944483Y52937604D02*
X118979379Y52974314D01*
X81635517Y30275678D02*
X81679802Y30251098D01*
X235517Y50124323D02*
X193947Y50095388D01*
X81422930Y27249682D02*
X81410235Y27200650D01*
X155516Y30337604D02*
X193947Y30304613D01*
X0Y30700000D02*
X2565Y30649416D01*
X2565Y30649416D02*
X5765Y30624287D01*
X40751097Y27320198D02*
X40731123Y27273653D01*
X1000000Y72800000D02*
X500000Y72800000D01*
X118995387Y72606053D02*
X118979379Y72625687D01*
X119100000Y27100000D02*
X119099358Y27125325D01*
X104612Y27406053D02*
X75677Y27364483D01*
X40893947Y50095388D02*
X40874313Y50079380D01*
X81726347Y50168877D02*
X81702822Y50159479D01*
X37200000Y52800000D02*
X37250584Y52802566D01*
X118906052Y52904613D02*
X118944483Y52937604D01*
X37700000Y49700000D02*
X37697434Y49750585D01*
X119059478Y30502823D02*
X119077069Y30550319D01*
X40855516Y7737604D02*
X40893947Y7704613D01*
X81702822Y72759479D02*
X81679802Y72748903D01*
X37637173Y72542651D02*
X37624322Y72564483D01*
X78164482Y27524323D02*
X78120197Y27548903D01*
X78348902Y7879803D02*
X78359478Y7902823D01*
X41124286Y27594235D02*
X41099350Y27589765D01*
X40979802Y27548903D02*
X40935517Y27524323D01*
X40855516Y30337604D02*
X40893947Y30304613D01*
X37579379Y27425687D02*
X37544483Y27462397D01*
X78120197Y72748903D02*
X78073652Y72768877D01*
X78185634Y52889619D02*
X78225686Y52920621D01*
X75677Y7835518D02*
X104612Y7793948D01*
X40751097Y7879803D02*
X40775677Y7835518D01*
X137603Y30355517D02*
X155516Y30337604D01*
X37485634Y27510382D02*
X37442650Y27537174D01*
X77900000Y72800000D02*
X77450000Y72800000D01*
X119094234Y49775714D02*
X119084038Y49825327D01*
X78000649Y52810236D02*
X78049681Y52822931D01*
X37694234Y27175714D02*
X37684038Y27225327D01*
X40957349Y50137174D02*
X40935517Y50124323D01*
X81402565Y53249416D02*
X81410235Y53199351D01*
X81849415Y72797435D02*
X81799350Y72789765D01*
X119010381Y30414366D02*
X119037173Y30457350D01*
X37579379Y52974314D02*
X37610381Y53014366D01*
X81574313Y7720621D02*
X81593947Y7704613D01*
X44700000Y27600000D02*
X44700000Y28900000D01*
X31123Y30526348D02*
X51097Y30479803D01*
X40700000Y27100000D02*
X40700000Y8100000D01*
X78384038Y49825327D02*
X78377069Y49849682D01*
X119077069Y53150319D02*
X119089764Y53199351D01*
X78389764Y53199351D02*
X78397434Y53249416D01*
X37544483Y50062397D02*
X37506052Y50095388D01*
X78397434Y8049416D02*
X78400000Y8100000D01*
X15961Y49825327D02*
X5765Y49775714D01*
X78000649Y50189765D02*
X77950584Y50197435D01*
X399350Y72789765D02*
X350318Y72777070D01*
X78389764Y7999351D02*
X78397434Y8049416D01*
X37624322Y72564483D02*
X37595387Y72606053D01*
X37677069Y30550319D02*
X37689764Y30599351D01*
X37200000Y7600000D02*
X37250584Y7602566D01*
X40722930Y30550319D02*
X40731123Y30526348D01*
X62826Y53057350D02*
X75677Y53035518D01*
X37506052Y27495388D02*
X37485634Y27510382D01*
X78164482Y72724323D02*
X78120197Y72748903D01*
X78225686Y30320621D02*
X78262396Y30355517D01*
X85400000Y52800000D02*
X115150000Y52800000D01*
X118650584Y50197435D02*
X118600000Y50200000D01*
X302822Y50159479D02*
X257349Y50137174D01*
X1000000Y27600000D02*
X500000Y27600000D01*
X118749681Y27577070D02*
X118700649Y27589765D01*
X374673Y30215962D02*
X424286Y30205766D01*
X118820197Y72748903D02*
X118773652Y72768877D01*
X74450000Y5000000D02*
X44700000Y5000000D01*
X77450000Y75400000D02*
X82400000Y75400000D01*
X500000Y50200000D02*
X449415Y50197435D01*
X37250584Y50197435D02*
X37200000Y50200000D01*
X15961Y53174674D02*
X31123Y53126348D01*
X78384038Y27225327D02*
X78377069Y27249682D01*
X40914365Y30289619D02*
X40957349Y30262827D01*
X118885634Y72710382D02*
X118842650Y72737174D01*
X33750000Y7600000D02*
X33750000Y7600000D01*
X120620Y72625687D02*
X89618Y72585635D01*
X119048902Y72520198D02*
X119024322Y72564483D01*
X81750318Y27577070D02*
X81702822Y27559479D01*
X119010381Y7814366D02*
X119037173Y7857350D01*
X78073652Y72768877D02*
X78025326Y72784039D01*
X78073652Y50168877D02*
X78025326Y50184039D01*
X37610381Y53014366D02*
X37637173Y53057350D01*
X44700000Y72800000D02*
X44700000Y75400000D01*
X78359478Y72497178D02*
X78348902Y72520198D01*
X37250584Y27597435D02*
X37200000Y27600000D01*
X81635517Y7675678D02*
X81679802Y7651098D01*
X104612Y52993948D02*
X120620Y52974314D01*
X74450000Y75400000D02*
X74450000Y72800000D01*
X81451097Y72520198D02*
X81440521Y72497178D01*
X15961Y72425327D02*
X5765Y72375714D01*
X81574313Y72679380D02*
X81537603Y72644484D01*
X118150000Y52800000D02*
X118600000Y52800000D01*
X81451097Y30479803D02*
X81475677Y30435518D01*
X81475677Y27364483D02*
X81451097Y27320198D01*
X118979379Y52974314D02*
X119010381Y53014366D01*
X0Y72300000D02*
X0Y53300000D01*
X257349Y52862827D02*
X279802Y52851098D01*
X37200000Y27600000D02*
X36750000Y27600000D01*
X40957349Y52862827D02*
X40979802Y52851098D01*
X41099350Y52810236D02*
X41149415Y52802566D01*
X78185634Y72710382D02*
X78164482Y72724323D01*
X81574313Y30320621D02*
X81593947Y30304613D01*
X37697434Y30649416D02*
X37700000Y30700000D01*
X37677069Y53150319D02*
X37689764Y53199351D01*
X40731123Y30526348D02*
X40751097Y30479803D01*
X74450000Y28900000D02*
X74450000Y27600000D01*
X77950584Y72797435D02*
X77900000Y72800000D01*
X193947Y27495388D02*
X174313Y27479380D01*
X118842650Y30262827D02*
X118885634Y30289619D01*
X118797177Y52840522D02*
X118842650Y52862827D01*
X40702565Y27150585D02*
X40700000Y27100000D01*
X81489618Y72585635D02*
X81462826Y72542651D01*
X77450000Y7600000D02*
X77900000Y7600000D01*
X77950584Y27597435D02*
X77900000Y27600000D01*
X81422930Y30550319D02*
X81440521Y30502823D01*
X77900000Y30200000D02*
X77950584Y30202566D01*
X119024322Y49964483D02*
X118995387Y50006053D01*
X78025326Y72784039D02*
X78000649Y72789765D01*
X37506052Y30304613D02*
X37544483Y30337604D01*
X118650584Y52802566D02*
X118700649Y52810236D01*
X500000Y7600000D02*
X1000000Y7600000D01*
X78120197Y50148903D02*
X78073652Y50168877D01*
X119077069Y30550319D02*
X119089764Y30599351D01*
X81774673Y50184039D02*
X81726347Y50168877D01*
X33750000Y50200000D02*
X4000000Y50200000D01*
X118650584Y30202566D02*
X118700649Y30210236D01*
X40979802Y7651098D02*
X41002822Y7640522D01*
X33750000Y75400000D02*
X33750000Y75400000D01*
X279802Y27548903D02*
X235517Y27524323D01*
X41050318Y72777070D02*
X41002822Y72759479D01*
X78295387Y7793948D02*
X78324322Y7835518D01*
X193947Y7704613D02*
X214365Y7689619D01*
X40740521Y7902823D02*
X40751097Y7879803D01*
X81726347Y30231124D02*
X81774673Y30215962D01*
X81635517Y27524323D02*
X81593947Y27495388D01*
X37300649Y7610236D02*
X37349681Y7622931D01*
X40914365Y7689619D02*
X40957349Y7662827D01*
X115150000Y51500000D02*
X115150000Y50200000D01*
X350318Y27577070D02*
X302822Y27559479D01*
X78348902Y49920198D02*
X78324322Y49964483D01*
X15961Y7974674D02*
X31123Y7926348D01*
X118944483Y72662397D02*
X118906052Y72695388D01*
X78359478Y7902823D02*
X78377069Y7950319D01*
X82400000Y72800000D02*
X81900000Y72800000D01*
X37506052Y7704613D02*
X37544483Y7737604D01*
X81574313Y52920621D02*
X81614365Y52889619D01*
X81900000Y7600000D02*
X82400000Y7600000D01*
X118150000Y30200000D02*
X118600000Y30200000D01*
X0Y49700000D02*
X0Y30700000D01*
X40705765Y49775714D02*
X40702565Y49750585D01*
X118885634Y52889619D02*
X118906052Y52904613D01*
X119077069Y49849682D02*
X119059478Y49897178D01*
X37668876Y27273653D02*
X37659478Y27297178D01*
X77950584Y50197435D02*
X77900000Y50200000D01*
X44700000Y7600000D02*
X74450000Y7600000D01*
X118944483Y7737604D02*
X118979379Y7774314D01*
X78225686Y72679380D02*
X78185634Y72710382D01*
X37697434Y72350585D02*
X37694234Y72375714D01*
X81614365Y72710382D02*
X81574313Y72679380D01*
X78097177Y52840522D02*
X78142650Y52862827D01*
X22930Y30550319D02*
X31123Y30526348D01*
X37610381Y7814366D02*
X37637173Y7857350D01*
X193947Y52904613D02*
X214365Y52889619D01*
X37420197Y50148903D02*
X37397177Y50159479D01*
X81520620Y30374314D02*
X81537603Y30355517D01*
X81774673Y52815962D02*
X81799350Y52810236D01*
X81537603Y50044484D02*
X81520620Y50025687D01*
X104612Y30393948D02*
X137603Y30355517D01*
X4000000Y27600000D02*
X4000000Y28900000D01*
X5765Y30624287D02*
X15961Y30574674D01*
X37485634Y7689619D02*
X37506052Y7704613D01*
X119100000Y72300000D02*
X119099358Y72325325D01*
X1000000Y51500000D02*
X1000000Y50200000D01*
X119089764Y30599351D02*
X119097434Y30649416D01*
X78225686Y7720621D02*
X78262396Y7755517D01*
X33750000Y51500000D02*
X33750000Y50200000D01*
X37659478Y53102823D02*
X37677069Y53150319D01*
X118749681Y50177070D02*
X118700649Y50189765D01*
X77900000Y27600000D02*
X77450000Y27600000D01*
X115150000Y7600000D02*
X115150000Y5000000D01*
X81574313Y50079380D02*
X81537603Y50044484D01*
X118700649Y52810236D02*
X118749681Y52822931D01*
X37485634Y50110382D02*
X37442650Y50137174D01*
X78295387Y50006053D02*
X78279379Y50025687D01*
X115150000Y5000000D02*
X85400000Y5000000D01*
X37397177Y52840522D02*
X37442650Y52862827D01*
X424286Y30205766D02*
X449415Y30202566D01*
X78049681Y7622931D02*
X78097177Y7640522D01*
X41026347Y30231124D02*
X41074673Y30215962D01*
X41099350Y27589765D02*
X41050318Y27577070D01*
X41099350Y72789765D02*
X41050318Y72777070D01*
X37700000Y72300000D02*
X37697434Y72350585D01*
X77450000Y50200000D02*
X77450000Y51500000D01*
X449415Y27597435D02*
X424286Y27594235D01*
X40789618Y72585635D02*
X40762826Y72542651D01*
X81440521Y53102823D02*
X81451097Y53079803D01*
X41200000Y30200000D02*
X41700000Y30200000D01*
X119100000Y5000000D02*
X118150000Y5000000D01*
X82400000Y28900000D02*
X82400000Y27600000D01*
X41002822Y7640522D02*
X41050318Y7622931D01*
X82400000Y7600000D02*
X82400000Y5000000D01*
X119097434Y53249416D02*
X119100000Y53300000D01*
X33750000Y72800000D02*
X4000000Y72800000D01*
X118842650Y52862827D02*
X118885634Y52889619D01*
X33750000Y52800000D02*
X33750000Y51500000D01*
X0Y8100000D02*
X2565Y8049416D01*
X40740521Y53102823D02*
X40762826Y53057350D01*
X44700000Y5000000D02*
X44700000Y7600000D01*
X37420197Y27548903D02*
X37397177Y27559479D01*
X40762826Y53057350D02*
X40775677Y53035518D01*
X37300649Y50189765D02*
X37250584Y50197435D01*
X2565Y8049416D02*
X5765Y8024287D01*
X37373652Y30231124D02*
X37420197Y30251098D01*
X78337173Y53057350D02*
X78359478Y53102823D01*
X41002822Y52840522D02*
X41050318Y52822931D01*
X118150000Y27600000D02*
X118150000Y28900000D01*
X37485634Y72710382D02*
X37442650Y72737174D01*
X40775677Y53035518D02*
X40804612Y52993948D01*
X5765Y53224287D02*
X15961Y53174674D01*
X81635517Y52875678D02*
X81679802Y52851098D01*
X41149415Y27597435D02*
X41124286Y27594235D01*
X78400000Y53300000D02*
X78400000Y72300000D01*
X81504612Y27406053D02*
X81475677Y27364483D01*
X40874313Y50079380D02*
X40855516Y50062397D01*
X81520620Y50025687D02*
X81489618Y49985635D01*
X15961Y30574674D02*
X22930Y30550319D01*
X74450000Y52800000D02*
X74450000Y51500000D01*
X74450000Y7600000D02*
X74450000Y5000000D01*
X119100000Y80400000D02*
X119100000Y80400000D01*
X81635517Y50124323D02*
X81614365Y50110382D01*
X118944483Y27462397D02*
X118906052Y27495388D01*
X1000000Y7600000D02*
X1000000Y5000000D01*
X118773652Y72768877D02*
X118749681Y72777070D01*
X78295387Y27406053D02*
X78279379Y27425687D01*
X40957349Y30262827D02*
X40979802Y30251098D01*
X81900000Y72800000D02*
X81849415Y72797435D01*
X4000000Y52800000D02*
X33750000Y52800000D01*
X81614365Y52889619D02*
X81635517Y52875678D01*
X78142650Y30262827D02*
X78185634Y30289619D01*
X40820620Y72625687D02*
X40789618Y72585635D01*
X51097Y30479803D02*
X75677Y30435518D01*
X0Y53300000D02*
X2565Y53249416D01*
X118944483Y30337604D02*
X118979379Y30374314D01*
X37544483Y7737604D02*
X37579379Y7774314D01*
X118600000Y52800000D02*
X118650584Y52802566D01*
X40874313Y72679380D02*
X40855516Y72662397D01*
X81799350Y50189765D02*
X81774673Y50184039D01*
X41149415Y52802566D02*
X41200000Y52800000D01*
X78025326Y50184039D02*
X78000649Y50189765D01*
X399350Y50189765D02*
X350318Y50177070D01*
X77900000Y50200000D02*
X77450000Y50200000D01*
X33750000Y30200000D02*
X33750000Y28900000D01*
X119024322Y27364483D02*
X119010381Y27385635D01*
X41700000Y50200000D02*
X41200000Y50200000D01*
X5765Y8024287D02*
X15961Y7974674D01*
X77450000Y52800000D02*
X77900000Y52800000D01*
X85400000Y51500000D02*
X85400000Y51500000D01*
X115150000Y30200000D02*
X115150000Y28900000D01*
X41200000Y72800000D02*
X41149415Y72797435D01*
X78337173Y30457350D02*
X78359478Y30502823D01*
X81410235Y49800650D02*
X81402565Y49750585D01*
X37506052Y52904613D02*
X37544483Y52937604D01*
X81440521Y49897178D02*
X81422930Y49849682D01*
X81475677Y30435518D02*
X81504612Y30393948D01*
X257349Y30262827D02*
X279802Y30251098D01*
X399350Y52810236D02*
X449415Y52802566D01*
X81799350Y72789765D02*
X81774673Y72784039D01*
X36750000Y52800000D02*
X37200000Y52800000D01*
X78185634Y30289619D02*
X78225686Y30320621D01*
X302822Y72759479D02*
X257349Y72737174D01*
X81900000Y50200000D02*
X81849415Y50197435D01*
X37659478Y30502823D02*
X37677069Y30550319D01*
X41200000Y50200000D02*
X41149415Y50197435D01*
X77900000Y52800000D02*
X77950584Y52802566D01*
X37659478Y72497178D02*
X37637173Y72542651D01*
X350318Y72777070D02*
X302822Y72759479D01*
X37579379Y72625687D02*
X37544483Y72662397D01*
X41200000Y27600000D02*
X41149415Y27597435D01*
X85400000Y51500000D02*
X85400000Y52800000D01*
X81451097Y49920198D02*
X81440521Y49897178D01*
X82400000Y27600000D02*
X81900000Y27600000D01*
X119059478Y27297178D02*
X119048902Y27320198D01*
X75677Y53035518D02*
X104612Y52993948D01*
X82400000Y50200000D02*
X81900000Y50200000D01*
X81774673Y30215962D02*
X81824286Y30205766D01*
X75677Y30435518D02*
X104612Y30393948D01*
X119099358Y27125325D02*
X119094234Y27175714D01*
X40820620Y7774314D02*
X40855516Y7737604D01*
X37624322Y27364483D02*
X37595387Y27406053D01*
X82400000Y5000000D02*
X77450000Y5000000D01*
X77900000Y7600000D02*
X77950584Y7602566D01*
X85400000Y72800000D02*
X85400000Y75400000D01*
X118906052Y7704613D02*
X118944483Y7737604D01*
X41149415Y7602566D02*
X41200000Y7600000D01*
X118150000Y28900000D02*
X118150000Y30200000D01*
X40705765Y72375714D02*
X40702565Y72350585D01*
X118150000Y51500000D02*
X118150000Y52800000D01*
X350318Y52822931D02*
X399350Y52810236D01*
X119010381Y27385635D02*
X118979379Y27425687D01*
X119100000Y49700000D02*
X119099358Y49725325D01*
X118150000Y50200000D02*
X118150000Y51500000D01*
X81440521Y27297178D02*
X81422930Y27249682D01*
X81537603Y30355517D02*
X81574313Y30320621D01*
X78359478Y27297178D02*
X78348902Y27320198D01*
X118885634Y27510382D02*
X118842650Y27537174D01*
X81635517Y72724323D02*
X81614365Y72710382D01*
X81400000Y72300000D02*
X81400000Y53300000D01*
X1000000Y30200000D02*
X1000000Y28900000D01*
X81900000Y30200000D02*
X82400000Y30200000D01*
X115150000Y75400000D02*
X115150000Y75400000D01*
X78295387Y30393948D02*
X78310381Y30414366D01*
X77950584Y52802566D02*
X78000649Y52810236D01*
X81451097Y53079803D02*
X81475677Y53035518D01*
X41124286Y30205766D02*
X41149415Y30202566D01*
X81849415Y27597435D02*
X81799350Y27589765D01*
X85400000Y50200000D02*
X85400000Y51500000D01*
X36750000Y50200000D02*
X36750000Y51500000D01*
X37610381Y30414366D02*
X37637173Y30457350D01*
X81422930Y7950319D02*
X81440521Y7902823D01*
X78262396Y7755517D02*
X78295387Y7793948D01*
X81537603Y72644484D02*
X81520620Y72625687D01*
X119077069Y27249682D02*
X119059478Y27297178D01*
X235517Y72724323D02*
X193947Y72695388D01*
X4000000Y50200000D02*
X4000000Y51500000D01*
X37349681Y50177070D02*
X37300649Y50189765D01*
X5765Y72375714D02*
X2565Y72350585D01*
X118600000Y72800000D02*
X118150000Y72800000D01*
X118979379Y50025687D02*
X118944483Y50062397D01*
X81475677Y53035518D02*
X81504612Y52993948D01*
X51097Y72520198D02*
X31123Y72473653D01*
X37397177Y7640522D02*
X37442650Y7662827D01*
X41002822Y27559479D02*
X40979802Y27548903D01*
X81537603Y27444484D02*
X81520620Y27425687D01*
X37250584Y7602566D02*
X37300649Y7610236D01*
X40702565Y30649416D02*
X40705765Y30624287D01*
X118700649Y72789765D02*
X118650584Y72797435D01*
X37544483Y30337604D02*
X37579379Y30374314D01*
X37420197Y72748903D02*
X37397177Y72759479D01*
X118885634Y7689619D02*
X118906052Y7704613D01*
X81400000Y49700000D02*
X81400000Y30700000D01*
X119094234Y27175714D02*
X119084038Y27225327D01*
X500000Y52800000D02*
X1000000Y52800000D01*
X78397434Y30649416D02*
X78400000Y30700000D01*
X15961Y27225327D02*
X5765Y27175714D01*
X40715961Y30574674D02*
X40722930Y30550319D01*
X118150000Y7600000D02*
X118600000Y7600000D01*
X118700649Y27589765D02*
X118650584Y27597435D01*
X37325326Y30215962D02*
X37373652Y30231124D01*
X118906052Y30304613D02*
X118944483Y30337604D01*
X40957349Y7662827D02*
X40979802Y7651098D01*
X51097Y49920198D02*
X31123Y49873653D01*
X78389764Y49800650D02*
X78384038Y49825327D01*
X78279379Y72625687D02*
X78262396Y72644484D01*
X37697434Y8049416D02*
X37700000Y8100000D01*
X81679802Y50148903D02*
X81635517Y50124323D01*
X37506052Y72695388D02*
X37485634Y72710382D01*
X449415Y7602566D02*
X500000Y7600000D01*
X40731123Y27273653D02*
X40715961Y27225327D01*
X119097434Y8049416D02*
X119100000Y8100000D01*
X40700000Y30700000D02*
X40702565Y30649416D01*
X81537603Y52955517D02*
X81574313Y52920621D01*
X78389764Y30599351D02*
X78397434Y30649416D01*
X78142650Y7662827D02*
X78185634Y7689619D01*
X37700000Y8100000D02*
X37700000Y27100000D01*
X4000000Y5000000D02*
X4000000Y7600000D01*
X40705765Y27175714D02*
X40702565Y27150585D01*
X0Y0D02*
X119100000Y0D01*
X81422930Y49849682D02*
X81410235Y49800650D01*
X40762826Y49942651D02*
X40751097Y49920198D01*
X5765Y49775714D02*
X2565Y49750585D01*
X37300649Y72789765D02*
X37250584Y72797435D01*
X78225686Y52920621D02*
X78262396Y52955517D01*
X81410235Y27200650D02*
X81402565Y27150585D01*
X115150000Y50200000D02*
X85400000Y50200000D01*
X119100000Y80400000D02*
X0Y80400000D01*
X81849415Y7602566D02*
X81900000Y7600000D01*
X119084038Y27225327D02*
X119077069Y27249682D01*
X78185634Y7689619D02*
X78225686Y7720621D01*
X81422930Y72449682D02*
X81410235Y72400650D01*
X81799350Y27589765D02*
X81774673Y27584039D01*
X37300649Y27589765D02*
X37250584Y27597435D01*
X118600000Y7600000D02*
X118650584Y7602566D01*
X214365Y52889619D02*
X257349Y52862827D01*
X78324322Y7835518D02*
X78348902Y7879803D01*
X33750000Y75400000D02*
X33750000Y72800000D01*
X81593947Y27495388D02*
X81574313Y27479380D01*
X41700000Y75400000D02*
X41700000Y75400000D01*
X119077069Y72449682D02*
X119059478Y72497178D01*
X40893947Y30304613D02*
X40914365Y30289619D01*
X40935517Y72724323D02*
X40893947Y72695388D01*
X41002822Y72759479D02*
X40957349Y72737174D01*
X37349681Y72777070D02*
X37300649Y72789765D01*
X118885634Y30289619D02*
X118906052Y30304613D01*
X37700000Y30700000D02*
X37700000Y49700000D01*
X37659478Y7902823D02*
X37677069Y7950319D01*
X62826Y49942651D02*
X51097Y49920198D01*
X78120197Y27548903D02*
X78097177Y27559479D01*
X41700000Y28900000D02*
X41700000Y27600000D01*
X40804612Y30393948D02*
X40837603Y30355517D01*
X40705765Y8024287D02*
X40715961Y7974674D01*
X78262396Y50044484D02*
X78225686Y50079380D01*
X40804612Y7793948D02*
X40820620Y7774314D01*
X36750000Y28900000D02*
X36750000Y30200000D01*
X44700000Y28900000D02*
X44700000Y30200000D01*
X44700000Y30200000D02*
X74450000Y30200000D01*
X40804612Y52993948D02*
X40820620Y52974314D01*
X85400000Y28900000D02*
X85400000Y30200000D01*
X78348902Y72520198D02*
X78324322Y72564483D01*
X37595387Y50006053D02*
X37579379Y50025687D01*
X40751097Y30479803D02*
X40775677Y30435518D01*
X118842650Y72737174D02*
X118820197Y72748903D01*
X119048902Y27320198D02*
X119024322Y27364483D01*
X40855516Y52937604D02*
X40893947Y52904613D01*
X37349681Y52822931D02*
X37397177Y52840522D01*
X118842650Y50137174D02*
X118820197Y50148903D01*
X78400000Y72300000D02*
X78397434Y72350585D01*
X82400000Y51500000D02*
X82400000Y50200000D01*
X37637173Y53057350D02*
X37659478Y53102823D01*
X78324322Y72564483D02*
X78295387Y72606053D01*
X37659478Y49897178D02*
X37637173Y49942651D01*
X118842650Y27537174D02*
X118820197Y27548903D01*
X40775677Y27364483D02*
X40751097Y27320198D01*
X81900000Y27600000D02*
X81849415Y27597435D01*
X279802Y52851098D02*
X302822Y52840522D01*
X155516Y50062397D02*
X120620Y50025687D01*
X41002822Y50159479D02*
X40957349Y50137174D01*
X74450000Y50200000D02*
X44700000Y50200000D01*
X78279379Y27425687D02*
X78244483Y27462397D01*
X41700000Y75400000D02*
X41700000Y72800000D01*
X81402565Y27150585D02*
X81400000Y27100000D01*
X31123Y27273653D02*
X15961Y27225327D01*
X37506052Y50095388D02*
X37485634Y50110382D01*
X119077069Y7950319D02*
X119089764Y7999351D01*
X119059478Y7902823D02*
X119077069Y7950319D01*
X37250584Y72797435D02*
X37200000Y72800000D01*
X81410235Y53199351D02*
X81415961Y53174674D01*
X41700000Y72800000D02*
X41200000Y72800000D01*
X37595387Y72606053D02*
X37579379Y72625687D01*
X37544483Y72662397D02*
X37506052Y72695388D01*
X40775677Y30435518D02*
X40804612Y30393948D01*
X118650584Y7602566D02*
X118700649Y7610236D01*
X78185634Y50110382D02*
X78164482Y50124323D01*
X119084038Y72425327D02*
X119077069Y72449682D01*
X37668876Y72473653D02*
X37659478Y72497178D01*
X1000000Y52800000D02*
X1000000Y51500000D01*
X4000000Y30200000D02*
X33750000Y30200000D01*
X81900000Y52800000D02*
X82400000Y52800000D01*
X81679802Y30251098D02*
X81726347Y30231124D01*
X257349Y7662827D02*
X279802Y7651098D01*
X37697434Y53249416D02*
X37700000Y53300000D01*
X40731123Y7926348D02*
X40740521Y7902823D01*
X74450000Y75400000D02*
X74450000Y75400000D01*
X40979802Y52851098D02*
X41002822Y52840522D01*
X78377069Y27249682D02*
X78359478Y27297178D01*
X119100000Y0D02*
X119100000Y5000000D01*
X81400000Y30700000D02*
X81402565Y30649416D01*
X5765Y27175714D02*
X2565Y27150585D01*
X33750000Y27600000D02*
X33750000Y27600000D01*
X78049681Y52822931D02*
X78097177Y52840522D01*
X424286Y50194235D02*
X399350Y50189765D01*
X119097434Y30649416D02*
X119100000Y30700000D01*
X78384038Y72425327D02*
X78377069Y72449682D01*
X40700000Y53300000D02*
X40702565Y53249416D01*
X302822Y27559479D02*
X279802Y27548903D01*
X119059478Y49897178D02*
X119048902Y49920198D01*
X78262396Y30355517D02*
X78295387Y30393948D01*
X33750000Y7600000D02*
X33750000Y5000000D01*
X155516Y7737604D02*
X193947Y7704613D01*
X40935517Y27524323D02*
X40893947Y27495388D01*
X40820620Y50025687D02*
X40789618Y49985635D01*
X2565Y49750585D02*
X0Y49700000D01*
X81679802Y72748903D02*
X81635517Y72724323D01*
X81405765Y30624287D02*
X81410235Y30599351D01*
X74450000Y51500000D02*
X74450000Y50200000D01*
X41050318Y50177070D02*
X41002822Y50159479D01*
X4000000Y28900000D02*
X4000000Y30200000D01*
X37579379Y30374314D02*
X37610381Y30414366D01*
X120620Y27425687D02*
X104612Y27406053D01*
X115150000Y75400000D02*
X115150000Y72800000D01*
X40914365Y52889619D02*
X40957349Y52862827D01*
X174313Y50079380D02*
X155516Y50062397D01*
X81400000Y53300000D02*
X81402565Y53249416D01*
X257349Y72737174D02*
X235517Y72724323D01*
X2565Y27150585D02*
X0Y27100000D01*
X36750000Y27600000D02*
X36750000Y28900000D01*
X118749681Y72777070D02*
X118700649Y72789765D01*
X78097177Y27559479D02*
X78049681Y27577070D01*
X119048902Y49920198D02*
X119024322Y49964483D01*
X89618Y72585635D02*
X62826Y72542651D01*
X118906052Y27495388D02*
X118885634Y27510382D01*
X81726347Y52831124D02*
X81774673Y52815962D01*
X41700000Y52800000D02*
X41700000Y51500000D01*
X31123Y7926348D02*
X40521Y7902823D01*
X193947Y72695388D02*
X174313Y72679380D01*
X40804612Y27406053D02*
X40775677Y27364483D01*
X78400000Y8100000D02*
X78400000Y27100000D01*
X77450000Y28900000D02*
X77450000Y30200000D01*
X119100000Y30700000D02*
X119100000Y49700000D01*
X40979802Y30251098D02*
X41026347Y30231124D01*
X119037173Y30457350D02*
X119059478Y30502823D01*
X119059478Y53102823D02*
X119077069Y53150319D01*
X118749681Y7622931D02*
X118797177Y7640522D01*
X78049681Y27577070D02*
X78000649Y27589765D01*
X279802Y7651098D02*
X302822Y7640522D01*
X44700000Y50200000D02*
X44700000Y51500000D01*
X449415Y52802566D02*
X500000Y52800000D01*
X37668876Y49873653D02*
X37659478Y49897178D01*
X118797177Y30240522D02*
X118842650Y30262827D01*
X81400000Y27100000D02*
X81400000Y8100000D01*
X78377069Y7950319D02*
X78389764Y7999351D01*
X500000Y72800000D02*
X449415Y72797435D01*
X31123Y49873653D02*
X15961Y49825327D01*
X77450000Y51500000D02*
X77450000Y52800000D01*
X78164482Y50124323D02*
X78120197Y50148903D01*
X78324322Y27364483D02*
X78295387Y27406053D01*
X40715961Y53174674D02*
X40731123Y53126348D01*
X81849415Y52802566D02*
X81900000Y52800000D01*
X37250584Y30202566D02*
X37275713Y30205766D01*
X37442650Y72737174D02*
X37420197Y72748903D01*
X37349681Y27577070D02*
X37300649Y27589765D01*
X81593947Y7704613D02*
X81635517Y7675678D01*
X78049681Y30222931D02*
X78097177Y30240522D01*
X1000000Y28900000D02*
X1000000Y27600000D01*
X36750000Y72800000D02*
X36750000Y75400000D01*
X120620Y7774314D02*
X155516Y7737604D01*
X81410235Y30599351D02*
X81422930Y30550319D01*
X4000000Y72800000D02*
X4000000Y75400000D01*
M02*
