%TF.GenerationSoftware,KiCad,Pcbnew,7.0.5*%
%TF.CreationDate,2023-06-23T14:23:01+02:00*%
%TF.ProjectId,candleLightfd-S01_3x3,63616e64-6c65-44c6-9967-687466642d53,R01*%
%TF.SameCoordinates,PX54d44f0PY5fbfb80*%
%TF.FileFunction,Soldermask,Top*%
%TF.FilePolarity,Negative*%
%FSLAX46Y46*%
G04 Gerber Fmt 4.6, Leading zero omitted, Abs format (unit mm)*
G04 Created by KiCad (PCBNEW 7.0.5) date 2023-06-23 14:23:01*
%MOMM*%
%LPD*%
G01*
G04 APERTURE LIST*
G04 Aperture macros list*
%AMRoundRect*
0 Rectangle with rounded corners*
0 $1 Rounding radius*
0 $2 $3 $4 $5 $6 $7 $8 $9 X,Y pos of 4 corners*
0 Add a 4 corners polygon primitive as box body*
4,1,4,$2,$3,$4,$5,$6,$7,$8,$9,$2,$3,0*
0 Add four circle primitives for the rounded corners*
1,1,$1+$1,$2,$3*
1,1,$1+$1,$4,$5*
1,1,$1+$1,$6,$7*
1,1,$1+$1,$8,$9*
0 Add four rect primitives between the rounded corners*
20,1,$1+$1,$2,$3,$4,$5,0*
20,1,$1+$1,$4,$5,$6,$7,0*
20,1,$1+$1,$6,$7,$8,$9,0*
20,1,$1+$1,$8,$9,$2,$3,0*%
G04 Aperture macros list end*
%ADD10C,0.300000*%
%ADD11C,0.100000*%
%ADD12RoundRect,0.125000X0.125000X0.325000X-0.125000X0.325000X-0.125000X-0.325000X0.125000X-0.325000X0*%
%ADD13C,1.000000*%
%ADD14RoundRect,0.187500X0.212500X0.187500X-0.212500X0.187500X-0.212500X-0.187500X0.212500X-0.187500X0*%
%ADD15RoundRect,0.125000X-0.325000X0.125000X-0.325000X-0.125000X0.325000X-0.125000X0.325000X0.125000X0*%
%ADD16RoundRect,0.499500X-0.550500X0.250500X-0.550500X-0.250500X0.550500X-0.250500X0.550500X0.250500X0*%
%ADD17RoundRect,0.499500X-0.400500X0.250500X-0.400500X-0.250500X0.400500X-0.250500X0.400500X0.250500X0*%
%ADD18C,0.650000*%
%ADD19RoundRect,0.150000X-0.425000X0.150000X-0.425000X-0.150000X0.425000X-0.150000X0.425000X0.150000X0*%
%ADD20RoundRect,0.075000X-0.500000X0.075000X-0.500000X-0.075000X0.500000X-0.075000X0.500000X0.075000X0*%
%ADD21O,2.100000X1.000000*%
%ADD22O,1.800000X1.000000*%
%ADD23C,0.787000*%
%ADD24RoundRect,0.200000X-2.300000X0.800000X-2.300000X-0.800000X2.300000X-0.800000X2.300000X0.800000X0*%
%ADD25RoundRect,0.500000X-2.000000X0.500000X-2.000000X-0.500000X2.000000X-0.500000X2.000000X0.500000X0*%
%ADD26RoundRect,0.187500X0.187500X-0.212500X0.187500X0.212500X-0.187500X0.212500X-0.187500X-0.212500X0*%
%ADD27RoundRect,0.187500X-0.212500X-0.187500X0.212500X-0.187500X0.212500X0.187500X-0.212500X0.187500X0*%
%ADD28RoundRect,0.150000X-0.420000X-0.150000X0.420000X-0.150000X0.420000X0.150000X-0.420000X0.150000X0*%
%ADD29RoundRect,0.199390X-0.199390X0.199390X-0.199390X-0.199390X0.199390X-0.199390X0.199390X0.199390X0*%
%ADD30R,1.600000X1.600000*%
%ADD31C,1.600000*%
%ADD32RoundRect,0.125000X-0.125000X-0.325000X0.125000X-0.325000X0.125000X0.325000X-0.125000X0.325000X0*%
%ADD33RoundRect,0.250000X0.375000X-0.250000X0.375000X0.250000X-0.375000X0.250000X-0.375000X-0.250000X0*%
%ADD34RoundRect,0.115000X-0.460000X0.585000X-0.460000X-0.585000X0.460000X-0.585000X0.460000X0.585000X0*%
%ADD35RoundRect,0.125000X0.625000X0.125000X-0.625000X0.125000X-0.625000X-0.125000X0.625000X-0.125000X0*%
%ADD36RoundRect,0.070000X0.680000X0.070000X-0.680000X0.070000X-0.680000X-0.070000X0.680000X-0.070000X0*%
%ADD37RoundRect,0.125000X-0.125000X0.625000X-0.125000X-0.625000X0.125000X-0.625000X0.125000X0.625000X0*%
%ADD38RoundRect,0.070000X-0.070000X0.680000X-0.070000X-0.680000X0.070000X-0.680000X0.070000X0.680000X0*%
%ADD39RoundRect,0.125000X-0.625000X-0.125000X0.625000X-0.125000X0.625000X0.125000X-0.625000X0.125000X0*%
%ADD40RoundRect,0.070000X-0.680000X-0.070000X0.680000X-0.070000X0.680000X0.070000X-0.680000X0.070000X0*%
%ADD41RoundRect,0.125000X0.125000X-0.625000X0.125000X0.625000X-0.125000X0.625000X-0.125000X-0.625000X0*%
%ADD42RoundRect,0.070000X0.070000X-0.680000X0.070000X0.680000X-0.070000X0.680000X-0.070000X-0.680000X0*%
%ADD43RoundRect,0.225000X-0.425000X-0.225000X0.425000X-0.225000X0.425000X0.225000X-0.425000X0.225000X0*%
%ADD44RoundRect,0.225000X-0.775000X-0.225000X0.775000X-0.225000X0.775000X0.225000X-0.775000X0.225000X0*%
%ADD45RoundRect,0.225000X-1.337500X-0.641500X1.337500X-0.641500X1.337500X0.641500X-1.337500X0.641500X0*%
%ADD46RoundRect,0.175000X-0.475000X0.175000X-0.475000X-0.175000X0.475000X-0.175000X0.475000X0.175000X0*%
%ADD47RoundRect,0.250000X0.250000X0.375000X-0.250000X0.375000X-0.250000X-0.375000X0.250000X-0.375000X0*%
G04 APERTURE END LIST*
D10*
X87100000Y65099500D02*
G75*
G03*
X87100000Y65099500I-150000J0D01*
G01*
X111850000Y44450000D02*
G75*
G03*
X111850000Y44450000I-150000J0D01*
G01*
X5700000Y42499500D02*
G75*
G03*
X5700000Y42499500I-150000J0D01*
G01*
X5200000Y60900000D02*
G75*
G03*
X5200000Y60900000I-150000J0D01*
G01*
X112050000Y69500000D02*
G75*
G03*
X112050000Y69500000I-150000J0D01*
G01*
X112925500Y57462299D02*
G75*
G03*
X112925500Y57462299I-150000J0D01*
G01*
X19850000Y10800000D02*
G75*
G03*
X19850000Y10800000I-150000J0D01*
G01*
X105050000Y15750000D02*
G75*
G03*
X105050000Y15750000I-150000J0D01*
G01*
X30650000Y46900000D02*
G75*
G03*
X30650000Y46900000I-150000J0D01*
G01*
X45900000Y15700000D02*
G75*
G03*
X45900000Y15700000I-150000J0D01*
G01*
X23650000Y15750000D02*
G75*
G03*
X23650000Y15750000I-150000J0D01*
G01*
X91300500Y34630699D02*
G75*
G03*
X91300500Y34630699I-150000J0D01*
G01*
X32150500Y17600000D02*
G75*
G03*
X32150500Y17600000I-150000J0D01*
G01*
X9900500Y34630699D02*
G75*
G03*
X9900500Y34630699I-150000J0D01*
G01*
X31350000Y9700000D02*
G75*
G03*
X31350000Y9700000I-150000J0D01*
G01*
X52444115Y64437271D02*
G75*
G03*
X52444115Y64437271I-150000J0D01*
G01*
X24850000Y38700000D02*
G75*
G03*
X24850000Y38700000I-150000J0D01*
G01*
X70950000Y13300000D02*
G75*
G03*
X70950000Y13300000I-150000J0D01*
G01*
X5200000Y15700000D02*
G75*
G03*
X5200000Y15700000I-150000J0D01*
G01*
X30250000Y13300000D02*
G75*
G03*
X30250000Y13300000I-150000J0D01*
G01*
X101250000Y33400000D02*
G75*
G03*
X101250000Y33400000I-150000J0D01*
G01*
X67405074Y37144926D02*
G75*
G03*
X67405074Y37144926I-150000J0D01*
G01*
X24850000Y61300000D02*
G75*
G03*
X24850000Y61300000I-150000J0D01*
G01*
X55250000Y32650000D02*
G75*
G03*
X55250000Y32650000I-150000J0D01*
G01*
X105950000Y56400000D02*
G75*
G03*
X105950000Y56400000I-150000J0D01*
G01*
X11744115Y41837271D02*
G75*
G03*
X11744115Y41837271I-150000J0D01*
G01*
X106250000Y61300000D02*
G75*
G03*
X106250000Y61300000I-150000J0D01*
G01*
X46400000Y42499500D02*
G75*
G03*
X46400000Y42499500I-150000J0D01*
G01*
X86150000Y53800000D02*
G75*
G03*
X86150000Y53800000I-150000J0D01*
G01*
X71350000Y24300000D02*
G75*
G03*
X71350000Y24300000I-150000J0D01*
G01*
X106250000Y46050000D02*
G75*
G03*
X106250000Y46050000I-150000J0D01*
G01*
X31350000Y32300000D02*
G75*
G03*
X31350000Y32300000I-150000J0D01*
G01*
X101250000Y10800000D02*
G75*
G03*
X101250000Y10800000I-150000J0D01*
G01*
X65550000Y16100000D02*
G75*
G03*
X65550000Y16100000I-150000J0D01*
G01*
X23050000Y62550000D02*
G75*
G03*
X23050000Y62550000I-150000J0D01*
G01*
X67025500Y56174500D02*
G75*
G03*
X67025500Y56174500I-150000J0D01*
G01*
X65950000Y24500000D02*
G75*
G03*
X65950000Y24500000I-150000J0D01*
G01*
X71350000Y69500000D02*
G75*
G03*
X71350000Y69500000I-150000J0D01*
G01*
X11900000Y40850000D02*
G75*
G03*
X11900000Y40850000I-150000J0D01*
G01*
X50600500Y34630699D02*
G75*
G03*
X50600500Y34630699I-150000J0D01*
G01*
X93144115Y41837271D02*
G75*
G03*
X93144115Y41837271I-150000J0D01*
G01*
X4866784Y56759625D02*
G75*
G03*
X4866784Y56759625I-150000J0D01*
G01*
X64350000Y60950000D02*
G75*
G03*
X64350000Y60950000I-150000J0D01*
G01*
X26150000Y65950000D02*
G75*
G03*
X26150000Y65950000I-150000J0D01*
G01*
X44250000Y56975500D02*
G75*
G03*
X44250000Y56975500I-150000J0D01*
G01*
X50600500Y12030699D02*
G75*
G03*
X50600500Y12030699I-150000J0D01*
G01*
X86150000Y8600000D02*
G75*
G03*
X86150000Y8600000I-150000J0D01*
G01*
X107725500Y56174500D02*
G75*
G03*
X107725500Y56174500I-150000J0D01*
G01*
X30450000Y21850000D02*
G75*
G03*
X30450000Y21850000I-150000J0D01*
G01*
X67025500Y33574500D02*
G75*
G03*
X67025500Y33574500I-150000J0D01*
G01*
X66850000Y43350000D02*
G75*
G03*
X66850000Y43350000I-150000J0D01*
G01*
X106650000Y47100000D02*
G75*
G03*
X106650000Y47100000I-150000J0D01*
G01*
X11744115Y19237271D02*
G75*
G03*
X11744115Y19237271I-150000J0D01*
G01*
X30250000Y35900000D02*
G75*
G03*
X30250000Y35900000I-150000J0D01*
G01*
X112750000Y32300000D02*
G75*
G03*
X112750000Y32300000I-150000J0D01*
G01*
X19850000Y56000000D02*
G75*
G03*
X19850000Y56000000I-150000J0D01*
G01*
X65550000Y38700000D02*
G75*
G03*
X65550000Y38700000I-150000J0D01*
G01*
X44250000Y11775500D02*
G75*
G03*
X44250000Y11775500I-150000J0D01*
G01*
X4866784Y11559625D02*
G75*
G03*
X4866784Y11559625I-150000J0D01*
G01*
X8375500Y12824500D02*
G75*
G03*
X8375500Y12824500I-150000J0D01*
G01*
X12200000Y16800000D02*
G75*
G03*
X12200000Y16800000I-150000J0D01*
G01*
X49075500Y12824500D02*
G75*
G03*
X49075500Y12824500I-150000J0D01*
G01*
X87100000Y42499500D02*
G75*
G03*
X87100000Y42499500I-150000J0D01*
G01*
X104450000Y62550000D02*
G75*
G03*
X104450000Y62550000I-150000J0D01*
G01*
X64000000Y42300000D02*
G75*
G03*
X64000000Y42300000I-150000J0D01*
G01*
X45566784Y11559625D02*
G75*
G03*
X45566784Y11559625I-150000J0D01*
G01*
X107300000Y54200000D02*
G75*
G03*
X107300000Y54200000I-150000J0D01*
G01*
X70950000Y35900000D02*
G75*
G03*
X70950000Y35900000I-150000J0D01*
G01*
X32150500Y40200000D02*
G75*
G03*
X32150500Y40200000I-150000J0D01*
G01*
X31525500Y12262299D02*
G75*
G03*
X31525500Y12262299I-150000J0D01*
G01*
X89775500Y12824500D02*
G75*
G03*
X89775500Y12824500I-150000J0D01*
G01*
X72225500Y34862299D02*
G75*
G03*
X72225500Y34862299I-150000J0D01*
G01*
X72650000Y19800000D02*
G75*
G03*
X72650000Y19800000I-150000J0D01*
G01*
X65950000Y47100000D02*
G75*
G03*
X65950000Y47100000I-150000J0D01*
G01*
X72050000Y54900000D02*
G75*
G03*
X72050000Y54900000I-150000J0D01*
G01*
X19850000Y33400000D02*
G75*
G03*
X19850000Y33400000I-150000J0D01*
G01*
X9350000Y45900000D02*
G75*
G03*
X9350000Y45900000I-150000J0D01*
G01*
X45450000Y53800000D02*
G75*
G03*
X45450000Y53800000I-150000J0D01*
G01*
X25900000Y54200000D02*
G75*
G03*
X25900000Y54200000I-150000J0D01*
G01*
X89775500Y35424500D02*
G75*
G03*
X89775500Y35424500I-150000J0D01*
G01*
X52600000Y18250000D02*
G75*
G03*
X52600000Y18250000I-150000J0D01*
G01*
X11744115Y64437271D02*
G75*
G03*
X11744115Y64437271I-150000J0D01*
G01*
X93300000Y40850000D02*
G75*
G03*
X93300000Y40850000I-150000J0D01*
G01*
X23050000Y17350000D02*
G75*
G03*
X23050000Y17350000I-150000J0D01*
G01*
X113550500Y40200000D02*
G75*
G03*
X113550500Y40200000I-150000J0D01*
G01*
X113550500Y17600000D02*
G75*
G03*
X113550500Y17600000I-150000J0D01*
G01*
X86266784Y34159625D02*
G75*
G03*
X86266784Y34159625I-150000J0D01*
G01*
X112750000Y54900000D02*
G75*
G03*
X112750000Y54900000I-150000J0D01*
G01*
X46400000Y19899500D02*
G75*
G03*
X46400000Y19899500I-150000J0D01*
G01*
X105950000Y11200000D02*
G75*
G03*
X105950000Y11200000I-150000J0D01*
G01*
X106250000Y23450000D02*
G75*
G03*
X106250000Y23450000I-150000J0D01*
G01*
X45900000Y38300000D02*
G75*
G03*
X45900000Y38300000I-150000J0D01*
G01*
X49075500Y35424500D02*
G75*
G03*
X49075500Y35424500I-150000J0D01*
G01*
X65550000Y46050000D02*
G75*
G03*
X65550000Y46050000I-150000J0D01*
G01*
X86600000Y60900000D02*
G75*
G03*
X86600000Y60900000I-150000J0D01*
G01*
X84950000Y11775500D02*
G75*
G03*
X84950000Y11775500I-150000J0D01*
G01*
X105950000Y33800000D02*
G75*
G03*
X105950000Y33800000I-150000J0D01*
G01*
X8375500Y35424500D02*
G75*
G03*
X8375500Y35424500I-150000J0D01*
G01*
X26705074Y59744926D02*
G75*
G03*
X26705074Y59744926I-150000J0D01*
G01*
X93600000Y62000000D02*
G75*
G03*
X93600000Y62000000I-150000J0D01*
G01*
X60550000Y56000000D02*
G75*
G03*
X60550000Y56000000I-150000J0D01*
G01*
X65250000Y11200000D02*
G75*
G03*
X65250000Y11200000I-150000J0D01*
G01*
X23300000Y64900000D02*
G75*
G03*
X23300000Y64900000I-150000J0D01*
G01*
X101250000Y56000000D02*
G75*
G03*
X101250000Y56000000I-150000J0D01*
G01*
X52900000Y16800000D02*
G75*
G03*
X52900000Y16800000I-150000J0D01*
G01*
X24550000Y56400000D02*
G75*
G03*
X24550000Y56400000I-150000J0D01*
G01*
X31950000Y19800000D02*
G75*
G03*
X31950000Y19800000I-150000J0D01*
G01*
X24550000Y33800000D02*
G75*
G03*
X24550000Y33800000I-150000J0D01*
G01*
X55250000Y10050000D02*
G75*
G03*
X55250000Y10050000I-150000J0D01*
G01*
X64000000Y19700000D02*
G75*
G03*
X64000000Y19700000I-150000J0D01*
G01*
X104700000Y64900000D02*
G75*
G03*
X104700000Y64900000I-150000J0D01*
G01*
X72850500Y40200000D02*
G75*
G03*
X72850500Y40200000I-150000J0D01*
G01*
X32150500Y62800000D02*
G75*
G03*
X32150500Y62800000I-150000J0D01*
G01*
X12200000Y62000000D02*
G75*
G03*
X12200000Y62000000I-150000J0D01*
G01*
X112050000Y46900000D02*
G75*
G03*
X112050000Y46900000I-150000J0D01*
G01*
X60550000Y33400000D02*
G75*
G03*
X60550000Y33400000I-150000J0D01*
G01*
X65550000Y68650000D02*
G75*
G03*
X65550000Y68650000I-150000J0D01*
G01*
X45900000Y60900000D02*
G75*
G03*
X45900000Y60900000I-150000J0D01*
G01*
X93600000Y39400000D02*
G75*
G03*
X93600000Y39400000I-150000J0D01*
G01*
X4750000Y53800000D02*
G75*
G03*
X4750000Y53800000I-150000J0D01*
G01*
X55250000Y55250000D02*
G75*
G03*
X55250000Y55250000I-150000J0D01*
G01*
X52900000Y39400000D02*
G75*
G03*
X52900000Y39400000I-150000J0D01*
G01*
X31525500Y34862299D02*
G75*
G03*
X31525500Y34862299I-150000J0D01*
G01*
X84950000Y34375500D02*
G75*
G03*
X84950000Y34375500I-150000J0D01*
G01*
X23300000Y42300000D02*
G75*
G03*
X23300000Y42300000I-150000J0D01*
G01*
X44250000Y34375500D02*
G75*
G03*
X44250000Y34375500I-150000J0D01*
G01*
X20067241Y62807357D02*
G75*
G03*
X20067241Y62807357I-150000J0D01*
G01*
X93300000Y18250000D02*
G75*
G03*
X93300000Y18250000I-150000J0D01*
G01*
X60550000Y10800000D02*
G75*
G03*
X60550000Y10800000I-150000J0D01*
G01*
X66600000Y54200000D02*
G75*
G03*
X66600000Y54200000I-150000J0D01*
G01*
X65250000Y56400000D02*
G75*
G03*
X65250000Y56400000I-150000J0D01*
G01*
X71150000Y67050000D02*
G75*
G03*
X71150000Y67050000I-150000J0D01*
G01*
X101467241Y17607357D02*
G75*
G03*
X101467241Y17607357I-150000J0D01*
G01*
X52444115Y19237271D02*
G75*
G03*
X52444115Y19237271I-150000J0D01*
G01*
X65950000Y69700000D02*
G75*
G03*
X65950000Y69700000I-150000J0D01*
G01*
X45450000Y8600000D02*
G75*
G03*
X45450000Y8600000I-150000J0D01*
G01*
X91300500Y12030699D02*
G75*
G03*
X91300500Y12030699I-150000J0D01*
G01*
X105050000Y38350000D02*
G75*
G03*
X105050000Y38350000I-150000J0D01*
G01*
X72850500Y17600000D02*
G75*
G03*
X72850500Y17600000I-150000J0D01*
G01*
X113350000Y42400000D02*
G75*
G03*
X113350000Y42400000I-150000J0D01*
G01*
X86600000Y38300000D02*
G75*
G03*
X86600000Y38300000I-150000J0D01*
G01*
X52600000Y40850000D02*
G75*
G03*
X52600000Y40850000I-150000J0D01*
G01*
X24550000Y11200000D02*
G75*
G03*
X24550000Y11200000I-150000J0D01*
G01*
X45566784Y56759625D02*
G75*
G03*
X45566784Y56759625I-150000J0D01*
G01*
X30450000Y67050000D02*
G75*
G03*
X30450000Y67050000I-150000J0D01*
G01*
X52900000Y62000000D02*
G75*
G03*
X52900000Y62000000I-150000J0D01*
G01*
X112925500Y34862299D02*
G75*
G03*
X112925500Y34862299I-150000J0D01*
G01*
X90750000Y45900000D02*
G75*
G03*
X90750000Y45900000I-150000J0D01*
G01*
X24850000Y23450000D02*
G75*
G03*
X24850000Y23450000I-150000J0D01*
G01*
X95950000Y32650000D02*
G75*
G03*
X95950000Y32650000I-150000J0D01*
G01*
X71150000Y44450000D02*
G75*
G03*
X71150000Y44450000I-150000J0D01*
G01*
X11900000Y63450000D02*
G75*
G03*
X11900000Y63450000I-150000J0D01*
G01*
X89775500Y58024500D02*
G75*
G03*
X89775500Y58024500I-150000J0D01*
G01*
X104700000Y42300000D02*
G75*
G03*
X104700000Y42300000I-150000J0D01*
G01*
X14550000Y10050000D02*
G75*
G03*
X14550000Y10050000I-150000J0D01*
G01*
X30250000Y58500000D02*
G75*
G03*
X30250000Y58500000I-150000J0D01*
G01*
X72850500Y62800000D02*
G75*
G03*
X72850500Y62800000I-150000J0D01*
G01*
X4750000Y8600000D02*
G75*
G03*
X4750000Y8600000I-150000J0D01*
G01*
X65550000Y23450000D02*
G75*
G03*
X65550000Y23450000I-150000J0D01*
G01*
X46400000Y65099500D02*
G75*
G03*
X46400000Y65099500I-150000J0D01*
G01*
X26150000Y20750000D02*
G75*
G03*
X26150000Y20750000I-150000J0D01*
G01*
X95950000Y55250000D02*
G75*
G03*
X95950000Y55250000I-150000J0D01*
G01*
X111650000Y13300000D02*
G75*
G03*
X111650000Y13300000I-150000J0D01*
G01*
X31350000Y54900000D02*
G75*
G03*
X31350000Y54900000I-150000J0D01*
G01*
X108105074Y37144926D02*
G75*
G03*
X108105074Y37144926I-150000J0D01*
G01*
X90750000Y68500000D02*
G75*
G03*
X90750000Y68500000I-150000J0D01*
G01*
X90750000Y23300000D02*
G75*
G03*
X90750000Y23300000I-150000J0D01*
G01*
X106250000Y16100000D02*
G75*
G03*
X106250000Y16100000I-150000J0D01*
G01*
X111850000Y21850000D02*
G75*
G03*
X111850000Y21850000I-150000J0D01*
G01*
X26705074Y37144926D02*
G75*
G03*
X26705074Y37144926I-150000J0D01*
G01*
X72225500Y12262299D02*
G75*
G03*
X72225500Y12262299I-150000J0D01*
G01*
X107550000Y43350000D02*
G75*
G03*
X107550000Y43350000I-150000J0D01*
G01*
X25900000Y9000000D02*
G75*
G03*
X25900000Y9000000I-150000J0D01*
G01*
X104450000Y17350000D02*
G75*
G03*
X104450000Y17350000I-150000J0D01*
G01*
X4750000Y31200000D02*
G75*
G03*
X4750000Y31200000I-150000J0D01*
G01*
X26150000Y43350000D02*
G75*
G03*
X26150000Y43350000I-150000J0D01*
G01*
X93144115Y64437271D02*
G75*
G03*
X93144115Y64437271I-150000J0D01*
G01*
X64000000Y64900000D02*
G75*
G03*
X64000000Y64900000I-150000J0D01*
G01*
X5700000Y19899500D02*
G75*
G03*
X5700000Y19899500I-150000J0D01*
G01*
X30650000Y69500000D02*
G75*
G03*
X30650000Y69500000I-150000J0D01*
G01*
X91300500Y57230699D02*
G75*
G03*
X91300500Y57230699I-150000J0D01*
G01*
X72050000Y9700000D02*
G75*
G03*
X72050000Y9700000I-150000J0D01*
G01*
X71350000Y46900000D02*
G75*
G03*
X71350000Y46900000I-150000J0D01*
G01*
X71150000Y21850000D02*
G75*
G03*
X71150000Y21850000I-150000J0D01*
G01*
X111850000Y67050000D02*
G75*
G03*
X111850000Y67050000I-150000J0D01*
G01*
X104700000Y19700000D02*
G75*
G03*
X104700000Y19700000I-150000J0D01*
G01*
X93144115Y19237271D02*
G75*
G03*
X93144115Y19237271I-150000J0D01*
G01*
X66600000Y9000000D02*
G75*
G03*
X66600000Y9000000I-150000J0D01*
G01*
X86600000Y15700000D02*
G75*
G03*
X86600000Y15700000I-150000J0D01*
G01*
X50050000Y23300000D02*
G75*
G03*
X50050000Y23300000I-150000J0D01*
G01*
X30450000Y44450000D02*
G75*
G03*
X30450000Y44450000I-150000J0D01*
G01*
X60767241Y62807357D02*
G75*
G03*
X60767241Y62807357I-150000J0D01*
G01*
X9350000Y68500000D02*
G75*
G03*
X9350000Y68500000I-150000J0D01*
G01*
X70950000Y58500000D02*
G75*
G03*
X70950000Y58500000I-150000J0D01*
G01*
X45566784Y34159625D02*
G75*
G03*
X45566784Y34159625I-150000J0D01*
G01*
X52444115Y41837271D02*
G75*
G03*
X52444115Y41837271I-150000J0D01*
G01*
X106650000Y69700000D02*
G75*
G03*
X106650000Y69700000I-150000J0D01*
G01*
X113350000Y65000000D02*
G75*
G03*
X113350000Y65000000I-150000J0D01*
G01*
X26325500Y56174500D02*
G75*
G03*
X26325500Y56174500I-150000J0D01*
G01*
X9900500Y12030699D02*
G75*
G03*
X9900500Y12030699I-150000J0D01*
G01*
X60767241Y40207357D02*
G75*
G03*
X60767241Y40207357I-150000J0D01*
G01*
X20067241Y17607357D02*
G75*
G03*
X20067241Y17607357I-150000J0D01*
G01*
X113550500Y62800000D02*
G75*
G03*
X113550500Y62800000I-150000J0D01*
G01*
X101467241Y40207357D02*
G75*
G03*
X101467241Y40207357I-150000J0D01*
G01*
X63750000Y62550000D02*
G75*
G03*
X63750000Y62550000I-150000J0D01*
G01*
X67405074Y59744926D02*
G75*
G03*
X67405074Y59744926I-150000J0D01*
G01*
X30650000Y24300000D02*
G75*
G03*
X30650000Y24300000I-150000J0D01*
G01*
X113350000Y19800000D02*
G75*
G03*
X113350000Y19800000I-150000J0D01*
G01*
X66600000Y31600000D02*
G75*
G03*
X66600000Y31600000I-150000J0D01*
G01*
X67405074Y14544926D02*
G75*
G03*
X67405074Y14544926I-150000J0D01*
G01*
X24850000Y68650000D02*
G75*
G03*
X24850000Y68650000I-150000J0D01*
G01*
X14550000Y55250000D02*
G75*
G03*
X14550000Y55250000I-150000J0D01*
G01*
X49075500Y58024500D02*
G75*
G03*
X49075500Y58024500I-150000J0D01*
G01*
X31525500Y57462299D02*
G75*
G03*
X31525500Y57462299I-150000J0D01*
G01*
X106250000Y68650000D02*
G75*
G03*
X106250000Y68650000I-150000J0D01*
G01*
X11900000Y18250000D02*
G75*
G03*
X11900000Y18250000I-150000J0D01*
G01*
X12200000Y39400000D02*
G75*
G03*
X12200000Y39400000I-150000J0D01*
G01*
X50050000Y68500000D02*
G75*
G03*
X50050000Y68500000I-150000J0D01*
G01*
X105050000Y60950000D02*
G75*
G03*
X105050000Y60950000I-150000J0D01*
G01*
X106250000Y38700000D02*
G75*
G03*
X106250000Y38700000I-150000J0D01*
G01*
X112750000Y9700000D02*
G75*
G03*
X112750000Y9700000I-150000J0D01*
G01*
X106650000Y24500000D02*
G75*
G03*
X106650000Y24500000I-150000J0D01*
G01*
X25250000Y69700000D02*
G75*
G03*
X25250000Y69700000I-150000J0D01*
G01*
X107725500Y10974500D02*
G75*
G03*
X107725500Y10974500I-150000J0D01*
G01*
X107300000Y31600000D02*
G75*
G03*
X107300000Y31600000I-150000J0D01*
G01*
X86150000Y31200000D02*
G75*
G03*
X86150000Y31200000I-150000J0D01*
G01*
X108105074Y14544926D02*
G75*
G03*
X108105074Y14544926I-150000J0D01*
G01*
X87100000Y19899500D02*
G75*
G03*
X87100000Y19899500I-150000J0D01*
G01*
X107725500Y33574500D02*
G75*
G03*
X107725500Y33574500I-150000J0D01*
G01*
X84950000Y56975500D02*
G75*
G03*
X84950000Y56975500I-150000J0D01*
G01*
X86266784Y56759625D02*
G75*
G03*
X86266784Y56759625I-150000J0D01*
G01*
X52600000Y63450000D02*
G75*
G03*
X52600000Y63450000I-150000J0D01*
G01*
X63750000Y17350000D02*
G75*
G03*
X63750000Y17350000I-150000J0D01*
G01*
X108105074Y59744926D02*
G75*
G03*
X108105074Y59744926I-150000J0D01*
G01*
X107550000Y65950000D02*
G75*
G03*
X107550000Y65950000I-150000J0D01*
G01*
X93300000Y63450000D02*
G75*
G03*
X93300000Y63450000I-150000J0D01*
G01*
X72050000Y32300000D02*
G75*
G03*
X72050000Y32300000I-150000J0D01*
G01*
X24850000Y46050000D02*
G75*
G03*
X24850000Y46050000I-150000J0D01*
G01*
X9900500Y57230699D02*
G75*
G03*
X9900500Y57230699I-150000J0D01*
G01*
X14550000Y32650000D02*
G75*
G03*
X14550000Y32650000I-150000J0D01*
G01*
X112050000Y24300000D02*
G75*
G03*
X112050000Y24300000I-150000J0D01*
G01*
X26325500Y33574500D02*
G75*
G03*
X26325500Y33574500I-150000J0D01*
G01*
X66850000Y65950000D02*
G75*
G03*
X66850000Y65950000I-150000J0D01*
G01*
X25900000Y31600000D02*
G75*
G03*
X25900000Y31600000I-150000J0D01*
G01*
X24850000Y16100000D02*
G75*
G03*
X24850000Y16100000I-150000J0D01*
G01*
X101467241Y62807357D02*
G75*
G03*
X101467241Y62807357I-150000J0D01*
G01*
X3550000Y56975500D02*
G75*
G03*
X3550000Y56975500I-150000J0D01*
G01*
X45450000Y31200000D02*
G75*
G03*
X45450000Y31200000I-150000J0D01*
G01*
X8375500Y58024500D02*
G75*
G03*
X8375500Y58024500I-150000J0D01*
G01*
X111650000Y58500000D02*
G75*
G03*
X111650000Y58500000I-150000J0D01*
G01*
X64350000Y38350000D02*
G75*
G03*
X64350000Y38350000I-150000J0D01*
G01*
X50050000Y45900000D02*
G75*
G03*
X50050000Y45900000I-150000J0D01*
G01*
X67025500Y10974500D02*
G75*
G03*
X67025500Y10974500I-150000J0D01*
G01*
X50600500Y57230699D02*
G75*
G03*
X50600500Y57230699I-150000J0D01*
G01*
X5700000Y65099500D02*
G75*
G03*
X5700000Y65099500I-150000J0D01*
G01*
X72650000Y65000000D02*
G75*
G03*
X72650000Y65000000I-150000J0D01*
G01*
X107300000Y9000000D02*
G75*
G03*
X107300000Y9000000I-150000J0D01*
G01*
X107550000Y20750000D02*
G75*
G03*
X107550000Y20750000I-150000J0D01*
G01*
X63750000Y39950000D02*
G75*
G03*
X63750000Y39950000I-150000J0D01*
G01*
X3550000Y11775500D02*
G75*
G03*
X3550000Y11775500I-150000J0D01*
G01*
X66850000Y20750000D02*
G75*
G03*
X66850000Y20750000I-150000J0D01*
G01*
X104450000Y39950000D02*
G75*
G03*
X104450000Y39950000I-150000J0D01*
G01*
X23650000Y60950000D02*
G75*
G03*
X23650000Y60950000I-150000J0D01*
G01*
X95950000Y10050000D02*
G75*
G03*
X95950000Y10050000I-150000J0D01*
G01*
X112925500Y12262299D02*
G75*
G03*
X112925500Y12262299I-150000J0D01*
G01*
X20067241Y40207357D02*
G75*
G03*
X20067241Y40207357I-150000J0D01*
G01*
X65550000Y61300000D02*
G75*
G03*
X65550000Y61300000I-150000J0D01*
G01*
X111650000Y35900000D02*
G75*
G03*
X111650000Y35900000I-150000J0D01*
G01*
X4866784Y34159625D02*
G75*
G03*
X4866784Y34159625I-150000J0D01*
G01*
X31950000Y42400000D02*
G75*
G03*
X31950000Y42400000I-150000J0D01*
G01*
X65250000Y33800000D02*
G75*
G03*
X65250000Y33800000I-150000J0D01*
G01*
X64350000Y15750000D02*
G75*
G03*
X64350000Y15750000I-150000J0D01*
G01*
X5200000Y38300000D02*
G75*
G03*
X5200000Y38300000I-150000J0D01*
G01*
X3550000Y34375500D02*
G75*
G03*
X3550000Y34375500I-150000J0D01*
G01*
X25250000Y24500000D02*
G75*
G03*
X25250000Y24500000I-150000J0D01*
G01*
X23650000Y38350000D02*
G75*
G03*
X23650000Y38350000I-150000J0D01*
G01*
X60767241Y17607357D02*
G75*
G03*
X60767241Y17607357I-150000J0D01*
G01*
X72650000Y42400000D02*
G75*
G03*
X72650000Y42400000I-150000J0D01*
G01*
X23300000Y19700000D02*
G75*
G03*
X23300000Y19700000I-150000J0D01*
G01*
X93600000Y16800000D02*
G75*
G03*
X93600000Y16800000I-150000J0D01*
G01*
X26705074Y14544926D02*
G75*
G03*
X26705074Y14544926I-150000J0D01*
G01*
X31950000Y65000000D02*
G75*
G03*
X31950000Y65000000I-150000J0D01*
G01*
X26325500Y10974500D02*
G75*
G03*
X26325500Y10974500I-150000J0D01*
G01*
X9350000Y23300000D02*
G75*
G03*
X9350000Y23300000I-150000J0D01*
G01*
X72225500Y57462299D02*
G75*
G03*
X72225500Y57462299I-150000J0D01*
G01*
X25250000Y47100000D02*
G75*
G03*
X25250000Y47100000I-150000J0D01*
G01*
X23050000Y39950000D02*
G75*
G03*
X23050000Y39950000I-150000J0D01*
G01*
X86266784Y11559625D02*
G75*
G03*
X86266784Y11559625I-150000J0D01*
G01*
%TO.C,NB2*%
D11*
X42500000Y61850000D02*
X41000000Y61850000D01*
X41000000Y63750000D01*
X42500000Y63750000D01*
X42500000Y61850000D01*
G36*
X42500000Y61850000D02*
G01*
X41000000Y61850000D01*
X41000000Y63750000D01*
X42500000Y63750000D01*
X42500000Y61850000D01*
G37*
%TO.C,NB3*%
X117250000Y30850000D02*
X115550000Y30850000D01*
X115550000Y32550000D01*
X117250000Y32550000D01*
X117250000Y30850000D01*
G36*
X117250000Y30850000D02*
G01*
X115550000Y30850000D01*
X115550000Y32550000D01*
X117250000Y32550000D01*
X117250000Y30850000D01*
G37*
%TO.C,NB4*%
X43050000Y47850000D02*
X41350000Y47850000D01*
X41350000Y49550000D01*
X43050000Y49550000D01*
X43050000Y47850000D01*
G36*
X43050000Y47850000D02*
G01*
X41350000Y47850000D01*
X41350000Y49550000D01*
X43050000Y49550000D01*
X43050000Y47850000D01*
G37*
%TO.C,NB2*%
X42500000Y16650000D02*
X41000000Y16650000D01*
X41000000Y18550000D01*
X42500000Y18550000D01*
X42500000Y16650000D01*
G36*
X42500000Y16650000D02*
G01*
X41000000Y16650000D01*
X41000000Y18550000D01*
X42500000Y18550000D01*
X42500000Y16650000D01*
G37*
%TO.C,NB4*%
X43050000Y25250000D02*
X41350000Y25250000D01*
X41350000Y26950000D01*
X43050000Y26950000D01*
X43050000Y25250000D01*
G36*
X43050000Y25250000D02*
G01*
X41350000Y25250000D01*
X41350000Y26950000D01*
X43050000Y26950000D01*
X43050000Y25250000D01*
G37*
%TO.C,NB2*%
X83200000Y61850000D02*
X81700000Y61850000D01*
X81700000Y63750000D01*
X83200000Y63750000D01*
X83200000Y61850000D01*
G36*
X83200000Y61850000D02*
G01*
X81700000Y61850000D01*
X81700000Y63750000D01*
X83200000Y63750000D01*
X83200000Y61850000D01*
G37*
X1800000Y61850000D02*
X300000Y61850000D01*
X300000Y63750000D01*
X1800000Y63750000D01*
X1800000Y61850000D01*
G36*
X1800000Y61850000D02*
G01*
X300000Y61850000D01*
X300000Y63750000D01*
X1800000Y63750000D01*
X1800000Y61850000D01*
G37*
%TO.C,NB3*%
X117250000Y8250000D02*
X115550000Y8250000D01*
X115550000Y9950000D01*
X117250000Y9950000D01*
X117250000Y8250000D01*
G36*
X117250000Y8250000D02*
G01*
X115550000Y8250000D01*
X115550000Y9950000D01*
X117250000Y9950000D01*
X117250000Y8250000D01*
G37*
%TO.C,NB4*%
X2350000Y70450000D02*
X650000Y70450000D01*
X650000Y72150000D01*
X2350000Y72150000D01*
X2350000Y70450000D01*
G36*
X2350000Y70450000D02*
G01*
X650000Y70450000D01*
X650000Y72150000D01*
X2350000Y72150000D01*
X2350000Y70450000D01*
G37*
X83750000Y47850000D02*
X82050000Y47850000D01*
X82050000Y49550000D01*
X83750000Y49550000D01*
X83750000Y47850000D01*
G36*
X83750000Y47850000D02*
G01*
X82050000Y47850000D01*
X82050000Y49550000D01*
X83750000Y49550000D01*
X83750000Y47850000D01*
G37*
%TO.C,NB2*%
X83200000Y39250000D02*
X81700000Y39250000D01*
X81700000Y41150000D01*
X83200000Y41150000D01*
X83200000Y39250000D01*
G36*
X83200000Y39250000D02*
G01*
X81700000Y39250000D01*
X81700000Y41150000D01*
X83200000Y41150000D01*
X83200000Y39250000D01*
G37*
%TO.C,NB3*%
X76550000Y8250000D02*
X74850000Y8250000D01*
X74850000Y9950000D01*
X76550000Y9950000D01*
X76550000Y8250000D01*
G36*
X76550000Y8250000D02*
G01*
X74850000Y8250000D01*
X74850000Y9950000D01*
X76550000Y9950000D01*
X76550000Y8250000D01*
G37*
%TO.C,NB2*%
X83200000Y16650000D02*
X81700000Y16650000D01*
X81700000Y18550000D01*
X83200000Y18550000D01*
X83200000Y16650000D01*
G36*
X83200000Y16650000D02*
G01*
X81700000Y16650000D01*
X81700000Y18550000D01*
X83200000Y18550000D01*
X83200000Y16650000D01*
G37*
X1800000Y16650000D02*
X300000Y16650000D01*
X300000Y18550000D01*
X1800000Y18550000D01*
X1800000Y16650000D01*
G36*
X1800000Y16650000D02*
G01*
X300000Y16650000D01*
X300000Y18550000D01*
X1800000Y18550000D01*
X1800000Y16650000D01*
G37*
%TO.C,NB3*%
X76550000Y30850000D02*
X74850000Y30850000D01*
X74850000Y32550000D01*
X76550000Y32550000D01*
X76550000Y30850000D01*
G36*
X76550000Y30850000D02*
G01*
X74850000Y30850000D01*
X74850000Y32550000D01*
X76550000Y32550000D01*
X76550000Y30850000D01*
G37*
%TO.C,NB2*%
X1800000Y39250000D02*
X300000Y39250000D01*
X300000Y41150000D01*
X1800000Y41150000D01*
X1800000Y39250000D01*
G36*
X1800000Y39250000D02*
G01*
X300000Y39250000D01*
X300000Y41150000D01*
X1800000Y41150000D01*
X1800000Y39250000D01*
G37*
%TO.C,NB4*%
X83750000Y25250000D02*
X82050000Y25250000D01*
X82050000Y26950000D01*
X83750000Y26950000D01*
X83750000Y25250000D01*
G36*
X83750000Y25250000D02*
G01*
X82050000Y25250000D01*
X82050000Y26950000D01*
X83750000Y26950000D01*
X83750000Y25250000D01*
G37*
%TO.C,NB3*%
X35850000Y53450000D02*
X34150000Y53450000D01*
X34150000Y55150000D01*
X35850000Y55150000D01*
X35850000Y53450000D01*
G36*
X35850000Y53450000D02*
G01*
X34150000Y53450000D01*
X34150000Y55150000D01*
X35850000Y55150000D01*
X35850000Y53450000D01*
G37*
%TO.C,NB2*%
X42500000Y39250000D02*
X41000000Y39250000D01*
X41000000Y41150000D01*
X42500000Y41150000D01*
X42500000Y39250000D01*
G36*
X42500000Y39250000D02*
G01*
X41000000Y39250000D01*
X41000000Y41150000D01*
X42500000Y41150000D01*
X42500000Y39250000D01*
G37*
%TO.C,NB4*%
X43050000Y70450000D02*
X41350000Y70450000D01*
X41350000Y72150000D01*
X43050000Y72150000D01*
X43050000Y70450000D01*
G36*
X43050000Y70450000D02*
G01*
X41350000Y70450000D01*
X41350000Y72150000D01*
X43050000Y72150000D01*
X43050000Y70450000D01*
G37*
%TO.C,NB3*%
X76550000Y53450000D02*
X74850000Y53450000D01*
X74850000Y55150000D01*
X76550000Y55150000D01*
X76550000Y53450000D01*
G36*
X76550000Y53450000D02*
G01*
X74850000Y53450000D01*
X74850000Y55150000D01*
X76550000Y55150000D01*
X76550000Y53450000D01*
G37*
%TO.C,NB4*%
X83750000Y70450000D02*
X82050000Y70450000D01*
X82050000Y72150000D01*
X83750000Y72150000D01*
X83750000Y70450000D01*
G36*
X83750000Y70450000D02*
G01*
X82050000Y70450000D01*
X82050000Y72150000D01*
X83750000Y72150000D01*
X83750000Y70450000D01*
G37*
%TO.C,NB3*%
X35850000Y30850000D02*
X34150000Y30850000D01*
X34150000Y32550000D01*
X35850000Y32550000D01*
X35850000Y30850000D01*
G36*
X35850000Y30850000D02*
G01*
X34150000Y30850000D01*
X34150000Y32550000D01*
X35850000Y32550000D01*
X35850000Y30850000D01*
G37*
X35850000Y8250000D02*
X34150000Y8250000D01*
X34150000Y9950000D01*
X35850000Y9950000D01*
X35850000Y8250000D01*
G36*
X35850000Y8250000D02*
G01*
X34150000Y8250000D01*
X34150000Y9950000D01*
X35850000Y9950000D01*
X35850000Y8250000D01*
G37*
%TO.C,NB4*%
X2350000Y47850000D02*
X650000Y47850000D01*
X650000Y49550000D01*
X2350000Y49550000D01*
X2350000Y47850000D01*
G36*
X2350000Y47850000D02*
G01*
X650000Y47850000D01*
X650000Y49550000D01*
X2350000Y49550000D01*
X2350000Y47850000D01*
G37*
%TO.C,NB3*%
X117250000Y53450000D02*
X115550000Y53450000D01*
X115550000Y55150000D01*
X117250000Y55150000D01*
X117250000Y53450000D01*
G36*
X117250000Y53450000D02*
G01*
X115550000Y53450000D01*
X115550000Y55150000D01*
X117250000Y55150000D01*
X117250000Y53450000D01*
G37*
%TO.C,NB4*%
X2350000Y25250000D02*
X650000Y25250000D01*
X650000Y26950000D01*
X2350000Y26950000D01*
X2350000Y25250000D01*
G36*
X2350000Y25250000D02*
G01*
X650000Y25250000D01*
X650000Y26950000D01*
X2350000Y26950000D01*
X2350000Y25250000D01*
G37*
%TD*%
D12*
%TO.C,R2*%
X90650000Y70000000D03*
X89150000Y70000000D03*
%TD*%
D13*
%TO.C,TP4*%
X19200000Y22300000D03*
%TD*%
D14*
%TO.C,C2*%
X22400000Y42300000D03*
X20900000Y42300000D03*
%TD*%
D15*
%TO.C,R5*%
X11000000Y25400000D03*
X11000000Y23900000D03*
%TD*%
%TO.C,R3*%
X95600000Y70600000D03*
X95600000Y69100000D03*
%TD*%
D16*
%TO.C,X1*%
X6605000Y67710000D03*
D17*
X2425000Y67710000D03*
D18*
X6105000Y66040000D03*
X6105000Y60260000D03*
D16*
X6605000Y58590000D03*
D17*
X2425000Y58590000D03*
D19*
X7180000Y66350000D03*
X7180000Y65550000D03*
D20*
X7180000Y64400000D03*
X7180000Y63400000D03*
X7180000Y62900000D03*
X7180000Y61900000D03*
D19*
X7180000Y59950000D03*
X7180000Y60750000D03*
D20*
X7180000Y61400000D03*
X7180000Y62400000D03*
X7180000Y63900000D03*
X7180000Y64900000D03*
D21*
X6605000Y67470000D03*
D22*
X2425000Y67470000D03*
D21*
X6605000Y58830000D03*
D22*
X2425000Y58830000D03*
%TD*%
D23*
%TO.C,X3*%
X87940000Y10100000D03*
X82860000Y9084000D03*
X82860000Y11116000D03*
X86670000Y10735000D03*
X86670000Y9466000D03*
X85400000Y10735000D03*
X85400000Y9465000D03*
X84130000Y10735000D03*
X84130000Y9465000D03*
%TD*%
D24*
%TO.C,X2*%
X116500000Y34660000D03*
D25*
X116500000Y37430000D03*
X116500000Y40200000D03*
X116500000Y42970000D03*
X116500000Y45740000D03*
%TD*%
D26*
%TO.C,C3*%
X62250000Y21450000D03*
X62250000Y22950000D03*
%TD*%
%TO.C,C3*%
X62250000Y66650000D03*
X62250000Y68150000D03*
%TD*%
D27*
%TO.C,C4*%
X20450000Y37600000D03*
X21950000Y37600000D03*
%TD*%
D24*
%TO.C,X2*%
X75800000Y34660000D03*
D25*
X75800000Y37430000D03*
X75800000Y40200000D03*
X75800000Y42970000D03*
X75800000Y45740000D03*
%TD*%
D28*
%TO.C,U3*%
X22500000Y35705000D03*
X22500000Y34435000D03*
X22500000Y33165000D03*
X22500000Y31895000D03*
X27900000Y31895000D03*
X27900000Y33165000D03*
X27900000Y34435000D03*
X27900000Y35705000D03*
%TD*%
D29*
%TO.C,D1*%
X56500000Y70599300D03*
X56500000Y69100700D03*
%TD*%
D12*
%TO.C,R6*%
X57900000Y55250000D03*
X56400000Y55250000D03*
%TD*%
D24*
%TO.C,X2*%
X75800000Y12060000D03*
D25*
X75800000Y14830000D03*
X75800000Y17600000D03*
X75800000Y20370000D03*
X75800000Y23140000D03*
%TD*%
D30*
%TO.C,P2*%
X9580000Y32450000D03*
D31*
X12120000Y32450000D03*
%TD*%
D32*
%TO.C,R1*%
X86500000Y47400000D03*
X88000000Y47400000D03*
%TD*%
D33*
%TO.C,C7*%
X64250000Y44050000D03*
X64250000Y46050000D03*
%TD*%
D13*
%TO.C,TP5*%
X90700000Y67400000D03*
%TD*%
D28*
%TO.C,U3*%
X63200000Y58305000D03*
X63200000Y57035000D03*
X63200000Y55765000D03*
X63200000Y54495000D03*
X68600000Y54495000D03*
X68600000Y55765000D03*
X68600000Y57035000D03*
X68600000Y58305000D03*
%TD*%
D13*
%TO.C,TP4*%
X19200000Y44900000D03*
%TD*%
D23*
%TO.C,X3*%
X87940000Y32700000D03*
X82860000Y31684000D03*
X82860000Y33716000D03*
X86670000Y33335000D03*
X86670000Y32066000D03*
X85400000Y33335000D03*
X85400000Y32065000D03*
X84130000Y33335000D03*
X84130000Y32065000D03*
%TD*%
D27*
%TO.C,C4*%
X101850000Y60200000D03*
X103350000Y60200000D03*
%TD*%
D23*
%TO.C,X3*%
X6540000Y32700000D03*
X1460000Y31684000D03*
X1460000Y33716000D03*
X5270000Y33335000D03*
X5270000Y32066000D03*
X4000000Y33335000D03*
X4000000Y32065000D03*
X2730000Y33335000D03*
X2730000Y32065000D03*
%TD*%
D13*
%TO.C,TP5*%
X50000000Y22200000D03*
%TD*%
D14*
%TO.C,C1*%
X63100000Y63300000D03*
X61600000Y63300000D03*
%TD*%
D34*
%TO.C,Y1*%
X105750000Y19550000D03*
X105750000Y17350000D03*
X107350000Y17350000D03*
X107350000Y19550000D03*
%TD*%
D13*
%TO.C,TP4*%
X19200000Y67500000D03*
%TD*%
D35*
%TO.C,U1*%
X18425000Y14760000D03*
D36*
X18425000Y15350000D03*
X18425000Y15850000D03*
X18425000Y16350000D03*
X18425000Y16850000D03*
X18425000Y17350000D03*
X18425000Y17850000D03*
X18425000Y18350000D03*
X18425000Y18850000D03*
X18425000Y19350000D03*
X18425000Y19850000D03*
D35*
X18425000Y20440000D03*
D37*
X16840000Y22025000D03*
D38*
X16250000Y22025000D03*
X15750000Y22025000D03*
X15250000Y22025000D03*
X14750000Y22025000D03*
X14250000Y22025000D03*
X13750000Y22025000D03*
X13250000Y22025000D03*
X12750000Y22025000D03*
X12250000Y22025000D03*
X11750000Y22025000D03*
D37*
X11160000Y22025000D03*
D39*
X9575000Y20440000D03*
D40*
X9575000Y19850000D03*
X9575000Y19350000D03*
X9575000Y18850000D03*
X9575000Y18350000D03*
X9575000Y17850000D03*
X9575000Y17350000D03*
X9575000Y16850000D03*
X9575000Y16350000D03*
X9575000Y15850000D03*
X9575000Y15350000D03*
D39*
X9575000Y14760000D03*
D41*
X11160000Y13175000D03*
D42*
X11750000Y13175000D03*
X12250000Y13175000D03*
X12750000Y13175000D03*
X13250000Y13175000D03*
X13750000Y13175000D03*
X14250000Y13175000D03*
X14750000Y13175000D03*
X15250000Y13175000D03*
X15750000Y13175000D03*
X16250000Y13175000D03*
D41*
X16840000Y13175000D03*
%TD*%
D14*
%TO.C,C2*%
X103800000Y42300000D03*
X102300000Y42300000D03*
%TD*%
D15*
%TO.C,R4*%
X98800000Y70600000D03*
X98800000Y69100000D03*
%TD*%
D14*
%TO.C,C2*%
X103800000Y64900000D03*
X102300000Y64900000D03*
%TD*%
D43*
%TO.C,U2*%
X66750000Y25100000D03*
D44*
X67100000Y23600000D03*
D45*
X69137500Y23600000D03*
D43*
X66750000Y22100000D03*
%TD*%
D29*
%TO.C,D2*%
X19000000Y25399300D03*
X19000000Y23900700D03*
%TD*%
D15*
%TO.C,R5*%
X92400000Y25400000D03*
X92400000Y23900000D03*
%TD*%
D34*
%TO.C,Y1*%
X65050000Y19550000D03*
X65050000Y17350000D03*
X66650000Y17350000D03*
X66650000Y19550000D03*
%TD*%
D13*
%TO.C,TP4*%
X59900000Y44900000D03*
%TD*%
D12*
%TO.C,R2*%
X9250000Y24800000D03*
X7750000Y24800000D03*
%TD*%
D28*
%TO.C,U3*%
X63200000Y13105000D03*
X63200000Y11835000D03*
X63200000Y10565000D03*
X63200000Y9295000D03*
X68600000Y9295000D03*
X68600000Y10565000D03*
X68600000Y11835000D03*
X68600000Y13105000D03*
%TD*%
D43*
%TO.C,U2*%
X26050000Y70300000D03*
D44*
X26400000Y68800000D03*
D45*
X28437500Y68800000D03*
D43*
X26050000Y67300000D03*
%TD*%
D29*
%TO.C,D2*%
X100400000Y25399300D03*
X100400000Y23900700D03*
%TD*%
D46*
%TO.C,R7*%
X29900000Y62400000D03*
X29900000Y60500000D03*
%TD*%
D30*
%TO.C,P2*%
X9580000Y55050000D03*
D31*
X12120000Y55050000D03*
%TD*%
D12*
%TO.C,R6*%
X17200000Y55250000D03*
X15700000Y55250000D03*
%TD*%
%TO.C,R2*%
X49950000Y70000000D03*
X48450000Y70000000D03*
%TD*%
D15*
%TO.C,R3*%
X95600000Y25400000D03*
X95600000Y23900000D03*
%TD*%
D29*
%TO.C,D2*%
X59700000Y47999300D03*
X59700000Y46500700D03*
%TD*%
D26*
%TO.C,C3*%
X102950000Y44050000D03*
X102950000Y45550000D03*
%TD*%
D14*
%TO.C,C1*%
X103800000Y18100000D03*
X102300000Y18100000D03*
%TD*%
D43*
%TO.C,U2*%
X26050000Y47700000D03*
D44*
X26400000Y46200000D03*
D45*
X28437500Y46200000D03*
D43*
X26050000Y44700000D03*
%TD*%
D15*
%TO.C,R4*%
X17400000Y25400000D03*
X17400000Y23900000D03*
%TD*%
D13*
%TO.C,TP5*%
X50000000Y67400000D03*
%TD*%
D26*
%TO.C,C10*%
X20800000Y32950000D03*
X20800000Y34450000D03*
%TD*%
D30*
%TO.C,P1*%
X114000000Y71150000D03*
D31*
X116540000Y71150000D03*
%TD*%
D13*
%TO.C,TP4*%
X59900000Y22300000D03*
%TD*%
D15*
%TO.C,R5*%
X92400000Y70600000D03*
X92400000Y69100000D03*
%TD*%
D12*
%TO.C,R6*%
X98600000Y32650000D03*
X97100000Y32650000D03*
%TD*%
D15*
%TO.C,R5*%
X51700000Y70600000D03*
X51700000Y69100000D03*
%TD*%
D28*
%TO.C,U3*%
X22500000Y13105000D03*
X22500000Y11835000D03*
X22500000Y10565000D03*
X22500000Y9295000D03*
X27900000Y9295000D03*
X27900000Y10565000D03*
X27900000Y11835000D03*
X27900000Y13105000D03*
%TD*%
D47*
%TO.C,C6*%
X64900000Y47950000D03*
X62900000Y47950000D03*
%TD*%
D34*
%TO.C,Y1*%
X105750000Y64750000D03*
X105750000Y62550000D03*
X107350000Y62550000D03*
X107350000Y64750000D03*
%TD*%
D13*
%TO.C,REF\u002A\u002A*%
X5000000Y2500000D03*
%TD*%
%TO.C,REF\u002A\u002A*%
X5000000Y77900000D03*
%TD*%
D29*
%TO.C,D1*%
X15800000Y25399300D03*
X15800000Y23900700D03*
%TD*%
D34*
%TO.C,Y1*%
X65050000Y64750000D03*
X65050000Y62550000D03*
X66650000Y62550000D03*
X66650000Y64750000D03*
%TD*%
D13*
%TO.C,TP4*%
X59900000Y67500000D03*
%TD*%
D24*
%TO.C,X2*%
X35100000Y57260000D03*
D25*
X35100000Y60030000D03*
X35100000Y62800000D03*
X35100000Y65570000D03*
X35100000Y68340000D03*
%TD*%
D13*
%TO.C,REF\u002A\u002A*%
X114100000Y2500000D03*
%TD*%
D26*
%TO.C,C10*%
X20800000Y55550000D03*
X20800000Y57050000D03*
%TD*%
D15*
%TO.C,R4*%
X58100000Y48000000D03*
X58100000Y46500000D03*
%TD*%
D13*
%TO.C,TP5*%
X9300000Y44800000D03*
%TD*%
D15*
%TO.C,R5*%
X92400000Y48000000D03*
X92400000Y46500000D03*
%TD*%
D29*
%TO.C,D3*%
X53300000Y47999300D03*
X53300000Y46500700D03*
%TD*%
D24*
%TO.C,X2*%
X75800000Y57260000D03*
D25*
X75800000Y60030000D03*
X75800000Y62800000D03*
X75800000Y65570000D03*
X75800000Y68340000D03*
%TD*%
D46*
%TO.C,R7*%
X70600000Y62400000D03*
X70600000Y60500000D03*
%TD*%
D30*
%TO.C,P1*%
X73300000Y25950000D03*
D31*
X75840000Y25950000D03*
%TD*%
D46*
%TO.C,R7*%
X111300000Y39800000D03*
X111300000Y37900000D03*
%TD*%
D24*
%TO.C,X2*%
X116500000Y57260000D03*
D25*
X116500000Y60030000D03*
X116500000Y62800000D03*
X116500000Y65570000D03*
X116500000Y68340000D03*
%TD*%
D13*
%TO.C,TP4*%
X100600000Y44900000D03*
%TD*%
D29*
%TO.C,D3*%
X53300000Y70599300D03*
X53300000Y69100700D03*
%TD*%
D15*
%TO.C,R3*%
X14200000Y70600000D03*
X14200000Y69100000D03*
%TD*%
D46*
%TO.C,R7*%
X29900000Y39800000D03*
X29900000Y37900000D03*
%TD*%
D28*
%TO.C,U3*%
X63200000Y35705000D03*
X63200000Y34435000D03*
X63200000Y33165000D03*
X63200000Y31895000D03*
X68600000Y31895000D03*
X68600000Y33165000D03*
X68600000Y34435000D03*
X68600000Y35705000D03*
%TD*%
D16*
%TO.C,X1*%
X6605000Y22510000D03*
D17*
X2425000Y22510000D03*
D18*
X6105000Y20840000D03*
X6105000Y15060000D03*
D16*
X6605000Y13390000D03*
D17*
X2425000Y13390000D03*
D19*
X7180000Y21150000D03*
X7180000Y20350000D03*
D20*
X7180000Y19200000D03*
X7180000Y18200000D03*
X7180000Y17700000D03*
X7180000Y16700000D03*
D19*
X7180000Y14750000D03*
X7180000Y15550000D03*
D20*
X7180000Y16200000D03*
X7180000Y17200000D03*
X7180000Y18700000D03*
X7180000Y19700000D03*
D21*
X6605000Y22270000D03*
D22*
X2425000Y22270000D03*
D21*
X6605000Y13630000D03*
D22*
X2425000Y13630000D03*
%TD*%
D43*
%TO.C,U2*%
X107450000Y25100000D03*
D44*
X107800000Y23600000D03*
D45*
X109837500Y23600000D03*
D43*
X107450000Y22100000D03*
%TD*%
D46*
%TO.C,R7*%
X29900000Y17200000D03*
X29900000Y15300000D03*
%TD*%
D33*
%TO.C,C7*%
X104950000Y44050000D03*
X104950000Y46050000D03*
%TD*%
D29*
%TO.C,D2*%
X19000000Y47999300D03*
X19000000Y46500700D03*
%TD*%
D12*
%TO.C,R2*%
X9250000Y47400000D03*
X7750000Y47400000D03*
%TD*%
D27*
%TO.C,C5*%
X102300000Y61750000D03*
X103800000Y61750000D03*
%TD*%
%TO.C,C4*%
X61150000Y37600000D03*
X62650000Y37600000D03*
%TD*%
D30*
%TO.C,P1*%
X114000000Y48550000D03*
D31*
X116540000Y48550000D03*
%TD*%
D26*
%TO.C,C8*%
X29750000Y9300000D03*
X29750000Y10800000D03*
%TD*%
D43*
%TO.C,U2*%
X66750000Y47700000D03*
D44*
X67100000Y46200000D03*
D45*
X69137500Y46200000D03*
D43*
X66750000Y44700000D03*
%TD*%
D30*
%TO.C,P2*%
X50280000Y9850000D03*
D31*
X52820000Y9850000D03*
%TD*%
D24*
%TO.C,X2*%
X35100000Y34660000D03*
D25*
X35100000Y37430000D03*
X35100000Y40200000D03*
X35100000Y42970000D03*
X35100000Y45740000D03*
%TD*%
D35*
%TO.C,U1*%
X99825000Y14760000D03*
D36*
X99825000Y15350000D03*
X99825000Y15850000D03*
X99825000Y16350000D03*
X99825000Y16850000D03*
X99825000Y17350000D03*
X99825000Y17850000D03*
X99825000Y18350000D03*
X99825000Y18850000D03*
X99825000Y19350000D03*
X99825000Y19850000D03*
D35*
X99825000Y20440000D03*
D37*
X98240000Y22025000D03*
D38*
X97650000Y22025000D03*
X97150000Y22025000D03*
X96650000Y22025000D03*
X96150000Y22025000D03*
X95650000Y22025000D03*
X95150000Y22025000D03*
X94650000Y22025000D03*
X94150000Y22025000D03*
X93650000Y22025000D03*
X93150000Y22025000D03*
D37*
X92560000Y22025000D03*
D39*
X90975000Y20440000D03*
D40*
X90975000Y19850000D03*
X90975000Y19350000D03*
X90975000Y18850000D03*
X90975000Y18350000D03*
X90975000Y17850000D03*
X90975000Y17350000D03*
X90975000Y16850000D03*
X90975000Y16350000D03*
X90975000Y15850000D03*
X90975000Y15350000D03*
D39*
X90975000Y14760000D03*
D41*
X92560000Y13175000D03*
D42*
X93150000Y13175000D03*
X93650000Y13175000D03*
X94150000Y13175000D03*
X94650000Y13175000D03*
X95150000Y13175000D03*
X95650000Y13175000D03*
X96150000Y13175000D03*
X96650000Y13175000D03*
X97150000Y13175000D03*
X97650000Y13175000D03*
D41*
X98240000Y13175000D03*
%TD*%
D23*
%TO.C,X3*%
X6540000Y55300000D03*
X1460000Y54284000D03*
X1460000Y56316000D03*
X5270000Y55935000D03*
X5270000Y54666000D03*
X4000000Y55935000D03*
X4000000Y54665000D03*
X2730000Y55935000D03*
X2730000Y54665000D03*
%TD*%
D26*
%TO.C,C3*%
X21550000Y44050000D03*
X21550000Y45550000D03*
%TD*%
D13*
%TO.C,TP4*%
X100600000Y67500000D03*
%TD*%
D46*
%TO.C,R7*%
X70600000Y39800000D03*
X70600000Y37900000D03*
%TD*%
D47*
%TO.C,C6*%
X105600000Y47950000D03*
X103600000Y47950000D03*
%TD*%
D15*
%TO.C,R3*%
X54900000Y70600000D03*
X54900000Y69100000D03*
%TD*%
D12*
%TO.C,R6*%
X17200000Y32650000D03*
X15700000Y32650000D03*
%TD*%
D28*
%TO.C,U3*%
X22500000Y58305000D03*
X22500000Y57035000D03*
X22500000Y55765000D03*
X22500000Y54495000D03*
X27900000Y54495000D03*
X27900000Y55765000D03*
X27900000Y57035000D03*
X27900000Y58305000D03*
%TD*%
D29*
%TO.C,D2*%
X59700000Y25399300D03*
X59700000Y23900700D03*
%TD*%
D30*
%TO.C,P1*%
X73300000Y71150000D03*
D31*
X75840000Y71150000D03*
%TD*%
D15*
%TO.C,R4*%
X17400000Y70600000D03*
X17400000Y69100000D03*
%TD*%
D46*
%TO.C,R7*%
X70600000Y17200000D03*
X70600000Y15300000D03*
%TD*%
D27*
%TO.C,C5*%
X102300000Y16550000D03*
X103800000Y16550000D03*
%TD*%
D30*
%TO.C,P1*%
X32600000Y71150000D03*
D31*
X35140000Y71150000D03*
%TD*%
D12*
%TO.C,R6*%
X57900000Y10050000D03*
X56400000Y10050000D03*
%TD*%
D26*
%TO.C,C10*%
X102200000Y10350000D03*
X102200000Y11850000D03*
%TD*%
D27*
%TO.C,C5*%
X20900000Y16550000D03*
X22400000Y16550000D03*
%TD*%
D28*
%TO.C,U3*%
X103900000Y58305000D03*
X103900000Y57035000D03*
X103900000Y55765000D03*
X103900000Y54495000D03*
X109300000Y54495000D03*
X109300000Y55765000D03*
X109300000Y57035000D03*
X109300000Y58305000D03*
%TD*%
D15*
%TO.C,R4*%
X17400000Y48000000D03*
X17400000Y46500000D03*
%TD*%
D27*
%TO.C,C5*%
X102300000Y39150000D03*
X103800000Y39150000D03*
%TD*%
D14*
%TO.C,C1*%
X22400000Y18100000D03*
X20900000Y18100000D03*
%TD*%
D16*
%TO.C,X1*%
X88005000Y45110000D03*
D17*
X83825000Y45110000D03*
D18*
X87505000Y43440000D03*
X87505000Y37660000D03*
D16*
X88005000Y35990000D03*
D17*
X83825000Y35990000D03*
D19*
X88580000Y43750000D03*
X88580000Y42950000D03*
D20*
X88580000Y41800000D03*
X88580000Y40800000D03*
X88580000Y40300000D03*
X88580000Y39300000D03*
D19*
X88580000Y37350000D03*
X88580000Y38150000D03*
D20*
X88580000Y38800000D03*
X88580000Y39800000D03*
X88580000Y41300000D03*
X88580000Y42300000D03*
D21*
X88005000Y44870000D03*
D22*
X83825000Y44870000D03*
D21*
X88005000Y36230000D03*
D22*
X83825000Y36230000D03*
%TD*%
D47*
%TO.C,C6*%
X64900000Y70550000D03*
X62900000Y70550000D03*
%TD*%
D29*
%TO.C,D1*%
X56500000Y25399300D03*
X56500000Y23900700D03*
%TD*%
D15*
%TO.C,R5*%
X51700000Y48000000D03*
X51700000Y46500000D03*
%TD*%
D30*
%TO.C,P1*%
X32600000Y48550000D03*
D31*
X35140000Y48550000D03*
%TD*%
D27*
%TO.C,C5*%
X20900000Y61750000D03*
X22400000Y61750000D03*
%TD*%
D13*
%TO.C,TP5*%
X50000000Y44800000D03*
%TD*%
D29*
%TO.C,D3*%
X12600000Y47999300D03*
X12600000Y46500700D03*
%TD*%
D23*
%TO.C,X3*%
X47240000Y32700000D03*
X42160000Y31684000D03*
X42160000Y33716000D03*
X45970000Y33335000D03*
X45970000Y32066000D03*
X44700000Y33335000D03*
X44700000Y32065000D03*
X43430000Y33335000D03*
X43430000Y32065000D03*
%TD*%
D26*
%TO.C,C3*%
X102950000Y21450000D03*
X102950000Y22950000D03*
%TD*%
D27*
%TO.C,C4*%
X61150000Y15000000D03*
X62650000Y15000000D03*
%TD*%
D47*
%TO.C,C6*%
X24200000Y25350000D03*
X22200000Y25350000D03*
%TD*%
D16*
%TO.C,X1*%
X47305000Y22510000D03*
D17*
X43125000Y22510000D03*
D18*
X46805000Y20840000D03*
X46805000Y15060000D03*
D16*
X47305000Y13390000D03*
D17*
X43125000Y13390000D03*
D19*
X47880000Y21150000D03*
X47880000Y20350000D03*
D20*
X47880000Y19200000D03*
X47880000Y18200000D03*
X47880000Y17700000D03*
X47880000Y16700000D03*
D19*
X47880000Y14750000D03*
X47880000Y15550000D03*
D20*
X47880000Y16200000D03*
X47880000Y17200000D03*
X47880000Y18700000D03*
X47880000Y19700000D03*
D21*
X47305000Y22270000D03*
D22*
X43125000Y22270000D03*
D21*
X47305000Y13630000D03*
D22*
X43125000Y13630000D03*
%TD*%
D29*
%TO.C,D3*%
X94000000Y47999300D03*
X94000000Y46500700D03*
%TD*%
D16*
%TO.C,X1*%
X47305000Y67710000D03*
D17*
X43125000Y67710000D03*
D18*
X46805000Y66040000D03*
X46805000Y60260000D03*
D16*
X47305000Y58590000D03*
D17*
X43125000Y58590000D03*
D19*
X47880000Y66350000D03*
X47880000Y65550000D03*
D20*
X47880000Y64400000D03*
X47880000Y63400000D03*
X47880000Y62900000D03*
X47880000Y61900000D03*
D19*
X47880000Y59950000D03*
X47880000Y60750000D03*
D20*
X47880000Y61400000D03*
X47880000Y62400000D03*
X47880000Y63900000D03*
X47880000Y64900000D03*
D21*
X47305000Y67470000D03*
D22*
X43125000Y67470000D03*
D21*
X47305000Y58830000D03*
D22*
X43125000Y58830000D03*
%TD*%
D16*
%TO.C,X1*%
X6605000Y45110000D03*
D17*
X2425000Y45110000D03*
D18*
X6105000Y43440000D03*
X6105000Y37660000D03*
D16*
X6605000Y35990000D03*
D17*
X2425000Y35990000D03*
D19*
X7180000Y43750000D03*
X7180000Y42950000D03*
D20*
X7180000Y41800000D03*
X7180000Y40800000D03*
X7180000Y40300000D03*
X7180000Y39300000D03*
D19*
X7180000Y37350000D03*
X7180000Y38150000D03*
D20*
X7180000Y38800000D03*
X7180000Y39800000D03*
X7180000Y41300000D03*
X7180000Y42300000D03*
D21*
X6605000Y44870000D03*
D22*
X2425000Y44870000D03*
D21*
X6605000Y36230000D03*
D22*
X2425000Y36230000D03*
%TD*%
D12*
%TO.C,R2*%
X90650000Y47400000D03*
X89150000Y47400000D03*
%TD*%
D15*
%TO.C,R4*%
X98800000Y25400000D03*
X98800000Y23900000D03*
%TD*%
D30*
%TO.C,P2*%
X90980000Y9850000D03*
D31*
X93520000Y9850000D03*
%TD*%
D34*
%TO.C,Y1*%
X24350000Y64750000D03*
X24350000Y62550000D03*
X25950000Y62550000D03*
X25950000Y64750000D03*
%TD*%
D14*
%TO.C,C1*%
X22400000Y63300000D03*
X20900000Y63300000D03*
%TD*%
D27*
%TO.C,C4*%
X101850000Y15000000D03*
X103350000Y15000000D03*
%TD*%
D14*
%TO.C,C1*%
X103800000Y40700000D03*
X102300000Y40700000D03*
%TD*%
D43*
%TO.C,U2*%
X107450000Y70300000D03*
D44*
X107800000Y68800000D03*
D45*
X109837500Y68800000D03*
D43*
X107450000Y67300000D03*
%TD*%
D14*
%TO.C,C2*%
X63100000Y42300000D03*
X61600000Y42300000D03*
%TD*%
D26*
%TO.C,C3*%
X21550000Y21450000D03*
X21550000Y22950000D03*
%TD*%
D33*
%TO.C,C7*%
X104950000Y21450000D03*
X104950000Y23450000D03*
%TD*%
D14*
%TO.C,C2*%
X63100000Y19700000D03*
X61600000Y19700000D03*
%TD*%
D27*
%TO.C,C5*%
X61600000Y16550000D03*
X63100000Y16550000D03*
%TD*%
D23*
%TO.C,X3*%
X6540000Y10100000D03*
X1460000Y9084000D03*
X1460000Y11116000D03*
X5270000Y10735000D03*
X5270000Y9466000D03*
X4000000Y10735000D03*
X4000000Y9465000D03*
X2730000Y10735000D03*
X2730000Y9465000D03*
%TD*%
D29*
%TO.C,D3*%
X94000000Y70599300D03*
X94000000Y69100700D03*
%TD*%
D15*
%TO.C,R3*%
X54900000Y25400000D03*
X54900000Y23900000D03*
%TD*%
D13*
%TO.C,TP4*%
X100600000Y22300000D03*
%TD*%
D35*
%TO.C,U1*%
X18425000Y59960000D03*
D36*
X18425000Y60550000D03*
X18425000Y61050000D03*
X18425000Y61550000D03*
X18425000Y62050000D03*
X18425000Y62550000D03*
X18425000Y63050000D03*
X18425000Y63550000D03*
X18425000Y64050000D03*
X18425000Y64550000D03*
X18425000Y65050000D03*
D35*
X18425000Y65640000D03*
D37*
X16840000Y67225000D03*
D38*
X16250000Y67225000D03*
X15750000Y67225000D03*
X15250000Y67225000D03*
X14750000Y67225000D03*
X14250000Y67225000D03*
X13750000Y67225000D03*
X13250000Y67225000D03*
X12750000Y67225000D03*
X12250000Y67225000D03*
X11750000Y67225000D03*
D37*
X11160000Y67225000D03*
D39*
X9575000Y65640000D03*
D40*
X9575000Y65050000D03*
X9575000Y64550000D03*
X9575000Y64050000D03*
X9575000Y63550000D03*
X9575000Y63050000D03*
X9575000Y62550000D03*
X9575000Y62050000D03*
X9575000Y61550000D03*
X9575000Y61050000D03*
X9575000Y60550000D03*
D39*
X9575000Y59960000D03*
D41*
X11160000Y58375000D03*
D42*
X11750000Y58375000D03*
X12250000Y58375000D03*
X12750000Y58375000D03*
X13250000Y58375000D03*
X13750000Y58375000D03*
X14250000Y58375000D03*
X14750000Y58375000D03*
X15250000Y58375000D03*
X15750000Y58375000D03*
X16250000Y58375000D03*
D41*
X16840000Y58375000D03*
%TD*%
D24*
%TO.C,X2*%
X35100000Y12060000D03*
D25*
X35100000Y14830000D03*
X35100000Y17600000D03*
X35100000Y20370000D03*
X35100000Y23140000D03*
%TD*%
D29*
%TO.C,D3*%
X12600000Y70599300D03*
X12600000Y69100700D03*
%TD*%
%TO.C,D3*%
X12600000Y25399300D03*
X12600000Y23900700D03*
%TD*%
D43*
%TO.C,U2*%
X107450000Y47700000D03*
D44*
X107800000Y46200000D03*
D45*
X109837500Y46200000D03*
D43*
X107450000Y44700000D03*
%TD*%
D32*
%TO.C,R1*%
X45800000Y70000000D03*
X47300000Y70000000D03*
%TD*%
D15*
%TO.C,R4*%
X98800000Y48000000D03*
X98800000Y46500000D03*
%TD*%
D29*
%TO.C,D1*%
X15800000Y70599300D03*
X15800000Y69100700D03*
%TD*%
D14*
%TO.C,C2*%
X22400000Y64900000D03*
X20900000Y64900000D03*
%TD*%
D12*
%TO.C,R6*%
X98600000Y10050000D03*
X97100000Y10050000D03*
%TD*%
D27*
%TO.C,C5*%
X61600000Y61750000D03*
X63100000Y61750000D03*
%TD*%
D24*
%TO.C,X2*%
X116500000Y12060000D03*
D25*
X116500000Y14830000D03*
X116500000Y17600000D03*
X116500000Y20370000D03*
X116500000Y23140000D03*
%TD*%
D29*
%TO.C,D2*%
X19000000Y70599300D03*
X19000000Y69100700D03*
%TD*%
D27*
%TO.C,C4*%
X20450000Y15000000D03*
X21950000Y15000000D03*
%TD*%
D33*
%TO.C,C7*%
X23550000Y44050000D03*
X23550000Y46050000D03*
%TD*%
D15*
%TO.C,R3*%
X14200000Y48000000D03*
X14200000Y46500000D03*
%TD*%
D32*
%TO.C,R1*%
X86500000Y24800000D03*
X88000000Y24800000D03*
%TD*%
D27*
%TO.C,C5*%
X20900000Y39150000D03*
X22400000Y39150000D03*
%TD*%
D12*
%TO.C,R2*%
X49950000Y47400000D03*
X48450000Y47400000D03*
%TD*%
D32*
%TO.C,R1*%
X45800000Y24800000D03*
X47300000Y24800000D03*
%TD*%
D30*
%TO.C,P2*%
X90980000Y55050000D03*
D31*
X93520000Y55050000D03*
%TD*%
D32*
%TO.C,R1*%
X86500000Y70000000D03*
X88000000Y70000000D03*
%TD*%
D47*
%TO.C,C6*%
X24200000Y70550000D03*
X22200000Y70550000D03*
%TD*%
D26*
%TO.C,C10*%
X20800000Y10350000D03*
X20800000Y11850000D03*
%TD*%
D23*
%TO.C,X3*%
X47240000Y55300000D03*
X42160000Y54284000D03*
X42160000Y56316000D03*
X45970000Y55935000D03*
X45970000Y54666000D03*
X44700000Y55935000D03*
X44700000Y54665000D03*
X43430000Y55935000D03*
X43430000Y54665000D03*
%TD*%
D34*
%TO.C,Y1*%
X105750000Y42150000D03*
X105750000Y39950000D03*
X107350000Y39950000D03*
X107350000Y42150000D03*
%TD*%
D35*
%TO.C,U1*%
X59125000Y14760000D03*
D36*
X59125000Y15350000D03*
X59125000Y15850000D03*
X59125000Y16350000D03*
X59125000Y16850000D03*
X59125000Y17350000D03*
X59125000Y17850000D03*
X59125000Y18350000D03*
X59125000Y18850000D03*
X59125000Y19350000D03*
X59125000Y19850000D03*
D35*
X59125000Y20440000D03*
D37*
X57540000Y22025000D03*
D38*
X56950000Y22025000D03*
X56450000Y22025000D03*
X55950000Y22025000D03*
X55450000Y22025000D03*
X54950000Y22025000D03*
X54450000Y22025000D03*
X53950000Y22025000D03*
X53450000Y22025000D03*
X52950000Y22025000D03*
X52450000Y22025000D03*
D37*
X51860000Y22025000D03*
D39*
X50275000Y20440000D03*
D40*
X50275000Y19850000D03*
X50275000Y19350000D03*
X50275000Y18850000D03*
X50275000Y18350000D03*
X50275000Y17850000D03*
X50275000Y17350000D03*
X50275000Y16850000D03*
X50275000Y16350000D03*
X50275000Y15850000D03*
X50275000Y15350000D03*
D39*
X50275000Y14760000D03*
D41*
X51860000Y13175000D03*
D42*
X52450000Y13175000D03*
X52950000Y13175000D03*
X53450000Y13175000D03*
X53950000Y13175000D03*
X54450000Y13175000D03*
X54950000Y13175000D03*
X55450000Y13175000D03*
X55950000Y13175000D03*
X56450000Y13175000D03*
X56950000Y13175000D03*
D41*
X57540000Y13175000D03*
%TD*%
D32*
%TO.C,R1*%
X5100000Y70000000D03*
X6600000Y70000000D03*
%TD*%
D43*
%TO.C,U2*%
X26050000Y25100000D03*
D44*
X26400000Y23600000D03*
D45*
X28437500Y23600000D03*
D43*
X26050000Y22100000D03*
%TD*%
D30*
%TO.C,P2*%
X50280000Y55050000D03*
D31*
X52820000Y55050000D03*
%TD*%
D26*
%TO.C,C10*%
X61500000Y32950000D03*
X61500000Y34450000D03*
%TD*%
D29*
%TO.C,D3*%
X53300000Y25399300D03*
X53300000Y23900700D03*
%TD*%
D26*
%TO.C,C10*%
X61500000Y55550000D03*
X61500000Y57050000D03*
%TD*%
D27*
%TO.C,C4*%
X61150000Y60200000D03*
X62650000Y60200000D03*
%TD*%
D26*
%TO.C,C8*%
X29750000Y31900000D03*
X29750000Y33400000D03*
%TD*%
D12*
%TO.C,R6*%
X17200000Y10050000D03*
X15700000Y10050000D03*
%TD*%
D16*
%TO.C,X1*%
X88005000Y22510000D03*
D17*
X83825000Y22510000D03*
D18*
X87505000Y20840000D03*
X87505000Y15060000D03*
D16*
X88005000Y13390000D03*
D17*
X83825000Y13390000D03*
D19*
X88580000Y21150000D03*
X88580000Y20350000D03*
D20*
X88580000Y19200000D03*
X88580000Y18200000D03*
X88580000Y17700000D03*
X88580000Y16700000D03*
D19*
X88580000Y14750000D03*
X88580000Y15550000D03*
D20*
X88580000Y16200000D03*
X88580000Y17200000D03*
X88580000Y18700000D03*
X88580000Y19700000D03*
D21*
X88005000Y22270000D03*
D22*
X83825000Y22270000D03*
D21*
X88005000Y13630000D03*
D22*
X83825000Y13630000D03*
%TD*%
D26*
%TO.C,C3*%
X102950000Y66650000D03*
X102950000Y68150000D03*
%TD*%
D16*
%TO.C,X1*%
X47305000Y45110000D03*
D17*
X43125000Y45110000D03*
D18*
X46805000Y43440000D03*
X46805000Y37660000D03*
D16*
X47305000Y35990000D03*
D17*
X43125000Y35990000D03*
D19*
X47880000Y43750000D03*
X47880000Y42950000D03*
D20*
X47880000Y41800000D03*
X47880000Y40800000D03*
X47880000Y40300000D03*
X47880000Y39300000D03*
D19*
X47880000Y37350000D03*
X47880000Y38150000D03*
D20*
X47880000Y38800000D03*
X47880000Y39800000D03*
X47880000Y41300000D03*
X47880000Y42300000D03*
D21*
X47305000Y44870000D03*
D22*
X43125000Y44870000D03*
D21*
X47305000Y36230000D03*
D22*
X43125000Y36230000D03*
%TD*%
D12*
%TO.C,R2*%
X9250000Y70000000D03*
X7750000Y70000000D03*
%TD*%
D26*
%TO.C,C8*%
X70450000Y9300000D03*
X70450000Y10800000D03*
%TD*%
%TO.C,C8*%
X111150000Y31900000D03*
X111150000Y33400000D03*
%TD*%
D30*
%TO.C,P2*%
X50280000Y32450000D03*
D31*
X52820000Y32450000D03*
%TD*%
D26*
%TO.C,C10*%
X102200000Y32950000D03*
X102200000Y34450000D03*
%TD*%
D47*
%TO.C,C6*%
X105600000Y70550000D03*
X103600000Y70550000D03*
%TD*%
D28*
%TO.C,U3*%
X103900000Y13105000D03*
X103900000Y11835000D03*
X103900000Y10565000D03*
X103900000Y9295000D03*
X109300000Y9295000D03*
X109300000Y10565000D03*
X109300000Y11835000D03*
X109300000Y13105000D03*
%TD*%
D46*
%TO.C,R7*%
X111300000Y17200000D03*
X111300000Y15300000D03*
%TD*%
D15*
%TO.C,R5*%
X11000000Y48000000D03*
X11000000Y46500000D03*
%TD*%
D14*
%TO.C,C2*%
X63100000Y64900000D03*
X61600000Y64900000D03*
%TD*%
D33*
%TO.C,C7*%
X104950000Y66650000D03*
X104950000Y68650000D03*
%TD*%
D12*
%TO.C,R6*%
X57900000Y32650000D03*
X56400000Y32650000D03*
%TD*%
D23*
%TO.C,X3*%
X47240000Y10100000D03*
X42160000Y9084000D03*
X42160000Y11116000D03*
X45970000Y10735000D03*
X45970000Y9466000D03*
X44700000Y10735000D03*
X44700000Y9465000D03*
X43430000Y10735000D03*
X43430000Y9465000D03*
%TD*%
D35*
%TO.C,U1*%
X59125000Y59960000D03*
D36*
X59125000Y60550000D03*
X59125000Y61050000D03*
X59125000Y61550000D03*
X59125000Y62050000D03*
X59125000Y62550000D03*
X59125000Y63050000D03*
X59125000Y63550000D03*
X59125000Y64050000D03*
X59125000Y64550000D03*
X59125000Y65050000D03*
D35*
X59125000Y65640000D03*
D37*
X57540000Y67225000D03*
D38*
X56950000Y67225000D03*
X56450000Y67225000D03*
X55950000Y67225000D03*
X55450000Y67225000D03*
X54950000Y67225000D03*
X54450000Y67225000D03*
X53950000Y67225000D03*
X53450000Y67225000D03*
X52950000Y67225000D03*
X52450000Y67225000D03*
D37*
X51860000Y67225000D03*
D39*
X50275000Y65640000D03*
D40*
X50275000Y65050000D03*
X50275000Y64550000D03*
X50275000Y64050000D03*
X50275000Y63550000D03*
X50275000Y63050000D03*
X50275000Y62550000D03*
X50275000Y62050000D03*
X50275000Y61550000D03*
X50275000Y61050000D03*
X50275000Y60550000D03*
D39*
X50275000Y59960000D03*
D41*
X51860000Y58375000D03*
D42*
X52450000Y58375000D03*
X52950000Y58375000D03*
X53450000Y58375000D03*
X53950000Y58375000D03*
X54450000Y58375000D03*
X54950000Y58375000D03*
X55450000Y58375000D03*
X55950000Y58375000D03*
X56450000Y58375000D03*
X56950000Y58375000D03*
D41*
X57540000Y58375000D03*
%TD*%
D13*
%TO.C,REF\u002A\u002A*%
X114100000Y77900000D03*
%TD*%
D15*
%TO.C,R3*%
X95600000Y48000000D03*
X95600000Y46500000D03*
%TD*%
D32*
%TO.C,R1*%
X5100000Y47400000D03*
X6600000Y47400000D03*
%TD*%
D14*
%TO.C,C1*%
X63100000Y40700000D03*
X61600000Y40700000D03*
%TD*%
D35*
%TO.C,U1*%
X99825000Y37360000D03*
D36*
X99825000Y37950000D03*
X99825000Y38450000D03*
X99825000Y38950000D03*
X99825000Y39450000D03*
X99825000Y39950000D03*
X99825000Y40450000D03*
X99825000Y40950000D03*
X99825000Y41450000D03*
X99825000Y41950000D03*
X99825000Y42450000D03*
D35*
X99825000Y43040000D03*
D37*
X98240000Y44625000D03*
D38*
X97650000Y44625000D03*
X97150000Y44625000D03*
X96650000Y44625000D03*
X96150000Y44625000D03*
X95650000Y44625000D03*
X95150000Y44625000D03*
X94650000Y44625000D03*
X94150000Y44625000D03*
X93650000Y44625000D03*
X93150000Y44625000D03*
D37*
X92560000Y44625000D03*
D39*
X90975000Y43040000D03*
D40*
X90975000Y42450000D03*
X90975000Y41950000D03*
X90975000Y41450000D03*
X90975000Y40950000D03*
X90975000Y40450000D03*
X90975000Y39950000D03*
X90975000Y39450000D03*
X90975000Y38950000D03*
X90975000Y38450000D03*
X90975000Y37950000D03*
D39*
X90975000Y37360000D03*
D41*
X92560000Y35775000D03*
D42*
X93150000Y35775000D03*
X93650000Y35775000D03*
X94150000Y35775000D03*
X94650000Y35775000D03*
X95150000Y35775000D03*
X95650000Y35775000D03*
X96150000Y35775000D03*
X96650000Y35775000D03*
X97150000Y35775000D03*
X97650000Y35775000D03*
D41*
X98240000Y35775000D03*
%TD*%
D13*
%TO.C,TP5*%
X90700000Y22200000D03*
%TD*%
D47*
%TO.C,C6*%
X24200000Y47950000D03*
X22200000Y47950000D03*
%TD*%
D14*
%TO.C,C1*%
X22400000Y40700000D03*
X20900000Y40700000D03*
%TD*%
D32*
%TO.C,R1*%
X45800000Y47400000D03*
X47300000Y47400000D03*
%TD*%
D30*
%TO.C,P2*%
X90980000Y32450000D03*
D31*
X93520000Y32450000D03*
%TD*%
D26*
%TO.C,C10*%
X61500000Y10350000D03*
X61500000Y11850000D03*
%TD*%
D15*
%TO.C,R3*%
X54900000Y48000000D03*
X54900000Y46500000D03*
%TD*%
D14*
%TO.C,C2*%
X22400000Y19700000D03*
X20900000Y19700000D03*
%TD*%
D26*
%TO.C,C3*%
X62250000Y44050000D03*
X62250000Y45550000D03*
%TD*%
D30*
%TO.C,P1*%
X114000000Y25950000D03*
D31*
X116540000Y25950000D03*
%TD*%
D33*
%TO.C,C7*%
X23550000Y66650000D03*
X23550000Y68650000D03*
%TD*%
D47*
%TO.C,C6*%
X105600000Y25350000D03*
X103600000Y25350000D03*
%TD*%
D27*
%TO.C,C4*%
X20450000Y60200000D03*
X21950000Y60200000D03*
%TD*%
D29*
%TO.C,D1*%
X15800000Y47999300D03*
X15800000Y46500700D03*
%TD*%
D35*
%TO.C,U1*%
X59125000Y37360000D03*
D36*
X59125000Y37950000D03*
X59125000Y38450000D03*
X59125000Y38950000D03*
X59125000Y39450000D03*
X59125000Y39950000D03*
X59125000Y40450000D03*
X59125000Y40950000D03*
X59125000Y41450000D03*
X59125000Y41950000D03*
X59125000Y42450000D03*
D35*
X59125000Y43040000D03*
D37*
X57540000Y44625000D03*
D38*
X56950000Y44625000D03*
X56450000Y44625000D03*
X55950000Y44625000D03*
X55450000Y44625000D03*
X54950000Y44625000D03*
X54450000Y44625000D03*
X53950000Y44625000D03*
X53450000Y44625000D03*
X52950000Y44625000D03*
X52450000Y44625000D03*
D37*
X51860000Y44625000D03*
D39*
X50275000Y43040000D03*
D40*
X50275000Y42450000D03*
X50275000Y41950000D03*
X50275000Y41450000D03*
X50275000Y40950000D03*
X50275000Y40450000D03*
X50275000Y39950000D03*
X50275000Y39450000D03*
X50275000Y38950000D03*
X50275000Y38450000D03*
X50275000Y37950000D03*
D39*
X50275000Y37360000D03*
D41*
X51860000Y35775000D03*
D42*
X52450000Y35775000D03*
X52950000Y35775000D03*
X53450000Y35775000D03*
X53950000Y35775000D03*
X54450000Y35775000D03*
X54950000Y35775000D03*
X55450000Y35775000D03*
X55950000Y35775000D03*
X56450000Y35775000D03*
X56950000Y35775000D03*
D41*
X57540000Y35775000D03*
%TD*%
D15*
%TO.C,R3*%
X14200000Y25400000D03*
X14200000Y23900000D03*
%TD*%
D12*
%TO.C,R2*%
X90650000Y24800000D03*
X89150000Y24800000D03*
%TD*%
D26*
%TO.C,C10*%
X102200000Y55550000D03*
X102200000Y57050000D03*
%TD*%
D29*
%TO.C,D2*%
X100400000Y70599300D03*
X100400000Y69100700D03*
%TD*%
D34*
%TO.C,Y1*%
X24350000Y19550000D03*
X24350000Y17350000D03*
X25950000Y17350000D03*
X25950000Y19550000D03*
%TD*%
D26*
%TO.C,C8*%
X29750000Y54500000D03*
X29750000Y56000000D03*
%TD*%
D34*
%TO.C,Y1*%
X24350000Y42150000D03*
X24350000Y39950000D03*
X25950000Y39950000D03*
X25950000Y42150000D03*
%TD*%
%TO.C,Y1*%
X65050000Y42150000D03*
X65050000Y39950000D03*
X66650000Y39950000D03*
X66650000Y42150000D03*
%TD*%
D47*
%TO.C,C6*%
X64900000Y25350000D03*
X62900000Y25350000D03*
%TD*%
D33*
%TO.C,C7*%
X64250000Y66650000D03*
X64250000Y68650000D03*
%TD*%
D29*
%TO.C,D1*%
X56500000Y47999300D03*
X56500000Y46500700D03*
%TD*%
D15*
%TO.C,R4*%
X58100000Y25400000D03*
X58100000Y23900000D03*
%TD*%
D29*
%TO.C,D1*%
X97200000Y25399300D03*
X97200000Y23900700D03*
%TD*%
D30*
%TO.C,P1*%
X32600000Y25950000D03*
D31*
X35140000Y25950000D03*
%TD*%
D12*
%TO.C,R6*%
X98600000Y55250000D03*
X97100000Y55250000D03*
%TD*%
D27*
%TO.C,C4*%
X101850000Y37600000D03*
X103350000Y37600000D03*
%TD*%
D16*
%TO.C,X1*%
X88005000Y67710000D03*
D17*
X83825000Y67710000D03*
D18*
X87505000Y66040000D03*
X87505000Y60260000D03*
D16*
X88005000Y58590000D03*
D17*
X83825000Y58590000D03*
D19*
X88580000Y66350000D03*
X88580000Y65550000D03*
D20*
X88580000Y64400000D03*
X88580000Y63400000D03*
X88580000Y62900000D03*
X88580000Y61900000D03*
D19*
X88580000Y59950000D03*
X88580000Y60750000D03*
D20*
X88580000Y61400000D03*
X88580000Y62400000D03*
X88580000Y63900000D03*
X88580000Y64900000D03*
D21*
X88005000Y67470000D03*
D22*
X83825000Y67470000D03*
D21*
X88005000Y58830000D03*
D22*
X83825000Y58830000D03*
%TD*%
D29*
%TO.C,D1*%
X97200000Y70599300D03*
X97200000Y69100700D03*
%TD*%
D14*
%TO.C,C1*%
X63100000Y18100000D03*
X61600000Y18100000D03*
%TD*%
D43*
%TO.C,U2*%
X66750000Y70300000D03*
D44*
X67100000Y68800000D03*
D45*
X69137500Y68800000D03*
D43*
X66750000Y67300000D03*
%TD*%
D30*
%TO.C,P1*%
X73300000Y48550000D03*
D31*
X75840000Y48550000D03*
%TD*%
D32*
%TO.C,R1*%
X5100000Y24800000D03*
X6600000Y24800000D03*
%TD*%
D29*
%TO.C,D2*%
X59700000Y70599300D03*
X59700000Y69100700D03*
%TD*%
D13*
%TO.C,TP5*%
X9300000Y22200000D03*
%TD*%
%TO.C,TP5*%
X9300000Y67400000D03*
%TD*%
D30*
%TO.C,P2*%
X9580000Y9850000D03*
D31*
X12120000Y9850000D03*
%TD*%
D35*
%TO.C,U1*%
X99825000Y59960000D03*
D36*
X99825000Y60550000D03*
X99825000Y61050000D03*
X99825000Y61550000D03*
X99825000Y62050000D03*
X99825000Y62550000D03*
X99825000Y63050000D03*
X99825000Y63550000D03*
X99825000Y64050000D03*
X99825000Y64550000D03*
X99825000Y65050000D03*
D35*
X99825000Y65640000D03*
D37*
X98240000Y67225000D03*
D38*
X97650000Y67225000D03*
X97150000Y67225000D03*
X96650000Y67225000D03*
X96150000Y67225000D03*
X95650000Y67225000D03*
X95150000Y67225000D03*
X94650000Y67225000D03*
X94150000Y67225000D03*
X93650000Y67225000D03*
X93150000Y67225000D03*
D37*
X92560000Y67225000D03*
D39*
X90975000Y65640000D03*
D40*
X90975000Y65050000D03*
X90975000Y64550000D03*
X90975000Y64050000D03*
X90975000Y63550000D03*
X90975000Y63050000D03*
X90975000Y62550000D03*
X90975000Y62050000D03*
X90975000Y61550000D03*
X90975000Y61050000D03*
X90975000Y60550000D03*
D39*
X90975000Y59960000D03*
D41*
X92560000Y58375000D03*
D42*
X93150000Y58375000D03*
X93650000Y58375000D03*
X94150000Y58375000D03*
X94650000Y58375000D03*
X95150000Y58375000D03*
X95650000Y58375000D03*
X96150000Y58375000D03*
X96650000Y58375000D03*
X97150000Y58375000D03*
X97650000Y58375000D03*
D41*
X98240000Y58375000D03*
%TD*%
D15*
%TO.C,R5*%
X11000000Y70600000D03*
X11000000Y69100000D03*
%TD*%
D14*
%TO.C,C2*%
X103800000Y19700000D03*
X102300000Y19700000D03*
%TD*%
D13*
%TO.C,TP5*%
X90700000Y44800000D03*
%TD*%
D46*
%TO.C,R7*%
X111300000Y62400000D03*
X111300000Y60500000D03*
%TD*%
D26*
%TO.C,C8*%
X70450000Y31900000D03*
X70450000Y33400000D03*
%TD*%
D15*
%TO.C,R5*%
X51700000Y25400000D03*
X51700000Y23900000D03*
%TD*%
D29*
%TO.C,D2*%
X100400000Y47999300D03*
X100400000Y46500700D03*
%TD*%
D33*
%TO.C,C7*%
X64250000Y21450000D03*
X64250000Y23450000D03*
%TD*%
D26*
%TO.C,C8*%
X70450000Y54500000D03*
X70450000Y56000000D03*
%TD*%
D14*
%TO.C,C1*%
X103800000Y63300000D03*
X102300000Y63300000D03*
%TD*%
D29*
%TO.C,D3*%
X94000000Y25399300D03*
X94000000Y23900700D03*
%TD*%
D26*
%TO.C,C3*%
X21550000Y66650000D03*
X21550000Y68150000D03*
%TD*%
D33*
%TO.C,C7*%
X23550000Y21450000D03*
X23550000Y23450000D03*
%TD*%
D23*
%TO.C,X3*%
X87940000Y55300000D03*
X82860000Y54284000D03*
X82860000Y56316000D03*
X86670000Y55935000D03*
X86670000Y54666000D03*
X85400000Y55935000D03*
X85400000Y54665000D03*
X84130000Y55935000D03*
X84130000Y54665000D03*
%TD*%
D26*
%TO.C,C8*%
X111150000Y54500000D03*
X111150000Y56000000D03*
%TD*%
D29*
%TO.C,D1*%
X97200000Y47999300D03*
X97200000Y46500700D03*
%TD*%
D15*
%TO.C,R4*%
X58100000Y70600000D03*
X58100000Y69100000D03*
%TD*%
D12*
%TO.C,R2*%
X49950000Y24800000D03*
X48450000Y24800000D03*
%TD*%
D28*
%TO.C,U3*%
X103900000Y35705000D03*
X103900000Y34435000D03*
X103900000Y33165000D03*
X103900000Y31895000D03*
X109300000Y31895000D03*
X109300000Y33165000D03*
X109300000Y34435000D03*
X109300000Y35705000D03*
%TD*%
D35*
%TO.C,U1*%
X18425000Y37360000D03*
D36*
X18425000Y37950000D03*
X18425000Y38450000D03*
X18425000Y38950000D03*
X18425000Y39450000D03*
X18425000Y39950000D03*
X18425000Y40450000D03*
X18425000Y40950000D03*
X18425000Y41450000D03*
X18425000Y41950000D03*
X18425000Y42450000D03*
D35*
X18425000Y43040000D03*
D37*
X16840000Y44625000D03*
D38*
X16250000Y44625000D03*
X15750000Y44625000D03*
X15250000Y44625000D03*
X14750000Y44625000D03*
X14250000Y44625000D03*
X13750000Y44625000D03*
X13250000Y44625000D03*
X12750000Y44625000D03*
X12250000Y44625000D03*
X11750000Y44625000D03*
D37*
X11160000Y44625000D03*
D39*
X9575000Y43040000D03*
D40*
X9575000Y42450000D03*
X9575000Y41950000D03*
X9575000Y41450000D03*
X9575000Y40950000D03*
X9575000Y40450000D03*
X9575000Y39950000D03*
X9575000Y39450000D03*
X9575000Y38950000D03*
X9575000Y38450000D03*
X9575000Y37950000D03*
D39*
X9575000Y37360000D03*
D41*
X11160000Y35775000D03*
D42*
X11750000Y35775000D03*
X12250000Y35775000D03*
X12750000Y35775000D03*
X13250000Y35775000D03*
X13750000Y35775000D03*
X14250000Y35775000D03*
X14750000Y35775000D03*
X15250000Y35775000D03*
X15750000Y35775000D03*
X16250000Y35775000D03*
D41*
X16840000Y35775000D03*
%TD*%
D27*
%TO.C,C5*%
X61600000Y39150000D03*
X63100000Y39150000D03*
%TD*%
D26*
%TO.C,C8*%
X111150000Y9300000D03*
X111150000Y10800000D03*
%TD*%
M02*
