%TF.GenerationSoftware,KiCad,Pcbnew,7.0.5*%
%TF.CreationDate,2023-06-23T14:23:02+02:00*%
%TF.ProjectId,candleLightfd-S01_3x3,63616e64-6c65-44c6-9967-687466642d53,R01*%
%TF.SameCoordinates,PX54d44f0PY5fbfb80*%
%TF.FileFunction,Soldermask,Bot*%
%TF.FilePolarity,Negative*%
%FSLAX46Y46*%
G04 Gerber Fmt 4.6, Leading zero omitted, Abs format (unit mm)*
G04 Created by KiCad (PCBNEW 7.0.5) date 2023-06-23 14:23:02*
%MOMM*%
%LPD*%
G01*
G04 APERTURE LIST*
G04 Aperture macros list*
%AMRoundRect*
0 Rectangle with rounded corners*
0 $1 Rounding radius*
0 $2 $3 $4 $5 $6 $7 $8 $9 X,Y pos of 4 corners*
0 Add a 4 corners polygon primitive as box body*
4,1,4,$2,$3,$4,$5,$6,$7,$8,$9,$2,$3,0*
0 Add four circle primitives for the rounded corners*
1,1,$1+$1,$2,$3*
1,1,$1+$1,$4,$5*
1,1,$1+$1,$6,$7*
1,1,$1+$1,$8,$9*
0 Add four rect primitives between the rounded corners*
20,1,$1+$1,$2,$3,$4,$5,0*
20,1,$1+$1,$4,$5,$6,$7,0*
20,1,$1+$1,$6,$7,$8,$9,0*
20,1,$1+$1,$8,$9,$2,$3,0*%
G04 Aperture macros list end*
%ADD10C,0.300000*%
%ADD11C,0.100000*%
%ADD12C,0.010000*%
%ADD13C,0.650000*%
%ADD14O,2.100000X1.000000*%
%ADD15O,1.800000X1.000000*%
%ADD16C,0.787000*%
%ADD17RoundRect,0.500000X-2.000000X0.500000X-2.000000X-0.500000X2.000000X-0.500000X2.000000X0.500000X0*%
%ADD18R,1.600000X1.600000*%
%ADD19C,1.600000*%
%ADD20C,2.000000*%
%ADD21RoundRect,0.150000X-0.420000X-0.150000X0.420000X-0.150000X0.420000X0.150000X-0.420000X0.150000X0*%
%ADD22RoundRect,0.187500X0.212500X0.187500X-0.212500X0.187500X-0.212500X-0.187500X0.212500X-0.187500X0*%
%ADD23C,1.000000*%
%ADD24RoundRect,0.187500X-0.187500X0.212500X-0.187500X-0.212500X0.187500X-0.212500X0.187500X0.212500X0*%
%ADD25RoundRect,0.175000X-0.475000X0.175000X-0.475000X-0.175000X0.475000X-0.175000X0.475000X0.175000X0*%
G04 APERTURE END LIST*
D10*
X4750000Y31200000D02*
G75*
G03*
X4750000Y31200000I-150000J0D01*
G01*
X93300000Y18250000D02*
G75*
G03*
X93300000Y18250000I-150000J0D01*
G01*
X30250000Y13300000D02*
G75*
G03*
X30250000Y13300000I-150000J0D01*
G01*
X4750000Y53800000D02*
G75*
G03*
X4750000Y53800000I-150000J0D01*
G01*
X60767241Y17607357D02*
G75*
G03*
X60767241Y17607357I-150000J0D01*
G01*
X93144115Y19237271D02*
G75*
G03*
X93144115Y19237271I-150000J0D01*
G01*
X66850000Y43350000D02*
G75*
G03*
X66850000Y43350000I-150000J0D01*
G01*
X46400000Y19899500D02*
G75*
G03*
X46400000Y19899500I-150000J0D01*
G01*
X67025500Y56174500D02*
G75*
G03*
X67025500Y56174500I-150000J0D01*
G01*
X64350000Y38350000D02*
G75*
G03*
X64350000Y38350000I-150000J0D01*
G01*
X93600000Y39400000D02*
G75*
G03*
X93600000Y39400000I-150000J0D01*
G01*
X64000000Y42300000D02*
G75*
G03*
X64000000Y42300000I-150000J0D01*
G01*
X101250000Y33400000D02*
G75*
G03*
X101250000Y33400000I-150000J0D01*
G01*
X45900000Y60900000D02*
G75*
G03*
X45900000Y60900000I-150000J0D01*
G01*
X31950000Y65000000D02*
G75*
G03*
X31950000Y65000000I-150000J0D01*
G01*
X113350000Y65000000D02*
G75*
G03*
X113350000Y65000000I-150000J0D01*
G01*
X90750000Y45900000D02*
G75*
G03*
X90750000Y45900000I-150000J0D01*
G01*
X24550000Y56400000D02*
G75*
G03*
X24550000Y56400000I-150000J0D01*
G01*
X63750000Y39950000D02*
G75*
G03*
X63750000Y39950000I-150000J0D01*
G01*
X66850000Y65950000D02*
G75*
G03*
X66850000Y65950000I-150000J0D01*
G01*
X26325500Y56174500D02*
G75*
G03*
X26325500Y56174500I-150000J0D01*
G01*
X11744115Y19237271D02*
G75*
G03*
X11744115Y19237271I-150000J0D01*
G01*
X107550000Y65950000D02*
G75*
G03*
X107550000Y65950000I-150000J0D01*
G01*
X72650000Y19800000D02*
G75*
G03*
X72650000Y19800000I-150000J0D01*
G01*
X91300500Y57230699D02*
G75*
G03*
X91300500Y57230699I-150000J0D01*
G01*
X49075500Y35424500D02*
G75*
G03*
X49075500Y35424500I-150000J0D01*
G01*
X112925500Y34862299D02*
G75*
G03*
X112925500Y34862299I-150000J0D01*
G01*
X111850000Y67050000D02*
G75*
G03*
X111850000Y67050000I-150000J0D01*
G01*
X24850000Y23450000D02*
G75*
G03*
X24850000Y23450000I-150000J0D01*
G01*
X72650000Y42400000D02*
G75*
G03*
X72650000Y42400000I-150000J0D01*
G01*
X72850500Y40200000D02*
G75*
G03*
X72850500Y40200000I-150000J0D01*
G01*
X67405074Y37144926D02*
G75*
G03*
X67405074Y37144926I-150000J0D01*
G01*
X55250000Y10050000D02*
G75*
G03*
X55250000Y10050000I-150000J0D01*
G01*
X86150000Y8600000D02*
G75*
G03*
X86150000Y8600000I-150000J0D01*
G01*
X101467241Y17607357D02*
G75*
G03*
X101467241Y17607357I-150000J0D01*
G01*
X112750000Y9700000D02*
G75*
G03*
X112750000Y9700000I-150000J0D01*
G01*
X23650000Y38350000D02*
G75*
G03*
X23650000Y38350000I-150000J0D01*
G01*
X24850000Y68650000D02*
G75*
G03*
X24850000Y68650000I-150000J0D01*
G01*
X3550000Y11775500D02*
G75*
G03*
X3550000Y11775500I-150000J0D01*
G01*
X111650000Y58500000D02*
G75*
G03*
X111650000Y58500000I-150000J0D01*
G01*
X60767241Y40207357D02*
G75*
G03*
X60767241Y40207357I-150000J0D01*
G01*
X95950000Y32650000D02*
G75*
G03*
X95950000Y32650000I-150000J0D01*
G01*
X26705074Y59744926D02*
G75*
G03*
X26705074Y59744926I-150000J0D01*
G01*
X46400000Y65099500D02*
G75*
G03*
X46400000Y65099500I-150000J0D01*
G01*
X64000000Y19700000D02*
G75*
G03*
X64000000Y19700000I-150000J0D01*
G01*
X20067241Y40207357D02*
G75*
G03*
X20067241Y40207357I-150000J0D01*
G01*
X89775500Y12824500D02*
G75*
G03*
X89775500Y12824500I-150000J0D01*
G01*
X113350000Y42400000D02*
G75*
G03*
X113350000Y42400000I-150000J0D01*
G01*
X72050000Y54900000D02*
G75*
G03*
X72050000Y54900000I-150000J0D01*
G01*
X11744115Y41837271D02*
G75*
G03*
X11744115Y41837271I-150000J0D01*
G01*
X66850000Y20750000D02*
G75*
G03*
X66850000Y20750000I-150000J0D01*
G01*
X87100000Y42499500D02*
G75*
G03*
X87100000Y42499500I-150000J0D01*
G01*
X60767241Y62807357D02*
G75*
G03*
X60767241Y62807357I-150000J0D01*
G01*
X65550000Y46050000D02*
G75*
G03*
X65550000Y46050000I-150000J0D01*
G01*
X66600000Y9000000D02*
G75*
G03*
X66600000Y9000000I-150000J0D01*
G01*
X65550000Y61300000D02*
G75*
G03*
X65550000Y61300000I-150000J0D01*
G01*
X106250000Y68650000D02*
G75*
G03*
X106250000Y68650000I-150000J0D01*
G01*
X65950000Y47100000D02*
G75*
G03*
X65950000Y47100000I-150000J0D01*
G01*
X72650000Y65000000D02*
G75*
G03*
X72650000Y65000000I-150000J0D01*
G01*
X12200000Y16800000D02*
G75*
G03*
X12200000Y16800000I-150000J0D01*
G01*
X24550000Y33800000D02*
G75*
G03*
X24550000Y33800000I-150000J0D01*
G01*
X66600000Y31600000D02*
G75*
G03*
X66600000Y31600000I-150000J0D01*
G01*
X112050000Y24300000D02*
G75*
G03*
X112050000Y24300000I-150000J0D01*
G01*
X106250000Y46050000D02*
G75*
G03*
X106250000Y46050000I-150000J0D01*
G01*
X44250000Y56975500D02*
G75*
G03*
X44250000Y56975500I-150000J0D01*
G01*
X90750000Y68500000D02*
G75*
G03*
X90750000Y68500000I-150000J0D01*
G01*
X31350000Y32300000D02*
G75*
G03*
X31350000Y32300000I-150000J0D01*
G01*
X25900000Y54200000D02*
G75*
G03*
X25900000Y54200000I-150000J0D01*
G01*
X101250000Y56000000D02*
G75*
G03*
X101250000Y56000000I-150000J0D01*
G01*
X30650000Y46900000D02*
G75*
G03*
X30650000Y46900000I-150000J0D01*
G01*
X107725500Y56174500D02*
G75*
G03*
X107725500Y56174500I-150000J0D01*
G01*
X26705074Y14544926D02*
G75*
G03*
X26705074Y14544926I-150000J0D01*
G01*
X5200000Y38300000D02*
G75*
G03*
X5200000Y38300000I-150000J0D01*
G01*
X52900000Y62000000D02*
G75*
G03*
X52900000Y62000000I-150000J0D01*
G01*
X108105074Y37144926D02*
G75*
G03*
X108105074Y37144926I-150000J0D01*
G01*
X31525500Y12262299D02*
G75*
G03*
X31525500Y12262299I-150000J0D01*
G01*
X30450000Y44450000D02*
G75*
G03*
X30450000Y44450000I-150000J0D01*
G01*
X104700000Y19700000D02*
G75*
G03*
X104700000Y19700000I-150000J0D01*
G01*
X101467241Y40207357D02*
G75*
G03*
X101467241Y40207357I-150000J0D01*
G01*
X45566784Y56759625D02*
G75*
G03*
X45566784Y56759625I-150000J0D01*
G01*
X112050000Y69500000D02*
G75*
G03*
X112050000Y69500000I-150000J0D01*
G01*
X52900000Y39400000D02*
G75*
G03*
X52900000Y39400000I-150000J0D01*
G01*
X31350000Y54900000D02*
G75*
G03*
X31350000Y54900000I-150000J0D01*
G01*
X107550000Y43350000D02*
G75*
G03*
X107550000Y43350000I-150000J0D01*
G01*
X93600000Y62000000D02*
G75*
G03*
X93600000Y62000000I-150000J0D01*
G01*
X45450000Y31200000D02*
G75*
G03*
X45450000Y31200000I-150000J0D01*
G01*
X113550500Y62800000D02*
G75*
G03*
X113550500Y62800000I-150000J0D01*
G01*
X23650000Y15750000D02*
G75*
G03*
X23650000Y15750000I-150000J0D01*
G01*
X31350000Y9700000D02*
G75*
G03*
X31350000Y9700000I-150000J0D01*
G01*
X93144115Y41837271D02*
G75*
G03*
X93144115Y41837271I-150000J0D01*
G01*
X90750000Y23300000D02*
G75*
G03*
X90750000Y23300000I-150000J0D01*
G01*
X9900500Y57230699D02*
G75*
G03*
X9900500Y57230699I-150000J0D01*
G01*
X24550000Y11200000D02*
G75*
G03*
X24550000Y11200000I-150000J0D01*
G01*
X111850000Y44450000D02*
G75*
G03*
X111850000Y44450000I-150000J0D01*
G01*
X5700000Y42499500D02*
G75*
G03*
X5700000Y42499500I-150000J0D01*
G01*
X14550000Y55250000D02*
G75*
G03*
X14550000Y55250000I-150000J0D01*
G01*
X71150000Y44450000D02*
G75*
G03*
X71150000Y44450000I-150000J0D01*
G01*
X60550000Y10800000D02*
G75*
G03*
X60550000Y10800000I-150000J0D01*
G01*
X86600000Y15700000D02*
G75*
G03*
X86600000Y15700000I-150000J0D01*
G01*
X111850000Y21850000D02*
G75*
G03*
X111850000Y21850000I-150000J0D01*
G01*
X72225500Y57462299D02*
G75*
G03*
X72225500Y57462299I-150000J0D01*
G01*
X5200000Y60900000D02*
G75*
G03*
X5200000Y60900000I-150000J0D01*
G01*
X112050000Y46900000D02*
G75*
G03*
X112050000Y46900000I-150000J0D01*
G01*
X32150500Y40200000D02*
G75*
G03*
X32150500Y40200000I-150000J0D01*
G01*
X49075500Y58024500D02*
G75*
G03*
X49075500Y58024500I-150000J0D01*
G01*
X105050000Y38350000D02*
G75*
G03*
X105050000Y38350000I-150000J0D01*
G01*
X4866784Y34159625D02*
G75*
G03*
X4866784Y34159625I-150000J0D01*
G01*
X84950000Y56975500D02*
G75*
G03*
X84950000Y56975500I-150000J0D01*
G01*
X107725500Y33574500D02*
G75*
G03*
X107725500Y33574500I-150000J0D01*
G01*
X113550500Y17600000D02*
G75*
G03*
X113550500Y17600000I-150000J0D01*
G01*
X91300500Y34630699D02*
G75*
G03*
X91300500Y34630699I-150000J0D01*
G01*
X65550000Y38700000D02*
G75*
G03*
X65550000Y38700000I-150000J0D01*
G01*
X65250000Y56400000D02*
G75*
G03*
X65250000Y56400000I-150000J0D01*
G01*
X64350000Y60950000D02*
G75*
G03*
X64350000Y60950000I-150000J0D01*
G01*
X26705074Y37144926D02*
G75*
G03*
X26705074Y37144926I-150000J0D01*
G01*
X46400000Y42499500D02*
G75*
G03*
X46400000Y42499500I-150000J0D01*
G01*
X24850000Y16100000D02*
G75*
G03*
X24850000Y16100000I-150000J0D01*
G01*
X3550000Y34375500D02*
G75*
G03*
X3550000Y34375500I-150000J0D01*
G01*
X67405074Y14544926D02*
G75*
G03*
X67405074Y14544926I-150000J0D01*
G01*
X50050000Y45900000D02*
G75*
G03*
X50050000Y45900000I-150000J0D01*
G01*
X9350000Y45900000D02*
G75*
G03*
X9350000Y45900000I-150000J0D01*
G01*
X107725500Y10974500D02*
G75*
G03*
X107725500Y10974500I-150000J0D01*
G01*
X105050000Y15750000D02*
G75*
G03*
X105050000Y15750000I-150000J0D01*
G01*
X52600000Y63450000D02*
G75*
G03*
X52600000Y63450000I-150000J0D01*
G01*
X65250000Y11200000D02*
G75*
G03*
X65250000Y11200000I-150000J0D01*
G01*
X93600000Y16800000D02*
G75*
G03*
X93600000Y16800000I-150000J0D01*
G01*
X106250000Y16100000D02*
G75*
G03*
X106250000Y16100000I-150000J0D01*
G01*
X107300000Y31600000D02*
G75*
G03*
X107300000Y31600000I-150000J0D01*
G01*
X11744115Y64437271D02*
G75*
G03*
X11744115Y64437271I-150000J0D01*
G01*
X84950000Y11775500D02*
G75*
G03*
X84950000Y11775500I-150000J0D01*
G01*
X60550000Y56000000D02*
G75*
G03*
X60550000Y56000000I-150000J0D01*
G01*
X30450000Y67050000D02*
G75*
G03*
X30450000Y67050000I-150000J0D01*
G01*
X72050000Y9700000D02*
G75*
G03*
X72050000Y9700000I-150000J0D01*
G01*
X108105074Y14544926D02*
G75*
G03*
X108105074Y14544926I-150000J0D01*
G01*
X86600000Y38300000D02*
G75*
G03*
X86600000Y38300000I-150000J0D01*
G01*
X32150500Y17600000D02*
G75*
G03*
X32150500Y17600000I-150000J0D01*
G01*
X87100000Y19899500D02*
G75*
G03*
X87100000Y19899500I-150000J0D01*
G01*
X4866784Y56759625D02*
G75*
G03*
X4866784Y56759625I-150000J0D01*
G01*
X30650000Y69500000D02*
G75*
G03*
X30650000Y69500000I-150000J0D01*
G01*
X70950000Y35900000D02*
G75*
G03*
X70950000Y35900000I-150000J0D01*
G01*
X19850000Y10800000D02*
G75*
G03*
X19850000Y10800000I-150000J0D01*
G01*
X25250000Y24500000D02*
G75*
G03*
X25250000Y24500000I-150000J0D01*
G01*
X5200000Y15700000D02*
G75*
G03*
X5200000Y15700000I-150000J0D01*
G01*
X45900000Y15700000D02*
G75*
G03*
X45900000Y15700000I-150000J0D01*
G01*
X95950000Y55250000D02*
G75*
G03*
X95950000Y55250000I-150000J0D01*
G01*
X31525500Y34862299D02*
G75*
G03*
X31525500Y34862299I-150000J0D01*
G01*
X107550000Y20750000D02*
G75*
G03*
X107550000Y20750000I-150000J0D01*
G01*
X52600000Y40850000D02*
G75*
G03*
X52600000Y40850000I-150000J0D01*
G01*
X86150000Y53800000D02*
G75*
G03*
X86150000Y53800000I-150000J0D01*
G01*
X12200000Y39400000D02*
G75*
G03*
X12200000Y39400000I-150000J0D01*
G01*
X71350000Y24300000D02*
G75*
G03*
X71350000Y24300000I-150000J0D01*
G01*
X112750000Y54900000D02*
G75*
G03*
X112750000Y54900000I-150000J0D01*
G01*
X63750000Y62550000D02*
G75*
G03*
X63750000Y62550000I-150000J0D01*
G01*
X31950000Y19800000D02*
G75*
G03*
X31950000Y19800000I-150000J0D01*
G01*
X45450000Y8600000D02*
G75*
G03*
X45450000Y8600000I-150000J0D01*
G01*
X71150000Y21850000D02*
G75*
G03*
X71150000Y21850000I-150000J0D01*
G01*
X72225500Y34862299D02*
G75*
G03*
X72225500Y34862299I-150000J0D01*
G01*
X45900000Y38300000D02*
G75*
G03*
X45900000Y38300000I-150000J0D01*
G01*
X20067241Y62807357D02*
G75*
G03*
X20067241Y62807357I-150000J0D01*
G01*
X71150000Y67050000D02*
G75*
G03*
X71150000Y67050000I-150000J0D01*
G01*
X8375500Y35424500D02*
G75*
G03*
X8375500Y35424500I-150000J0D01*
G01*
X12200000Y62000000D02*
G75*
G03*
X12200000Y62000000I-150000J0D01*
G01*
X14550000Y10050000D02*
G75*
G03*
X14550000Y10050000I-150000J0D01*
G01*
X31525500Y57462299D02*
G75*
G03*
X31525500Y57462299I-150000J0D01*
G01*
X104450000Y17350000D02*
G75*
G03*
X104450000Y17350000I-150000J0D01*
G01*
X19850000Y33400000D02*
G75*
G03*
X19850000Y33400000I-150000J0D01*
G01*
X72850500Y17600000D02*
G75*
G03*
X72850500Y17600000I-150000J0D01*
G01*
X111650000Y35900000D02*
G75*
G03*
X111650000Y35900000I-150000J0D01*
G01*
X11900000Y18250000D02*
G75*
G03*
X11900000Y18250000I-150000J0D01*
G01*
X65550000Y68650000D02*
G75*
G03*
X65550000Y68650000I-150000J0D01*
G01*
X70950000Y58500000D02*
G75*
G03*
X70950000Y58500000I-150000J0D01*
G01*
X9350000Y68500000D02*
G75*
G03*
X9350000Y68500000I-150000J0D01*
G01*
X26150000Y20750000D02*
G75*
G03*
X26150000Y20750000I-150000J0D01*
G01*
X65950000Y69700000D02*
G75*
G03*
X65950000Y69700000I-150000J0D01*
G01*
X106250000Y61300000D02*
G75*
G03*
X106250000Y61300000I-150000J0D01*
G01*
X106250000Y23450000D02*
G75*
G03*
X106250000Y23450000I-150000J0D01*
G01*
X104450000Y39950000D02*
G75*
G03*
X104450000Y39950000I-150000J0D01*
G01*
X11900000Y63450000D02*
G75*
G03*
X11900000Y63450000I-150000J0D01*
G01*
X93144115Y64437271D02*
G75*
G03*
X93144115Y64437271I-150000J0D01*
G01*
X89775500Y58024500D02*
G75*
G03*
X89775500Y58024500I-150000J0D01*
G01*
X26325500Y10974500D02*
G75*
G03*
X26325500Y10974500I-150000J0D01*
G01*
X101467241Y62807357D02*
G75*
G03*
X101467241Y62807357I-150000J0D01*
G01*
X52444115Y64437271D02*
G75*
G03*
X52444115Y64437271I-150000J0D01*
G01*
X25900000Y31600000D02*
G75*
G03*
X25900000Y31600000I-150000J0D01*
G01*
X30450000Y21850000D02*
G75*
G03*
X30450000Y21850000I-150000J0D01*
G01*
X70950000Y13300000D02*
G75*
G03*
X70950000Y13300000I-150000J0D01*
G01*
X106650000Y24500000D02*
G75*
G03*
X106650000Y24500000I-150000J0D01*
G01*
X108105074Y59744926D02*
G75*
G03*
X108105074Y59744926I-150000J0D01*
G01*
X67025500Y10974500D02*
G75*
G03*
X67025500Y10974500I-150000J0D01*
G01*
X106250000Y38700000D02*
G75*
G03*
X106250000Y38700000I-150000J0D01*
G01*
X9350000Y23300000D02*
G75*
G03*
X9350000Y23300000I-150000J0D01*
G01*
X72850500Y62800000D02*
G75*
G03*
X72850500Y62800000I-150000J0D01*
G01*
X25250000Y69700000D02*
G75*
G03*
X25250000Y69700000I-150000J0D01*
G01*
X86150000Y31200000D02*
G75*
G03*
X86150000Y31200000I-150000J0D01*
G01*
X50600500Y34630699D02*
G75*
G03*
X50600500Y34630699I-150000J0D01*
G01*
X50600500Y12030699D02*
G75*
G03*
X50600500Y12030699I-150000J0D01*
G01*
X23300000Y19700000D02*
G75*
G03*
X23300000Y19700000I-150000J0D01*
G01*
X9900500Y34630699D02*
G75*
G03*
X9900500Y34630699I-150000J0D01*
G01*
X23300000Y42300000D02*
G75*
G03*
X23300000Y42300000I-150000J0D01*
G01*
X112925500Y57462299D02*
G75*
G03*
X112925500Y57462299I-150000J0D01*
G01*
X86600000Y60900000D02*
G75*
G03*
X86600000Y60900000I-150000J0D01*
G01*
X23050000Y62550000D02*
G75*
G03*
X23050000Y62550000I-150000J0D01*
G01*
X65550000Y16100000D02*
G75*
G03*
X65550000Y16100000I-150000J0D01*
G01*
X25900000Y9000000D02*
G75*
G03*
X25900000Y9000000I-150000J0D01*
G01*
X67405074Y59744926D02*
G75*
G03*
X67405074Y59744926I-150000J0D01*
G01*
X86266784Y56759625D02*
G75*
G03*
X86266784Y56759625I-150000J0D01*
G01*
X20067241Y17607357D02*
G75*
G03*
X20067241Y17607357I-150000J0D01*
G01*
X104450000Y62550000D02*
G75*
G03*
X104450000Y62550000I-150000J0D01*
G01*
X63750000Y17350000D02*
G75*
G03*
X63750000Y17350000I-150000J0D01*
G01*
X24850000Y61300000D02*
G75*
G03*
X24850000Y61300000I-150000J0D01*
G01*
X23050000Y17350000D02*
G75*
G03*
X23050000Y17350000I-150000J0D01*
G01*
X71350000Y69500000D02*
G75*
G03*
X71350000Y69500000I-150000J0D01*
G01*
X107300000Y54200000D02*
G75*
G03*
X107300000Y54200000I-150000J0D01*
G01*
X64000000Y64900000D02*
G75*
G03*
X64000000Y64900000I-150000J0D01*
G01*
X52900000Y16800000D02*
G75*
G03*
X52900000Y16800000I-150000J0D01*
G01*
X105050000Y60950000D02*
G75*
G03*
X105050000Y60950000I-150000J0D01*
G01*
X30650000Y24300000D02*
G75*
G03*
X30650000Y24300000I-150000J0D01*
G01*
X104700000Y42300000D02*
G75*
G03*
X104700000Y42300000I-150000J0D01*
G01*
X23300000Y64900000D02*
G75*
G03*
X23300000Y64900000I-150000J0D01*
G01*
X32150500Y62800000D02*
G75*
G03*
X32150500Y62800000I-150000J0D01*
G01*
X91300500Y12030699D02*
G75*
G03*
X91300500Y12030699I-150000J0D01*
G01*
X52444115Y41837271D02*
G75*
G03*
X52444115Y41837271I-150000J0D01*
G01*
X14550000Y32650000D02*
G75*
G03*
X14550000Y32650000I-150000J0D01*
G01*
X45566784Y11559625D02*
G75*
G03*
X45566784Y11559625I-150000J0D01*
G01*
X93300000Y40850000D02*
G75*
G03*
X93300000Y40850000I-150000J0D01*
G01*
X71350000Y46900000D02*
G75*
G03*
X71350000Y46900000I-150000J0D01*
G01*
X8375500Y58024500D02*
G75*
G03*
X8375500Y58024500I-150000J0D01*
G01*
X86266784Y34159625D02*
G75*
G03*
X86266784Y34159625I-150000J0D01*
G01*
X87100000Y65099500D02*
G75*
G03*
X87100000Y65099500I-150000J0D01*
G01*
X55250000Y32650000D02*
G75*
G03*
X55250000Y32650000I-150000J0D01*
G01*
X44250000Y11775500D02*
G75*
G03*
X44250000Y11775500I-150000J0D01*
G01*
X11900000Y40850000D02*
G75*
G03*
X11900000Y40850000I-150000J0D01*
G01*
X93300000Y63450000D02*
G75*
G03*
X93300000Y63450000I-150000J0D01*
G01*
X26325500Y33574500D02*
G75*
G03*
X26325500Y33574500I-150000J0D01*
G01*
X9900500Y12030699D02*
G75*
G03*
X9900500Y12030699I-150000J0D01*
G01*
X84950000Y34375500D02*
G75*
G03*
X84950000Y34375500I-150000J0D01*
G01*
X5700000Y19899500D02*
G75*
G03*
X5700000Y19899500I-150000J0D01*
G01*
X106650000Y47100000D02*
G75*
G03*
X106650000Y47100000I-150000J0D01*
G01*
X52600000Y18250000D02*
G75*
G03*
X52600000Y18250000I-150000J0D01*
G01*
X50050000Y23300000D02*
G75*
G03*
X50050000Y23300000I-150000J0D01*
G01*
X106650000Y69700000D02*
G75*
G03*
X106650000Y69700000I-150000J0D01*
G01*
X52444115Y19237271D02*
G75*
G03*
X52444115Y19237271I-150000J0D01*
G01*
X104700000Y64900000D02*
G75*
G03*
X104700000Y64900000I-150000J0D01*
G01*
X113350000Y19800000D02*
G75*
G03*
X113350000Y19800000I-150000J0D01*
G01*
X23650000Y60950000D02*
G75*
G03*
X23650000Y60950000I-150000J0D01*
G01*
X50050000Y68500000D02*
G75*
G03*
X50050000Y68500000I-150000J0D01*
G01*
X95950000Y10050000D02*
G75*
G03*
X95950000Y10050000I-150000J0D01*
G01*
X112925500Y12262299D02*
G75*
G03*
X112925500Y12262299I-150000J0D01*
G01*
X113550500Y40200000D02*
G75*
G03*
X113550500Y40200000I-150000J0D01*
G01*
X65250000Y33800000D02*
G75*
G03*
X65250000Y33800000I-150000J0D01*
G01*
X50600500Y57230699D02*
G75*
G03*
X50600500Y57230699I-150000J0D01*
G01*
X24850000Y38700000D02*
G75*
G03*
X24850000Y38700000I-150000J0D01*
G01*
X30250000Y58500000D02*
G75*
G03*
X30250000Y58500000I-150000J0D01*
G01*
X112750000Y32300000D02*
G75*
G03*
X112750000Y32300000I-150000J0D01*
G01*
X8375500Y12824500D02*
G75*
G03*
X8375500Y12824500I-150000J0D01*
G01*
X89775500Y35424500D02*
G75*
G03*
X89775500Y35424500I-150000J0D01*
G01*
X26150000Y43350000D02*
G75*
G03*
X26150000Y43350000I-150000J0D01*
G01*
X23050000Y39950000D02*
G75*
G03*
X23050000Y39950000I-150000J0D01*
G01*
X107300000Y9000000D02*
G75*
G03*
X107300000Y9000000I-150000J0D01*
G01*
X101250000Y10800000D02*
G75*
G03*
X101250000Y10800000I-150000J0D01*
G01*
X3550000Y56975500D02*
G75*
G03*
X3550000Y56975500I-150000J0D01*
G01*
X86266784Y11559625D02*
G75*
G03*
X86266784Y11559625I-150000J0D01*
G01*
X30250000Y35900000D02*
G75*
G03*
X30250000Y35900000I-150000J0D01*
G01*
X65950000Y24500000D02*
G75*
G03*
X65950000Y24500000I-150000J0D01*
G01*
X72050000Y32300000D02*
G75*
G03*
X72050000Y32300000I-150000J0D01*
G01*
X45450000Y53800000D02*
G75*
G03*
X45450000Y53800000I-150000J0D01*
G01*
X45566784Y34159625D02*
G75*
G03*
X45566784Y34159625I-150000J0D01*
G01*
X55250000Y55250000D02*
G75*
G03*
X55250000Y55250000I-150000J0D01*
G01*
X65550000Y23450000D02*
G75*
G03*
X65550000Y23450000I-150000J0D01*
G01*
X24850000Y46050000D02*
G75*
G03*
X24850000Y46050000I-150000J0D01*
G01*
X105950000Y11200000D02*
G75*
G03*
X105950000Y11200000I-150000J0D01*
G01*
X19850000Y56000000D02*
G75*
G03*
X19850000Y56000000I-150000J0D01*
G01*
X66600000Y54200000D02*
G75*
G03*
X66600000Y54200000I-150000J0D01*
G01*
X105950000Y56400000D02*
G75*
G03*
X105950000Y56400000I-150000J0D01*
G01*
X72225500Y12262299D02*
G75*
G03*
X72225500Y12262299I-150000J0D01*
G01*
X67025500Y33574500D02*
G75*
G03*
X67025500Y33574500I-150000J0D01*
G01*
X4750000Y8600000D02*
G75*
G03*
X4750000Y8600000I-150000J0D01*
G01*
X4866784Y11559625D02*
G75*
G03*
X4866784Y11559625I-150000J0D01*
G01*
X31950000Y42400000D02*
G75*
G03*
X31950000Y42400000I-150000J0D01*
G01*
X5700000Y65099500D02*
G75*
G03*
X5700000Y65099500I-150000J0D01*
G01*
X26150000Y65950000D02*
G75*
G03*
X26150000Y65950000I-150000J0D01*
G01*
X111650000Y13300000D02*
G75*
G03*
X111650000Y13300000I-150000J0D01*
G01*
X49075500Y12824500D02*
G75*
G03*
X49075500Y12824500I-150000J0D01*
G01*
X105950000Y33800000D02*
G75*
G03*
X105950000Y33800000I-150000J0D01*
G01*
X25250000Y47100000D02*
G75*
G03*
X25250000Y47100000I-150000J0D01*
G01*
X64350000Y15750000D02*
G75*
G03*
X64350000Y15750000I-150000J0D01*
G01*
X60550000Y33400000D02*
G75*
G03*
X60550000Y33400000I-150000J0D01*
G01*
X44250000Y34375500D02*
G75*
G03*
X44250000Y34375500I-150000J0D01*
G01*
%TO.C,NB2*%
D11*
X42500000Y61850000D02*
X41000000Y61850000D01*
X41000000Y63750000D01*
X42500000Y63750000D01*
X42500000Y61850000D01*
G36*
X42500000Y61850000D02*
G01*
X41000000Y61850000D01*
X41000000Y63750000D01*
X42500000Y63750000D01*
X42500000Y61850000D01*
G37*
X42500000Y16650000D02*
X41000000Y16650000D01*
X41000000Y18550000D01*
X42500000Y18550000D01*
X42500000Y16650000D01*
G36*
X42500000Y16650000D02*
G01*
X41000000Y16650000D01*
X41000000Y18550000D01*
X42500000Y18550000D01*
X42500000Y16650000D01*
G37*
X83200000Y61850000D02*
X81700000Y61850000D01*
X81700000Y63750000D01*
X83200000Y63750000D01*
X83200000Y61850000D01*
G36*
X83200000Y61850000D02*
G01*
X81700000Y61850000D01*
X81700000Y63750000D01*
X83200000Y63750000D01*
X83200000Y61850000D01*
G37*
X1800000Y61850000D02*
X300000Y61850000D01*
X300000Y63750000D01*
X1800000Y63750000D01*
X1800000Y61850000D01*
G36*
X1800000Y61850000D02*
G01*
X300000Y61850000D01*
X300000Y63750000D01*
X1800000Y63750000D01*
X1800000Y61850000D01*
G37*
X83200000Y39250000D02*
X81700000Y39250000D01*
X81700000Y41150000D01*
X83200000Y41150000D01*
X83200000Y39250000D01*
G36*
X83200000Y39250000D02*
G01*
X81700000Y39250000D01*
X81700000Y41150000D01*
X83200000Y41150000D01*
X83200000Y39250000D01*
G37*
X83200000Y16650000D02*
X81700000Y16650000D01*
X81700000Y18550000D01*
X83200000Y18550000D01*
X83200000Y16650000D01*
G36*
X83200000Y16650000D02*
G01*
X81700000Y16650000D01*
X81700000Y18550000D01*
X83200000Y18550000D01*
X83200000Y16650000D01*
G37*
X1800000Y16650000D02*
X300000Y16650000D01*
X300000Y18550000D01*
X1800000Y18550000D01*
X1800000Y16650000D01*
G36*
X1800000Y16650000D02*
G01*
X300000Y16650000D01*
X300000Y18550000D01*
X1800000Y18550000D01*
X1800000Y16650000D01*
G37*
X1800000Y39250000D02*
X300000Y39250000D01*
X300000Y41150000D01*
X1800000Y41150000D01*
X1800000Y39250000D01*
G36*
X1800000Y39250000D02*
G01*
X300000Y39250000D01*
X300000Y41150000D01*
X1800000Y41150000D01*
X1800000Y39250000D01*
G37*
X42500000Y39250000D02*
X41000000Y39250000D01*
X41000000Y41150000D01*
X42500000Y41150000D01*
X42500000Y39250000D01*
G36*
X42500000Y39250000D02*
G01*
X41000000Y39250000D01*
X41000000Y41150000D01*
X42500000Y41150000D01*
X42500000Y39250000D01*
G37*
%TO.C,NB1*%
D12*
X55260840Y66016580D02*
X55371679Y66009025D01*
X55470669Y65998859D01*
X55544809Y65986926D01*
X55581099Y65974073D01*
X55587412Y65959272D01*
X55577925Y65905773D01*
X55543431Y65829029D01*
X55489609Y65739080D01*
X55422139Y65645964D01*
X55346700Y65559721D01*
X55190956Y65400100D01*
X55039497Y65400722D01*
X54795983Y65423820D01*
X54551944Y65493208D01*
X54525064Y65503543D01*
X54474536Y65528173D01*
X54460164Y65552506D01*
X54472672Y65587586D01*
X54500463Y65636127D01*
X54598876Y65764282D01*
X54719909Y65877171D01*
X54850560Y65963836D01*
X54977827Y66013321D01*
X54987233Y66015114D01*
X55055616Y66020470D01*
X55151152Y66020677D01*
X55260840Y66016580D01*
G36*
X55260840Y66016580D02*
G01*
X55371679Y66009025D01*
X55470669Y65998859D01*
X55544809Y65986926D01*
X55581099Y65974073D01*
X55587412Y65959272D01*
X55577925Y65905773D01*
X55543431Y65829029D01*
X55489609Y65739080D01*
X55422139Y65645964D01*
X55346700Y65559721D01*
X55190956Y65400100D01*
X55039497Y65400722D01*
X54795983Y65423820D01*
X54551944Y65493208D01*
X54525064Y65503543D01*
X54474536Y65528173D01*
X54460164Y65552506D01*
X54472672Y65587586D01*
X54500463Y65636127D01*
X54598876Y65764282D01*
X54719909Y65877171D01*
X54850560Y65963836D01*
X54977827Y66013321D01*
X54987233Y66015114D01*
X55055616Y66020470D01*
X55151152Y66020677D01*
X55260840Y66016580D01*
G37*
X59403323Y61063883D02*
X59679633Y61011555D01*
X59946592Y60914686D01*
X60196164Y60776182D01*
X60420315Y60598949D01*
X60494255Y60526204D01*
X60612863Y60389529D01*
X60712821Y60242202D01*
X60796082Y60078515D01*
X60864596Y59892760D01*
X60920314Y59679230D01*
X60965187Y59432218D01*
X61001168Y59146015D01*
X61030207Y58814915D01*
X61035785Y58713768D01*
X61040512Y58570104D01*
X61043980Y58396673D01*
X61046237Y58200193D01*
X61047333Y57987383D01*
X61047317Y57764960D01*
X61046237Y57539641D01*
X61044142Y57318145D01*
X61041081Y57107189D01*
X61037102Y56913491D01*
X61032255Y56743769D01*
X61026589Y56604739D01*
X61020151Y56503121D01*
X61012992Y56445631D01*
X61012911Y56445272D01*
X61007707Y56420703D01*
X61000781Y56403258D01*
X60986582Y56394725D01*
X60959559Y56396887D01*
X60914163Y56411530D01*
X60844842Y56440439D01*
X60746048Y56485399D01*
X60612228Y56548196D01*
X60437833Y56630614D01*
X60108845Y56789285D01*
X59696534Y56998375D01*
X59315144Y57203896D01*
X58967210Y57404258D01*
X58655270Y57597868D01*
X58381861Y57783138D01*
X58149520Y57958476D01*
X57960783Y58122292D01*
X57818189Y58272996D01*
X57795647Y58301052D01*
X57656265Y58519109D01*
X57555605Y58762411D01*
X57494338Y59023422D01*
X57473131Y59294606D01*
X57492654Y59568426D01*
X57553576Y59837346D01*
X57656565Y60093830D01*
X57677588Y60134935D01*
X57735243Y60235582D01*
X57778859Y60288675D01*
X57809844Y60294786D01*
X57829604Y60254488D01*
X57839549Y60168354D01*
X57841899Y60132366D01*
X57869217Y59970429D01*
X57926402Y59827905D01*
X58018436Y59697372D01*
X58150304Y59571409D01*
X58326990Y59442596D01*
X58405502Y59392257D01*
X58535248Y59313834D01*
X58677206Y59232419D01*
X58824368Y59151604D01*
X58969726Y59074981D01*
X59106270Y59006139D01*
X59226992Y58948670D01*
X59324884Y58906166D01*
X59392937Y58882217D01*
X59424142Y58880415D01*
X59426842Y58893220D01*
X59430592Y58950457D01*
X59433612Y59046706D01*
X59435754Y59174735D01*
X59436870Y59327309D01*
X59436811Y59497197D01*
X59436767Y59507701D01*
X59433460Y59766597D01*
X59425510Y59981261D01*
X59412073Y60157942D01*
X59392305Y60302888D01*
X59365363Y60422347D01*
X59330402Y60522568D01*
X59286580Y60609798D01*
X59232558Y60685068D01*
X59127927Y60788812D01*
X59007261Y60875110D01*
X58888725Y60929373D01*
X58867717Y60936394D01*
X58812843Y60963636D01*
X58790841Y60989848D01*
X58795497Y61006125D01*
X58823723Y61026500D01*
X58883242Y61042657D01*
X58980570Y61056145D01*
X59122229Y61068509D01*
X59125697Y61068763D01*
X59403323Y61063883D01*
G36*
X59403323Y61063883D02*
G01*
X59679633Y61011555D01*
X59946592Y60914686D01*
X60196164Y60776182D01*
X60420315Y60598949D01*
X60494255Y60526204D01*
X60612863Y60389529D01*
X60712821Y60242202D01*
X60796082Y60078515D01*
X60864596Y59892760D01*
X60920314Y59679230D01*
X60965187Y59432218D01*
X61001168Y59146015D01*
X61030207Y58814915D01*
X61035785Y58713768D01*
X61040512Y58570104D01*
X61043980Y58396673D01*
X61046237Y58200193D01*
X61047333Y57987383D01*
X61047317Y57764960D01*
X61046237Y57539641D01*
X61044142Y57318145D01*
X61041081Y57107189D01*
X61037102Y56913491D01*
X61032255Y56743769D01*
X61026589Y56604739D01*
X61020151Y56503121D01*
X61012992Y56445631D01*
X61012911Y56445272D01*
X61007707Y56420703D01*
X61000781Y56403258D01*
X60986582Y56394725D01*
X60959559Y56396887D01*
X60914163Y56411530D01*
X60844842Y56440439D01*
X60746048Y56485399D01*
X60612228Y56548196D01*
X60437833Y56630614D01*
X60108845Y56789285D01*
X59696534Y56998375D01*
X59315144Y57203896D01*
X58967210Y57404258D01*
X58655270Y57597868D01*
X58381861Y57783138D01*
X58149520Y57958476D01*
X57960783Y58122292D01*
X57818189Y58272996D01*
X57795647Y58301052D01*
X57656265Y58519109D01*
X57555605Y58762411D01*
X57494338Y59023422D01*
X57473131Y59294606D01*
X57492654Y59568426D01*
X57553576Y59837346D01*
X57656565Y60093830D01*
X57677588Y60134935D01*
X57735243Y60235582D01*
X57778859Y60288675D01*
X57809844Y60294786D01*
X57829604Y60254488D01*
X57839549Y60168354D01*
X57841899Y60132366D01*
X57869217Y59970429D01*
X57926402Y59827905D01*
X58018436Y59697372D01*
X58150304Y59571409D01*
X58326990Y59442596D01*
X58405502Y59392257D01*
X58535248Y59313834D01*
X58677206Y59232419D01*
X58824368Y59151604D01*
X58969726Y59074981D01*
X59106270Y59006139D01*
X59226992Y58948670D01*
X59324884Y58906166D01*
X59392937Y58882217D01*
X59424142Y58880415D01*
X59426842Y58893220D01*
X59430592Y58950457D01*
X59433612Y59046706D01*
X59435754Y59174735D01*
X59436870Y59327309D01*
X59436811Y59497197D01*
X59436767Y59507701D01*
X59433460Y59766597D01*
X59425510Y59981261D01*
X59412073Y60157942D01*
X59392305Y60302888D01*
X59365363Y60422347D01*
X59330402Y60522568D01*
X59286580Y60609798D01*
X59232558Y60685068D01*
X59127927Y60788812D01*
X59007261Y60875110D01*
X58888725Y60929373D01*
X58867717Y60936394D01*
X58812843Y60963636D01*
X58790841Y60989848D01*
X58795497Y61006125D01*
X58823723Y61026500D01*
X58883242Y61042657D01*
X58980570Y61056145D01*
X59122229Y61068509D01*
X59125697Y61068763D01*
X59403323Y61063883D01*
G37*
X55260840Y20816580D02*
X55371679Y20809025D01*
X55470669Y20798859D01*
X55544809Y20786926D01*
X55581099Y20774073D01*
X55587412Y20759272D01*
X55577925Y20705773D01*
X55543431Y20629029D01*
X55489609Y20539080D01*
X55422139Y20445964D01*
X55346700Y20359721D01*
X55190956Y20200100D01*
X55039497Y20200722D01*
X54795983Y20223820D01*
X54551944Y20293208D01*
X54525064Y20303543D01*
X54474536Y20328173D01*
X54460164Y20352506D01*
X54472672Y20387586D01*
X54500463Y20436127D01*
X54598876Y20564282D01*
X54719909Y20677171D01*
X54850560Y20763836D01*
X54977827Y20813321D01*
X54987233Y20815114D01*
X55055616Y20820470D01*
X55151152Y20820677D01*
X55260840Y20816580D01*
G36*
X55260840Y20816580D02*
G01*
X55371679Y20809025D01*
X55470669Y20798859D01*
X55544809Y20786926D01*
X55581099Y20774073D01*
X55587412Y20759272D01*
X55577925Y20705773D01*
X55543431Y20629029D01*
X55489609Y20539080D01*
X55422139Y20445964D01*
X55346700Y20359721D01*
X55190956Y20200100D01*
X55039497Y20200722D01*
X54795983Y20223820D01*
X54551944Y20293208D01*
X54525064Y20303543D01*
X54474536Y20328173D01*
X54460164Y20352506D01*
X54472672Y20387586D01*
X54500463Y20436127D01*
X54598876Y20564282D01*
X54719909Y20677171D01*
X54850560Y20763836D01*
X54977827Y20813321D01*
X54987233Y20815114D01*
X55055616Y20820470D01*
X55151152Y20820677D01*
X55260840Y20816580D01*
G37*
X59403323Y15863883D02*
X59679633Y15811555D01*
X59946592Y15714686D01*
X60196164Y15576182D01*
X60420315Y15398949D01*
X60494255Y15326204D01*
X60612863Y15189529D01*
X60712821Y15042202D01*
X60796082Y14878515D01*
X60864596Y14692760D01*
X60920314Y14479230D01*
X60965187Y14232218D01*
X61001168Y13946015D01*
X61030207Y13614915D01*
X61035785Y13513768D01*
X61040512Y13370104D01*
X61043980Y13196673D01*
X61046237Y13000193D01*
X61047333Y12787383D01*
X61047317Y12564960D01*
X61046237Y12339641D01*
X61044142Y12118145D01*
X61041081Y11907189D01*
X61037102Y11713491D01*
X61032255Y11543769D01*
X61026589Y11404739D01*
X61020151Y11303121D01*
X61012992Y11245631D01*
X61012911Y11245272D01*
X61007707Y11220703D01*
X61000781Y11203258D01*
X60986582Y11194725D01*
X60959559Y11196887D01*
X60914163Y11211530D01*
X60844842Y11240439D01*
X60746048Y11285399D01*
X60612228Y11348196D01*
X60437833Y11430614D01*
X60108845Y11589285D01*
X59696534Y11798375D01*
X59315144Y12003896D01*
X58967210Y12204258D01*
X58655270Y12397868D01*
X58381861Y12583138D01*
X58149520Y12758476D01*
X57960783Y12922292D01*
X57818189Y13072996D01*
X57795647Y13101052D01*
X57656265Y13319109D01*
X57555605Y13562411D01*
X57494338Y13823422D01*
X57473131Y14094606D01*
X57492654Y14368426D01*
X57553576Y14637346D01*
X57656565Y14893830D01*
X57677588Y14934935D01*
X57735243Y15035582D01*
X57778859Y15088675D01*
X57809844Y15094786D01*
X57829604Y15054488D01*
X57839549Y14968354D01*
X57841899Y14932366D01*
X57869217Y14770429D01*
X57926402Y14627905D01*
X58018436Y14497372D01*
X58150304Y14371409D01*
X58326990Y14242596D01*
X58405502Y14192257D01*
X58535248Y14113834D01*
X58677206Y14032419D01*
X58824368Y13951604D01*
X58969726Y13874981D01*
X59106270Y13806139D01*
X59226992Y13748670D01*
X59324884Y13706166D01*
X59392937Y13682217D01*
X59424142Y13680415D01*
X59426842Y13693220D01*
X59430592Y13750457D01*
X59433612Y13846706D01*
X59435754Y13974735D01*
X59436870Y14127309D01*
X59436811Y14297197D01*
X59436767Y14307701D01*
X59433460Y14566597D01*
X59425510Y14781261D01*
X59412073Y14957942D01*
X59392305Y15102888D01*
X59365363Y15222347D01*
X59330402Y15322568D01*
X59286580Y15409798D01*
X59232558Y15485068D01*
X59127927Y15588812D01*
X59007261Y15675110D01*
X58888725Y15729373D01*
X58867717Y15736394D01*
X58812843Y15763636D01*
X58790841Y15789848D01*
X58795497Y15806125D01*
X58823723Y15826500D01*
X58883242Y15842657D01*
X58980570Y15856145D01*
X59122229Y15868509D01*
X59125697Y15868763D01*
X59403323Y15863883D01*
G36*
X59403323Y15863883D02*
G01*
X59679633Y15811555D01*
X59946592Y15714686D01*
X60196164Y15576182D01*
X60420315Y15398949D01*
X60494255Y15326204D01*
X60612863Y15189529D01*
X60712821Y15042202D01*
X60796082Y14878515D01*
X60864596Y14692760D01*
X60920314Y14479230D01*
X60965187Y14232218D01*
X61001168Y13946015D01*
X61030207Y13614915D01*
X61035785Y13513768D01*
X61040512Y13370104D01*
X61043980Y13196673D01*
X61046237Y13000193D01*
X61047333Y12787383D01*
X61047317Y12564960D01*
X61046237Y12339641D01*
X61044142Y12118145D01*
X61041081Y11907189D01*
X61037102Y11713491D01*
X61032255Y11543769D01*
X61026589Y11404739D01*
X61020151Y11303121D01*
X61012992Y11245631D01*
X61012911Y11245272D01*
X61007707Y11220703D01*
X61000781Y11203258D01*
X60986582Y11194725D01*
X60959559Y11196887D01*
X60914163Y11211530D01*
X60844842Y11240439D01*
X60746048Y11285399D01*
X60612228Y11348196D01*
X60437833Y11430614D01*
X60108845Y11589285D01*
X59696534Y11798375D01*
X59315144Y12003896D01*
X58967210Y12204258D01*
X58655270Y12397868D01*
X58381861Y12583138D01*
X58149520Y12758476D01*
X57960783Y12922292D01*
X57818189Y13072996D01*
X57795647Y13101052D01*
X57656265Y13319109D01*
X57555605Y13562411D01*
X57494338Y13823422D01*
X57473131Y14094606D01*
X57492654Y14368426D01*
X57553576Y14637346D01*
X57656565Y14893830D01*
X57677588Y14934935D01*
X57735243Y15035582D01*
X57778859Y15088675D01*
X57809844Y15094786D01*
X57829604Y15054488D01*
X57839549Y14968354D01*
X57841899Y14932366D01*
X57869217Y14770429D01*
X57926402Y14627905D01*
X58018436Y14497372D01*
X58150304Y14371409D01*
X58326990Y14242596D01*
X58405502Y14192257D01*
X58535248Y14113834D01*
X58677206Y14032419D01*
X58824368Y13951604D01*
X58969726Y13874981D01*
X59106270Y13806139D01*
X59226992Y13748670D01*
X59324884Y13706166D01*
X59392937Y13682217D01*
X59424142Y13680415D01*
X59426842Y13693220D01*
X59430592Y13750457D01*
X59433612Y13846706D01*
X59435754Y13974735D01*
X59436870Y14127309D01*
X59436811Y14297197D01*
X59436767Y14307701D01*
X59433460Y14566597D01*
X59425510Y14781261D01*
X59412073Y14957942D01*
X59392305Y15102888D01*
X59365363Y15222347D01*
X59330402Y15322568D01*
X59286580Y15409798D01*
X59232558Y15485068D01*
X59127927Y15588812D01*
X59007261Y15675110D01*
X58888725Y15729373D01*
X58867717Y15736394D01*
X58812843Y15763636D01*
X58790841Y15789848D01*
X58795497Y15806125D01*
X58823723Y15826500D01*
X58883242Y15842657D01*
X58980570Y15856145D01*
X59122229Y15868509D01*
X59125697Y15868763D01*
X59403323Y15863883D01*
G37*
X14560840Y20816580D02*
X14671679Y20809025D01*
X14770669Y20798859D01*
X14844809Y20786926D01*
X14881099Y20774073D01*
X14887412Y20759272D01*
X14877925Y20705773D01*
X14843431Y20629029D01*
X14789609Y20539080D01*
X14722139Y20445964D01*
X14646700Y20359721D01*
X14490956Y20200100D01*
X14339497Y20200722D01*
X14095983Y20223820D01*
X13851944Y20293208D01*
X13825064Y20303543D01*
X13774536Y20328173D01*
X13760164Y20352506D01*
X13772672Y20387586D01*
X13800463Y20436127D01*
X13898876Y20564282D01*
X14019909Y20677171D01*
X14150560Y20763836D01*
X14277827Y20813321D01*
X14287233Y20815114D01*
X14355616Y20820470D01*
X14451152Y20820677D01*
X14560840Y20816580D01*
G36*
X14560840Y20816580D02*
G01*
X14671679Y20809025D01*
X14770669Y20798859D01*
X14844809Y20786926D01*
X14881099Y20774073D01*
X14887412Y20759272D01*
X14877925Y20705773D01*
X14843431Y20629029D01*
X14789609Y20539080D01*
X14722139Y20445964D01*
X14646700Y20359721D01*
X14490956Y20200100D01*
X14339497Y20200722D01*
X14095983Y20223820D01*
X13851944Y20293208D01*
X13825064Y20303543D01*
X13774536Y20328173D01*
X13760164Y20352506D01*
X13772672Y20387586D01*
X13800463Y20436127D01*
X13898876Y20564282D01*
X14019909Y20677171D01*
X14150560Y20763836D01*
X14277827Y20813321D01*
X14287233Y20815114D01*
X14355616Y20820470D01*
X14451152Y20820677D01*
X14560840Y20816580D01*
G37*
X18703323Y15863883D02*
X18979633Y15811555D01*
X19246592Y15714686D01*
X19496164Y15576182D01*
X19720315Y15398949D01*
X19794255Y15326204D01*
X19912863Y15189529D01*
X20012821Y15042202D01*
X20096082Y14878515D01*
X20164596Y14692760D01*
X20220314Y14479230D01*
X20265187Y14232218D01*
X20301168Y13946015D01*
X20330207Y13614915D01*
X20335785Y13513768D01*
X20340512Y13370104D01*
X20343980Y13196673D01*
X20346237Y13000193D01*
X20347333Y12787383D01*
X20347317Y12564960D01*
X20346237Y12339641D01*
X20344142Y12118145D01*
X20341081Y11907189D01*
X20337102Y11713491D01*
X20332255Y11543769D01*
X20326589Y11404739D01*
X20320151Y11303121D01*
X20312992Y11245631D01*
X20312911Y11245272D01*
X20307707Y11220703D01*
X20300781Y11203258D01*
X20286582Y11194725D01*
X20259559Y11196887D01*
X20214163Y11211530D01*
X20144842Y11240439D01*
X20046048Y11285399D01*
X19912228Y11348196D01*
X19737833Y11430614D01*
X19408845Y11589285D01*
X18996534Y11798375D01*
X18615144Y12003896D01*
X18267210Y12204258D01*
X17955270Y12397868D01*
X17681861Y12583138D01*
X17449520Y12758476D01*
X17260783Y12922292D01*
X17118189Y13072996D01*
X17095647Y13101052D01*
X16956265Y13319109D01*
X16855605Y13562411D01*
X16794338Y13823422D01*
X16773131Y14094606D01*
X16792654Y14368426D01*
X16853576Y14637346D01*
X16956565Y14893830D01*
X16977588Y14934935D01*
X17035243Y15035582D01*
X17078859Y15088675D01*
X17109844Y15094786D01*
X17129604Y15054488D01*
X17139549Y14968354D01*
X17141899Y14932366D01*
X17169217Y14770429D01*
X17226402Y14627905D01*
X17318436Y14497372D01*
X17450304Y14371409D01*
X17626990Y14242596D01*
X17705502Y14192257D01*
X17835248Y14113834D01*
X17977206Y14032419D01*
X18124368Y13951604D01*
X18269726Y13874981D01*
X18406270Y13806139D01*
X18526992Y13748670D01*
X18624884Y13706166D01*
X18692937Y13682217D01*
X18724142Y13680415D01*
X18726842Y13693220D01*
X18730592Y13750457D01*
X18733612Y13846706D01*
X18735754Y13974735D01*
X18736870Y14127309D01*
X18736811Y14297197D01*
X18736767Y14307701D01*
X18733460Y14566597D01*
X18725510Y14781261D01*
X18712073Y14957942D01*
X18692305Y15102888D01*
X18665363Y15222347D01*
X18630402Y15322568D01*
X18586580Y15409798D01*
X18532558Y15485068D01*
X18427927Y15588812D01*
X18307261Y15675110D01*
X18188725Y15729373D01*
X18167717Y15736394D01*
X18112843Y15763636D01*
X18090841Y15789848D01*
X18095497Y15806125D01*
X18123723Y15826500D01*
X18183242Y15842657D01*
X18280570Y15856145D01*
X18422229Y15868509D01*
X18425697Y15868763D01*
X18703323Y15863883D01*
G36*
X18703323Y15863883D02*
G01*
X18979633Y15811555D01*
X19246592Y15714686D01*
X19496164Y15576182D01*
X19720315Y15398949D01*
X19794255Y15326204D01*
X19912863Y15189529D01*
X20012821Y15042202D01*
X20096082Y14878515D01*
X20164596Y14692760D01*
X20220314Y14479230D01*
X20265187Y14232218D01*
X20301168Y13946015D01*
X20330207Y13614915D01*
X20335785Y13513768D01*
X20340512Y13370104D01*
X20343980Y13196673D01*
X20346237Y13000193D01*
X20347333Y12787383D01*
X20347317Y12564960D01*
X20346237Y12339641D01*
X20344142Y12118145D01*
X20341081Y11907189D01*
X20337102Y11713491D01*
X20332255Y11543769D01*
X20326589Y11404739D01*
X20320151Y11303121D01*
X20312992Y11245631D01*
X20312911Y11245272D01*
X20307707Y11220703D01*
X20300781Y11203258D01*
X20286582Y11194725D01*
X20259559Y11196887D01*
X20214163Y11211530D01*
X20144842Y11240439D01*
X20046048Y11285399D01*
X19912228Y11348196D01*
X19737833Y11430614D01*
X19408845Y11589285D01*
X18996534Y11798375D01*
X18615144Y12003896D01*
X18267210Y12204258D01*
X17955270Y12397868D01*
X17681861Y12583138D01*
X17449520Y12758476D01*
X17260783Y12922292D01*
X17118189Y13072996D01*
X17095647Y13101052D01*
X16956265Y13319109D01*
X16855605Y13562411D01*
X16794338Y13823422D01*
X16773131Y14094606D01*
X16792654Y14368426D01*
X16853576Y14637346D01*
X16956565Y14893830D01*
X16977588Y14934935D01*
X17035243Y15035582D01*
X17078859Y15088675D01*
X17109844Y15094786D01*
X17129604Y15054488D01*
X17139549Y14968354D01*
X17141899Y14932366D01*
X17169217Y14770429D01*
X17226402Y14627905D01*
X17318436Y14497372D01*
X17450304Y14371409D01*
X17626990Y14242596D01*
X17705502Y14192257D01*
X17835248Y14113834D01*
X17977206Y14032419D01*
X18124368Y13951604D01*
X18269726Y13874981D01*
X18406270Y13806139D01*
X18526992Y13748670D01*
X18624884Y13706166D01*
X18692937Y13682217D01*
X18724142Y13680415D01*
X18726842Y13693220D01*
X18730592Y13750457D01*
X18733612Y13846706D01*
X18735754Y13974735D01*
X18736870Y14127309D01*
X18736811Y14297197D01*
X18736767Y14307701D01*
X18733460Y14566597D01*
X18725510Y14781261D01*
X18712073Y14957942D01*
X18692305Y15102888D01*
X18665363Y15222347D01*
X18630402Y15322568D01*
X18586580Y15409798D01*
X18532558Y15485068D01*
X18427927Y15588812D01*
X18307261Y15675110D01*
X18188725Y15729373D01*
X18167717Y15736394D01*
X18112843Y15763636D01*
X18090841Y15789848D01*
X18095497Y15806125D01*
X18123723Y15826500D01*
X18183242Y15842657D01*
X18280570Y15856145D01*
X18422229Y15868509D01*
X18425697Y15868763D01*
X18703323Y15863883D01*
G37*
X95960840Y20816580D02*
X96071679Y20809025D01*
X96170669Y20798859D01*
X96244809Y20786926D01*
X96281099Y20774073D01*
X96287412Y20759272D01*
X96277925Y20705773D01*
X96243431Y20629029D01*
X96189609Y20539080D01*
X96122139Y20445964D01*
X96046700Y20359721D01*
X95890956Y20200100D01*
X95739497Y20200722D01*
X95495983Y20223820D01*
X95251944Y20293208D01*
X95225064Y20303543D01*
X95174536Y20328173D01*
X95160164Y20352506D01*
X95172672Y20387586D01*
X95200463Y20436127D01*
X95298876Y20564282D01*
X95419909Y20677171D01*
X95550560Y20763836D01*
X95677827Y20813321D01*
X95687233Y20815114D01*
X95755616Y20820470D01*
X95851152Y20820677D01*
X95960840Y20816580D01*
G36*
X95960840Y20816580D02*
G01*
X96071679Y20809025D01*
X96170669Y20798859D01*
X96244809Y20786926D01*
X96281099Y20774073D01*
X96287412Y20759272D01*
X96277925Y20705773D01*
X96243431Y20629029D01*
X96189609Y20539080D01*
X96122139Y20445964D01*
X96046700Y20359721D01*
X95890956Y20200100D01*
X95739497Y20200722D01*
X95495983Y20223820D01*
X95251944Y20293208D01*
X95225064Y20303543D01*
X95174536Y20328173D01*
X95160164Y20352506D01*
X95172672Y20387586D01*
X95200463Y20436127D01*
X95298876Y20564282D01*
X95419909Y20677171D01*
X95550560Y20763836D01*
X95677827Y20813321D01*
X95687233Y20815114D01*
X95755616Y20820470D01*
X95851152Y20820677D01*
X95960840Y20816580D01*
G37*
X100103323Y15863883D02*
X100379633Y15811555D01*
X100646592Y15714686D01*
X100896164Y15576182D01*
X101120315Y15398949D01*
X101194255Y15326204D01*
X101312863Y15189529D01*
X101412821Y15042202D01*
X101496082Y14878515D01*
X101564596Y14692760D01*
X101620314Y14479230D01*
X101665187Y14232218D01*
X101701168Y13946015D01*
X101730207Y13614915D01*
X101735785Y13513768D01*
X101740512Y13370104D01*
X101743980Y13196673D01*
X101746237Y13000193D01*
X101747333Y12787383D01*
X101747317Y12564960D01*
X101746237Y12339641D01*
X101744142Y12118145D01*
X101741081Y11907189D01*
X101737102Y11713491D01*
X101732255Y11543769D01*
X101726589Y11404739D01*
X101720151Y11303121D01*
X101712992Y11245631D01*
X101712911Y11245272D01*
X101707707Y11220703D01*
X101700781Y11203258D01*
X101686582Y11194725D01*
X101659559Y11196887D01*
X101614163Y11211530D01*
X101544842Y11240439D01*
X101446048Y11285399D01*
X101312228Y11348196D01*
X101137833Y11430614D01*
X100808845Y11589285D01*
X100396534Y11798375D01*
X100015144Y12003896D01*
X99667210Y12204258D01*
X99355270Y12397868D01*
X99081861Y12583138D01*
X98849520Y12758476D01*
X98660783Y12922292D01*
X98518189Y13072996D01*
X98495647Y13101052D01*
X98356265Y13319109D01*
X98255605Y13562411D01*
X98194338Y13823422D01*
X98173131Y14094606D01*
X98192654Y14368426D01*
X98253576Y14637346D01*
X98356565Y14893830D01*
X98377588Y14934935D01*
X98435243Y15035582D01*
X98478859Y15088675D01*
X98509844Y15094786D01*
X98529604Y15054488D01*
X98539549Y14968354D01*
X98541899Y14932366D01*
X98569217Y14770429D01*
X98626402Y14627905D01*
X98718436Y14497372D01*
X98850304Y14371409D01*
X99026990Y14242596D01*
X99105502Y14192257D01*
X99235248Y14113834D01*
X99377206Y14032419D01*
X99524368Y13951604D01*
X99669726Y13874981D01*
X99806270Y13806139D01*
X99926992Y13748670D01*
X100024884Y13706166D01*
X100092937Y13682217D01*
X100124142Y13680415D01*
X100126842Y13693220D01*
X100130592Y13750457D01*
X100133612Y13846706D01*
X100135754Y13974735D01*
X100136870Y14127309D01*
X100136811Y14297197D01*
X100136767Y14307701D01*
X100133460Y14566597D01*
X100125510Y14781261D01*
X100112073Y14957942D01*
X100092305Y15102888D01*
X100065363Y15222347D01*
X100030402Y15322568D01*
X99986580Y15409798D01*
X99932558Y15485068D01*
X99827927Y15588812D01*
X99707261Y15675110D01*
X99588725Y15729373D01*
X99567717Y15736394D01*
X99512843Y15763636D01*
X99490841Y15789848D01*
X99495497Y15806125D01*
X99523723Y15826500D01*
X99583242Y15842657D01*
X99680570Y15856145D01*
X99822229Y15868509D01*
X99825697Y15868763D01*
X100103323Y15863883D01*
G36*
X100103323Y15863883D02*
G01*
X100379633Y15811555D01*
X100646592Y15714686D01*
X100896164Y15576182D01*
X101120315Y15398949D01*
X101194255Y15326204D01*
X101312863Y15189529D01*
X101412821Y15042202D01*
X101496082Y14878515D01*
X101564596Y14692760D01*
X101620314Y14479230D01*
X101665187Y14232218D01*
X101701168Y13946015D01*
X101730207Y13614915D01*
X101735785Y13513768D01*
X101740512Y13370104D01*
X101743980Y13196673D01*
X101746237Y13000193D01*
X101747333Y12787383D01*
X101747317Y12564960D01*
X101746237Y12339641D01*
X101744142Y12118145D01*
X101741081Y11907189D01*
X101737102Y11713491D01*
X101732255Y11543769D01*
X101726589Y11404739D01*
X101720151Y11303121D01*
X101712992Y11245631D01*
X101712911Y11245272D01*
X101707707Y11220703D01*
X101700781Y11203258D01*
X101686582Y11194725D01*
X101659559Y11196887D01*
X101614163Y11211530D01*
X101544842Y11240439D01*
X101446048Y11285399D01*
X101312228Y11348196D01*
X101137833Y11430614D01*
X100808845Y11589285D01*
X100396534Y11798375D01*
X100015144Y12003896D01*
X99667210Y12204258D01*
X99355270Y12397868D01*
X99081861Y12583138D01*
X98849520Y12758476D01*
X98660783Y12922292D01*
X98518189Y13072996D01*
X98495647Y13101052D01*
X98356265Y13319109D01*
X98255605Y13562411D01*
X98194338Y13823422D01*
X98173131Y14094606D01*
X98192654Y14368426D01*
X98253576Y14637346D01*
X98356565Y14893830D01*
X98377588Y14934935D01*
X98435243Y15035582D01*
X98478859Y15088675D01*
X98509844Y15094786D01*
X98529604Y15054488D01*
X98539549Y14968354D01*
X98541899Y14932366D01*
X98569217Y14770429D01*
X98626402Y14627905D01*
X98718436Y14497372D01*
X98850304Y14371409D01*
X99026990Y14242596D01*
X99105502Y14192257D01*
X99235248Y14113834D01*
X99377206Y14032419D01*
X99524368Y13951604D01*
X99669726Y13874981D01*
X99806270Y13806139D01*
X99926992Y13748670D01*
X100024884Y13706166D01*
X100092937Y13682217D01*
X100124142Y13680415D01*
X100126842Y13693220D01*
X100130592Y13750457D01*
X100133612Y13846706D01*
X100135754Y13974735D01*
X100136870Y14127309D01*
X100136811Y14297197D01*
X100136767Y14307701D01*
X100133460Y14566597D01*
X100125510Y14781261D01*
X100112073Y14957942D01*
X100092305Y15102888D01*
X100065363Y15222347D01*
X100030402Y15322568D01*
X99986580Y15409798D01*
X99932558Y15485068D01*
X99827927Y15588812D01*
X99707261Y15675110D01*
X99588725Y15729373D01*
X99567717Y15736394D01*
X99512843Y15763636D01*
X99490841Y15789848D01*
X99495497Y15806125D01*
X99523723Y15826500D01*
X99583242Y15842657D01*
X99680570Y15856145D01*
X99822229Y15868509D01*
X99825697Y15868763D01*
X100103323Y15863883D01*
G37*
X95960840Y66016580D02*
X96071679Y66009025D01*
X96170669Y65998859D01*
X96244809Y65986926D01*
X96281099Y65974073D01*
X96287412Y65959272D01*
X96277925Y65905773D01*
X96243431Y65829029D01*
X96189609Y65739080D01*
X96122139Y65645964D01*
X96046700Y65559721D01*
X95890956Y65400100D01*
X95739497Y65400722D01*
X95495983Y65423820D01*
X95251944Y65493208D01*
X95225064Y65503543D01*
X95174536Y65528173D01*
X95160164Y65552506D01*
X95172672Y65587586D01*
X95200463Y65636127D01*
X95298876Y65764282D01*
X95419909Y65877171D01*
X95550560Y65963836D01*
X95677827Y66013321D01*
X95687233Y66015114D01*
X95755616Y66020470D01*
X95851152Y66020677D01*
X95960840Y66016580D01*
G36*
X95960840Y66016580D02*
G01*
X96071679Y66009025D01*
X96170669Y65998859D01*
X96244809Y65986926D01*
X96281099Y65974073D01*
X96287412Y65959272D01*
X96277925Y65905773D01*
X96243431Y65829029D01*
X96189609Y65739080D01*
X96122139Y65645964D01*
X96046700Y65559721D01*
X95890956Y65400100D01*
X95739497Y65400722D01*
X95495983Y65423820D01*
X95251944Y65493208D01*
X95225064Y65503543D01*
X95174536Y65528173D01*
X95160164Y65552506D01*
X95172672Y65587586D01*
X95200463Y65636127D01*
X95298876Y65764282D01*
X95419909Y65877171D01*
X95550560Y65963836D01*
X95677827Y66013321D01*
X95687233Y66015114D01*
X95755616Y66020470D01*
X95851152Y66020677D01*
X95960840Y66016580D01*
G37*
X100103323Y61063883D02*
X100379633Y61011555D01*
X100646592Y60914686D01*
X100896164Y60776182D01*
X101120315Y60598949D01*
X101194255Y60526204D01*
X101312863Y60389529D01*
X101412821Y60242202D01*
X101496082Y60078515D01*
X101564596Y59892760D01*
X101620314Y59679230D01*
X101665187Y59432218D01*
X101701168Y59146015D01*
X101730207Y58814915D01*
X101735785Y58713768D01*
X101740512Y58570104D01*
X101743980Y58396673D01*
X101746237Y58200193D01*
X101747333Y57987383D01*
X101747317Y57764960D01*
X101746237Y57539641D01*
X101744142Y57318145D01*
X101741081Y57107189D01*
X101737102Y56913491D01*
X101732255Y56743769D01*
X101726589Y56604739D01*
X101720151Y56503121D01*
X101712992Y56445631D01*
X101712911Y56445272D01*
X101707707Y56420703D01*
X101700781Y56403258D01*
X101686582Y56394725D01*
X101659559Y56396887D01*
X101614163Y56411530D01*
X101544842Y56440439D01*
X101446048Y56485399D01*
X101312228Y56548196D01*
X101137833Y56630614D01*
X100808845Y56789285D01*
X100396534Y56998375D01*
X100015144Y57203896D01*
X99667210Y57404258D01*
X99355270Y57597868D01*
X99081861Y57783138D01*
X98849520Y57958476D01*
X98660783Y58122292D01*
X98518189Y58272996D01*
X98495647Y58301052D01*
X98356265Y58519109D01*
X98255605Y58762411D01*
X98194338Y59023422D01*
X98173131Y59294606D01*
X98192654Y59568426D01*
X98253576Y59837346D01*
X98356565Y60093830D01*
X98377588Y60134935D01*
X98435243Y60235582D01*
X98478859Y60288675D01*
X98509844Y60294786D01*
X98529604Y60254488D01*
X98539549Y60168354D01*
X98541899Y60132366D01*
X98569217Y59970429D01*
X98626402Y59827905D01*
X98718436Y59697372D01*
X98850304Y59571409D01*
X99026990Y59442596D01*
X99105502Y59392257D01*
X99235248Y59313834D01*
X99377206Y59232419D01*
X99524368Y59151604D01*
X99669726Y59074981D01*
X99806270Y59006139D01*
X99926992Y58948670D01*
X100024884Y58906166D01*
X100092937Y58882217D01*
X100124142Y58880415D01*
X100126842Y58893220D01*
X100130592Y58950457D01*
X100133612Y59046706D01*
X100135754Y59174735D01*
X100136870Y59327309D01*
X100136811Y59497197D01*
X100136767Y59507701D01*
X100133460Y59766597D01*
X100125510Y59981261D01*
X100112073Y60157942D01*
X100092305Y60302888D01*
X100065363Y60422347D01*
X100030402Y60522568D01*
X99986580Y60609798D01*
X99932558Y60685068D01*
X99827927Y60788812D01*
X99707261Y60875110D01*
X99588725Y60929373D01*
X99567717Y60936394D01*
X99512843Y60963636D01*
X99490841Y60989848D01*
X99495497Y61006125D01*
X99523723Y61026500D01*
X99583242Y61042657D01*
X99680570Y61056145D01*
X99822229Y61068509D01*
X99825697Y61068763D01*
X100103323Y61063883D01*
G36*
X100103323Y61063883D02*
G01*
X100379633Y61011555D01*
X100646592Y60914686D01*
X100896164Y60776182D01*
X101120315Y60598949D01*
X101194255Y60526204D01*
X101312863Y60389529D01*
X101412821Y60242202D01*
X101496082Y60078515D01*
X101564596Y59892760D01*
X101620314Y59679230D01*
X101665187Y59432218D01*
X101701168Y59146015D01*
X101730207Y58814915D01*
X101735785Y58713768D01*
X101740512Y58570104D01*
X101743980Y58396673D01*
X101746237Y58200193D01*
X101747333Y57987383D01*
X101747317Y57764960D01*
X101746237Y57539641D01*
X101744142Y57318145D01*
X101741081Y57107189D01*
X101737102Y56913491D01*
X101732255Y56743769D01*
X101726589Y56604739D01*
X101720151Y56503121D01*
X101712992Y56445631D01*
X101712911Y56445272D01*
X101707707Y56420703D01*
X101700781Y56403258D01*
X101686582Y56394725D01*
X101659559Y56396887D01*
X101614163Y56411530D01*
X101544842Y56440439D01*
X101446048Y56485399D01*
X101312228Y56548196D01*
X101137833Y56630614D01*
X100808845Y56789285D01*
X100396534Y56998375D01*
X100015144Y57203896D01*
X99667210Y57404258D01*
X99355270Y57597868D01*
X99081861Y57783138D01*
X98849520Y57958476D01*
X98660783Y58122292D01*
X98518189Y58272996D01*
X98495647Y58301052D01*
X98356265Y58519109D01*
X98255605Y58762411D01*
X98194338Y59023422D01*
X98173131Y59294606D01*
X98192654Y59568426D01*
X98253576Y59837346D01*
X98356565Y60093830D01*
X98377588Y60134935D01*
X98435243Y60235582D01*
X98478859Y60288675D01*
X98509844Y60294786D01*
X98529604Y60254488D01*
X98539549Y60168354D01*
X98541899Y60132366D01*
X98569217Y59970429D01*
X98626402Y59827905D01*
X98718436Y59697372D01*
X98850304Y59571409D01*
X99026990Y59442596D01*
X99105502Y59392257D01*
X99235248Y59313834D01*
X99377206Y59232419D01*
X99524368Y59151604D01*
X99669726Y59074981D01*
X99806270Y59006139D01*
X99926992Y58948670D01*
X100024884Y58906166D01*
X100092937Y58882217D01*
X100124142Y58880415D01*
X100126842Y58893220D01*
X100130592Y58950457D01*
X100133612Y59046706D01*
X100135754Y59174735D01*
X100136870Y59327309D01*
X100136811Y59497197D01*
X100136767Y59507701D01*
X100133460Y59766597D01*
X100125510Y59981261D01*
X100112073Y60157942D01*
X100092305Y60302888D01*
X100065363Y60422347D01*
X100030402Y60522568D01*
X99986580Y60609798D01*
X99932558Y60685068D01*
X99827927Y60788812D01*
X99707261Y60875110D01*
X99588725Y60929373D01*
X99567717Y60936394D01*
X99512843Y60963636D01*
X99490841Y60989848D01*
X99495497Y61006125D01*
X99523723Y61026500D01*
X99583242Y61042657D01*
X99680570Y61056145D01*
X99822229Y61068509D01*
X99825697Y61068763D01*
X100103323Y61063883D01*
G37*
X14560840Y43416580D02*
X14671679Y43409025D01*
X14770669Y43398859D01*
X14844809Y43386926D01*
X14881099Y43374073D01*
X14887412Y43359272D01*
X14877925Y43305773D01*
X14843431Y43229029D01*
X14789609Y43139080D01*
X14722139Y43045964D01*
X14646700Y42959721D01*
X14490956Y42800100D01*
X14339497Y42800722D01*
X14095983Y42823820D01*
X13851944Y42893208D01*
X13825064Y42903543D01*
X13774536Y42928173D01*
X13760164Y42952506D01*
X13772672Y42987586D01*
X13800463Y43036127D01*
X13898876Y43164282D01*
X14019909Y43277171D01*
X14150560Y43363836D01*
X14277827Y43413321D01*
X14287233Y43415114D01*
X14355616Y43420470D01*
X14451152Y43420677D01*
X14560840Y43416580D01*
G36*
X14560840Y43416580D02*
G01*
X14671679Y43409025D01*
X14770669Y43398859D01*
X14844809Y43386926D01*
X14881099Y43374073D01*
X14887412Y43359272D01*
X14877925Y43305773D01*
X14843431Y43229029D01*
X14789609Y43139080D01*
X14722139Y43045964D01*
X14646700Y42959721D01*
X14490956Y42800100D01*
X14339497Y42800722D01*
X14095983Y42823820D01*
X13851944Y42893208D01*
X13825064Y42903543D01*
X13774536Y42928173D01*
X13760164Y42952506D01*
X13772672Y42987586D01*
X13800463Y43036127D01*
X13898876Y43164282D01*
X14019909Y43277171D01*
X14150560Y43363836D01*
X14277827Y43413321D01*
X14287233Y43415114D01*
X14355616Y43420470D01*
X14451152Y43420677D01*
X14560840Y43416580D01*
G37*
X18703323Y38463883D02*
X18979633Y38411555D01*
X19246592Y38314686D01*
X19496164Y38176182D01*
X19720315Y37998949D01*
X19794255Y37926204D01*
X19912863Y37789529D01*
X20012821Y37642202D01*
X20096082Y37478515D01*
X20164596Y37292760D01*
X20220314Y37079230D01*
X20265187Y36832218D01*
X20301168Y36546015D01*
X20330207Y36214915D01*
X20335785Y36113768D01*
X20340512Y35970104D01*
X20343980Y35796673D01*
X20346237Y35600193D01*
X20347333Y35387383D01*
X20347317Y35164960D01*
X20346237Y34939641D01*
X20344142Y34718145D01*
X20341081Y34507189D01*
X20337102Y34313491D01*
X20332255Y34143769D01*
X20326589Y34004739D01*
X20320151Y33903121D01*
X20312992Y33845631D01*
X20312911Y33845272D01*
X20307707Y33820703D01*
X20300781Y33803258D01*
X20286582Y33794725D01*
X20259559Y33796887D01*
X20214163Y33811530D01*
X20144842Y33840439D01*
X20046048Y33885399D01*
X19912228Y33948196D01*
X19737833Y34030614D01*
X19408845Y34189285D01*
X18996534Y34398375D01*
X18615144Y34603896D01*
X18267210Y34804258D01*
X17955270Y34997868D01*
X17681861Y35183138D01*
X17449520Y35358476D01*
X17260783Y35522292D01*
X17118189Y35672996D01*
X17095647Y35701052D01*
X16956265Y35919109D01*
X16855605Y36162411D01*
X16794338Y36423422D01*
X16773131Y36694606D01*
X16792654Y36968426D01*
X16853576Y37237346D01*
X16956565Y37493830D01*
X16977588Y37534935D01*
X17035243Y37635582D01*
X17078859Y37688675D01*
X17109844Y37694786D01*
X17129604Y37654488D01*
X17139549Y37568354D01*
X17141899Y37532366D01*
X17169217Y37370429D01*
X17226402Y37227905D01*
X17318436Y37097372D01*
X17450304Y36971409D01*
X17626990Y36842596D01*
X17705502Y36792257D01*
X17835248Y36713834D01*
X17977206Y36632419D01*
X18124368Y36551604D01*
X18269726Y36474981D01*
X18406270Y36406139D01*
X18526992Y36348670D01*
X18624884Y36306166D01*
X18692937Y36282217D01*
X18724142Y36280415D01*
X18726842Y36293220D01*
X18730592Y36350457D01*
X18733612Y36446706D01*
X18735754Y36574735D01*
X18736870Y36727309D01*
X18736811Y36897197D01*
X18736767Y36907701D01*
X18733460Y37166597D01*
X18725510Y37381261D01*
X18712073Y37557942D01*
X18692305Y37702888D01*
X18665363Y37822347D01*
X18630402Y37922568D01*
X18586580Y38009798D01*
X18532558Y38085068D01*
X18427927Y38188812D01*
X18307261Y38275110D01*
X18188725Y38329373D01*
X18167717Y38336394D01*
X18112843Y38363636D01*
X18090841Y38389848D01*
X18095497Y38406125D01*
X18123723Y38426500D01*
X18183242Y38442657D01*
X18280570Y38456145D01*
X18422229Y38468509D01*
X18425697Y38468763D01*
X18703323Y38463883D01*
G36*
X18703323Y38463883D02*
G01*
X18979633Y38411555D01*
X19246592Y38314686D01*
X19496164Y38176182D01*
X19720315Y37998949D01*
X19794255Y37926204D01*
X19912863Y37789529D01*
X20012821Y37642202D01*
X20096082Y37478515D01*
X20164596Y37292760D01*
X20220314Y37079230D01*
X20265187Y36832218D01*
X20301168Y36546015D01*
X20330207Y36214915D01*
X20335785Y36113768D01*
X20340512Y35970104D01*
X20343980Y35796673D01*
X20346237Y35600193D01*
X20347333Y35387383D01*
X20347317Y35164960D01*
X20346237Y34939641D01*
X20344142Y34718145D01*
X20341081Y34507189D01*
X20337102Y34313491D01*
X20332255Y34143769D01*
X20326589Y34004739D01*
X20320151Y33903121D01*
X20312992Y33845631D01*
X20312911Y33845272D01*
X20307707Y33820703D01*
X20300781Y33803258D01*
X20286582Y33794725D01*
X20259559Y33796887D01*
X20214163Y33811530D01*
X20144842Y33840439D01*
X20046048Y33885399D01*
X19912228Y33948196D01*
X19737833Y34030614D01*
X19408845Y34189285D01*
X18996534Y34398375D01*
X18615144Y34603896D01*
X18267210Y34804258D01*
X17955270Y34997868D01*
X17681861Y35183138D01*
X17449520Y35358476D01*
X17260783Y35522292D01*
X17118189Y35672996D01*
X17095647Y35701052D01*
X16956265Y35919109D01*
X16855605Y36162411D01*
X16794338Y36423422D01*
X16773131Y36694606D01*
X16792654Y36968426D01*
X16853576Y37237346D01*
X16956565Y37493830D01*
X16977588Y37534935D01*
X17035243Y37635582D01*
X17078859Y37688675D01*
X17109844Y37694786D01*
X17129604Y37654488D01*
X17139549Y37568354D01*
X17141899Y37532366D01*
X17169217Y37370429D01*
X17226402Y37227905D01*
X17318436Y37097372D01*
X17450304Y36971409D01*
X17626990Y36842596D01*
X17705502Y36792257D01*
X17835248Y36713834D01*
X17977206Y36632419D01*
X18124368Y36551604D01*
X18269726Y36474981D01*
X18406270Y36406139D01*
X18526992Y36348670D01*
X18624884Y36306166D01*
X18692937Y36282217D01*
X18724142Y36280415D01*
X18726842Y36293220D01*
X18730592Y36350457D01*
X18733612Y36446706D01*
X18735754Y36574735D01*
X18736870Y36727309D01*
X18736811Y36897197D01*
X18736767Y36907701D01*
X18733460Y37166597D01*
X18725510Y37381261D01*
X18712073Y37557942D01*
X18692305Y37702888D01*
X18665363Y37822347D01*
X18630402Y37922568D01*
X18586580Y38009798D01*
X18532558Y38085068D01*
X18427927Y38188812D01*
X18307261Y38275110D01*
X18188725Y38329373D01*
X18167717Y38336394D01*
X18112843Y38363636D01*
X18090841Y38389848D01*
X18095497Y38406125D01*
X18123723Y38426500D01*
X18183242Y38442657D01*
X18280570Y38456145D01*
X18422229Y38468509D01*
X18425697Y38468763D01*
X18703323Y38463883D01*
G37*
X14560840Y66016580D02*
X14671679Y66009025D01*
X14770669Y65998859D01*
X14844809Y65986926D01*
X14881099Y65974073D01*
X14887412Y65959272D01*
X14877925Y65905773D01*
X14843431Y65829029D01*
X14789609Y65739080D01*
X14722139Y65645964D01*
X14646700Y65559721D01*
X14490956Y65400100D01*
X14339497Y65400722D01*
X14095983Y65423820D01*
X13851944Y65493208D01*
X13825064Y65503543D01*
X13774536Y65528173D01*
X13760164Y65552506D01*
X13772672Y65587586D01*
X13800463Y65636127D01*
X13898876Y65764282D01*
X14019909Y65877171D01*
X14150560Y65963836D01*
X14277827Y66013321D01*
X14287233Y66015114D01*
X14355616Y66020470D01*
X14451152Y66020677D01*
X14560840Y66016580D01*
G36*
X14560840Y66016580D02*
G01*
X14671679Y66009025D01*
X14770669Y65998859D01*
X14844809Y65986926D01*
X14881099Y65974073D01*
X14887412Y65959272D01*
X14877925Y65905773D01*
X14843431Y65829029D01*
X14789609Y65739080D01*
X14722139Y65645964D01*
X14646700Y65559721D01*
X14490956Y65400100D01*
X14339497Y65400722D01*
X14095983Y65423820D01*
X13851944Y65493208D01*
X13825064Y65503543D01*
X13774536Y65528173D01*
X13760164Y65552506D01*
X13772672Y65587586D01*
X13800463Y65636127D01*
X13898876Y65764282D01*
X14019909Y65877171D01*
X14150560Y65963836D01*
X14277827Y66013321D01*
X14287233Y66015114D01*
X14355616Y66020470D01*
X14451152Y66020677D01*
X14560840Y66016580D01*
G37*
X18703323Y61063883D02*
X18979633Y61011555D01*
X19246592Y60914686D01*
X19496164Y60776182D01*
X19720315Y60598949D01*
X19794255Y60526204D01*
X19912863Y60389529D01*
X20012821Y60242202D01*
X20096082Y60078515D01*
X20164596Y59892760D01*
X20220314Y59679230D01*
X20265187Y59432218D01*
X20301168Y59146015D01*
X20330207Y58814915D01*
X20335785Y58713768D01*
X20340512Y58570104D01*
X20343980Y58396673D01*
X20346237Y58200193D01*
X20347333Y57987383D01*
X20347317Y57764960D01*
X20346237Y57539641D01*
X20344142Y57318145D01*
X20341081Y57107189D01*
X20337102Y56913491D01*
X20332255Y56743769D01*
X20326589Y56604739D01*
X20320151Y56503121D01*
X20312992Y56445631D01*
X20312911Y56445272D01*
X20307707Y56420703D01*
X20300781Y56403258D01*
X20286582Y56394725D01*
X20259559Y56396887D01*
X20214163Y56411530D01*
X20144842Y56440439D01*
X20046048Y56485399D01*
X19912228Y56548196D01*
X19737833Y56630614D01*
X19408845Y56789285D01*
X18996534Y56998375D01*
X18615144Y57203896D01*
X18267210Y57404258D01*
X17955270Y57597868D01*
X17681861Y57783138D01*
X17449520Y57958476D01*
X17260783Y58122292D01*
X17118189Y58272996D01*
X17095647Y58301052D01*
X16956265Y58519109D01*
X16855605Y58762411D01*
X16794338Y59023422D01*
X16773131Y59294606D01*
X16792654Y59568426D01*
X16853576Y59837346D01*
X16956565Y60093830D01*
X16977588Y60134935D01*
X17035243Y60235582D01*
X17078859Y60288675D01*
X17109844Y60294786D01*
X17129604Y60254488D01*
X17139549Y60168354D01*
X17141899Y60132366D01*
X17169217Y59970429D01*
X17226402Y59827905D01*
X17318436Y59697372D01*
X17450304Y59571409D01*
X17626990Y59442596D01*
X17705502Y59392257D01*
X17835248Y59313834D01*
X17977206Y59232419D01*
X18124368Y59151604D01*
X18269726Y59074981D01*
X18406270Y59006139D01*
X18526992Y58948670D01*
X18624884Y58906166D01*
X18692937Y58882217D01*
X18724142Y58880415D01*
X18726842Y58893220D01*
X18730592Y58950457D01*
X18733612Y59046706D01*
X18735754Y59174735D01*
X18736870Y59327309D01*
X18736811Y59497197D01*
X18736767Y59507701D01*
X18733460Y59766597D01*
X18725510Y59981261D01*
X18712073Y60157942D01*
X18692305Y60302888D01*
X18665363Y60422347D01*
X18630402Y60522568D01*
X18586580Y60609798D01*
X18532558Y60685068D01*
X18427927Y60788812D01*
X18307261Y60875110D01*
X18188725Y60929373D01*
X18167717Y60936394D01*
X18112843Y60963636D01*
X18090841Y60989848D01*
X18095497Y61006125D01*
X18123723Y61026500D01*
X18183242Y61042657D01*
X18280570Y61056145D01*
X18422229Y61068509D01*
X18425697Y61068763D01*
X18703323Y61063883D01*
G36*
X18703323Y61063883D02*
G01*
X18979633Y61011555D01*
X19246592Y60914686D01*
X19496164Y60776182D01*
X19720315Y60598949D01*
X19794255Y60526204D01*
X19912863Y60389529D01*
X20012821Y60242202D01*
X20096082Y60078515D01*
X20164596Y59892760D01*
X20220314Y59679230D01*
X20265187Y59432218D01*
X20301168Y59146015D01*
X20330207Y58814915D01*
X20335785Y58713768D01*
X20340512Y58570104D01*
X20343980Y58396673D01*
X20346237Y58200193D01*
X20347333Y57987383D01*
X20347317Y57764960D01*
X20346237Y57539641D01*
X20344142Y57318145D01*
X20341081Y57107189D01*
X20337102Y56913491D01*
X20332255Y56743769D01*
X20326589Y56604739D01*
X20320151Y56503121D01*
X20312992Y56445631D01*
X20312911Y56445272D01*
X20307707Y56420703D01*
X20300781Y56403258D01*
X20286582Y56394725D01*
X20259559Y56396887D01*
X20214163Y56411530D01*
X20144842Y56440439D01*
X20046048Y56485399D01*
X19912228Y56548196D01*
X19737833Y56630614D01*
X19408845Y56789285D01*
X18996534Y56998375D01*
X18615144Y57203896D01*
X18267210Y57404258D01*
X17955270Y57597868D01*
X17681861Y57783138D01*
X17449520Y57958476D01*
X17260783Y58122292D01*
X17118189Y58272996D01*
X17095647Y58301052D01*
X16956265Y58519109D01*
X16855605Y58762411D01*
X16794338Y59023422D01*
X16773131Y59294606D01*
X16792654Y59568426D01*
X16853576Y59837346D01*
X16956565Y60093830D01*
X16977588Y60134935D01*
X17035243Y60235582D01*
X17078859Y60288675D01*
X17109844Y60294786D01*
X17129604Y60254488D01*
X17139549Y60168354D01*
X17141899Y60132366D01*
X17169217Y59970429D01*
X17226402Y59827905D01*
X17318436Y59697372D01*
X17450304Y59571409D01*
X17626990Y59442596D01*
X17705502Y59392257D01*
X17835248Y59313834D01*
X17977206Y59232419D01*
X18124368Y59151604D01*
X18269726Y59074981D01*
X18406270Y59006139D01*
X18526992Y58948670D01*
X18624884Y58906166D01*
X18692937Y58882217D01*
X18724142Y58880415D01*
X18726842Y58893220D01*
X18730592Y58950457D01*
X18733612Y59046706D01*
X18735754Y59174735D01*
X18736870Y59327309D01*
X18736811Y59497197D01*
X18736767Y59507701D01*
X18733460Y59766597D01*
X18725510Y59981261D01*
X18712073Y60157942D01*
X18692305Y60302888D01*
X18665363Y60422347D01*
X18630402Y60522568D01*
X18586580Y60609798D01*
X18532558Y60685068D01*
X18427927Y60788812D01*
X18307261Y60875110D01*
X18188725Y60929373D01*
X18167717Y60936394D01*
X18112843Y60963636D01*
X18090841Y60989848D01*
X18095497Y61006125D01*
X18123723Y61026500D01*
X18183242Y61042657D01*
X18280570Y61056145D01*
X18422229Y61068509D01*
X18425697Y61068763D01*
X18703323Y61063883D01*
G37*
X55260840Y43416580D02*
X55371679Y43409025D01*
X55470669Y43398859D01*
X55544809Y43386926D01*
X55581099Y43374073D01*
X55587412Y43359272D01*
X55577925Y43305773D01*
X55543431Y43229029D01*
X55489609Y43139080D01*
X55422139Y43045964D01*
X55346700Y42959721D01*
X55190956Y42800100D01*
X55039497Y42800722D01*
X54795983Y42823820D01*
X54551944Y42893208D01*
X54525064Y42903543D01*
X54474536Y42928173D01*
X54460164Y42952506D01*
X54472672Y42987586D01*
X54500463Y43036127D01*
X54598876Y43164282D01*
X54719909Y43277171D01*
X54850560Y43363836D01*
X54977827Y43413321D01*
X54987233Y43415114D01*
X55055616Y43420470D01*
X55151152Y43420677D01*
X55260840Y43416580D01*
G36*
X55260840Y43416580D02*
G01*
X55371679Y43409025D01*
X55470669Y43398859D01*
X55544809Y43386926D01*
X55581099Y43374073D01*
X55587412Y43359272D01*
X55577925Y43305773D01*
X55543431Y43229029D01*
X55489609Y43139080D01*
X55422139Y43045964D01*
X55346700Y42959721D01*
X55190956Y42800100D01*
X55039497Y42800722D01*
X54795983Y42823820D01*
X54551944Y42893208D01*
X54525064Y42903543D01*
X54474536Y42928173D01*
X54460164Y42952506D01*
X54472672Y42987586D01*
X54500463Y43036127D01*
X54598876Y43164282D01*
X54719909Y43277171D01*
X54850560Y43363836D01*
X54977827Y43413321D01*
X54987233Y43415114D01*
X55055616Y43420470D01*
X55151152Y43420677D01*
X55260840Y43416580D01*
G37*
X59403323Y38463883D02*
X59679633Y38411555D01*
X59946592Y38314686D01*
X60196164Y38176182D01*
X60420315Y37998949D01*
X60494255Y37926204D01*
X60612863Y37789529D01*
X60712821Y37642202D01*
X60796082Y37478515D01*
X60864596Y37292760D01*
X60920314Y37079230D01*
X60965187Y36832218D01*
X61001168Y36546015D01*
X61030207Y36214915D01*
X61035785Y36113768D01*
X61040512Y35970104D01*
X61043980Y35796673D01*
X61046237Y35600193D01*
X61047333Y35387383D01*
X61047317Y35164960D01*
X61046237Y34939641D01*
X61044142Y34718145D01*
X61041081Y34507189D01*
X61037102Y34313491D01*
X61032255Y34143769D01*
X61026589Y34004739D01*
X61020151Y33903121D01*
X61012992Y33845631D01*
X61012911Y33845272D01*
X61007707Y33820703D01*
X61000781Y33803258D01*
X60986582Y33794725D01*
X60959559Y33796887D01*
X60914163Y33811530D01*
X60844842Y33840439D01*
X60746048Y33885399D01*
X60612228Y33948196D01*
X60437833Y34030614D01*
X60108845Y34189285D01*
X59696534Y34398375D01*
X59315144Y34603896D01*
X58967210Y34804258D01*
X58655270Y34997868D01*
X58381861Y35183138D01*
X58149520Y35358476D01*
X57960783Y35522292D01*
X57818189Y35672996D01*
X57795647Y35701052D01*
X57656265Y35919109D01*
X57555605Y36162411D01*
X57494338Y36423422D01*
X57473131Y36694606D01*
X57492654Y36968426D01*
X57553576Y37237346D01*
X57656565Y37493830D01*
X57677588Y37534935D01*
X57735243Y37635582D01*
X57778859Y37688675D01*
X57809844Y37694786D01*
X57829604Y37654488D01*
X57839549Y37568354D01*
X57841899Y37532366D01*
X57869217Y37370429D01*
X57926402Y37227905D01*
X58018436Y37097372D01*
X58150304Y36971409D01*
X58326990Y36842596D01*
X58405502Y36792257D01*
X58535248Y36713834D01*
X58677206Y36632419D01*
X58824368Y36551604D01*
X58969726Y36474981D01*
X59106270Y36406139D01*
X59226992Y36348670D01*
X59324884Y36306166D01*
X59392937Y36282217D01*
X59424142Y36280415D01*
X59426842Y36293220D01*
X59430592Y36350457D01*
X59433612Y36446706D01*
X59435754Y36574735D01*
X59436870Y36727309D01*
X59436811Y36897197D01*
X59436767Y36907701D01*
X59433460Y37166597D01*
X59425510Y37381261D01*
X59412073Y37557942D01*
X59392305Y37702888D01*
X59365363Y37822347D01*
X59330402Y37922568D01*
X59286580Y38009798D01*
X59232558Y38085068D01*
X59127927Y38188812D01*
X59007261Y38275110D01*
X58888725Y38329373D01*
X58867717Y38336394D01*
X58812843Y38363636D01*
X58790841Y38389848D01*
X58795497Y38406125D01*
X58823723Y38426500D01*
X58883242Y38442657D01*
X58980570Y38456145D01*
X59122229Y38468509D01*
X59125697Y38468763D01*
X59403323Y38463883D01*
G36*
X59403323Y38463883D02*
G01*
X59679633Y38411555D01*
X59946592Y38314686D01*
X60196164Y38176182D01*
X60420315Y37998949D01*
X60494255Y37926204D01*
X60612863Y37789529D01*
X60712821Y37642202D01*
X60796082Y37478515D01*
X60864596Y37292760D01*
X60920314Y37079230D01*
X60965187Y36832218D01*
X61001168Y36546015D01*
X61030207Y36214915D01*
X61035785Y36113768D01*
X61040512Y35970104D01*
X61043980Y35796673D01*
X61046237Y35600193D01*
X61047333Y35387383D01*
X61047317Y35164960D01*
X61046237Y34939641D01*
X61044142Y34718145D01*
X61041081Y34507189D01*
X61037102Y34313491D01*
X61032255Y34143769D01*
X61026589Y34004739D01*
X61020151Y33903121D01*
X61012992Y33845631D01*
X61012911Y33845272D01*
X61007707Y33820703D01*
X61000781Y33803258D01*
X60986582Y33794725D01*
X60959559Y33796887D01*
X60914163Y33811530D01*
X60844842Y33840439D01*
X60746048Y33885399D01*
X60612228Y33948196D01*
X60437833Y34030614D01*
X60108845Y34189285D01*
X59696534Y34398375D01*
X59315144Y34603896D01*
X58967210Y34804258D01*
X58655270Y34997868D01*
X58381861Y35183138D01*
X58149520Y35358476D01*
X57960783Y35522292D01*
X57818189Y35672996D01*
X57795647Y35701052D01*
X57656265Y35919109D01*
X57555605Y36162411D01*
X57494338Y36423422D01*
X57473131Y36694606D01*
X57492654Y36968426D01*
X57553576Y37237346D01*
X57656565Y37493830D01*
X57677588Y37534935D01*
X57735243Y37635582D01*
X57778859Y37688675D01*
X57809844Y37694786D01*
X57829604Y37654488D01*
X57839549Y37568354D01*
X57841899Y37532366D01*
X57869217Y37370429D01*
X57926402Y37227905D01*
X58018436Y37097372D01*
X58150304Y36971409D01*
X58326990Y36842596D01*
X58405502Y36792257D01*
X58535248Y36713834D01*
X58677206Y36632419D01*
X58824368Y36551604D01*
X58969726Y36474981D01*
X59106270Y36406139D01*
X59226992Y36348670D01*
X59324884Y36306166D01*
X59392937Y36282217D01*
X59424142Y36280415D01*
X59426842Y36293220D01*
X59430592Y36350457D01*
X59433612Y36446706D01*
X59435754Y36574735D01*
X59436870Y36727309D01*
X59436811Y36897197D01*
X59436767Y36907701D01*
X59433460Y37166597D01*
X59425510Y37381261D01*
X59412073Y37557942D01*
X59392305Y37702888D01*
X59365363Y37822347D01*
X59330402Y37922568D01*
X59286580Y38009798D01*
X59232558Y38085068D01*
X59127927Y38188812D01*
X59007261Y38275110D01*
X58888725Y38329373D01*
X58867717Y38336394D01*
X58812843Y38363636D01*
X58790841Y38389848D01*
X58795497Y38406125D01*
X58823723Y38426500D01*
X58883242Y38442657D01*
X58980570Y38456145D01*
X59122229Y38468509D01*
X59125697Y38468763D01*
X59403323Y38463883D01*
G37*
X95960840Y43416580D02*
X96071679Y43409025D01*
X96170669Y43398859D01*
X96244809Y43386926D01*
X96281099Y43374073D01*
X96287412Y43359272D01*
X96277925Y43305773D01*
X96243431Y43229029D01*
X96189609Y43139080D01*
X96122139Y43045964D01*
X96046700Y42959721D01*
X95890956Y42800100D01*
X95739497Y42800722D01*
X95495983Y42823820D01*
X95251944Y42893208D01*
X95225064Y42903543D01*
X95174536Y42928173D01*
X95160164Y42952506D01*
X95172672Y42987586D01*
X95200463Y43036127D01*
X95298876Y43164282D01*
X95419909Y43277171D01*
X95550560Y43363836D01*
X95677827Y43413321D01*
X95687233Y43415114D01*
X95755616Y43420470D01*
X95851152Y43420677D01*
X95960840Y43416580D01*
G36*
X95960840Y43416580D02*
G01*
X96071679Y43409025D01*
X96170669Y43398859D01*
X96244809Y43386926D01*
X96281099Y43374073D01*
X96287412Y43359272D01*
X96277925Y43305773D01*
X96243431Y43229029D01*
X96189609Y43139080D01*
X96122139Y43045964D01*
X96046700Y42959721D01*
X95890956Y42800100D01*
X95739497Y42800722D01*
X95495983Y42823820D01*
X95251944Y42893208D01*
X95225064Y42903543D01*
X95174536Y42928173D01*
X95160164Y42952506D01*
X95172672Y42987586D01*
X95200463Y43036127D01*
X95298876Y43164282D01*
X95419909Y43277171D01*
X95550560Y43363836D01*
X95677827Y43413321D01*
X95687233Y43415114D01*
X95755616Y43420470D01*
X95851152Y43420677D01*
X95960840Y43416580D01*
G37*
X100103323Y38463883D02*
X100379633Y38411555D01*
X100646592Y38314686D01*
X100896164Y38176182D01*
X101120315Y37998949D01*
X101194255Y37926204D01*
X101312863Y37789529D01*
X101412821Y37642202D01*
X101496082Y37478515D01*
X101564596Y37292760D01*
X101620314Y37079230D01*
X101665187Y36832218D01*
X101701168Y36546015D01*
X101730207Y36214915D01*
X101735785Y36113768D01*
X101740512Y35970104D01*
X101743980Y35796673D01*
X101746237Y35600193D01*
X101747333Y35387383D01*
X101747317Y35164960D01*
X101746237Y34939641D01*
X101744142Y34718145D01*
X101741081Y34507189D01*
X101737102Y34313491D01*
X101732255Y34143769D01*
X101726589Y34004739D01*
X101720151Y33903121D01*
X101712992Y33845631D01*
X101712911Y33845272D01*
X101707707Y33820703D01*
X101700781Y33803258D01*
X101686582Y33794725D01*
X101659559Y33796887D01*
X101614163Y33811530D01*
X101544842Y33840439D01*
X101446048Y33885399D01*
X101312228Y33948196D01*
X101137833Y34030614D01*
X100808845Y34189285D01*
X100396534Y34398375D01*
X100015144Y34603896D01*
X99667210Y34804258D01*
X99355270Y34997868D01*
X99081861Y35183138D01*
X98849520Y35358476D01*
X98660783Y35522292D01*
X98518189Y35672996D01*
X98495647Y35701052D01*
X98356265Y35919109D01*
X98255605Y36162411D01*
X98194338Y36423422D01*
X98173131Y36694606D01*
X98192654Y36968426D01*
X98253576Y37237346D01*
X98356565Y37493830D01*
X98377588Y37534935D01*
X98435243Y37635582D01*
X98478859Y37688675D01*
X98509844Y37694786D01*
X98529604Y37654488D01*
X98539549Y37568354D01*
X98541899Y37532366D01*
X98569217Y37370429D01*
X98626402Y37227905D01*
X98718436Y37097372D01*
X98850304Y36971409D01*
X99026990Y36842596D01*
X99105502Y36792257D01*
X99235248Y36713834D01*
X99377206Y36632419D01*
X99524368Y36551604D01*
X99669726Y36474981D01*
X99806270Y36406139D01*
X99926992Y36348670D01*
X100024884Y36306166D01*
X100092937Y36282217D01*
X100124142Y36280415D01*
X100126842Y36293220D01*
X100130592Y36350457D01*
X100133612Y36446706D01*
X100135754Y36574735D01*
X100136870Y36727309D01*
X100136811Y36897197D01*
X100136767Y36907701D01*
X100133460Y37166597D01*
X100125510Y37381261D01*
X100112073Y37557942D01*
X100092305Y37702888D01*
X100065363Y37822347D01*
X100030402Y37922568D01*
X99986580Y38009798D01*
X99932558Y38085068D01*
X99827927Y38188812D01*
X99707261Y38275110D01*
X99588725Y38329373D01*
X99567717Y38336394D01*
X99512843Y38363636D01*
X99490841Y38389848D01*
X99495497Y38406125D01*
X99523723Y38426500D01*
X99583242Y38442657D01*
X99680570Y38456145D01*
X99822229Y38468509D01*
X99825697Y38468763D01*
X100103323Y38463883D01*
G36*
X100103323Y38463883D02*
G01*
X100379633Y38411555D01*
X100646592Y38314686D01*
X100896164Y38176182D01*
X101120315Y37998949D01*
X101194255Y37926204D01*
X101312863Y37789529D01*
X101412821Y37642202D01*
X101496082Y37478515D01*
X101564596Y37292760D01*
X101620314Y37079230D01*
X101665187Y36832218D01*
X101701168Y36546015D01*
X101730207Y36214915D01*
X101735785Y36113768D01*
X101740512Y35970104D01*
X101743980Y35796673D01*
X101746237Y35600193D01*
X101747333Y35387383D01*
X101747317Y35164960D01*
X101746237Y34939641D01*
X101744142Y34718145D01*
X101741081Y34507189D01*
X101737102Y34313491D01*
X101732255Y34143769D01*
X101726589Y34004739D01*
X101720151Y33903121D01*
X101712992Y33845631D01*
X101712911Y33845272D01*
X101707707Y33820703D01*
X101700781Y33803258D01*
X101686582Y33794725D01*
X101659559Y33796887D01*
X101614163Y33811530D01*
X101544842Y33840439D01*
X101446048Y33885399D01*
X101312228Y33948196D01*
X101137833Y34030614D01*
X100808845Y34189285D01*
X100396534Y34398375D01*
X100015144Y34603896D01*
X99667210Y34804258D01*
X99355270Y34997868D01*
X99081861Y35183138D01*
X98849520Y35358476D01*
X98660783Y35522292D01*
X98518189Y35672996D01*
X98495647Y35701052D01*
X98356265Y35919109D01*
X98255605Y36162411D01*
X98194338Y36423422D01*
X98173131Y36694606D01*
X98192654Y36968426D01*
X98253576Y37237346D01*
X98356565Y37493830D01*
X98377588Y37534935D01*
X98435243Y37635582D01*
X98478859Y37688675D01*
X98509844Y37694786D01*
X98529604Y37654488D01*
X98539549Y37568354D01*
X98541899Y37532366D01*
X98569217Y37370429D01*
X98626402Y37227905D01*
X98718436Y37097372D01*
X98850304Y36971409D01*
X99026990Y36842596D01*
X99105502Y36792257D01*
X99235248Y36713834D01*
X99377206Y36632419D01*
X99524368Y36551604D01*
X99669726Y36474981D01*
X99806270Y36406139D01*
X99926992Y36348670D01*
X100024884Y36306166D01*
X100092937Y36282217D01*
X100124142Y36280415D01*
X100126842Y36293220D01*
X100130592Y36350457D01*
X100133612Y36446706D01*
X100135754Y36574735D01*
X100136870Y36727309D01*
X100136811Y36897197D01*
X100136767Y36907701D01*
X100133460Y37166597D01*
X100125510Y37381261D01*
X100112073Y37557942D01*
X100092305Y37702888D01*
X100065363Y37822347D01*
X100030402Y37922568D01*
X99986580Y38009798D01*
X99932558Y38085068D01*
X99827927Y38188812D01*
X99707261Y38275110D01*
X99588725Y38329373D01*
X99567717Y38336394D01*
X99512843Y38363636D01*
X99490841Y38389848D01*
X99495497Y38406125D01*
X99523723Y38426500D01*
X99583242Y38442657D01*
X99680570Y38456145D01*
X99822229Y38468509D01*
X99825697Y38468763D01*
X100103323Y38463883D01*
G37*
%TD*%
D13*
%TO.C,X1*%
X6105000Y66040000D03*
X6105000Y60260000D03*
D14*
X6605000Y67470000D03*
D15*
X2425000Y67470000D03*
D14*
X6605000Y58830000D03*
D15*
X2425000Y58830000D03*
%TD*%
D16*
%TO.C,X3*%
X87940000Y10100000D03*
X82860000Y9084000D03*
X82860000Y11116000D03*
%TD*%
D17*
%TO.C,X2*%
X116500000Y36045000D03*
X116500000Y38815000D03*
X116500000Y41585000D03*
X116500000Y44355000D03*
%TD*%
%TO.C,X2*%
X75800000Y36045000D03*
X75800000Y38815000D03*
X75800000Y41585000D03*
X75800000Y44355000D03*
%TD*%
%TO.C,X2*%
X75800000Y13445000D03*
X75800000Y16215000D03*
X75800000Y18985000D03*
X75800000Y21755000D03*
%TD*%
D18*
%TO.C,P2*%
X9580000Y32450000D03*
D19*
X12120000Y32450000D03*
%TD*%
D16*
%TO.C,X3*%
X87940000Y32700000D03*
X82860000Y31684000D03*
X82860000Y33716000D03*
%TD*%
%TO.C,X3*%
X6540000Y32700000D03*
X1460000Y31684000D03*
X1460000Y33716000D03*
%TD*%
D18*
%TO.C,P2*%
X9580000Y55050000D03*
D19*
X12120000Y55050000D03*
%TD*%
D18*
%TO.C,P1*%
X114000000Y71150000D03*
D19*
X116540000Y71150000D03*
%TD*%
D17*
%TO.C,X2*%
X35100000Y58645000D03*
X35100000Y61415000D03*
X35100000Y64185000D03*
X35100000Y66955000D03*
%TD*%
%TO.C,X2*%
X75800000Y58645000D03*
X75800000Y61415000D03*
X75800000Y64185000D03*
X75800000Y66955000D03*
%TD*%
D18*
%TO.C,P1*%
X73300000Y25950000D03*
D19*
X75840000Y25950000D03*
%TD*%
D17*
%TO.C,X2*%
X116500000Y58645000D03*
X116500000Y61415000D03*
X116500000Y64185000D03*
X116500000Y66955000D03*
%TD*%
D13*
%TO.C,X1*%
X6105000Y20840000D03*
X6105000Y15060000D03*
D14*
X6605000Y22270000D03*
D15*
X2425000Y22270000D03*
D14*
X6605000Y13630000D03*
D15*
X2425000Y13630000D03*
%TD*%
D18*
%TO.C,P1*%
X114000000Y48550000D03*
D19*
X116540000Y48550000D03*
%TD*%
D18*
%TO.C,P2*%
X50280000Y9850000D03*
D19*
X52820000Y9850000D03*
%TD*%
D17*
%TO.C,X2*%
X35100000Y36045000D03*
X35100000Y38815000D03*
X35100000Y41585000D03*
X35100000Y44355000D03*
%TD*%
D16*
%TO.C,X3*%
X6540000Y55300000D03*
X1460000Y54284000D03*
X1460000Y56316000D03*
%TD*%
D18*
%TO.C,P1*%
X73300000Y71150000D03*
D19*
X75840000Y71150000D03*
%TD*%
D18*
%TO.C,P1*%
X32600000Y71150000D03*
D19*
X35140000Y71150000D03*
%TD*%
D13*
%TO.C,X1*%
X87505000Y43440000D03*
X87505000Y37660000D03*
D14*
X88005000Y44870000D03*
D15*
X83825000Y44870000D03*
D14*
X88005000Y36230000D03*
D15*
X83825000Y36230000D03*
%TD*%
D18*
%TO.C,P1*%
X32600000Y48550000D03*
D19*
X35140000Y48550000D03*
%TD*%
D16*
%TO.C,X3*%
X47240000Y32700000D03*
X42160000Y31684000D03*
X42160000Y33716000D03*
%TD*%
D13*
%TO.C,X1*%
X46805000Y20840000D03*
X46805000Y15060000D03*
D14*
X47305000Y22270000D03*
D15*
X43125000Y22270000D03*
D14*
X47305000Y13630000D03*
D15*
X43125000Y13630000D03*
%TD*%
D13*
%TO.C,X1*%
X46805000Y66040000D03*
X46805000Y60260000D03*
D14*
X47305000Y67470000D03*
D15*
X43125000Y67470000D03*
D14*
X47305000Y58830000D03*
D15*
X43125000Y58830000D03*
%TD*%
D13*
%TO.C,X1*%
X6105000Y43440000D03*
X6105000Y37660000D03*
D14*
X6605000Y44870000D03*
D15*
X2425000Y44870000D03*
D14*
X6605000Y36230000D03*
D15*
X2425000Y36230000D03*
%TD*%
D18*
%TO.C,P2*%
X90980000Y9850000D03*
D19*
X93520000Y9850000D03*
%TD*%
D16*
%TO.C,X3*%
X6540000Y10100000D03*
X1460000Y9084000D03*
X1460000Y11116000D03*
%TD*%
D17*
%TO.C,X2*%
X35100000Y13445000D03*
X35100000Y16215000D03*
X35100000Y18985000D03*
X35100000Y21755000D03*
%TD*%
%TO.C,X2*%
X116500000Y13445000D03*
X116500000Y16215000D03*
X116500000Y18985000D03*
X116500000Y21755000D03*
%TD*%
D18*
%TO.C,P2*%
X90980000Y55050000D03*
D19*
X93520000Y55050000D03*
%TD*%
D16*
%TO.C,X3*%
X47240000Y55300000D03*
X42160000Y54284000D03*
X42160000Y56316000D03*
%TD*%
D18*
%TO.C,P2*%
X50280000Y55050000D03*
D19*
X52820000Y55050000D03*
%TD*%
D13*
%TO.C,X1*%
X87505000Y20840000D03*
X87505000Y15060000D03*
D14*
X88005000Y22270000D03*
D15*
X83825000Y22270000D03*
D14*
X88005000Y13630000D03*
D15*
X83825000Y13630000D03*
%TD*%
D13*
%TO.C,X1*%
X46805000Y43440000D03*
X46805000Y37660000D03*
D14*
X47305000Y44870000D03*
D15*
X43125000Y44870000D03*
D14*
X47305000Y36230000D03*
D15*
X43125000Y36230000D03*
%TD*%
D18*
%TO.C,P2*%
X50280000Y32450000D03*
D19*
X52820000Y32450000D03*
%TD*%
D16*
%TO.C,X3*%
X47240000Y10100000D03*
X42160000Y9084000D03*
X42160000Y11116000D03*
%TD*%
D18*
%TO.C,P2*%
X90980000Y32450000D03*
D19*
X93520000Y32450000D03*
%TD*%
D18*
%TO.C,P1*%
X114000000Y25950000D03*
D19*
X116540000Y25950000D03*
%TD*%
D18*
%TO.C,P1*%
X32600000Y25950000D03*
D19*
X35140000Y25950000D03*
%TD*%
D13*
%TO.C,X1*%
X87505000Y66040000D03*
X87505000Y60260000D03*
D14*
X88005000Y67470000D03*
D15*
X83825000Y67470000D03*
D14*
X88005000Y58830000D03*
D15*
X83825000Y58830000D03*
%TD*%
D18*
%TO.C,P1*%
X73300000Y48550000D03*
D19*
X75840000Y48550000D03*
%TD*%
D18*
%TO.C,P2*%
X9580000Y9850000D03*
D19*
X12120000Y9850000D03*
%TD*%
D16*
%TO.C,X3*%
X87940000Y55300000D03*
X82860000Y54284000D03*
X82860000Y56316000D03*
%TD*%
D20*
%TO.C,TP1*%
X46200000Y40700000D03*
%TD*%
D21*
%TO.C,U4*%
X104450000Y9595000D03*
X104450000Y10865000D03*
X104450000Y12135000D03*
X104450000Y13405000D03*
X109850000Y13405000D03*
X109850000Y12135000D03*
X109850000Y10865000D03*
X109850000Y9595000D03*
%TD*%
D20*
%TO.C,TP1*%
X5500000Y40700000D03*
%TD*%
D22*
%TO.C,C9*%
X108750000Y60750000D03*
X107250000Y60750000D03*
%TD*%
D23*
%TO.C,REF\u002A\u002A*%
X114100000Y77900000D03*
%TD*%
D21*
%TO.C,U4*%
X104450000Y32195000D03*
X104450000Y33465000D03*
X104450000Y34735000D03*
X104450000Y36005000D03*
X109850000Y36005000D03*
X109850000Y34735000D03*
X109850000Y33465000D03*
X109850000Y32195000D03*
%TD*%
D20*
%TO.C,TP2*%
X108400000Y18100000D03*
%TD*%
D24*
%TO.C,C11*%
X62000000Y57700000D03*
X62000000Y56200000D03*
%TD*%
D20*
%TO.C,TP3*%
X109400000Y23100000D03*
%TD*%
D24*
%TO.C,C11*%
X62000000Y35100000D03*
X62000000Y33600000D03*
%TD*%
D21*
%TO.C,U4*%
X23050000Y32195000D03*
X23050000Y33465000D03*
X23050000Y34735000D03*
X23050000Y36005000D03*
X28450000Y36005000D03*
X28450000Y34735000D03*
X28450000Y33465000D03*
X28450000Y32195000D03*
%TD*%
D20*
%TO.C,TP1*%
X86900000Y18100000D03*
%TD*%
D25*
%TO.C,R8*%
X29850000Y41700000D03*
X29850000Y39800000D03*
%TD*%
D24*
%TO.C,C11*%
X102700000Y57700000D03*
X102700000Y56200000D03*
%TD*%
%TO.C,C11*%
X102700000Y12500000D03*
X102700000Y11000000D03*
%TD*%
D20*
%TO.C,TP3*%
X68700000Y68300000D03*
%TD*%
D21*
%TO.C,U4*%
X63750000Y9595000D03*
X63750000Y10865000D03*
X63750000Y12135000D03*
X63750000Y13405000D03*
X69150000Y13405000D03*
X69150000Y12135000D03*
X69150000Y10865000D03*
X69150000Y9595000D03*
%TD*%
%TO.C,U4*%
X23050000Y54795000D03*
X23050000Y56065000D03*
X23050000Y57335000D03*
X23050000Y58605000D03*
X28450000Y58605000D03*
X28450000Y57335000D03*
X28450000Y56065000D03*
X28450000Y54795000D03*
%TD*%
D25*
%TO.C,R8*%
X111250000Y19100000D03*
X111250000Y17200000D03*
%TD*%
D24*
%TO.C,C11*%
X21300000Y12500000D03*
X21300000Y11000000D03*
%TD*%
%TO.C,C11*%
X102700000Y35100000D03*
X102700000Y33600000D03*
%TD*%
D20*
%TO.C,TP2*%
X67700000Y63300000D03*
%TD*%
D22*
%TO.C,C9*%
X27350000Y15550000D03*
X25850000Y15550000D03*
%TD*%
%TO.C,C9*%
X27350000Y38150000D03*
X25850000Y38150000D03*
%TD*%
D20*
%TO.C,TP2*%
X108400000Y40700000D03*
%TD*%
%TO.C,TP1*%
X46200000Y18100000D03*
%TD*%
%TO.C,TP3*%
X68700000Y23100000D03*
%TD*%
%TO.C,TP3*%
X28000000Y45700000D03*
%TD*%
D22*
%TO.C,C9*%
X68050000Y38150000D03*
X66550000Y38150000D03*
%TD*%
D25*
%TO.C,R8*%
X111250000Y64300000D03*
X111250000Y62400000D03*
%TD*%
D24*
%TO.C,C11*%
X21300000Y35100000D03*
X21300000Y33600000D03*
%TD*%
D21*
%TO.C,U4*%
X23050000Y9595000D03*
X23050000Y10865000D03*
X23050000Y12135000D03*
X23050000Y13405000D03*
X28450000Y13405000D03*
X28450000Y12135000D03*
X28450000Y10865000D03*
X28450000Y9595000D03*
%TD*%
D20*
%TO.C,TP2*%
X67700000Y40700000D03*
%TD*%
%TO.C,TP1*%
X86900000Y63300000D03*
%TD*%
%TO.C,TP1*%
X5500000Y63300000D03*
%TD*%
D22*
%TO.C,C9*%
X68050000Y60750000D03*
X66550000Y60750000D03*
%TD*%
D20*
%TO.C,TP1*%
X5500000Y18100000D03*
%TD*%
D21*
%TO.C,U4*%
X63750000Y54795000D03*
X63750000Y56065000D03*
X63750000Y57335000D03*
X63750000Y58605000D03*
X69150000Y58605000D03*
X69150000Y57335000D03*
X69150000Y56065000D03*
X69150000Y54795000D03*
%TD*%
D22*
%TO.C,C9*%
X68050000Y15550000D03*
X66550000Y15550000D03*
%TD*%
D25*
%TO.C,R8*%
X70550000Y19100000D03*
X70550000Y17200000D03*
%TD*%
D20*
%TO.C,TP3*%
X68700000Y45700000D03*
%TD*%
D22*
%TO.C,C9*%
X108750000Y15550000D03*
X107250000Y15550000D03*
%TD*%
D20*
%TO.C,TP3*%
X28000000Y68300000D03*
%TD*%
D24*
%TO.C,C11*%
X21300000Y57700000D03*
X21300000Y56200000D03*
%TD*%
D22*
%TO.C,C9*%
X27350000Y60750000D03*
X25850000Y60750000D03*
%TD*%
D20*
%TO.C,TP3*%
X109400000Y45700000D03*
%TD*%
%TO.C,TP2*%
X108400000Y63300000D03*
%TD*%
D25*
%TO.C,R8*%
X70550000Y64300000D03*
X70550000Y62400000D03*
%TD*%
D20*
%TO.C,TP2*%
X27000000Y40700000D03*
%TD*%
%TO.C,TP1*%
X86900000Y40700000D03*
%TD*%
%TO.C,TP3*%
X28000000Y23100000D03*
%TD*%
D23*
%TO.C,REF\u002A\u002A*%
X5000000Y77900000D03*
%TD*%
D25*
%TO.C,R8*%
X70550000Y41700000D03*
X70550000Y39800000D03*
%TD*%
%TO.C,R8*%
X29850000Y19100000D03*
X29850000Y17200000D03*
%TD*%
D21*
%TO.C,U4*%
X104450000Y54795000D03*
X104450000Y56065000D03*
X104450000Y57335000D03*
X104450000Y58605000D03*
X109850000Y58605000D03*
X109850000Y57335000D03*
X109850000Y56065000D03*
X109850000Y54795000D03*
%TD*%
D25*
%TO.C,R8*%
X111250000Y41700000D03*
X111250000Y39800000D03*
%TD*%
D20*
%TO.C,TP2*%
X67700000Y18100000D03*
%TD*%
D25*
%TO.C,R8*%
X29850000Y64300000D03*
X29850000Y62400000D03*
%TD*%
D24*
%TO.C,C11*%
X62000000Y12500000D03*
X62000000Y11000000D03*
%TD*%
D20*
%TO.C,TP3*%
X109400000Y68300000D03*
%TD*%
D22*
%TO.C,C9*%
X108750000Y38150000D03*
X107250000Y38150000D03*
%TD*%
D21*
%TO.C,U4*%
X63750000Y32195000D03*
X63750000Y33465000D03*
X63750000Y34735000D03*
X63750000Y36005000D03*
X69150000Y36005000D03*
X69150000Y34735000D03*
X69150000Y33465000D03*
X69150000Y32195000D03*
%TD*%
D20*
%TO.C,TP2*%
X27000000Y63300000D03*
%TD*%
%TO.C,TP1*%
X46200000Y63300000D03*
%TD*%
%TO.C,TP2*%
X27000000Y18100000D03*
%TD*%
M02*
