M48
; DRILL file {KiCad 7.0.5} date Fri 23 Jun 2023 14:23:09 CEST
; FORMAT={-:-/ absolute / metric / decimal}
; #@! TF.CreationDate,2023-06-23T14:23:09+02:00
; #@! TF.GenerationSoftware,Kicad,Pcbnew,7.0.5
; #@! TF.FileFunction,NonPlated,1,2,NPTH
FMAT,2
METRIC
; #@! TA.AperFunction,NonPlated,NPTH,ComponentDrill
T1C0.650
; #@! TA.AperFunction,NonPlated,NPTH,ComponentDrill
T2C0.991
%
G90
G05
T1
X6.105Y66.04
X6.105Y60.26
X6.105Y43.44
X6.105Y37.66
X6.105Y20.84
X6.105Y15.06
X46.805Y66.04
X46.805Y60.26
X46.805Y43.44
X46.805Y37.66
X46.805Y20.84
X46.805Y15.06
X87.505Y66.04
X87.505Y60.26
X87.505Y43.44
X87.505Y37.66
X87.505Y20.84
X87.505Y15.06
T2
X1.46Y56.316
X1.46Y54.284
X1.46Y33.716
X1.46Y31.684
X1.46Y11.116
X1.46Y9.084
X6.54Y55.3
X6.54Y32.7
X6.54Y10.1
X42.16Y56.316
X42.16Y54.284
X42.16Y33.716
X42.16Y31.684
X42.16Y11.116
X42.16Y9.084
X47.24Y55.3
X47.24Y32.7
X47.24Y10.1
X82.86Y56.316
X82.86Y54.284
X82.86Y33.716
X82.86Y31.684
X82.86Y11.116
X82.86Y9.084
X87.94Y55.3
X87.94Y32.7
X87.94Y10.1
T0
M30
