M48
; DRILL file {KiCad 7.0.5} date Fri 23 Jun 2023 14:23:09 CEST
; FORMAT={-:-/ absolute / metric / decimal}
; #@! TF.CreationDate,2023-06-23T14:23:09+02:00
; #@! TF.GenerationSoftware,Kicad,Pcbnew,7.0.5
; #@! TF.FileFunction,Plated,1,2,PTH
FMAT,2
METRIC
; #@! TA.AperFunction,Plated,PTH,ViaDrill
T1C0.400
; #@! TA.AperFunction,Plated,PTH,ComponentDrill
T2C0.600
; #@! TA.AperFunction,Plated,PTH,ComponentDrill
T3C1.000
%
G90
G05
T1
X3.4Y56.975
X3.4Y34.375
X3.4Y11.775
X4.6Y53.8
X4.6Y31.2
X4.6Y8.6
X4.717Y56.76
X4.717Y34.16
X4.717Y11.56
X5.05Y60.9
X5.05Y38.3
X5.05Y15.7
X5.55Y65.099
X5.55Y42.499
X5.55Y19.899
X8.226Y58.024
X8.226Y35.425
X8.226Y12.824
X9.2Y68.5
X9.2Y45.9
X9.2Y23.3
X9.75Y57.231
X9.75Y34.631
X9.75Y12.031
X11.594Y64.437
X11.594Y41.837
X11.594Y19.237
X11.75Y63.45
X11.75Y40.85
X11.75Y18.25
X12.05Y62.0
X12.05Y39.4
X12.05Y16.8
X14.4Y55.25
X14.4Y32.65
X14.4Y10.05
X19.7Y56.0
X19.7Y33.4
X19.7Y10.8
X19.917Y62.807
X19.917Y40.207
X19.917Y17.607
X22.9Y62.55
X22.9Y39.95
X22.9Y17.35
X23.15Y64.9
X23.15Y42.3
X23.15Y19.7
X23.5Y60.95
X23.5Y38.35
X23.5Y15.75
X24.4Y56.4
X24.4Y33.8
X24.4Y11.2
X24.7Y68.65
X24.7Y61.3
X24.7Y46.05
X24.7Y38.7
X24.7Y23.45
X24.7Y16.1
X25.1Y69.7
X25.1Y47.1
X25.1Y24.5
X25.75Y54.2
X25.75Y31.6
X25.75Y9.0
X26.0Y65.95
X26.0Y43.35
X26.0Y20.75
X26.175Y56.174
X26.175Y33.575
X26.175Y10.974
X26.555Y59.745
X26.555Y37.145
X26.555Y14.545
X30.1Y58.5
X30.1Y35.9
X30.1Y13.3
X30.3Y67.05
X30.3Y44.45
X30.3Y21.85
X30.5Y69.5
X30.5Y46.9
X30.5Y24.3
X31.2Y54.9
X31.2Y32.3
X31.2Y9.7
X31.375Y57.462
X31.375Y34.862
X31.375Y12.262
X31.8Y65.0
X31.8Y42.4
X31.8Y19.8
X32.0Y62.8
X32.0Y40.2
X32.0Y17.6
X44.1Y56.975
X44.1Y34.375
X44.1Y11.775
X45.3Y53.8
X45.3Y31.2
X45.3Y8.6
X45.417Y56.76
X45.417Y34.16
X45.417Y11.56
X45.75Y60.9
X45.75Y38.3
X45.75Y15.7
X46.25Y65.099
X46.25Y42.499
X46.25Y19.899
X48.925Y58.024
X48.925Y35.425
X48.925Y12.824
X49.9Y68.5
X49.9Y45.9
X49.9Y23.3
X50.45Y57.231
X50.45Y34.631
X50.45Y12.031
X52.294Y64.437
X52.294Y41.837
X52.294Y19.237
X52.45Y63.45
X52.45Y40.85
X52.45Y18.25
X52.75Y62.0
X52.75Y39.4
X52.75Y16.8
X55.1Y55.25
X55.1Y32.65
X55.1Y10.05
X60.4Y56.0
X60.4Y33.4
X60.4Y10.8
X60.617Y62.807
X60.617Y40.207
X60.617Y17.607
X63.6Y62.55
X63.6Y39.95
X63.6Y17.35
X63.85Y64.9
X63.85Y42.3
X63.85Y19.7
X64.2Y60.95
X64.2Y38.35
X64.2Y15.75
X65.1Y56.4
X65.1Y33.8
X65.1Y11.2
X65.4Y68.65
X65.4Y61.3
X65.4Y46.05
X65.4Y38.7
X65.4Y23.45
X65.4Y16.1
X65.8Y69.7
X65.8Y47.1
X65.8Y24.5
X66.45Y54.2
X66.45Y31.6
X66.45Y9.0
X66.7Y65.95
X66.7Y43.35
X66.7Y20.75
X66.876Y56.174
X66.876Y33.575
X66.876Y10.974
X67.255Y59.745
X67.255Y37.145
X67.255Y14.545
X70.8Y58.5
X70.8Y35.9
X70.8Y13.3
X71.0Y67.05
X71.0Y44.45
X71.0Y21.85
X71.2Y69.5
X71.2Y46.9
X71.2Y24.3
X71.9Y54.9
X71.9Y32.3
X71.9Y9.7
X72.075Y57.462
X72.075Y34.862
X72.075Y12.262
X72.5Y65.0
X72.5Y42.4
X72.5Y19.8
X72.7Y62.8
X72.7Y40.2
X72.7Y17.6
X84.8Y56.975
X84.8Y34.375
X84.8Y11.775
X86.0Y53.8
X86.0Y31.2
X86.0Y8.6
X86.117Y56.76
X86.117Y34.16
X86.117Y11.56
X86.45Y60.9
X86.45Y38.3
X86.45Y15.7
X86.95Y65.099
X86.95Y42.499
X86.95Y19.899
X89.626Y58.024
X89.626Y35.425
X89.626Y12.824
X90.6Y68.5
X90.6Y45.9
X90.6Y23.3
X91.15Y57.231
X91.15Y34.631
X91.15Y12.031
X92.994Y64.437
X92.994Y41.837
X92.994Y19.237
X93.15Y63.45
X93.15Y40.85
X93.15Y18.25
X93.45Y62.0
X93.45Y39.4
X93.45Y16.8
X95.8Y55.25
X95.8Y32.65
X95.8Y10.05
X101.1Y56.0
X101.1Y33.4
X101.1Y10.8
X101.317Y62.807
X101.317Y40.207
X101.317Y17.607
X104.3Y62.55
X104.3Y39.95
X104.3Y17.35
X104.55Y64.9
X104.55Y42.3
X104.55Y19.7
X104.9Y60.95
X104.9Y38.35
X104.9Y15.75
X105.8Y56.4
X105.8Y33.8
X105.8Y11.2
X106.1Y68.65
X106.1Y61.3
X106.1Y46.05
X106.1Y38.7
X106.1Y23.45
X106.1Y16.1
X106.5Y69.7
X106.5Y47.1
X106.5Y24.5
X107.15Y54.2
X107.15Y31.6
X107.15Y9.0
X107.4Y65.95
X107.4Y43.35
X107.4Y20.75
X107.575Y56.174
X107.575Y33.575
X107.575Y10.974
X107.955Y59.745
X107.955Y37.145
X107.955Y14.545
X111.5Y58.5
X111.5Y35.9
X111.5Y13.3
X111.7Y67.05
X111.7Y44.45
X111.7Y21.85
X111.9Y69.5
X111.9Y46.9
X111.9Y24.3
X112.6Y54.9
X112.6Y32.3
X112.6Y9.7
X112.775Y57.462
X112.775Y34.862
X112.775Y12.262
X113.2Y65.0
X113.2Y42.4
X113.2Y19.8
X113.4Y62.8
X113.4Y40.2
X113.4Y17.6
T3
X9.58Y55.05
X9.58Y32.45
X9.58Y9.85
X12.12Y55.05
X12.12Y32.45
X12.12Y9.85
X32.6Y71.15
X32.6Y48.55
X32.6Y25.95
X35.14Y71.15
X35.14Y48.55
X35.14Y25.95
X50.28Y55.05
X50.28Y32.45
X50.28Y9.85
X52.82Y55.05
X52.82Y32.45
X52.82Y9.85
X73.3Y71.15
X73.3Y48.55
X73.3Y25.95
X75.84Y71.15
X75.84Y48.55
X75.84Y25.95
X90.98Y55.05
X90.98Y32.45
X90.98Y9.85
X93.52Y55.05
X93.52Y32.45
X93.52Y9.85
X114.0Y71.15
X114.0Y48.55
X114.0Y25.95
X116.54Y71.15
X116.54Y48.55
X116.54Y25.95
T2
G00X2.825Y67.47
M15
G01X2.025Y67.47
M16
G05
G00X2.825Y58.83
M15
G01X2.025Y58.83
M16
G05
G00X2.825Y44.87
M15
G01X2.025Y44.87
M16
G05
G00X2.825Y36.23
M15
G01X2.025Y36.23
M16
G05
G00X2.825Y22.27
M15
G01X2.025Y22.27
M16
G05
G00X2.825Y13.63
M15
G01X2.025Y13.63
M16
G05
G00X7.155Y67.47
M15
G01X6.055Y67.47
M16
G05
G00X7.155Y58.83
M15
G01X6.055Y58.83
M16
G05
G00X7.155Y44.87
M15
G01X6.055Y44.87
M16
G05
G00X7.155Y36.23
M15
G01X6.055Y36.23
M16
G05
G00X7.155Y22.27
M15
G01X6.055Y22.27
M16
G05
G00X7.155Y13.63
M15
G01X6.055Y13.63
M16
G05
G00X43.525Y67.47
M15
G01X42.725Y67.47
M16
G05
G00X43.525Y58.83
M15
G01X42.725Y58.83
M16
G05
G00X43.525Y44.87
M15
G01X42.725Y44.87
M16
G05
G00X43.525Y36.23
M15
G01X42.725Y36.23
M16
G05
G00X43.525Y22.27
M15
G01X42.725Y22.27
M16
G05
G00X43.525Y13.63
M15
G01X42.725Y13.63
M16
G05
G00X47.855Y67.47
M15
G01X46.755Y67.47
M16
G05
G00X47.855Y58.83
M15
G01X46.755Y58.83
M16
G05
G00X47.855Y44.87
M15
G01X46.755Y44.87
M16
G05
G00X47.855Y36.23
M15
G01X46.755Y36.23
M16
G05
G00X47.855Y22.27
M15
G01X46.755Y22.27
M16
G05
G00X47.855Y13.63
M15
G01X46.755Y13.63
M16
G05
G00X84.225Y67.47
M15
G01X83.425Y67.47
M16
G05
G00X84.225Y58.83
M15
G01X83.425Y58.83
M16
G05
G00X84.225Y44.87
M15
G01X83.425Y44.87
M16
G05
G00X84.225Y36.23
M15
G01X83.425Y36.23
M16
G05
G00X84.225Y22.27
M15
G01X83.425Y22.27
M16
G05
G00X84.225Y13.63
M15
G01X83.425Y13.63
M16
G05
G00X88.555Y67.47
M15
G01X87.455Y67.47
M16
G05
G00X88.555Y58.83
M15
G01X87.455Y58.83
M16
G05
G00X88.555Y44.87
M15
G01X87.455Y44.87
M16
G05
G00X88.555Y36.23
M15
G01X87.455Y36.23
M16
G05
G00X88.555Y22.27
M15
G01X87.455Y22.27
M16
G05
G00X88.555Y13.63
M15
G01X87.455Y13.63
M16
G05
T0
M30
