%TF.GenerationSoftware,KiCad,Pcbnew,7.0.5*%
%TF.CreationDate,2023-06-19T14:47:57+02:00*%
%TF.ProjectId,candleLightfd-S01,63616e64-6c65-44c6-9967-687466642d53,R01*%
%TF.SameCoordinates,Original*%
%TF.FileFunction,Copper,L1,Top*%
%TF.FilePolarity,Positive*%
%FSLAX46Y46*%
G04 Gerber Fmt 4.6, Leading zero omitted, Abs format (unit mm)*
G04 Created by KiCad (PCBNEW 7.0.5) date 2023-06-19 14:47:58*
%MOMM*%
%LPD*%
G01*
G04 APERTURE LIST*
G04 Aperture macros list*
%AMRoundRect*
0 Rectangle with rounded corners*
0 $1 Rounding radius*
0 $2 $3 $4 $5 $6 $7 $8 $9 X,Y pos of 4 corners*
0 Add a 4 corners polygon primitive as box body*
4,1,4,$2,$3,$4,$5,$6,$7,$8,$9,$2,$3,0*
0 Add four circle primitives for the rounded corners*
1,1,$1+$1,$2,$3*
1,1,$1+$1,$4,$5*
1,1,$1+$1,$6,$7*
1,1,$1+$1,$8,$9*
0 Add four rect primitives between the rounded corners*
20,1,$1+$1,$2,$3,$4,$5,0*
20,1,$1+$1,$4,$5,$6,$7,0*
20,1,$1+$1,$6,$7,$8,$9,0*
20,1,$1+$1,$8,$9,$2,$3,0*%
G04 Aperture macros list end*
%ADD10C,0.150000*%
%TA.AperFunction,NonConductor*%
%ADD11C,0.150000*%
%TD*%
%TA.AperFunction,SMDPad,CuDef*%
%ADD12C,0.787000*%
%TD*%
%TA.AperFunction,SMDPad,CuDef*%
%ADD13RoundRect,0.125000X0.125000X0.325000X-0.125000X0.325000X-0.125000X-0.325000X0.125000X-0.325000X0*%
%TD*%
%TA.AperFunction,SMDPad,CuDef*%
%ADD14RoundRect,0.187500X0.212500X0.187500X-0.212500X0.187500X-0.212500X-0.187500X0.212500X-0.187500X0*%
%TD*%
%TA.AperFunction,SMDPad,CuDef*%
%ADD15RoundRect,0.187500X0.187500X-0.212500X0.187500X0.212500X-0.187500X0.212500X-0.187500X-0.212500X0*%
%TD*%
%TA.AperFunction,SMDPad,CuDef*%
%ADD16RoundRect,0.125000X-0.125000X-0.325000X0.125000X-0.325000X0.125000X0.325000X-0.125000X0.325000X0*%
%TD*%
%TA.AperFunction,SMDPad,CuDef*%
%ADD17RoundRect,0.187500X-0.212500X-0.187500X0.212500X-0.187500X0.212500X0.187500X-0.212500X0.187500X0*%
%TD*%
%TA.AperFunction,SMDPad,CuDef*%
%ADD18RoundRect,0.199390X-0.199390X0.199390X-0.199390X-0.199390X0.199390X-0.199390X0.199390X0.199390X0*%
%TD*%
%TA.AperFunction,SMDPad,CuDef*%
%ADD19RoundRect,0.250000X0.250000X0.375000X-0.250000X0.375000X-0.250000X-0.375000X0.250000X-0.375000X0*%
%TD*%
%TA.AperFunction,SMDPad,CuDef*%
%ADD20RoundRect,0.225000X-0.425000X-0.225000X0.425000X-0.225000X0.425000X0.225000X-0.425000X0.225000X0*%
%TD*%
%TA.AperFunction,SMDPad,CuDef*%
%ADD21RoundRect,0.225000X-0.775000X-0.225000X0.775000X-0.225000X0.775000X0.225000X-0.775000X0.225000X0*%
%TD*%
%TA.AperFunction,SMDPad,CuDef*%
%ADD22RoundRect,0.225000X-1.337500X-0.641500X1.337500X-0.641500X1.337500X0.641500X-1.337500X0.641500X0*%
%TD*%
%TA.AperFunction,SMDPad,CuDef*%
%ADD23RoundRect,0.125000X0.625000X0.125000X-0.625000X0.125000X-0.625000X-0.125000X0.625000X-0.125000X0*%
%TD*%
%TA.AperFunction,SMDPad,CuDef*%
%ADD24RoundRect,0.070000X0.680000X0.070000X-0.680000X0.070000X-0.680000X-0.070000X0.680000X-0.070000X0*%
%TD*%
%TA.AperFunction,SMDPad,CuDef*%
%ADD25RoundRect,0.125000X-0.125000X0.625000X-0.125000X-0.625000X0.125000X-0.625000X0.125000X0.625000X0*%
%TD*%
%TA.AperFunction,SMDPad,CuDef*%
%ADD26RoundRect,0.070000X-0.070000X0.680000X-0.070000X-0.680000X0.070000X-0.680000X0.070000X0.680000X0*%
%TD*%
%TA.AperFunction,SMDPad,CuDef*%
%ADD27RoundRect,0.125000X-0.625000X-0.125000X0.625000X-0.125000X0.625000X0.125000X-0.625000X0.125000X0*%
%TD*%
%TA.AperFunction,SMDPad,CuDef*%
%ADD28RoundRect,0.070000X-0.680000X-0.070000X0.680000X-0.070000X0.680000X0.070000X-0.680000X0.070000X0*%
%TD*%
%TA.AperFunction,SMDPad,CuDef*%
%ADD29RoundRect,0.125000X0.125000X-0.625000X0.125000X0.625000X-0.125000X0.625000X-0.125000X-0.625000X0*%
%TD*%
%TA.AperFunction,SMDPad,CuDef*%
%ADD30RoundRect,0.070000X0.070000X-0.680000X0.070000X0.680000X-0.070000X0.680000X-0.070000X-0.680000X0*%
%TD*%
%TA.AperFunction,SMDPad,CuDef*%
%ADD31RoundRect,0.150000X-0.425000X0.150000X-0.425000X-0.150000X0.425000X-0.150000X0.425000X0.150000X0*%
%TD*%
%TA.AperFunction,SMDPad,CuDef*%
%ADD32RoundRect,0.075000X-0.500000X0.075000X-0.500000X-0.075000X0.500000X-0.075000X0.500000X0.075000X0*%
%TD*%
%TA.AperFunction,ComponentPad*%
%ADD33O,2.100000X1.000000*%
%TD*%
%TA.AperFunction,ComponentPad*%
%ADD34O,1.800000X1.000000*%
%TD*%
%TA.AperFunction,SMDPad,CuDef*%
%ADD35RoundRect,0.200000X-2.300000X0.800000X-2.300000X-0.800000X2.300000X-0.800000X2.300000X0.800000X0*%
%TD*%
%TA.AperFunction,SMDPad,CuDef*%
%ADD36RoundRect,0.500000X-2.000000X0.500000X-2.000000X-0.500000X2.000000X-0.500000X2.000000X0.500000X0*%
%TD*%
%TA.AperFunction,FiducialPad,Global*%
%ADD37C,1.000000*%
%TD*%
%TA.AperFunction,SMDPad,CuDef*%
%ADD38C,1.000000*%
%TD*%
%TA.AperFunction,SMDPad,CuDef*%
%ADD39RoundRect,0.115000X-0.460000X0.585000X-0.460000X-0.585000X0.460000X-0.585000X0.460000X0.585000X0*%
%TD*%
%TA.AperFunction,SMDPad,CuDef*%
%ADD40RoundRect,0.125000X-0.325000X0.125000X-0.325000X-0.125000X0.325000X-0.125000X0.325000X0.125000X0*%
%TD*%
%TA.AperFunction,SMDPad,CuDef*%
%ADD41RoundRect,0.150000X-0.420000X-0.150000X0.420000X-0.150000X0.420000X0.150000X-0.420000X0.150000X0*%
%TD*%
%TA.AperFunction,ComponentPad*%
%ADD42R,1.600000X1.600000*%
%TD*%
%TA.AperFunction,ComponentPad*%
%ADD43C,1.600000*%
%TD*%
%TA.AperFunction,SMDPad,CuDef*%
%ADD44RoundRect,0.250000X0.375000X-0.250000X0.375000X0.250000X-0.375000X0.250000X-0.375000X-0.250000X0*%
%TD*%
%TA.AperFunction,SMDPad,CuDef*%
%ADD45RoundRect,0.175000X-0.475000X0.175000X-0.475000X-0.175000X0.475000X-0.175000X0.475000X0.175000X0*%
%TD*%
%TA.AperFunction,ViaPad*%
%ADD46C,0.800000*%
%TD*%
%TA.AperFunction,Conductor*%
%ADD47C,0.500000*%
%TD*%
%TA.AperFunction,Conductor*%
%ADD48C,0.250000*%
%TD*%
%TA.AperFunction,Conductor*%
%ADD49C,0.300000*%
%TD*%
%TA.AperFunction,Conductor*%
%ADD50C,0.200000*%
%TD*%
G04 APERTURE END LIST*
D10*
%TO.C,NB2*%
D11*
X102554819Y-130164285D02*
X102554819Y-130735713D01*
X102554819Y-130449999D02*
X101554819Y-130449999D01*
X101554819Y-130449999D02*
X101697676Y-130545237D01*
X101697676Y-130545237D02*
X101792914Y-130640475D01*
X101792914Y-130640475D02*
X101840533Y-130735713D01*
%TD*%
D12*
%TO.P,X3,1,P1*%
%TO.N,+3V3*%
X106270000Y-136865000D03*
%TO.P,X3,2,P2*%
%TO.N,/MCU/SWCLK*%
X106270000Y-138134000D03*
%TO.P,X3,3,P3*%
%TO.N,GND*%
X105000000Y-136865000D03*
%TO.P,X3,4,P4*%
%TO.N,/MCU/SWDIO*%
X105000000Y-138135000D03*
%TO.P,X3,5,P4*%
%TO.N,/MCU/NRST*%
X103730000Y-136865000D03*
%TO.P,X3,6,P4*%
%TO.N,unconnected-(X3-P4-Pad6)*%
X103730000Y-138135000D03*
%TD*%
D13*
%TO.P,R2,1*%
%TO.N,Net-(X1-CC1)*%
X110250000Y-122800000D03*
%TO.P,R2,2*%
%TO.N,GND*%
X108750000Y-122800000D03*
%TD*%
D14*
%TO.P,C2,1*%
%TO.N,GND*%
X123400000Y-127900000D03*
%TO.P,C2,2*%
%TO.N,Net-(U1F-PF1{slash}OSC_OUT)*%
X121900000Y-127900000D03*
%TD*%
D15*
%TO.P,C8,1*%
%TO.N,+3V3*%
X130750000Y-138300000D03*
%TO.P,C8,2*%
%TO.N,GND*%
X130750000Y-136800000D03*
%TD*%
D16*
%TO.P,R1,1*%
%TO.N,Net-(X1-CC2)*%
X106100000Y-122800000D03*
%TO.P,R1,2*%
%TO.N,GND*%
X107600000Y-122800000D03*
%TD*%
D17*
%TO.P,C4,1*%
%TO.N,+3V3*%
X121450000Y-132600000D03*
%TO.P,C4,2*%
%TO.N,GND*%
X122950000Y-132600000D03*
%TD*%
D18*
%TO.P,D1,1,A*%
%TO.N,Net-(D1-A)*%
X116800000Y-122200700D03*
%TO.P,D1,2,K*%
%TO.N,/MCU/LED_TX*%
X116800000Y-123699300D03*
%TD*%
D13*
%TO.P,R6,1*%
%TO.N,/MCU/SWCLK*%
X118200000Y-137550000D03*
%TO.P,R6,2*%
%TO.N,GND*%
X116700000Y-137550000D03*
%TD*%
D19*
%TO.P,C6,1*%
%TO.N,+5V*%
X125200000Y-122250000D03*
%TO.P,C6,2*%
%TO.N,GND*%
X123200000Y-122250000D03*
%TD*%
D20*
%TO.P,U2,1,VIN*%
%TO.N,+5V*%
X127050000Y-122500000D03*
D21*
%TO.P,U2,2,GND*%
%TO.N,GND*%
X127400000Y-124000000D03*
D22*
X129437500Y-124000000D03*
D20*
%TO.P,U2,3,VOUT*%
%TO.N,+3V3*%
X127050000Y-125500000D03*
%TD*%
D14*
%TO.P,C1,1*%
%TO.N,GND*%
X123400000Y-129500000D03*
%TO.P,C1,2*%
%TO.N,Net-(U1F-PF0{slash}OSC_IN)*%
X121900000Y-129500000D03*
%TD*%
D23*
%TO.P,U1,1,PC13*%
%TO.N,unconnected-(U1C-PC13-Pad1)*%
X119425000Y-132840000D03*
D24*
%TO.P,U1,2,PC14/OSC32_IN*%
%TO.N,unconnected-(U1C-PC14{slash}OSC32_IN-Pad2)*%
X119425000Y-132250000D03*
%TO.P,U1,3,PC15/OSC32_OUT*%
%TO.N,unconnected-(U1C-PC15{slash}OSC32_OUT-Pad3)*%
X119425000Y-131750000D03*
%TO.P,U1,4,VBAT*%
%TO.N,+3V3*%
X119425000Y-131250000D03*
%TO.P,U1,5,VREF+*%
X119425000Y-130750000D03*
%TO.P,U1,6,VDD/VDDA*%
X119425000Y-130250000D03*
%TO.P,U1,7,VSS/VSSA*%
%TO.N,GND*%
X119425000Y-129750000D03*
%TO.P,U1,8,PF0/OSC_IN*%
%TO.N,Net-(U1F-PF0{slash}OSC_IN)*%
X119425000Y-129250000D03*
%TO.P,U1,9,PF1/OSC_OUT*%
%TO.N,Net-(U1F-PF1{slash}OSC_OUT)*%
X119425000Y-128750000D03*
%TO.P,U1,10,PF2/NRST*%
%TO.N,/MCU/NRST*%
X119425000Y-128250000D03*
%TO.P,U1,11,PA0*%
%TO.N,unconnected-(U1A-PA0-Pad11)*%
X119425000Y-127750000D03*
D23*
%TO.P,U1,12,PA1*%
%TO.N,unconnected-(U1A-PA1-Pad12)*%
X119425000Y-127160000D03*
D25*
%TO.P,U1,13,PA2*%
%TO.N,unconnected-(U1A-PA2-Pad13)*%
X117840000Y-125575000D03*
D26*
%TO.P,U1,14,PA3*%
%TO.N,/MCU/LED_RX*%
X117250000Y-125575000D03*
%TO.P,U1,15,PA4*%
%TO.N,/MCU/LED_TX*%
X116750000Y-125575000D03*
%TO.P,U1,16,PA5*%
%TO.N,unconnected-(U1A-PA5-Pad16)*%
X116250000Y-125575000D03*
%TO.P,U1,17,PA6*%
%TO.N,unconnected-(U1A-PA6-Pad17)*%
X115750000Y-125575000D03*
%TO.P,U1,18,PA7*%
%TO.N,unconnected-(U1A-PA7-Pad18)*%
X115250000Y-125575000D03*
%TO.P,U1,19,PB0*%
%TO.N,/CAN Transiver/CAN2_RX*%
X114750000Y-125575000D03*
%TO.P,U1,20,PB1*%
%TO.N,/CAN Transiver/CAN2_TX*%
X114250000Y-125575000D03*
%TO.P,U1,21,PB2*%
%TO.N,/CAN Transiver/CAN2_S*%
X113750000Y-125575000D03*
%TO.P,U1,22,PB10*%
%TO.N,unconnected-(U1B-PB10-Pad22)*%
X113250000Y-125575000D03*
%TO.P,U1,23,PB11*%
%TO.N,unconnected-(U1B-PB11-Pad23)*%
X112750000Y-125575000D03*
D25*
%TO.P,U1,24,PB12*%
%TO.N,unconnected-(U1B-PB12-Pad24)*%
X112160000Y-125575000D03*
D27*
%TO.P,U1,25,PB13*%
%TO.N,unconnected-(U1B-PB13-Pad25)*%
X110575000Y-127160000D03*
D28*
%TO.P,U1,26,PB14*%
%TO.N,unconnected-(U1B-PB14-Pad26)*%
X110575000Y-127750000D03*
%TO.P,U1,27,PB15*%
%TO.N,unconnected-(U1B-PB15-Pad27)*%
X110575000Y-128250000D03*
%TO.P,U1,28,PA8*%
%TO.N,unconnected-(U1A-PA8-Pad28)*%
X110575000Y-128750000D03*
%TO.P,U1,29,PA9*%
%TO.N,/MCU/TX*%
X110575000Y-129250000D03*
%TO.P,U1,30,PC6*%
%TO.N,unconnected-(U1C-PC6-Pad30)*%
X110575000Y-129750000D03*
%TO.P,U1,31,PC7*%
%TO.N,unconnected-(U1C-PC7-Pad31)*%
X110575000Y-130250000D03*
%TO.P,U1,32,PA10*%
%TO.N,/MCU/RX*%
X110575000Y-130750000D03*
%TO.P,U1,33,PA11[PA9]*%
%TO.N,/USB_N*%
X110575000Y-131250000D03*
%TO.P,U1,34,PA12[PA10]*%
%TO.N,/USB_P*%
X110575000Y-131750000D03*
%TO.P,U1,35,PA13*%
%TO.N,/MCU/SWDIO*%
X110575000Y-132250000D03*
D27*
%TO.P,U1,36,PA14/BOOT0*%
%TO.N,/MCU/SWCLK*%
X110575000Y-132840000D03*
D29*
%TO.P,U1,37,PA15*%
%TO.N,/CAN Transiver/CAN1_S*%
X112160000Y-134425000D03*
D30*
%TO.P,U1,38,PD0*%
%TO.N,/CAN Transiver/CAN1_RX*%
X112750000Y-134425000D03*
%TO.P,U1,39,PD1*%
%TO.N,/CAN Transiver/CAN1_TX*%
X113250000Y-134425000D03*
%TO.P,U1,40,PD2*%
%TO.N,unconnected-(U1D-PD2-Pad40)*%
X113750000Y-134425000D03*
%TO.P,U1,41,PD3*%
%TO.N,unconnected-(U1D-PD3-Pad41)*%
X114250000Y-134425000D03*
%TO.P,U1,42,PB3*%
%TO.N,unconnected-(U1B-PB3-Pad42)*%
X114750000Y-134425000D03*
%TO.P,U1,43,PB4*%
%TO.N,unconnected-(U1B-PB4-Pad43)*%
X115250000Y-134425000D03*
%TO.P,U1,44,PB5*%
%TO.N,unconnected-(U1B-PB5-Pad44)*%
X115750000Y-134425000D03*
%TO.P,U1,45,PB6*%
%TO.N,unconnected-(U1B-PB6-Pad45)*%
X116250000Y-134425000D03*
%TO.P,U1,46,PB7*%
%TO.N,unconnected-(U1B-PB7-Pad46)*%
X116750000Y-134425000D03*
%TO.P,U1,47,PB8*%
%TO.N,unconnected-(U1B-PB8-Pad47)*%
X117250000Y-134425000D03*
D29*
%TO.P,U1,48,PB9*%
%TO.N,unconnected-(U1B-PB9-Pad48)*%
X117840000Y-134425000D03*
%TD*%
D17*
%TO.P,C5,1*%
%TO.N,+3V3*%
X121900000Y-131050000D03*
%TO.P,C5,2*%
%TO.N,GND*%
X123400000Y-131050000D03*
%TD*%
D31*
%TO.P,X1,A1,GND*%
%TO.N,GND*%
X108180000Y-126450000D03*
%TO.P,X1,A4,VBUS*%
%TO.N,+5V*%
X108180000Y-127250000D03*
D32*
%TO.P,X1,A5,CC1*%
%TO.N,Net-(X1-CC1)*%
X108180000Y-128400000D03*
%TO.P,X1,A6,DP1*%
%TO.N,/USB_P*%
X108180000Y-129400000D03*
%TO.P,X1,A7,DN1*%
%TO.N,/USB_N*%
X108180000Y-129900000D03*
%TO.P,X1,A8,SBU1*%
%TO.N,unconnected-(X1-SBU1-PadA8)*%
X108180000Y-130900000D03*
D31*
%TO.P,X1,B1,GND*%
%TO.N,GND*%
X108180000Y-132850000D03*
%TO.P,X1,B4,VBUS*%
%TO.N,+5V*%
X108180000Y-132050000D03*
D32*
%TO.P,X1,B5,CC2*%
%TO.N,Net-(X1-CC2)*%
X108180000Y-131400000D03*
%TO.P,X1,B6,DP2*%
%TO.N,/USB_P*%
X108180000Y-130400000D03*
%TO.P,X1,B7,DN2*%
%TO.N,/USB_N*%
X108180000Y-128900000D03*
%TO.P,X1,B8,SBU2*%
%TO.N,unconnected-(X1-SBU2-PadB8)*%
X108180000Y-127900000D03*
D33*
%TO.P,X1,SH,Shield*%
%TO.N,GND*%
X107605000Y-125330000D03*
D34*
X103425000Y-125330000D03*
D33*
X107605000Y-133970000D03*
D34*
X103425000Y-133970000D03*
%TD*%
D35*
%TO.P,X2,1*%
%TO.N,/CAN2_L*%
X136100000Y-135540000D03*
D36*
%TO.P,X2,2*%
%TO.N,/CAN1_L*%
X136100000Y-132770000D03*
%TO.P,X2,3*%
%TO.N,GND*%
X136100000Y-130000000D03*
%TO.P,X2,4*%
%TO.N,unconnected-(X2-Pad4)*%
X136100000Y-127230000D03*
%TO.P,X2,5*%
%TO.N,/SH*%
X136100000Y-124460000D03*
%TD*%
D37*
%TO.P,NB4,~*%
%TO.N,N/C*%
X102500000Y-121500000D03*
%TD*%
D38*
%TO.P,TP5,1*%
%TO.N,/MCU/TX*%
X110300000Y-125400000D03*
%TD*%
D15*
%TO.P,C3,1*%
%TO.N,/MCU/NRST*%
X122550000Y-126150000D03*
%TO.P,C3,2*%
%TO.N,GND*%
X122550000Y-124650000D03*
%TD*%
D39*
%TO.P,Y1,1,C_{1}*%
%TO.N,Net-(U1F-PF1{slash}OSC_OUT)*%
X125350000Y-128050000D03*
%TO.P,Y1,2,GND*%
%TO.N,GND*%
X125350000Y-130250000D03*
%TO.P,Y1,3,C_{2}*%
%TO.N,Net-(U1F-PF0{slash}OSC_IN)*%
X126950000Y-130250000D03*
%TO.P,Y1,4,GND*%
%TO.N,GND*%
X126950000Y-128050000D03*
%TD*%
D40*
%TO.P,R3,1*%
%TO.N,+3V3*%
X115200000Y-122200000D03*
%TO.P,R3,2*%
%TO.N,Net-(D1-A)*%
X115200000Y-123700000D03*
%TD*%
D41*
%TO.P,U3,1,TXD*%
%TO.N,/CAN Transiver/CAN1_TX*%
X123500000Y-134495000D03*
%TO.P,U3,2,GND*%
%TO.N,GND*%
X123500000Y-135765000D03*
%TO.P,U3,3,VCC*%
%TO.N,+5V*%
X123500000Y-137035000D03*
%TO.P,U3,4,RXD*%
%TO.N,/CAN Transiver/CAN1_RX*%
X123500000Y-138305000D03*
%TO.P,U3,5,VIO*%
%TO.N,+3V3*%
X128900000Y-138305000D03*
%TO.P,U3,6,CANL*%
%TO.N,/CAN1_L*%
X128900000Y-137035000D03*
%TO.P,U3,7,CANH*%
%TO.N,/CAN1_H*%
X128900000Y-135765000D03*
%TO.P,U3,8,S*%
%TO.N,/CAN Transiver/CAN1_S*%
X128900000Y-134495000D03*
%TD*%
D42*
%TO.P,P2,1,P1*%
%TO.N,+3V3*%
X110580000Y-137750000D03*
D43*
%TO.P,P2,2,P2*%
%TO.N,/MCU/SWCLK*%
X113120000Y-137750000D03*
%TD*%
D44*
%TO.P,C7,1*%
%TO.N,+3V3*%
X124550000Y-126150000D03*
%TO.P,C7,2*%
%TO.N,GND*%
X124550000Y-124150000D03*
%TD*%
D42*
%TO.P,P1,1,P1*%
%TO.N,GND*%
X133600000Y-121650000D03*
D43*
%TO.P,P1,2,P2*%
%TO.N,+12V*%
X136140000Y-121650000D03*
%TD*%
D15*
%TO.P,C10,1*%
%TO.N,+5V*%
X121800000Y-137250000D03*
%TO.P,C10,2*%
%TO.N,GND*%
X121800000Y-135750000D03*
%TD*%
D18*
%TO.P,D2,1,A*%
%TO.N,Net-(D2-A)*%
X120000000Y-122200700D03*
%TO.P,D2,2,K*%
%TO.N,/MCU/LED_RX*%
X120000000Y-123699300D03*
%TD*%
D40*
%TO.P,R5,1*%
%TO.N,+3V3*%
X112000000Y-122200000D03*
%TO.P,R5,2*%
%TO.N,Net-(D3-A)*%
X112000000Y-123700000D03*
%TD*%
D45*
%TO.P,R7,1*%
%TO.N,/CAN1_H*%
X130900000Y-130400000D03*
%TO.P,R7,2*%
%TO.N,/CAN1_L*%
X130900000Y-132300000D03*
%TD*%
D40*
%TO.P,R4,1*%
%TO.N,+3V3*%
X118400000Y-122200000D03*
%TO.P,R4,2*%
%TO.N,Net-(D2-A)*%
X118400000Y-123700000D03*
%TD*%
D38*
%TO.P,TP4,1*%
%TO.N,/MCU/RX*%
X120200000Y-125300000D03*
%TD*%
D18*
%TO.P,D3,1,A*%
%TO.N,Net-(D3-A)*%
X113600000Y-122200700D03*
%TO.P,D3,2,K*%
%TO.N,GND*%
X113600000Y-123699300D03*
%TD*%
D37*
%TO.P,NB3,~*%
%TO.N,N/C*%
X136000000Y-138500000D03*
%TD*%
D46*
%TO.N,+3V3*%
X126750000Y-138600000D03*
X127555074Y-133055074D03*
X127175500Y-136625500D03*
%TO.N,GND*%
X110200000Y-124300000D03*
X124150000Y-127900000D03*
X131500000Y-123300000D03*
X132800000Y-127800000D03*
X105716784Y-136040375D03*
X120700000Y-136800000D03*
X131300000Y-125750000D03*
X125700000Y-124150000D03*
X127000000Y-126850000D03*
X124500000Y-131850000D03*
X123900000Y-130250000D03*
X125700000Y-131500000D03*
X115400000Y-137550000D03*
X132200000Y-137900000D03*
X120917241Y-129992643D03*
X131100000Y-134300000D03*
%TO.N,+5V*%
X106050000Y-131900000D03*
X125400000Y-136400000D03*
X106550000Y-127700500D03*
X126100000Y-123100000D03*
%TO.N,/CAN1_H*%
X133000500Y-130000000D03*
%TO.N,/CAN2_L*%
X132375500Y-135337701D03*
%TO.N,/MCU/SWDIO*%
X105600000Y-139000000D03*
X109225500Y-134775500D03*
%TO.N,/CAN Transiver/CAN2_RX*%
X113050000Y-130800000D03*
%TO.N,/CAN Transiver/CAN2_TX*%
X112750000Y-129350000D03*
%TO.N,/CAN Transiver/CAN2_S*%
X112594115Y-128362729D03*
%TO.N,/MCU/NRST*%
X110750500Y-135569301D03*
X104400000Y-135824500D03*
%TD*%
D47*
%TO.N,+3V3*%
X108780000Y-135950000D02*
X110580000Y-137750000D01*
D48*
X121400000Y-132416386D02*
X121400000Y-132550000D01*
D47*
X128450000Y-132350000D02*
X128450000Y-126100000D01*
D48*
X118400000Y-122200000D02*
X117550000Y-121350000D01*
D47*
X128900000Y-138305000D02*
X130695000Y-138305000D01*
D49*
X127306000Y-138305000D02*
X127175500Y-138174500D01*
D48*
X121400000Y-122200000D02*
X120600000Y-121400000D01*
D47*
X126750000Y-138600000D02*
X127175500Y-138174500D01*
D48*
X121950000Y-125400000D02*
X121400000Y-124850000D01*
X120233614Y-131250000D02*
X121400000Y-132416386D01*
X119200000Y-121400000D02*
X118400000Y-122200000D01*
X117550000Y-121350000D02*
X116050000Y-121350000D01*
X119425000Y-130750000D02*
X119425000Y-131250000D01*
D47*
X127060148Y-133550000D02*
X127555074Y-133055074D01*
X106270000Y-136865000D02*
X107185000Y-135950000D01*
D48*
X121400000Y-124850000D02*
X121400000Y-122200000D01*
X116050000Y-121350000D02*
X115200000Y-122200000D01*
D47*
X127850000Y-125500000D02*
X127050000Y-125500000D01*
D48*
X120950000Y-131050000D02*
X121900000Y-131050000D01*
D47*
X121400000Y-132550000D02*
X122400000Y-133550000D01*
X127175500Y-138174500D02*
X127175500Y-136625500D01*
D48*
X124500000Y-126250000D02*
X124500000Y-126100000D01*
X120600000Y-121400000D02*
X119200000Y-121400000D01*
X119425000Y-130250000D02*
X120150000Y-130250000D01*
X123800000Y-125400000D02*
X121950000Y-125400000D01*
D47*
X128450000Y-126100000D02*
X127850000Y-125500000D01*
D48*
X112000000Y-122200000D02*
X112850000Y-121350000D01*
X119425000Y-131250000D02*
X120233614Y-131250000D01*
D47*
X122400000Y-133550000D02*
X127060148Y-133550000D01*
X124500000Y-126250000D02*
X126300000Y-126250000D01*
X127555074Y-133055074D02*
X127744926Y-133055074D01*
D49*
X128900000Y-138305000D02*
X127306000Y-138305000D01*
D48*
X124500000Y-126100000D02*
X123800000Y-125400000D01*
D47*
X126300000Y-126250000D02*
X127050000Y-125500000D01*
X127744926Y-133055074D02*
X128450000Y-132350000D01*
X121900000Y-132050000D02*
X121900000Y-131050000D01*
X130695000Y-138305000D02*
X130750000Y-138250000D01*
D48*
X114350000Y-121350000D02*
X115200000Y-122200000D01*
D47*
X107185000Y-135950000D02*
X108780000Y-135950000D01*
X121400000Y-132550000D02*
X121900000Y-132050000D01*
D48*
X120150000Y-130250000D02*
X120950000Y-131050000D01*
X112850000Y-121350000D02*
X114350000Y-121350000D01*
D47*
%TO.N,GND*%
X124600000Y-124150000D02*
X124225000Y-124525000D01*
X130750000Y-136750000D02*
X131050000Y-136750000D01*
X132800000Y-127800000D02*
X132800000Y-128200000D01*
X131100000Y-136400000D02*
X131100000Y-134300000D01*
X123900000Y-130250000D02*
X123900000Y-130000000D01*
X129550000Y-124000000D02*
X131300000Y-125750000D01*
X121865000Y-135765000D02*
X121800000Y-135700000D01*
X120700000Y-136800000D02*
X121800000Y-135700000D01*
X123900000Y-130550000D02*
X123900000Y-130250000D01*
D48*
X107600000Y-122800000D02*
X107605000Y-122805000D01*
D47*
X125700000Y-131500000D02*
X125700000Y-130600000D01*
X123500000Y-135765000D02*
X121865000Y-135765000D01*
X123400000Y-127900000D02*
X124150000Y-127900000D01*
X125700000Y-130600000D02*
X125350000Y-130250000D01*
X127000000Y-126850000D02*
X127000000Y-128000000D01*
D48*
X105716784Y-136148216D02*
X105000000Y-136865000D01*
D47*
X125700000Y-124150000D02*
X124600000Y-124150000D01*
X123900000Y-131850000D02*
X123200000Y-132550000D01*
X108180000Y-125905000D02*
X107605000Y-125330000D01*
D48*
X120917241Y-129992643D02*
X120674598Y-129750000D01*
D50*
X110200000Y-124300000D02*
X112999300Y-124300000D01*
D47*
X132800000Y-128200000D02*
X134600000Y-130000000D01*
D48*
X120674598Y-129750000D02*
X119425000Y-129750000D01*
D47*
X127250000Y-124150000D02*
X127400000Y-124000000D01*
X108180000Y-132850000D02*
X108180000Y-133395000D01*
X124100000Y-124650000D02*
X124225000Y-124525000D01*
X122550000Y-124650000D02*
X124100000Y-124650000D01*
D50*
X112999300Y-124300000D02*
X113600000Y-123699300D01*
D47*
X123900000Y-130000000D02*
X123400000Y-129500000D01*
D48*
X105716784Y-136040375D02*
X105716784Y-136148216D01*
D47*
X123900000Y-131550000D02*
X123900000Y-131850000D01*
X123400000Y-131050000D02*
X123900000Y-130550000D01*
X130750000Y-136750000D02*
X131100000Y-136400000D01*
X134600000Y-130000000D02*
X136325000Y-130000000D01*
X127000000Y-128000000D02*
X126950000Y-128050000D01*
X124775000Y-123975000D02*
X123200000Y-122400000D01*
X123900000Y-131850000D02*
X124500000Y-131850000D01*
X129437500Y-124000000D02*
X130800000Y-124000000D01*
X125700000Y-124150000D02*
X127250000Y-124150000D01*
X131050000Y-136750000D02*
X132200000Y-137900000D01*
D48*
X107605000Y-122805000D02*
X107605000Y-125330000D01*
D47*
X124225000Y-124525000D02*
X124775000Y-123975000D01*
X108180000Y-133395000D02*
X107605000Y-133970000D01*
X129437500Y-124000000D02*
X129550000Y-124000000D01*
D48*
X107600000Y-122800000D02*
X108750000Y-122800000D01*
X116700000Y-137550000D02*
X115400000Y-137550000D01*
D47*
X130800000Y-124000000D02*
X131500000Y-123300000D01*
X123400000Y-131050000D02*
X123900000Y-131550000D01*
X108180000Y-126450000D02*
X108180000Y-125905000D01*
%TO.N,+5V*%
X121965000Y-137035000D02*
X123500000Y-137035000D01*
D48*
X108180000Y-132050000D02*
X107604949Y-132050000D01*
D47*
X125400000Y-136400000D02*
X124765000Y-137035000D01*
X125450000Y-122450000D02*
X126100000Y-123100000D01*
D48*
X107604949Y-132050000D02*
X107394949Y-131840000D01*
D47*
X125400000Y-136400000D02*
X125411523Y-136400000D01*
X127100000Y-122450000D02*
X127050000Y-122500000D01*
X132050000Y-122450000D02*
X127100000Y-122450000D01*
D49*
X108180000Y-127250000D02*
X107640305Y-127250000D01*
D47*
X125411523Y-136400000D02*
X129225000Y-132586523D01*
D49*
X107189805Y-127700500D02*
X106550000Y-127700500D01*
D47*
X126950000Y-122400000D02*
X127050000Y-122500000D01*
X124765000Y-137035000D02*
X123500000Y-137035000D01*
D48*
X106110000Y-131840000D02*
X106050000Y-131900000D01*
D47*
X129225000Y-129125000D02*
X132500000Y-125850000D01*
D48*
X107394949Y-131840000D02*
X106110000Y-131840000D01*
D49*
X107640305Y-127250000D02*
X107189805Y-127700500D01*
D47*
X126100000Y-123100000D02*
X126800000Y-122400000D01*
X129225000Y-132586523D02*
X129225000Y-129125000D01*
X132500000Y-122900000D02*
X132050000Y-122450000D01*
X132500000Y-125850000D02*
X132500000Y-122900000D01*
X121800000Y-137200000D02*
X121965000Y-137035000D01*
X125200000Y-122450000D02*
X125450000Y-122450000D01*
X126800000Y-122400000D02*
X126950000Y-122400000D01*
D50*
%TO.N,/USB_N*%
X108180000Y-128900000D02*
X108785330Y-128900000D01*
X109100000Y-129214670D02*
X109100000Y-129900000D01*
X109525000Y-130325000D02*
X109525000Y-130973259D01*
X109525000Y-130973259D02*
X109801741Y-131250000D01*
X109100000Y-129900000D02*
X109525000Y-130325000D01*
X109801741Y-131250000D02*
X110575000Y-131250000D01*
X108785330Y-128900000D02*
X109100000Y-129214670D01*
X108180000Y-129900000D02*
X109100000Y-129900000D01*
%TO.N,/USB_P*%
X108785330Y-130400000D02*
X109100000Y-130714670D01*
X108180000Y-130400000D02*
X108785330Y-130400000D01*
X109100000Y-130714670D02*
X109100000Y-131500000D01*
X109100000Y-131500000D02*
X109350000Y-131750000D01*
X108180000Y-130400000D02*
X107574670Y-130400000D01*
X107305000Y-129595000D02*
X107500000Y-129400000D01*
X107500000Y-129400000D02*
X108180000Y-129400000D01*
X107574670Y-130400000D02*
X107305000Y-130130330D01*
X107305000Y-130130330D02*
X107305000Y-129595000D01*
X109350000Y-131750000D02*
X110575000Y-131750000D01*
D48*
%TO.N,Net-(D1-A)*%
X116699300Y-122200700D02*
X115200000Y-123700000D01*
X116800000Y-122200700D02*
X116699300Y-122200700D01*
%TO.N,Net-(D2-A)*%
X119899300Y-122200700D02*
X118400000Y-123700000D01*
X120000000Y-122200700D02*
X119899300Y-122200700D01*
%TO.N,Net-(D3-A)*%
X113600000Y-122200700D02*
X113499300Y-122200700D01*
X113499300Y-122200700D02*
X112000000Y-123700000D01*
%TO.N,Net-(X1-CC2)*%
X108180000Y-131400000D02*
X108170000Y-131390000D01*
X106990000Y-131390000D02*
X105550000Y-129950000D01*
X108170000Y-131390000D02*
X106990000Y-131390000D01*
X105550000Y-123350000D02*
X106100000Y-122800000D01*
X105550000Y-129950000D02*
X105550000Y-123350000D01*
%TO.N,Net-(X1-CC1)*%
X109300000Y-123750000D02*
X110250000Y-122800000D01*
X109300000Y-128200000D02*
X109300000Y-123750000D01*
X108180000Y-128400000D02*
X109100000Y-128400000D01*
X109100000Y-128400000D02*
X109300000Y-128200000D01*
%TO.N,/MCU/SWCLK*%
X109950000Y-133450000D02*
X109950000Y-135850000D01*
X111770000Y-136400000D02*
X113120000Y-137750000D01*
X117000000Y-138750000D02*
X118200000Y-137550000D01*
X110560000Y-132840000D02*
X109950000Y-133450000D01*
X110500000Y-136400000D02*
X111770000Y-136400000D01*
X106270000Y-138134000D02*
X107036000Y-138900000D01*
X113120000Y-137750000D02*
X114120000Y-138750000D01*
X114120000Y-138750000D02*
X117000000Y-138750000D01*
X109950000Y-135850000D02*
X110500000Y-136400000D01*
X110575000Y-132840000D02*
X110560000Y-132840000D01*
X107036000Y-138900000D02*
X111970000Y-138900000D01*
X111970000Y-138900000D02*
X113120000Y-137750000D01*
%TO.N,/CAN1_H*%
X129317500Y-135765000D02*
X129800000Y-135282500D01*
X129800000Y-131500000D02*
X130900000Y-130400000D01*
X128900000Y-135765000D02*
X129317500Y-135765000D01*
X131300000Y-130000000D02*
X130900000Y-130400000D01*
X133000500Y-130000000D02*
X131300000Y-130000000D01*
X129800000Y-135282500D02*
X129800000Y-131500000D01*
%TO.N,/CAN1_L*%
X130300000Y-135900000D02*
X130300000Y-132900000D01*
X130300000Y-132900000D02*
X130900000Y-132300000D01*
X129165000Y-137035000D02*
X130300000Y-135900000D01*
X133450000Y-132300000D02*
X133920000Y-132770000D01*
X130900000Y-132300000D02*
X133450000Y-132300000D01*
X133920000Y-132770000D02*
X136325000Y-132770000D01*
X128900000Y-137035000D02*
X129165000Y-137035000D01*
%TO.N,/CAN2_L*%
X132375500Y-135337701D02*
X134687701Y-135337701D01*
X134890000Y-135540000D02*
X136100000Y-135540000D01*
X134687701Y-135337701D02*
X134890000Y-135540000D01*
%TO.N,/MCU/SWDIO*%
X109778604Y-132250000D02*
X110575000Y-132250000D01*
X109225500Y-132803104D02*
X109778604Y-132250000D01*
X105000000Y-138400000D02*
X105600000Y-139000000D01*
X109225500Y-134775500D02*
X109225500Y-132803104D01*
X105000000Y-138135000D02*
X105000000Y-138400000D01*
%TO.N,/CAN Transiver/CAN2_RX*%
X114750000Y-129100000D02*
X114750000Y-125575000D01*
X113050000Y-130800000D02*
X114750000Y-129100000D01*
%TO.N,/CAN Transiver/CAN2_TX*%
X114250000Y-127850000D02*
X114250000Y-125575000D01*
X112750000Y-129350000D02*
X114250000Y-127850000D01*
%TO.N,/CAN Transiver/CAN1_RX*%
X123500000Y-138305000D02*
X121105000Y-138305000D01*
X121105000Y-138305000D02*
X118750000Y-135950000D01*
X118750000Y-135950000D02*
X113329990Y-135950000D01*
X113329990Y-135950000D02*
X112750000Y-135370010D01*
X112750000Y-135370010D02*
X112750000Y-134425000D01*
%TO.N,/CAN Transiver/CAN1_TX*%
X113516386Y-135500000D02*
X118400000Y-135500000D01*
X119275000Y-134625000D02*
X123370000Y-134625000D01*
X113250000Y-135233614D02*
X113516386Y-135500000D01*
X113250000Y-134425000D02*
X113250000Y-135233614D01*
X123370000Y-134625000D02*
X123500000Y-134495000D01*
X118400000Y-135500000D02*
X119275000Y-134625000D01*
%TO.N,/CAN Transiver/CAN1_S*%
X124700000Y-139000000D02*
X120900000Y-139000000D01*
X113150000Y-136450000D02*
X112200000Y-135500000D01*
X128205000Y-134495000D02*
X126150000Y-136550000D01*
X118350000Y-136450000D02*
X113150000Y-136450000D01*
X128900000Y-134495000D02*
X128205000Y-134495000D01*
X126150000Y-136550000D02*
X126150000Y-137550000D01*
X112200000Y-134465000D02*
X112160000Y-134425000D01*
X120900000Y-139000000D02*
X118350000Y-136450000D01*
X126150000Y-137550000D02*
X124700000Y-139000000D01*
X112200000Y-135500000D02*
X112200000Y-134465000D01*
%TO.N,/CAN Transiver/CAN2_S*%
X113750000Y-127150000D02*
X113750000Y-125575000D01*
X112594115Y-128362729D02*
X112594115Y-128305885D01*
X112594115Y-128305885D02*
X113750000Y-127150000D01*
%TO.N,/MCU/NRST*%
X110750500Y-135569301D02*
X110750500Y-134248802D01*
X121350000Y-126150000D02*
X120700000Y-126800000D01*
X120700000Y-127900000D02*
X120350000Y-128250000D01*
X103730000Y-136865000D02*
X103730000Y-136494500D01*
X110750500Y-134248802D02*
X112149302Y-132850000D01*
X120350000Y-128250000D02*
X119425000Y-128250000D01*
X117350000Y-132850000D02*
X117750000Y-132450000D01*
X122550000Y-126150000D02*
X121350000Y-126150000D01*
X120700000Y-126800000D02*
X120700000Y-127900000D01*
X118450000Y-128250000D02*
X119425000Y-128250000D01*
X117750000Y-132450000D02*
X117750000Y-128950000D01*
X112149302Y-132850000D02*
X117350000Y-132850000D01*
X103730000Y-136494500D02*
X104400000Y-135824500D01*
X117750000Y-128950000D02*
X118450000Y-128250000D01*
%TO.N,/MCU/LED_TX*%
X116750000Y-123749300D02*
X116750000Y-125575000D01*
X116800000Y-123699300D02*
X116750000Y-123749300D01*
D50*
%TO.N,/MCU/LED_RX*%
X117250000Y-124650000D02*
X117500000Y-124400000D01*
X117250000Y-125575000D02*
X117250000Y-124650000D01*
X117500000Y-124400000D02*
X119299300Y-124400000D01*
X119299300Y-124400000D02*
X120000000Y-123699300D01*
D48*
%TO.N,Net-(U1F-PF0{slash}OSC_IN)*%
X121900000Y-129500000D02*
X122600000Y-128800000D01*
X126950000Y-129500000D02*
X126950000Y-130250000D01*
X121650000Y-129250000D02*
X121900000Y-129500000D01*
X126600000Y-129150000D02*
X126950000Y-129500000D01*
X124174784Y-129150000D02*
X126600000Y-129150000D01*
X119425000Y-129250000D02*
X121650000Y-129250000D01*
X123824784Y-128800000D02*
X124174784Y-129150000D01*
X122600000Y-128800000D02*
X123824784Y-128800000D01*
%TO.N,Net-(U1F-PF1{slash}OSC_OUT)*%
X119425000Y-128750000D02*
X121050000Y-128750000D01*
X125350000Y-127450000D02*
X125075000Y-127175000D01*
X125350000Y-128050000D02*
X125350000Y-127450000D01*
X122625000Y-127175000D02*
X121900000Y-127900000D01*
X125075000Y-127175000D02*
X122625000Y-127175000D01*
X121050000Y-128750000D02*
X121900000Y-127900000D01*
%TO.N,/MCU/RX*%
X110575000Y-130750000D02*
X111383614Y-130750000D01*
X119898604Y-125300000D02*
X120200000Y-125300000D01*
X112300000Y-131666386D02*
X112300000Y-131700000D01*
X111383614Y-130750000D02*
X112300000Y-131666386D01*
X113498604Y-131700000D02*
X119898604Y-125300000D01*
X112300000Y-131700000D02*
X113498604Y-131700000D01*
%TO.N,/MCU/TX*%
X111383614Y-129250000D02*
X111800000Y-128833614D01*
X110575000Y-129250000D02*
X111383614Y-129250000D01*
X111800000Y-126900000D02*
X110300000Y-125400000D01*
X111800000Y-128833614D02*
X111800000Y-126900000D01*
%TD*%
M02*
