%TF.GenerationSoftware,KiCad,Pcbnew,7.0.5*%
%TF.CreationDate,2023-06-19T14:48:08+02:00*%
%TF.ProjectId,candleLightfd-S01,63616e64-6c65-44c6-9967-687466642d53,R01*%
%TF.SameCoordinates,Original*%
%TF.FileFunction,Soldermask,Bot*%
%TF.FilePolarity,Negative*%
%FSLAX46Y46*%
G04 Gerber Fmt 4.6, Leading zero omitted, Abs format (unit mm)*
G04 Created by KiCad (PCBNEW 7.0.5) date 2023-06-19 14:48:08*
%MOMM*%
%LPD*%
G01*
G04 APERTURE LIST*
G04 Aperture macros list*
%AMRoundRect*
0 Rectangle with rounded corners*
0 $1 Rounding radius*
0 $2 $3 $4 $5 $6 $7 $8 $9 X,Y pos of 4 corners*
0 Add a 4 corners polygon primitive as box body*
4,1,4,$2,$3,$4,$5,$6,$7,$8,$9,$2,$3,0*
0 Add four circle primitives for the rounded corners*
1,1,$1+$1,$2,$3*
1,1,$1+$1,$4,$5*
1,1,$1+$1,$6,$7*
1,1,$1+$1,$8,$9*
0 Add four rect primitives between the rounded corners*
20,1,$1+$1,$2,$3,$4,$5,0*
20,1,$1+$1,$4,$5,$6,$7,0*
20,1,$1+$1,$6,$7,$8,$9,0*
20,1,$1+$1,$8,$9,$2,$3,0*%
G04 Aperture macros list end*
%ADD10C,0.300000*%
%ADD11C,0.100000*%
%ADD12C,0.010000*%
%ADD13C,0.787000*%
%ADD14C,0.650000*%
%ADD15O,2.100000X1.000000*%
%ADD16O,1.800000X1.000000*%
%ADD17RoundRect,0.500000X-2.000000X0.500000X-2.000000X-0.500000X2.000000X-0.500000X2.000000X0.500000X0*%
%ADD18R,1.600000X1.600000*%
%ADD19C,1.600000*%
%ADD20RoundRect,0.150000X-0.420000X-0.150000X0.420000X-0.150000X0.420000X0.150000X-0.420000X0.150000X0*%
%ADD21C,2.000000*%
%ADD22RoundRect,0.187500X0.212500X0.187500X-0.212500X0.187500X-0.212500X-0.187500X0.212500X-0.187500X0*%
%ADD23RoundRect,0.175000X-0.475000X0.175000X-0.475000X-0.175000X0.475000X-0.175000X0.475000X0.175000X0*%
%ADD24RoundRect,0.187500X-0.187500X0.212500X-0.187500X-0.212500X0.187500X-0.212500X0.187500X0.212500X0*%
G04 APERTURE END LIST*
D10*
X106700000Y-127700500D02*
G75*
G03*
X106700000Y-127700500I-150000J0D01*
G01*
X127325500Y-136625500D02*
G75*
G03*
X127325500Y-136625500I-150000J0D01*
G01*
X104550000Y-135824500D02*
G75*
G03*
X104550000Y-135824500I-150000J0D01*
G01*
X132950000Y-127800000D02*
G75*
G03*
X132950000Y-127800000I-150000J0D01*
G01*
X124650000Y-131850000D02*
G75*
G03*
X124650000Y-131850000I-150000J0D01*
G01*
X127150000Y-126850000D02*
G75*
G03*
X127150000Y-126850000I-150000J0D01*
G01*
X110900500Y-135569301D02*
G75*
G03*
X110900500Y-135569301I-150000J0D01*
G01*
X133150500Y-130000000D02*
G75*
G03*
X133150500Y-130000000I-150000J0D01*
G01*
X112744115Y-128362729D02*
G75*
G03*
X112744115Y-128362729I-150000J0D01*
G01*
X113200000Y-130800000D02*
G75*
G03*
X113200000Y-130800000I-150000J0D01*
G01*
X132350000Y-137900000D02*
G75*
G03*
X132350000Y-137900000I-150000J0D01*
G01*
X132525500Y-135337701D02*
G75*
G03*
X132525500Y-135337701I-150000J0D01*
G01*
X125850000Y-131500000D02*
G75*
G03*
X125850000Y-131500000I-150000J0D01*
G01*
X126900000Y-138600000D02*
G75*
G03*
X126900000Y-138600000I-150000J0D01*
G01*
X131250000Y-134300000D02*
G75*
G03*
X131250000Y-134300000I-150000J0D01*
G01*
X127705074Y-133055074D02*
G75*
G03*
X127705074Y-133055074I-150000J0D01*
G01*
X126250000Y-123100000D02*
G75*
G03*
X126250000Y-123100000I-150000J0D01*
G01*
X125550000Y-136400000D02*
G75*
G03*
X125550000Y-136400000I-150000J0D01*
G01*
X124050000Y-130250000D02*
G75*
G03*
X124050000Y-130250000I-150000J0D01*
G01*
X120850000Y-136800000D02*
G75*
G03*
X120850000Y-136800000I-150000J0D01*
G01*
X105866784Y-136040375D02*
G75*
G03*
X105866784Y-136040375I-150000J0D01*
G01*
X106200000Y-131900000D02*
G75*
G03*
X106200000Y-131900000I-150000J0D01*
G01*
X109375500Y-134775500D02*
G75*
G03*
X109375500Y-134775500I-150000J0D01*
G01*
X115550000Y-137550000D02*
G75*
G03*
X115550000Y-137550000I-150000J0D01*
G01*
X131450000Y-125750000D02*
G75*
G03*
X131450000Y-125750000I-150000J0D01*
G01*
X112900000Y-129350000D02*
G75*
G03*
X112900000Y-129350000I-150000J0D01*
G01*
X110350000Y-124300000D02*
G75*
G03*
X110350000Y-124300000I-150000J0D01*
G01*
X125850000Y-124150000D02*
G75*
G03*
X125850000Y-124150000I-150000J0D01*
G01*
X121067241Y-129992643D02*
G75*
G03*
X121067241Y-129992643I-150000J0D01*
G01*
X124300000Y-127900000D02*
G75*
G03*
X124300000Y-127900000I-150000J0D01*
G01*
X105750000Y-139000000D02*
G75*
G03*
X105750000Y-139000000I-150000J0D01*
G01*
X131650000Y-123300000D02*
G75*
G03*
X131650000Y-123300000I-150000J0D01*
G01*
%TO.C,NB2*%
D11*
X102800000Y-130950000D02*
X101300000Y-130950000D01*
X101300000Y-129050000D01*
X102800000Y-129050000D01*
X102800000Y-130950000D01*
G36*
X102800000Y-130950000D02*
G01*
X101300000Y-130950000D01*
X101300000Y-129050000D01*
X102800000Y-129050000D01*
X102800000Y-130950000D01*
G37*
%TO.C,NB1*%
D12*
X115560840Y-126783420D02*
X115671679Y-126790975D01*
X115770669Y-126801141D01*
X115844809Y-126813074D01*
X115881099Y-126825927D01*
X115887412Y-126840728D01*
X115877925Y-126894227D01*
X115843431Y-126970971D01*
X115789609Y-127060920D01*
X115722139Y-127154036D01*
X115646700Y-127240279D01*
X115490956Y-127399900D01*
X115339497Y-127399278D01*
X115095983Y-127376180D01*
X114851944Y-127306792D01*
X114825064Y-127296457D01*
X114774536Y-127271827D01*
X114760164Y-127247494D01*
X114772672Y-127212414D01*
X114800463Y-127163873D01*
X114898876Y-127035718D01*
X115019909Y-126922829D01*
X115150560Y-126836164D01*
X115277827Y-126786679D01*
X115287233Y-126784886D01*
X115355616Y-126779530D01*
X115451152Y-126779323D01*
X115560840Y-126783420D01*
G36*
X115560840Y-126783420D02*
G01*
X115671679Y-126790975D01*
X115770669Y-126801141D01*
X115844809Y-126813074D01*
X115881099Y-126825927D01*
X115887412Y-126840728D01*
X115877925Y-126894227D01*
X115843431Y-126970971D01*
X115789609Y-127060920D01*
X115722139Y-127154036D01*
X115646700Y-127240279D01*
X115490956Y-127399900D01*
X115339497Y-127399278D01*
X115095983Y-127376180D01*
X114851944Y-127306792D01*
X114825064Y-127296457D01*
X114774536Y-127271827D01*
X114760164Y-127247494D01*
X114772672Y-127212414D01*
X114800463Y-127163873D01*
X114898876Y-127035718D01*
X115019909Y-126922829D01*
X115150560Y-126836164D01*
X115277827Y-126786679D01*
X115287233Y-126784886D01*
X115355616Y-126779530D01*
X115451152Y-126779323D01*
X115560840Y-126783420D01*
G37*
X119703323Y-131736117D02*
X119979633Y-131788445D01*
X120246592Y-131885314D01*
X120496164Y-132023818D01*
X120720315Y-132201051D01*
X120794255Y-132273796D01*
X120912863Y-132410471D01*
X121012821Y-132557798D01*
X121096082Y-132721485D01*
X121164596Y-132907240D01*
X121220314Y-133120770D01*
X121265187Y-133367782D01*
X121301168Y-133653985D01*
X121330207Y-133985085D01*
X121335785Y-134086232D01*
X121340512Y-134229896D01*
X121343980Y-134403327D01*
X121346237Y-134599807D01*
X121347333Y-134812617D01*
X121347317Y-135035040D01*
X121346237Y-135260359D01*
X121344142Y-135481855D01*
X121341081Y-135692811D01*
X121337102Y-135886509D01*
X121332255Y-136056231D01*
X121326589Y-136195261D01*
X121320151Y-136296879D01*
X121312992Y-136354369D01*
X121312911Y-136354728D01*
X121307707Y-136379297D01*
X121300781Y-136396742D01*
X121286582Y-136405275D01*
X121259559Y-136403113D01*
X121214163Y-136388470D01*
X121144842Y-136359561D01*
X121046048Y-136314601D01*
X120912228Y-136251804D01*
X120737833Y-136169386D01*
X120408845Y-136010715D01*
X119996534Y-135801625D01*
X119615144Y-135596104D01*
X119267210Y-135395742D01*
X118955270Y-135202132D01*
X118681861Y-135016862D01*
X118449520Y-134841524D01*
X118260783Y-134677708D01*
X118118189Y-134527004D01*
X118095647Y-134498948D01*
X117956265Y-134280891D01*
X117855605Y-134037589D01*
X117794338Y-133776578D01*
X117773131Y-133505394D01*
X117792654Y-133231574D01*
X117853576Y-132962654D01*
X117956565Y-132706170D01*
X117977588Y-132665065D01*
X118035243Y-132564418D01*
X118078859Y-132511325D01*
X118109844Y-132505214D01*
X118129604Y-132545512D01*
X118139549Y-132631646D01*
X118141899Y-132667634D01*
X118169217Y-132829571D01*
X118226402Y-132972095D01*
X118318436Y-133102628D01*
X118450304Y-133228591D01*
X118626990Y-133357404D01*
X118705502Y-133407743D01*
X118835248Y-133486166D01*
X118977206Y-133567581D01*
X119124368Y-133648396D01*
X119269726Y-133725019D01*
X119406270Y-133793861D01*
X119526992Y-133851330D01*
X119624884Y-133893834D01*
X119692937Y-133917783D01*
X119724142Y-133919585D01*
X119726842Y-133906780D01*
X119730592Y-133849543D01*
X119733612Y-133753294D01*
X119735754Y-133625265D01*
X119736870Y-133472691D01*
X119736811Y-133302803D01*
X119736767Y-133292299D01*
X119733460Y-133033403D01*
X119725510Y-132818739D01*
X119712073Y-132642058D01*
X119692305Y-132497112D01*
X119665363Y-132377653D01*
X119630402Y-132277432D01*
X119586580Y-132190202D01*
X119532558Y-132114932D01*
X119427927Y-132011188D01*
X119307261Y-131924890D01*
X119188725Y-131870627D01*
X119167717Y-131863606D01*
X119112843Y-131836364D01*
X119090841Y-131810152D01*
X119095497Y-131793875D01*
X119123723Y-131773500D01*
X119183242Y-131757343D01*
X119280570Y-131743855D01*
X119422229Y-131731491D01*
X119425697Y-131731237D01*
X119703323Y-131736117D01*
G36*
X119703323Y-131736117D02*
G01*
X119979633Y-131788445D01*
X120246592Y-131885314D01*
X120496164Y-132023818D01*
X120720315Y-132201051D01*
X120794255Y-132273796D01*
X120912863Y-132410471D01*
X121012821Y-132557798D01*
X121096082Y-132721485D01*
X121164596Y-132907240D01*
X121220314Y-133120770D01*
X121265187Y-133367782D01*
X121301168Y-133653985D01*
X121330207Y-133985085D01*
X121335785Y-134086232D01*
X121340512Y-134229896D01*
X121343980Y-134403327D01*
X121346237Y-134599807D01*
X121347333Y-134812617D01*
X121347317Y-135035040D01*
X121346237Y-135260359D01*
X121344142Y-135481855D01*
X121341081Y-135692811D01*
X121337102Y-135886509D01*
X121332255Y-136056231D01*
X121326589Y-136195261D01*
X121320151Y-136296879D01*
X121312992Y-136354369D01*
X121312911Y-136354728D01*
X121307707Y-136379297D01*
X121300781Y-136396742D01*
X121286582Y-136405275D01*
X121259559Y-136403113D01*
X121214163Y-136388470D01*
X121144842Y-136359561D01*
X121046048Y-136314601D01*
X120912228Y-136251804D01*
X120737833Y-136169386D01*
X120408845Y-136010715D01*
X119996534Y-135801625D01*
X119615144Y-135596104D01*
X119267210Y-135395742D01*
X118955270Y-135202132D01*
X118681861Y-135016862D01*
X118449520Y-134841524D01*
X118260783Y-134677708D01*
X118118189Y-134527004D01*
X118095647Y-134498948D01*
X117956265Y-134280891D01*
X117855605Y-134037589D01*
X117794338Y-133776578D01*
X117773131Y-133505394D01*
X117792654Y-133231574D01*
X117853576Y-132962654D01*
X117956565Y-132706170D01*
X117977588Y-132665065D01*
X118035243Y-132564418D01*
X118078859Y-132511325D01*
X118109844Y-132505214D01*
X118129604Y-132545512D01*
X118139549Y-132631646D01*
X118141899Y-132667634D01*
X118169217Y-132829571D01*
X118226402Y-132972095D01*
X118318436Y-133102628D01*
X118450304Y-133228591D01*
X118626990Y-133357404D01*
X118705502Y-133407743D01*
X118835248Y-133486166D01*
X118977206Y-133567581D01*
X119124368Y-133648396D01*
X119269726Y-133725019D01*
X119406270Y-133793861D01*
X119526992Y-133851330D01*
X119624884Y-133893834D01*
X119692937Y-133917783D01*
X119724142Y-133919585D01*
X119726842Y-133906780D01*
X119730592Y-133849543D01*
X119733612Y-133753294D01*
X119735754Y-133625265D01*
X119736870Y-133472691D01*
X119736811Y-133302803D01*
X119736767Y-133292299D01*
X119733460Y-133033403D01*
X119725510Y-132818739D01*
X119712073Y-132642058D01*
X119692305Y-132497112D01*
X119665363Y-132377653D01*
X119630402Y-132277432D01*
X119586580Y-132190202D01*
X119532558Y-132114932D01*
X119427927Y-132011188D01*
X119307261Y-131924890D01*
X119188725Y-131870627D01*
X119167717Y-131863606D01*
X119112843Y-131836364D01*
X119090841Y-131810152D01*
X119095497Y-131793875D01*
X119123723Y-131773500D01*
X119183242Y-131757343D01*
X119280570Y-131743855D01*
X119422229Y-131731491D01*
X119425697Y-131731237D01*
X119703323Y-131736117D01*
G37*
%TD*%
D13*
%TO.C,X3*%
X107540000Y-137500000D03*
X102460000Y-138516000D03*
X102460000Y-136484000D03*
%TD*%
D14*
%TO.C,X1*%
X107105000Y-126760000D03*
X107105000Y-132540000D03*
D15*
X107605000Y-125330000D03*
D16*
X103425000Y-125330000D03*
D15*
X107605000Y-133970000D03*
D16*
X103425000Y-133970000D03*
%TD*%
D17*
%TO.C,X2*%
X136100000Y-134155000D03*
X136100000Y-131385000D03*
X136100000Y-128615000D03*
X136100000Y-125845000D03*
%TD*%
D18*
%TO.C,P2*%
X110580000Y-137750000D03*
D19*
X113120000Y-137750000D03*
%TD*%
D18*
%TO.C,P1*%
X133600000Y-121650000D03*
D19*
X136140000Y-121650000D03*
%TD*%
D20*
%TO.C,U4*%
X124050000Y-138005000D03*
X124050000Y-136735000D03*
X124050000Y-135465000D03*
X124050000Y-134195000D03*
X129450000Y-134195000D03*
X129450000Y-135465000D03*
X129450000Y-136735000D03*
X129450000Y-138005000D03*
%TD*%
D21*
%TO.C,TP2*%
X128000000Y-129500000D03*
%TD*%
%TO.C,TP3*%
X129000000Y-124500000D03*
%TD*%
%TO.C,TP1*%
X106500000Y-129500000D03*
%TD*%
D22*
%TO.C,C9*%
X128350000Y-132050000D03*
X126850000Y-132050000D03*
%TD*%
D23*
%TO.C,R8*%
X130850000Y-128500000D03*
X130850000Y-130400000D03*
%TD*%
D24*
%TO.C,C11*%
X122300000Y-135100000D03*
X122300000Y-136600000D03*
%TD*%
M02*
