%TF.GenerationSoftware,KiCad,Pcbnew,7.0.5*%
%TF.CreationDate,2023-06-19T14:48:00+02:00*%
%TF.ProjectId,candleLightfd-S01,63616e64-6c65-44c6-9967-687466642d53,R01*%
%TF.SameCoordinates,Original*%
%TF.FileFunction,Legend,Top*%
%TF.FilePolarity,Positive*%
%FSLAX46Y46*%
G04 Gerber Fmt 4.6, Leading zero omitted, Abs format (unit mm)*
G04 Created by KiCad (PCBNEW 7.0.5) date 2023-06-19 14:48:00*
%MOMM*%
%LPD*%
G01*
G04 APERTURE LIST*
%ADD10C,0.250000*%
%ADD11C,0.150000*%
%ADD12C,0.120000*%
%ADD13C,0.260000*%
%ADD14C,0.300000*%
%ADD15C,0.100000*%
G04 APERTURE END LIST*
D10*
X119933333Y-121249619D02*
X119600000Y-120773428D01*
X119361905Y-121249619D02*
X119361905Y-120249619D01*
X119361905Y-120249619D02*
X119742857Y-120249619D01*
X119742857Y-120249619D02*
X119838095Y-120297238D01*
X119838095Y-120297238D02*
X119885714Y-120344857D01*
X119885714Y-120344857D02*
X119933333Y-120440095D01*
X119933333Y-120440095D02*
X119933333Y-120582952D01*
X119933333Y-120582952D02*
X119885714Y-120678190D01*
X119885714Y-120678190D02*
X119838095Y-120725809D01*
X119838095Y-120725809D02*
X119742857Y-120773428D01*
X119742857Y-120773428D02*
X119361905Y-120773428D01*
X120266667Y-120249619D02*
X120933333Y-121249619D01*
X120933333Y-120249619D02*
X120266667Y-121249619D01*
X112416667Y-121249619D02*
X112416667Y-120249619D01*
X112416667Y-120249619D02*
X112797619Y-120249619D01*
X112797619Y-120249619D02*
X112892857Y-120297238D01*
X112892857Y-120297238D02*
X112940476Y-120344857D01*
X112940476Y-120344857D02*
X112988095Y-120440095D01*
X112988095Y-120440095D02*
X112988095Y-120582952D01*
X112988095Y-120582952D02*
X112940476Y-120678190D01*
X112940476Y-120678190D02*
X112892857Y-120725809D01*
X112892857Y-120725809D02*
X112797619Y-120773428D01*
X112797619Y-120773428D02*
X112416667Y-120773428D01*
X113321429Y-120249619D02*
X113559524Y-121249619D01*
X113559524Y-121249619D02*
X113750000Y-120535333D01*
X113750000Y-120535333D02*
X113940476Y-121249619D01*
X113940476Y-121249619D02*
X114178572Y-120249619D01*
X115130952Y-121249619D02*
X114797619Y-120773428D01*
X114559524Y-121249619D02*
X114559524Y-120249619D01*
X114559524Y-120249619D02*
X114940476Y-120249619D01*
X114940476Y-120249619D02*
X115035714Y-120297238D01*
X115035714Y-120297238D02*
X115083333Y-120344857D01*
X115083333Y-120344857D02*
X115130952Y-120440095D01*
X115130952Y-120440095D02*
X115130952Y-120582952D01*
X115130952Y-120582952D02*
X115083333Y-120678190D01*
X115083333Y-120678190D02*
X115035714Y-120725809D01*
X115035714Y-120725809D02*
X114940476Y-120773428D01*
X114940476Y-120773428D02*
X114559524Y-120773428D01*
X116138095Y-120249619D02*
X116709523Y-120249619D01*
X116423809Y-121249619D02*
X116423809Y-120249619D01*
X116947619Y-120249619D02*
X117614285Y-121249619D01*
X117614285Y-120249619D02*
X116947619Y-121249619D01*
D11*
%TO.C,X1*%
X103854819Y-130809523D02*
X104854819Y-130142857D01*
X103854819Y-130142857D02*
X104854819Y-130809523D01*
X104854819Y-129238095D02*
X104854819Y-129809523D01*
X104854819Y-129523809D02*
X103854819Y-129523809D01*
X103854819Y-129523809D02*
X103997676Y-129619047D01*
X103997676Y-129619047D02*
X104092914Y-129714285D01*
X104092914Y-129714285D02*
X104140533Y-129809523D01*
%TO.C,P1*%
X135401905Y-119904819D02*
X135401905Y-118904819D01*
X135401905Y-118904819D02*
X135782857Y-118904819D01*
X135782857Y-118904819D02*
X135878095Y-118952438D01*
X135878095Y-118952438D02*
X135925714Y-119000057D01*
X135925714Y-119000057D02*
X135973333Y-119095295D01*
X135973333Y-119095295D02*
X135973333Y-119238152D01*
X135973333Y-119238152D02*
X135925714Y-119333390D01*
X135925714Y-119333390D02*
X135878095Y-119381009D01*
X135878095Y-119381009D02*
X135782857Y-119428628D01*
X135782857Y-119428628D02*
X135401905Y-119428628D01*
X136925714Y-119904819D02*
X136354286Y-119904819D01*
X136640000Y-119904819D02*
X136640000Y-118904819D01*
X136640000Y-118904819D02*
X136544762Y-119047676D01*
X136544762Y-119047676D02*
X136449524Y-119142914D01*
X136449524Y-119142914D02*
X136354286Y-119190533D01*
%TO.C,R7*%
X129654819Y-131516666D02*
X129178628Y-131849999D01*
X129654819Y-132088094D02*
X128654819Y-132088094D01*
X128654819Y-132088094D02*
X128654819Y-131707142D01*
X128654819Y-131707142D02*
X128702438Y-131611904D01*
X128702438Y-131611904D02*
X128750057Y-131564285D01*
X128750057Y-131564285D02*
X128845295Y-131516666D01*
X128845295Y-131516666D02*
X128988152Y-131516666D01*
X128988152Y-131516666D02*
X129083390Y-131564285D01*
X129083390Y-131564285D02*
X129131009Y-131611904D01*
X129131009Y-131611904D02*
X129178628Y-131707142D01*
X129178628Y-131707142D02*
X129178628Y-132088094D01*
X128654819Y-131183332D02*
X128654819Y-130516666D01*
X128654819Y-130516666D02*
X129654819Y-130945237D01*
%TO.C,X3*%
X107175000Y-136700000D02*
G75*
G03*
X107175000Y-136700000I-75000J0D01*
G01*
D12*
%TO.C,R2*%
X110000000Y-123475000D02*
X109000000Y-123475000D01*
X109000000Y-122125000D02*
X110000000Y-122125000D01*
%TO.C,C2*%
X123000000Y-128500000D02*
X122300000Y-128500000D01*
X122300000Y-127300000D02*
X123000000Y-127300000D01*
%TO.C,C8*%
X130150000Y-137900000D02*
X130150000Y-137200000D01*
X131350000Y-137200000D02*
X131350000Y-137900000D01*
%TO.C,R1*%
X106350000Y-122125000D02*
X107350000Y-122125000D01*
X107350000Y-123475000D02*
X106350000Y-123475000D01*
%TO.C,C4*%
X121850000Y-132000000D02*
X122550000Y-132000000D01*
X122550000Y-133200000D02*
X121850000Y-133200000D01*
%TO.C,D1*%
X116250000Y-124050000D02*
X116250000Y-122150000D01*
X117350000Y-124050000D02*
X117350000Y-122150000D01*
X116550000Y-123200000D02*
X117050000Y-123200000D01*
X116800000Y-123200000D02*
X116550000Y-122950000D01*
X116800000Y-123150000D02*
X116800000Y-122700000D01*
D11*
X116550000Y-122950000D02*
X117050000Y-122950000D01*
D12*
X117050000Y-122950000D02*
X116800000Y-123200000D01*
%TO.C,R6*%
X117950000Y-138225000D02*
X116950000Y-138225000D01*
X116950000Y-136875000D02*
X117950000Y-136875000D01*
%TO.C,C6*%
X124700000Y-121400000D02*
X123700000Y-121400000D01*
X123700000Y-123100000D02*
X124700000Y-123100000D01*
%TO.C,U2*%
X130300000Y-121700000D02*
X127700000Y-121700000D01*
X130300000Y-121700000D02*
X130300000Y-123000000D01*
X130300000Y-126300000D02*
X127700000Y-126300000D01*
X130300000Y-126300000D02*
X130300000Y-125000000D01*
D13*
X126630000Y-121600000D02*
G75*
G03*
X126630000Y-121600000I-130000J0D01*
G01*
D12*
%TO.C,C1*%
X123000000Y-130100000D02*
X122300000Y-130100000D01*
X122300000Y-128900000D02*
X123000000Y-128900000D01*
%TO.C,U1*%
X111000000Y-134000000D02*
X111600000Y-134000000D01*
X118400000Y-134000000D02*
X119000000Y-134000000D01*
X119000000Y-134000000D02*
X119000000Y-133400000D01*
X111000000Y-133400000D02*
X111000000Y-134000000D01*
X119000000Y-126600000D02*
X119000000Y-126000000D01*
X111000000Y-126000000D02*
X111000000Y-126600000D01*
X111600000Y-126000000D02*
X111000000Y-126000000D01*
X119000000Y-126000000D02*
X118400000Y-126000000D01*
D14*
X119741421Y-133800000D02*
G75*
G03*
X119741421Y-133800000I-141421J0D01*
G01*
D12*
%TO.C,C5*%
X122300000Y-130450000D02*
X123000000Y-130450000D01*
X123000000Y-131650000D02*
X122300000Y-131650000D01*
%TO.C,X1*%
X104505000Y-125150000D02*
X106405000Y-125150000D01*
X100805000Y-125150000D02*
X102305000Y-125150000D01*
X106405000Y-134150000D02*
X104505000Y-134150000D01*
X102305000Y-134150000D02*
X100805000Y-134150000D01*
X100805000Y-134150000D02*
X100805000Y-125150000D01*
X109205000Y-125650000D02*
G75*
G03*
X109205000Y-125650000I-100000J0D01*
G01*
D15*
%TO.C,X2*%
X138400000Y-136700000D02*
X133800000Y-136700000D01*
X133800000Y-136700000D02*
X133800000Y-136900000D01*
X133800000Y-136900000D02*
X138400000Y-136900000D01*
X138400000Y-136900000D02*
X138400000Y-136700000D01*
G36*
X138400000Y-136700000D02*
G01*
X133800000Y-136700000D01*
X133800000Y-136900000D01*
X138400000Y-136900000D01*
X138400000Y-136700000D01*
G37*
D12*
%TO.C,C3*%
X121950000Y-125750000D02*
X121950000Y-125050000D01*
X123150000Y-125050000D02*
X123150000Y-125750000D01*
%TO.C,Y1*%
X124600000Y-127200000D02*
X125850000Y-127200000D01*
X124600000Y-127200000D02*
X124600000Y-128700000D01*
X126050000Y-127450000D02*
X126250000Y-127450000D01*
X127450000Y-128850000D02*
X127450000Y-129450000D01*
X124850000Y-128850000D02*
X124850000Y-129450000D01*
X126050000Y-130850000D02*
X126250000Y-130850000D01*
%TO.C,R3*%
X115875000Y-122450000D02*
X115875000Y-123450000D01*
X114525000Y-123450000D02*
X114525000Y-122450000D01*
%TO.C,U3*%
X124250000Y-133950000D02*
X124250000Y-138850000D01*
X124250000Y-133950000D02*
X128150000Y-133950000D01*
X124250000Y-138850000D02*
X128150000Y-138850000D01*
X128150000Y-133950000D02*
X128150000Y-138850000D01*
D14*
X123641421Y-133400000D02*
G75*
G03*
X123641421Y-133400000I-141421J0D01*
G01*
D15*
%TO.C,P2*%
X109310000Y-139020000D02*
X109310000Y-136480000D01*
X114390000Y-136480000D02*
X109310000Y-136480000D01*
X114390000Y-139020000D02*
X109310000Y-139020000D01*
X114390000Y-139020000D02*
X114390000Y-136480000D01*
D12*
%TO.C,C7*%
X125400000Y-125650000D02*
X125400000Y-124650000D01*
X123700000Y-124650000D02*
X123700000Y-125650000D01*
D15*
%TO.C,P1*%
X132330000Y-122920000D02*
X132330000Y-120380000D01*
X137410000Y-120380000D02*
X132330000Y-120380000D01*
X137410000Y-122920000D02*
X132330000Y-122920000D01*
X137410000Y-122920000D02*
X137410000Y-120380000D01*
D12*
%TO.C,C10*%
X121200000Y-136850000D02*
X121200000Y-136150000D01*
X122400000Y-136150000D02*
X122400000Y-136850000D01*
%TO.C,D2*%
X119450000Y-124050000D02*
X119450000Y-122150000D01*
X120550000Y-124050000D02*
X120550000Y-122150000D01*
X119750000Y-123200000D02*
X120250000Y-123200000D01*
X120000000Y-123200000D02*
X119750000Y-122950000D01*
X120000000Y-123150000D02*
X120000000Y-122700000D01*
D11*
X119750000Y-122950000D02*
X120250000Y-122950000D01*
D12*
X120250000Y-122950000D02*
X120000000Y-123200000D01*
%TO.C,R5*%
X112675000Y-122450000D02*
X112675000Y-123450000D01*
X111325000Y-123450000D02*
X111325000Y-122450000D01*
%TO.C,R7*%
X131775000Y-130750000D02*
X131775000Y-131950000D01*
X130025000Y-131950000D02*
X130025000Y-130750000D01*
%TO.C,R4*%
X119075000Y-122450000D02*
X119075000Y-123450000D01*
X117725000Y-123450000D02*
X117725000Y-122450000D01*
%TO.C,D3*%
X113050000Y-124050000D02*
X113050000Y-122150000D01*
X114150000Y-124050000D02*
X114150000Y-122150000D01*
X113350000Y-123200000D02*
X113850000Y-123200000D01*
X113600000Y-123200000D02*
X113350000Y-122950000D01*
X113600000Y-123150000D02*
X113600000Y-122700000D01*
D11*
X113350000Y-122950000D02*
X113850000Y-122950000D01*
D12*
X113850000Y-122950000D02*
X113600000Y-123200000D01*
%TD*%
M02*
