%TF.GenerationSoftware,KiCad,Pcbnew,7.0.5*%
%TF.CreationDate,2023-06-19T14:48:01+02:00*%
%TF.ProjectId,candleLightfd-S01,63616e64-6c65-44c6-9967-687466642d53,R01*%
%TF.SameCoordinates,Original*%
%TF.FileFunction,Soldermask,Top*%
%TF.FilePolarity,Negative*%
%FSLAX46Y46*%
G04 Gerber Fmt 4.6, Leading zero omitted, Abs format (unit mm)*
G04 Created by KiCad (PCBNEW 7.0.5) date 2023-06-19 14:48:01*
%MOMM*%
%LPD*%
G01*
G04 APERTURE LIST*
G04 Aperture macros list*
%AMRoundRect*
0 Rectangle with rounded corners*
0 $1 Rounding radius*
0 $2 $3 $4 $5 $6 $7 $8 $9 X,Y pos of 4 corners*
0 Add a 4 corners polygon primitive as box body*
4,1,4,$2,$3,$4,$5,$6,$7,$8,$9,$2,$3,0*
0 Add four circle primitives for the rounded corners*
1,1,$1+$1,$2,$3*
1,1,$1+$1,$4,$5*
1,1,$1+$1,$6,$7*
1,1,$1+$1,$8,$9*
0 Add four rect primitives between the rounded corners*
20,1,$1+$1,$2,$3,$4,$5,0*
20,1,$1+$1,$4,$5,$6,$7,0*
20,1,$1+$1,$6,$7,$8,$9,0*
20,1,$1+$1,$8,$9,$2,$3,0*%
G04 Aperture macros list end*
%ADD10C,0.300000*%
%ADD11C,0.100000*%
%ADD12C,0.787000*%
%ADD13RoundRect,0.125000X0.125000X0.325000X-0.125000X0.325000X-0.125000X-0.325000X0.125000X-0.325000X0*%
%ADD14RoundRect,0.187500X0.212500X0.187500X-0.212500X0.187500X-0.212500X-0.187500X0.212500X-0.187500X0*%
%ADD15RoundRect,0.187500X0.187500X-0.212500X0.187500X0.212500X-0.187500X0.212500X-0.187500X-0.212500X0*%
%ADD16RoundRect,0.125000X-0.125000X-0.325000X0.125000X-0.325000X0.125000X0.325000X-0.125000X0.325000X0*%
%ADD17RoundRect,0.187500X-0.212500X-0.187500X0.212500X-0.187500X0.212500X0.187500X-0.212500X0.187500X0*%
%ADD18RoundRect,0.199390X-0.199390X0.199390X-0.199390X-0.199390X0.199390X-0.199390X0.199390X0.199390X0*%
%ADD19RoundRect,0.250000X0.250000X0.375000X-0.250000X0.375000X-0.250000X-0.375000X0.250000X-0.375000X0*%
%ADD20RoundRect,0.225000X-0.425000X-0.225000X0.425000X-0.225000X0.425000X0.225000X-0.425000X0.225000X0*%
%ADD21RoundRect,0.225000X-0.775000X-0.225000X0.775000X-0.225000X0.775000X0.225000X-0.775000X0.225000X0*%
%ADD22RoundRect,0.225000X-1.337500X-0.641500X1.337500X-0.641500X1.337500X0.641500X-1.337500X0.641500X0*%
%ADD23RoundRect,0.125000X0.625000X0.125000X-0.625000X0.125000X-0.625000X-0.125000X0.625000X-0.125000X0*%
%ADD24RoundRect,0.070000X0.680000X0.070000X-0.680000X0.070000X-0.680000X-0.070000X0.680000X-0.070000X0*%
%ADD25RoundRect,0.125000X-0.125000X0.625000X-0.125000X-0.625000X0.125000X-0.625000X0.125000X0.625000X0*%
%ADD26RoundRect,0.070000X-0.070000X0.680000X-0.070000X-0.680000X0.070000X-0.680000X0.070000X0.680000X0*%
%ADD27RoundRect,0.125000X-0.625000X-0.125000X0.625000X-0.125000X0.625000X0.125000X-0.625000X0.125000X0*%
%ADD28RoundRect,0.070000X-0.680000X-0.070000X0.680000X-0.070000X0.680000X0.070000X-0.680000X0.070000X0*%
%ADD29RoundRect,0.125000X0.125000X-0.625000X0.125000X0.625000X-0.125000X0.625000X-0.125000X-0.625000X0*%
%ADD30RoundRect,0.070000X0.070000X-0.680000X0.070000X0.680000X-0.070000X0.680000X-0.070000X-0.680000X0*%
%ADD31RoundRect,0.499500X-0.550500X0.250500X-0.550500X-0.250500X0.550500X-0.250500X0.550500X0.250500X0*%
%ADD32RoundRect,0.499500X-0.400500X0.250500X-0.400500X-0.250500X0.400500X-0.250500X0.400500X0.250500X0*%
%ADD33C,0.650000*%
%ADD34RoundRect,0.150000X-0.425000X0.150000X-0.425000X-0.150000X0.425000X-0.150000X0.425000X0.150000X0*%
%ADD35RoundRect,0.075000X-0.500000X0.075000X-0.500000X-0.075000X0.500000X-0.075000X0.500000X0.075000X0*%
%ADD36O,2.100000X1.000000*%
%ADD37O,1.800000X1.000000*%
%ADD38RoundRect,0.200000X-2.300000X0.800000X-2.300000X-0.800000X2.300000X-0.800000X2.300000X0.800000X0*%
%ADD39RoundRect,0.500000X-2.000000X0.500000X-2.000000X-0.500000X2.000000X-0.500000X2.000000X0.500000X0*%
%ADD40C,1.000000*%
%ADD41RoundRect,0.115000X-0.460000X0.585000X-0.460000X-0.585000X0.460000X-0.585000X0.460000X0.585000X0*%
%ADD42RoundRect,0.125000X-0.325000X0.125000X-0.325000X-0.125000X0.325000X-0.125000X0.325000X0.125000X0*%
%ADD43RoundRect,0.150000X-0.420000X-0.150000X0.420000X-0.150000X0.420000X0.150000X-0.420000X0.150000X0*%
%ADD44R,1.600000X1.600000*%
%ADD45C,1.600000*%
%ADD46RoundRect,0.250000X0.375000X-0.250000X0.375000X0.250000X-0.375000X0.250000X-0.375000X-0.250000X0*%
%ADD47RoundRect,0.175000X-0.475000X0.175000X-0.475000X-0.175000X0.475000X-0.175000X0.475000X0.175000X0*%
G04 APERTURE END LIST*
D10*
X124050000Y-130250000D02*
G75*
G03*
X124050000Y-130250000I-150000J0D01*
G01*
X125850000Y-131500000D02*
G75*
G03*
X125850000Y-131500000I-150000J0D01*
G01*
X110900500Y-135569301D02*
G75*
G03*
X110900500Y-135569301I-150000J0D01*
G01*
X131250000Y-134300000D02*
G75*
G03*
X131250000Y-134300000I-150000J0D01*
G01*
X132525500Y-135337701D02*
G75*
G03*
X132525500Y-135337701I-150000J0D01*
G01*
X124300000Y-127900000D02*
G75*
G03*
X124300000Y-127900000I-150000J0D01*
G01*
X121067241Y-129992643D02*
G75*
G03*
X121067241Y-129992643I-150000J0D01*
G01*
X112900000Y-129350000D02*
G75*
G03*
X112900000Y-129350000I-150000J0D01*
G01*
X125850000Y-124150000D02*
G75*
G03*
X125850000Y-124150000I-150000J0D01*
G01*
X106700000Y-127700500D02*
G75*
G03*
X106700000Y-127700500I-150000J0D01*
G01*
X113200000Y-130800000D02*
G75*
G03*
X113200000Y-130800000I-150000J0D01*
G01*
X104550000Y-135824500D02*
G75*
G03*
X104550000Y-135824500I-150000J0D01*
G01*
X132350000Y-137900000D02*
G75*
G03*
X132350000Y-137900000I-150000J0D01*
G01*
X132950000Y-127800000D02*
G75*
G03*
X132950000Y-127800000I-150000J0D01*
G01*
X124650000Y-131850000D02*
G75*
G03*
X124650000Y-131850000I-150000J0D01*
G01*
X115550000Y-137550000D02*
G75*
G03*
X115550000Y-137550000I-150000J0D01*
G01*
X120850000Y-136800000D02*
G75*
G03*
X120850000Y-136800000I-150000J0D01*
G01*
X126250000Y-123100000D02*
G75*
G03*
X126250000Y-123100000I-150000J0D01*
G01*
X126900000Y-138600000D02*
G75*
G03*
X126900000Y-138600000I-150000J0D01*
G01*
X127150000Y-126850000D02*
G75*
G03*
X127150000Y-126850000I-150000J0D01*
G01*
X131450000Y-125750000D02*
G75*
G03*
X131450000Y-125750000I-150000J0D01*
G01*
X106200000Y-131900000D02*
G75*
G03*
X106200000Y-131900000I-150000J0D01*
G01*
X112744115Y-128362729D02*
G75*
G03*
X112744115Y-128362729I-150000J0D01*
G01*
X133150500Y-130000000D02*
G75*
G03*
X133150500Y-130000000I-150000J0D01*
G01*
X127705074Y-133055074D02*
G75*
G03*
X127705074Y-133055074I-150000J0D01*
G01*
X125550000Y-136400000D02*
G75*
G03*
X125550000Y-136400000I-150000J0D01*
G01*
X127325500Y-136625500D02*
G75*
G03*
X127325500Y-136625500I-150000J0D01*
G01*
X105750000Y-139000000D02*
G75*
G03*
X105750000Y-139000000I-150000J0D01*
G01*
X110350000Y-124300000D02*
G75*
G03*
X110350000Y-124300000I-150000J0D01*
G01*
X131650000Y-123300000D02*
G75*
G03*
X131650000Y-123300000I-150000J0D01*
G01*
X105866784Y-136040375D02*
G75*
G03*
X105866784Y-136040375I-150000J0D01*
G01*
X109375500Y-134775500D02*
G75*
G03*
X109375500Y-134775500I-150000J0D01*
G01*
%TO.C,NB2*%
D11*
X102800000Y-130950000D02*
X101300000Y-130950000D01*
X101300000Y-129050000D01*
X102800000Y-129050000D01*
X102800000Y-130950000D01*
G36*
X102800000Y-130950000D02*
G01*
X101300000Y-130950000D01*
X101300000Y-129050000D01*
X102800000Y-129050000D01*
X102800000Y-130950000D01*
G37*
%TO.C,NB4*%
X103350000Y-122350000D02*
X101650000Y-122350000D01*
X101650000Y-120650000D01*
X103350000Y-120650000D01*
X103350000Y-122350000D01*
G36*
X103350000Y-122350000D02*
G01*
X101650000Y-122350000D01*
X101650000Y-120650000D01*
X103350000Y-120650000D01*
X103350000Y-122350000D01*
G37*
%TO.C,NB3*%
X136850000Y-139350000D02*
X135150000Y-139350000D01*
X135150000Y-137650000D01*
X136850000Y-137650000D01*
X136850000Y-139350000D01*
G36*
X136850000Y-139350000D02*
G01*
X135150000Y-139350000D01*
X135150000Y-137650000D01*
X136850000Y-137650000D01*
X136850000Y-139350000D01*
G37*
%TD*%
D12*
%TO.C,X3*%
X107540000Y-137500000D03*
X102460000Y-138516000D03*
X102460000Y-136484000D03*
X106270000Y-136865000D03*
X106270000Y-138134000D03*
X105000000Y-136865000D03*
X105000000Y-138135000D03*
X103730000Y-136865000D03*
X103730000Y-138135000D03*
%TD*%
D13*
%TO.C,R2*%
X110250000Y-122800000D03*
X108750000Y-122800000D03*
%TD*%
D14*
%TO.C,C2*%
X123400000Y-127900000D03*
X121900000Y-127900000D03*
%TD*%
D15*
%TO.C,C8*%
X130750000Y-138300000D03*
X130750000Y-136800000D03*
%TD*%
D16*
%TO.C,R1*%
X106100000Y-122800000D03*
X107600000Y-122800000D03*
%TD*%
D17*
%TO.C,C4*%
X121450000Y-132600000D03*
X122950000Y-132600000D03*
%TD*%
D18*
%TO.C,D1*%
X116800000Y-122200700D03*
X116800000Y-123699300D03*
%TD*%
D13*
%TO.C,R6*%
X118200000Y-137550000D03*
X116700000Y-137550000D03*
%TD*%
D19*
%TO.C,C6*%
X125200000Y-122250000D03*
X123200000Y-122250000D03*
%TD*%
D20*
%TO.C,U2*%
X127050000Y-122500000D03*
D21*
X127400000Y-124000000D03*
D22*
X129437500Y-124000000D03*
D20*
X127050000Y-125500000D03*
%TD*%
D14*
%TO.C,C1*%
X123400000Y-129500000D03*
X121900000Y-129500000D03*
%TD*%
D23*
%TO.C,U1*%
X119425000Y-132840000D03*
D24*
X119425000Y-132250000D03*
X119425000Y-131750000D03*
X119425000Y-131250000D03*
X119425000Y-130750000D03*
X119425000Y-130250000D03*
X119425000Y-129750000D03*
X119425000Y-129250000D03*
X119425000Y-128750000D03*
X119425000Y-128250000D03*
X119425000Y-127750000D03*
D23*
X119425000Y-127160000D03*
D25*
X117840000Y-125575000D03*
D26*
X117250000Y-125575000D03*
X116750000Y-125575000D03*
X116250000Y-125575000D03*
X115750000Y-125575000D03*
X115250000Y-125575000D03*
X114750000Y-125575000D03*
X114250000Y-125575000D03*
X113750000Y-125575000D03*
X113250000Y-125575000D03*
X112750000Y-125575000D03*
D25*
X112160000Y-125575000D03*
D27*
X110575000Y-127160000D03*
D28*
X110575000Y-127750000D03*
X110575000Y-128250000D03*
X110575000Y-128750000D03*
X110575000Y-129250000D03*
X110575000Y-129750000D03*
X110575000Y-130250000D03*
X110575000Y-130750000D03*
X110575000Y-131250000D03*
X110575000Y-131750000D03*
X110575000Y-132250000D03*
D27*
X110575000Y-132840000D03*
D29*
X112160000Y-134425000D03*
D30*
X112750000Y-134425000D03*
X113250000Y-134425000D03*
X113750000Y-134425000D03*
X114250000Y-134425000D03*
X114750000Y-134425000D03*
X115250000Y-134425000D03*
X115750000Y-134425000D03*
X116250000Y-134425000D03*
X116750000Y-134425000D03*
X117250000Y-134425000D03*
D29*
X117840000Y-134425000D03*
%TD*%
D17*
%TO.C,C5*%
X121900000Y-131050000D03*
X123400000Y-131050000D03*
%TD*%
D31*
%TO.C,X1*%
X107605000Y-125090000D03*
D32*
X103425000Y-125090000D03*
D33*
X107105000Y-126760000D03*
X107105000Y-132540000D03*
D31*
X107605000Y-134210000D03*
D32*
X103425000Y-134210000D03*
D34*
X108180000Y-126450000D03*
X108180000Y-127250000D03*
D35*
X108180000Y-128400000D03*
X108180000Y-129400000D03*
X108180000Y-129900000D03*
X108180000Y-130900000D03*
D34*
X108180000Y-132850000D03*
X108180000Y-132050000D03*
D35*
X108180000Y-131400000D03*
X108180000Y-130400000D03*
X108180000Y-128900000D03*
X108180000Y-127900000D03*
D36*
X107605000Y-125330000D03*
D37*
X103425000Y-125330000D03*
D36*
X107605000Y-133970000D03*
D37*
X103425000Y-133970000D03*
%TD*%
D38*
%TO.C,X2*%
X136100000Y-135540000D03*
D39*
X136100000Y-132770000D03*
X136100000Y-130000000D03*
X136100000Y-127230000D03*
X136100000Y-124460000D03*
%TD*%
D40*
%TO.C,TP5*%
X110300000Y-125400000D03*
%TD*%
D15*
%TO.C,C3*%
X122550000Y-126150000D03*
X122550000Y-124650000D03*
%TD*%
D41*
%TO.C,Y1*%
X125350000Y-128050000D03*
X125350000Y-130250000D03*
X126950000Y-130250000D03*
X126950000Y-128050000D03*
%TD*%
D42*
%TO.C,R3*%
X115200000Y-122200000D03*
X115200000Y-123700000D03*
%TD*%
D43*
%TO.C,U3*%
X123500000Y-134495000D03*
X123500000Y-135765000D03*
X123500000Y-137035000D03*
X123500000Y-138305000D03*
X128900000Y-138305000D03*
X128900000Y-137035000D03*
X128900000Y-135765000D03*
X128900000Y-134495000D03*
%TD*%
D44*
%TO.C,P2*%
X110580000Y-137750000D03*
D45*
X113120000Y-137750000D03*
%TD*%
D46*
%TO.C,C7*%
X124550000Y-126150000D03*
X124550000Y-124150000D03*
%TD*%
D44*
%TO.C,P1*%
X133600000Y-121650000D03*
D45*
X136140000Y-121650000D03*
%TD*%
D15*
%TO.C,C10*%
X121800000Y-137250000D03*
X121800000Y-135750000D03*
%TD*%
D18*
%TO.C,D2*%
X120000000Y-122200700D03*
X120000000Y-123699300D03*
%TD*%
D42*
%TO.C,R5*%
X112000000Y-122200000D03*
X112000000Y-123700000D03*
%TD*%
D47*
%TO.C,R7*%
X130900000Y-130400000D03*
X130900000Y-132300000D03*
%TD*%
D42*
%TO.C,R4*%
X118400000Y-122200000D03*
X118400000Y-123700000D03*
%TD*%
D40*
%TO.C,TP4*%
X120200000Y-125300000D03*
%TD*%
D18*
%TO.C,D3*%
X113600000Y-122200700D03*
X113600000Y-123699300D03*
%TD*%
M02*
