%TF.GenerationSoftware,KiCad,Pcbnew,7.0.5*%
%TF.CreationDate,2023-06-19T14:48:02+02:00*%
%TF.ProjectId,candleLightfd-S01,63616e64-6c65-44c6-9967-687466642d53,R01*%
%TF.SameCoordinates,Original*%
%TF.FileFunction,Other,User*%
%FSLAX46Y46*%
G04 Gerber Fmt 4.6, Leading zero omitted, Abs format (unit mm)*
G04 Created by KiCad (PCBNEW 7.0.5) date 2023-06-19 14:48:02*
%MOMM*%
%LPD*%
G01*
G04 APERTURE LIST*
%ADD10C,0.050000*%
%ADD11C,0.120000*%
G04 APERTURE END LIST*
D10*
%TO.C,X3*%
X101700000Y-139300000D02*
X108300000Y-139300000D01*
X108300000Y-139300000D02*
X108300000Y-135700000D01*
X108300000Y-135700000D02*
X101700000Y-135700000D01*
X101700000Y-135700000D02*
X101700000Y-139300000D01*
%TO.C,R2*%
X110800000Y-123600000D02*
X110800000Y-122000000D01*
X110800000Y-123600000D02*
X108200000Y-123600000D01*
X110800000Y-122000000D02*
X108200000Y-122000000D01*
X108200000Y-123600000D02*
X108200000Y-122000000D01*
%TO.C,C2*%
X124100000Y-128650000D02*
X124100000Y-127150000D01*
X124100000Y-128650000D02*
X121200000Y-128650000D01*
X124100000Y-127150000D02*
X121200000Y-127150000D01*
X121200000Y-128650000D02*
X121200000Y-127150000D01*
%TO.C,C8*%
X130000000Y-139000000D02*
X131500000Y-139000000D01*
X130000000Y-139000000D02*
X130000000Y-136100000D01*
X131500000Y-139000000D02*
X131500000Y-136100000D01*
X130000000Y-136100000D02*
X131500000Y-136100000D01*
%TO.C,NB2*%
X101200000Y-131050000D02*
X101200000Y-128950000D01*
X102900000Y-131050000D02*
X101200000Y-131050000D01*
X101200000Y-128950000D02*
X102900000Y-128950000D01*
X102900000Y-128950000D02*
X102900000Y-131050000D01*
%TO.C,R1*%
X105550000Y-122000000D02*
X105550000Y-123600000D01*
X105550000Y-122000000D02*
X108150000Y-122000000D01*
X105550000Y-123600000D02*
X108150000Y-123600000D01*
X108150000Y-122000000D02*
X108150000Y-123600000D01*
%TO.C,C4*%
X120750000Y-131850000D02*
X120750000Y-133350000D01*
X120750000Y-131850000D02*
X123650000Y-131850000D01*
X120750000Y-133350000D02*
X123650000Y-133350000D01*
X123650000Y-131850000D02*
X123650000Y-133350000D01*
%TO.C,D1*%
X116050000Y-124350000D02*
X116050000Y-121550000D01*
X117550000Y-124350000D02*
X116050000Y-124350000D01*
X116050000Y-121550000D02*
X117550000Y-121550000D01*
X117550000Y-121550000D02*
X117550000Y-124350000D01*
%TO.C,R6*%
X118750000Y-138350000D02*
X118750000Y-136750000D01*
X118750000Y-138350000D02*
X116150000Y-138350000D01*
X118750000Y-136750000D02*
X116150000Y-136750000D01*
X116150000Y-138350000D02*
X116150000Y-136750000D01*
%TO.C,C6*%
X126000000Y-123250000D02*
X126000000Y-121250000D01*
X126000000Y-123250000D02*
X122400000Y-123250000D01*
X126000000Y-121250000D02*
X122400000Y-121250000D01*
X122400000Y-123250000D02*
X122400000Y-121250000D01*
%TO.C,U2*%
X126100000Y-121400000D02*
X131300000Y-121400000D01*
X126100000Y-126600000D02*
X126100000Y-121400000D01*
X131300000Y-121400000D02*
X131300000Y-126600000D01*
X131300000Y-126600000D02*
X126100000Y-126600000D01*
%TO.C,C1*%
X124100000Y-130250000D02*
X124100000Y-128750000D01*
X124100000Y-130250000D02*
X121200000Y-130250000D01*
X124100000Y-128750000D02*
X121200000Y-128750000D01*
X121200000Y-130250000D02*
X121200000Y-128750000D01*
D11*
%TO.C,U1*%
X109500000Y-135500000D02*
X109500000Y-124500000D01*
X120500000Y-135500000D02*
X109500000Y-135500000D01*
X109500000Y-124500000D02*
X120500000Y-124500000D01*
X120500000Y-124500000D02*
X120500000Y-135500000D01*
D10*
%TO.C,C5*%
X121200000Y-130300000D02*
X121200000Y-131800000D01*
X121200000Y-130300000D02*
X124100000Y-130300000D01*
X121200000Y-131800000D02*
X124100000Y-131800000D01*
X124100000Y-130300000D02*
X124100000Y-131800000D01*
%TO.C,X1*%
X109305000Y-123850000D02*
X109305000Y-135450000D01*
X100205000Y-123850000D02*
X109305000Y-123850000D01*
X100205000Y-123850000D02*
X100205000Y-135450000D01*
X100205000Y-135450000D02*
X109305000Y-135450000D01*
%TO.C,NB4*%
X101200000Y-120200000D02*
X103800000Y-120200000D01*
X101200000Y-122800000D02*
X101200000Y-120200000D01*
X103800000Y-120200000D02*
X103800000Y-122800000D01*
X103800000Y-122800000D02*
X101200000Y-122800000D01*
%TO.C,TP5*%
X109600000Y-124700000D02*
X111000000Y-124700000D01*
X109600000Y-126100000D02*
X109600000Y-124700000D01*
X111000000Y-124700000D02*
X111000000Y-126100000D01*
X111000000Y-126100000D02*
X109600000Y-126100000D01*
%TO.C,C3*%
X121800000Y-126850000D02*
X123300000Y-126850000D01*
X121800000Y-126850000D02*
X121800000Y-123950000D01*
X123300000Y-126850000D02*
X123300000Y-123950000D01*
X121800000Y-123950000D02*
X123300000Y-123950000D01*
%TO.C,Y1*%
X127850000Y-127050000D02*
X124450000Y-127050000D01*
X124450000Y-127050000D02*
X124450000Y-131250000D01*
X124450000Y-131250000D02*
X127850000Y-131250000D01*
X127850000Y-131250000D02*
X127850000Y-127050000D01*
%TO.C,R3*%
X116000000Y-121650000D02*
X114400000Y-121650000D01*
X116000000Y-121650000D02*
X116000000Y-124250000D01*
X114400000Y-121650000D02*
X114400000Y-124250000D01*
X116000000Y-124250000D02*
X114400000Y-124250000D01*
%TO.C,U3*%
X122600000Y-133100000D02*
X129800000Y-133100000D01*
X122600000Y-139700000D02*
X122600000Y-133100000D01*
X129800000Y-133100000D02*
X129800000Y-139700000D01*
X129800000Y-139700000D02*
X122600000Y-139700000D01*
%TO.C,P2*%
X109120000Y-136250000D02*
X109120000Y-139250000D01*
X109120000Y-139250000D02*
X109120000Y-139250000D01*
X109120000Y-139250000D02*
X114680000Y-139250000D01*
X114680000Y-136250000D02*
X109120000Y-136250000D01*
X114680000Y-139250000D02*
X114680000Y-136250000D01*
%TO.C,C7*%
X123550000Y-126950000D02*
X125550000Y-126950000D01*
X123550000Y-126950000D02*
X123550000Y-123350000D01*
X125550000Y-126950000D02*
X125550000Y-123350000D01*
X123550000Y-123350000D02*
X125550000Y-123350000D01*
%TO.C,P1*%
X132140000Y-120150000D02*
X132140000Y-123150000D01*
X132140000Y-123150000D02*
X132140000Y-123150000D01*
X132140000Y-123150000D02*
X137700000Y-123150000D01*
X137700000Y-120150000D02*
X132140000Y-120150000D01*
X137700000Y-123150000D02*
X137700000Y-120150000D01*
%TO.C,C10*%
X121050000Y-137950000D02*
X122550000Y-137950000D01*
X121050000Y-137950000D02*
X121050000Y-135050000D01*
X122550000Y-137950000D02*
X122550000Y-135050000D01*
X121050000Y-135050000D02*
X122550000Y-135050000D01*
%TO.C,D2*%
X119250000Y-124350000D02*
X119250000Y-121550000D01*
X120750000Y-124350000D02*
X119250000Y-124350000D01*
X119250000Y-121550000D02*
X120750000Y-121550000D01*
X120750000Y-121550000D02*
X120750000Y-124350000D01*
%TO.C,R5*%
X112800000Y-121650000D02*
X111200000Y-121650000D01*
X112800000Y-121650000D02*
X112800000Y-124250000D01*
X111200000Y-121650000D02*
X111200000Y-124250000D01*
X112800000Y-124250000D02*
X111200000Y-124250000D01*
%TO.C,R7*%
X131900000Y-129750000D02*
X129900000Y-129750000D01*
X131900000Y-129750000D02*
X131900000Y-132950000D01*
X129900000Y-129750000D02*
X129900000Y-132950000D01*
X131900000Y-132950000D02*
X129900000Y-132950000D01*
%TO.C,R4*%
X119200000Y-121650000D02*
X117600000Y-121650000D01*
X119200000Y-121650000D02*
X119200000Y-124250000D01*
X117600000Y-121650000D02*
X117600000Y-124250000D01*
X119200000Y-124250000D02*
X117600000Y-124250000D01*
%TO.C,TP4*%
X119500000Y-124600000D02*
X120900000Y-124600000D01*
X119500000Y-126000000D02*
X119500000Y-124600000D01*
X120900000Y-124600000D02*
X120900000Y-126000000D01*
X120900000Y-126000000D02*
X119500000Y-126000000D01*
%TO.C,D3*%
X112850000Y-124350000D02*
X112850000Y-121550000D01*
X114350000Y-124350000D02*
X112850000Y-124350000D01*
X112850000Y-121550000D02*
X114350000Y-121550000D01*
X114350000Y-121550000D02*
X114350000Y-124350000D01*
%TO.C,NB3*%
X134700000Y-137200000D02*
X137300000Y-137200000D01*
X134700000Y-139800000D02*
X134700000Y-137200000D01*
X137300000Y-137200000D02*
X137300000Y-139800000D01*
X137300000Y-139800000D02*
X134700000Y-139800000D01*
%TD*%
M02*
