%TF.GenerationSoftware,KiCad,Pcbnew,7.0.5*%
%TF.CreationDate,2023-06-19T14:48:07+02:00*%
%TF.ProjectId,candleLightfd-S01,63616e64-6c65-44c6-9967-687466642d53,R01*%
%TF.SameCoordinates,Original*%
%TF.FileFunction,Legend,Bot*%
%TF.FilePolarity,Positive*%
%FSLAX46Y46*%
G04 Gerber Fmt 4.6, Leading zero omitted, Abs format (unit mm)*
G04 Created by KiCad (PCBNEW 7.0.5) date 2023-06-19 14:48:07*
%MOMM*%
%LPD*%
G01*
G04 APERTURE LIST*
%ADD10C,0.200000*%
%ADD11C,0.150000*%
%ADD12C,0.120000*%
%ADD13C,0.300000*%
%ADD14C,0.010000*%
G04 APERTURE END LIST*
D10*
X127006517Y-124714838D02*
X127101755Y-124667219D01*
X127101755Y-124667219D02*
X127244612Y-124667219D01*
X127244612Y-124667219D02*
X127387469Y-124714838D01*
X127387469Y-124714838D02*
X127482707Y-124810076D01*
X127482707Y-124810076D02*
X127530326Y-124905314D01*
X127530326Y-124905314D02*
X127577945Y-125095790D01*
X127577945Y-125095790D02*
X127577945Y-125238647D01*
X127577945Y-125238647D02*
X127530326Y-125429123D01*
X127530326Y-125429123D02*
X127482707Y-125524361D01*
X127482707Y-125524361D02*
X127387469Y-125619600D01*
X127387469Y-125619600D02*
X127244612Y-125667219D01*
X127244612Y-125667219D02*
X127149374Y-125667219D01*
X127149374Y-125667219D02*
X127006517Y-125619600D01*
X127006517Y-125619600D02*
X126958898Y-125571980D01*
X126958898Y-125571980D02*
X126958898Y-125238647D01*
X126958898Y-125238647D02*
X127149374Y-125238647D01*
X126530326Y-125667219D02*
X126530326Y-124667219D01*
X126530326Y-124667219D02*
X125958898Y-125667219D01*
X125958898Y-125667219D02*
X125958898Y-124667219D01*
X125482707Y-125667219D02*
X125482707Y-124667219D01*
X125482707Y-124667219D02*
X125244612Y-124667219D01*
X125244612Y-124667219D02*
X125101755Y-124714838D01*
X125101755Y-124714838D02*
X125006517Y-124810076D01*
X125006517Y-124810076D02*
X124958898Y-124905314D01*
X124958898Y-124905314D02*
X124911279Y-125095790D01*
X124911279Y-125095790D02*
X124911279Y-125238647D01*
X124911279Y-125238647D02*
X124958898Y-125429123D01*
X124958898Y-125429123D02*
X125006517Y-125524361D01*
X125006517Y-125524361D02*
X125101755Y-125619600D01*
X125101755Y-125619600D02*
X125244612Y-125667219D01*
X125244612Y-125667219D02*
X125482707Y-125667219D01*
D11*
X137439411Y-123869819D02*
X138010839Y-123869819D01*
X137725125Y-123869819D02*
X137725125Y-122869819D01*
X137725125Y-122869819D02*
X137820363Y-123012676D01*
X137820363Y-123012676D02*
X137915601Y-123107914D01*
X137915601Y-123107914D02*
X138010839Y-123155533D01*
X137058458Y-122965057D02*
X137010839Y-122917438D01*
X137010839Y-122917438D02*
X136915601Y-122869819D01*
X136915601Y-122869819D02*
X136677506Y-122869819D01*
X136677506Y-122869819D02*
X136582268Y-122917438D01*
X136582268Y-122917438D02*
X136534649Y-122965057D01*
X136534649Y-122965057D02*
X136487030Y-123060295D01*
X136487030Y-123060295D02*
X136487030Y-123155533D01*
X136487030Y-123155533D02*
X136534649Y-123298390D01*
X136534649Y-123298390D02*
X137106077Y-123869819D01*
X137106077Y-123869819D02*
X136487030Y-123869819D01*
X136201315Y-122869819D02*
X135867982Y-123869819D01*
X135867982Y-123869819D02*
X135534649Y-122869819D01*
X133939411Y-122917438D02*
X134034649Y-122869819D01*
X134034649Y-122869819D02*
X134177506Y-122869819D01*
X134177506Y-122869819D02*
X134320363Y-122917438D01*
X134320363Y-122917438D02*
X134415601Y-123012676D01*
X134415601Y-123012676D02*
X134463220Y-123107914D01*
X134463220Y-123107914D02*
X134510839Y-123298390D01*
X134510839Y-123298390D02*
X134510839Y-123441247D01*
X134510839Y-123441247D02*
X134463220Y-123631723D01*
X134463220Y-123631723D02*
X134415601Y-123726961D01*
X134415601Y-123726961D02*
X134320363Y-123822200D01*
X134320363Y-123822200D02*
X134177506Y-123869819D01*
X134177506Y-123869819D02*
X134082268Y-123869819D01*
X134082268Y-123869819D02*
X133939411Y-123822200D01*
X133939411Y-123822200D02*
X133891792Y-123774580D01*
X133891792Y-123774580D02*
X133891792Y-123441247D01*
X133891792Y-123441247D02*
X134082268Y-123441247D01*
X133463220Y-123869819D02*
X133463220Y-122869819D01*
X133463220Y-122869819D02*
X132891792Y-123869819D01*
X132891792Y-123869819D02*
X132891792Y-122869819D01*
X132415601Y-123869819D02*
X132415601Y-122869819D01*
X132415601Y-122869819D02*
X132177506Y-122869819D01*
X132177506Y-122869819D02*
X132034649Y-122917438D01*
X132034649Y-122917438D02*
X131939411Y-123012676D01*
X131939411Y-123012676D02*
X131891792Y-123107914D01*
X131891792Y-123107914D02*
X131844173Y-123298390D01*
X131844173Y-123298390D02*
X131844173Y-123441247D01*
X131844173Y-123441247D02*
X131891792Y-123631723D01*
X131891792Y-123631723D02*
X131939411Y-123726961D01*
X131939411Y-123726961D02*
X132034649Y-123822200D01*
X132034649Y-123822200D02*
X132177506Y-123869819D01*
X132177506Y-123869819D02*
X132415601Y-123869819D01*
D10*
X129530326Y-127886266D02*
X128768422Y-127886266D01*
X129149374Y-128267219D02*
X129149374Y-127505314D01*
X128387469Y-127267219D02*
X127768422Y-127267219D01*
X127768422Y-127267219D02*
X128101755Y-127648171D01*
X128101755Y-127648171D02*
X127958898Y-127648171D01*
X127958898Y-127648171D02*
X127863660Y-127695790D01*
X127863660Y-127695790D02*
X127816041Y-127743409D01*
X127816041Y-127743409D02*
X127768422Y-127838647D01*
X127768422Y-127838647D02*
X127768422Y-128076742D01*
X127768422Y-128076742D02*
X127816041Y-128171980D01*
X127816041Y-128171980D02*
X127863660Y-128219600D01*
X127863660Y-128219600D02*
X127958898Y-128267219D01*
X127958898Y-128267219D02*
X128244612Y-128267219D01*
X128244612Y-128267219D02*
X128339850Y-128219600D01*
X128339850Y-128219600D02*
X128387469Y-128171980D01*
X127482707Y-127267219D02*
X127149374Y-128267219D01*
X127149374Y-128267219D02*
X126816041Y-127267219D01*
X126577945Y-127267219D02*
X125958898Y-127267219D01*
X125958898Y-127267219D02*
X126292231Y-127648171D01*
X126292231Y-127648171D02*
X126149374Y-127648171D01*
X126149374Y-127648171D02*
X126054136Y-127695790D01*
X126054136Y-127695790D02*
X126006517Y-127743409D01*
X126006517Y-127743409D02*
X125958898Y-127838647D01*
X125958898Y-127838647D02*
X125958898Y-128076742D01*
X125958898Y-128076742D02*
X126006517Y-128171980D01*
X126006517Y-128171980D02*
X126054136Y-128219600D01*
X126054136Y-128219600D02*
X126149374Y-128267219D01*
X126149374Y-128267219D02*
X126435088Y-128267219D01*
X126435088Y-128267219D02*
X126530326Y-128219600D01*
X126530326Y-128219600D02*
X126577945Y-128171980D01*
X104167219Y-129445863D02*
X104167219Y-128969673D01*
X104167219Y-128969673D02*
X104643409Y-128922054D01*
X104643409Y-128922054D02*
X104595790Y-128969673D01*
X104595790Y-128969673D02*
X104548171Y-129064911D01*
X104548171Y-129064911D02*
X104548171Y-129303006D01*
X104548171Y-129303006D02*
X104595790Y-129398244D01*
X104595790Y-129398244D02*
X104643409Y-129445863D01*
X104643409Y-129445863D02*
X104738647Y-129493482D01*
X104738647Y-129493482D02*
X104976742Y-129493482D01*
X104976742Y-129493482D02*
X105071980Y-129445863D01*
X105071980Y-129445863D02*
X105119600Y-129398244D01*
X105119600Y-129398244D02*
X105167219Y-129303006D01*
X105167219Y-129303006D02*
X105167219Y-129064911D01*
X105167219Y-129064911D02*
X105119600Y-128969673D01*
X105119600Y-128969673D02*
X105071980Y-128922054D01*
X104167219Y-129779197D02*
X105167219Y-130112530D01*
X105167219Y-130112530D02*
X104167219Y-130445863D01*
D11*
X112929887Y-139146009D02*
X112787030Y-139193628D01*
X112787030Y-139193628D02*
X112739411Y-139241247D01*
X112739411Y-139241247D02*
X112691792Y-139336485D01*
X112691792Y-139336485D02*
X112691792Y-139479342D01*
X112691792Y-139479342D02*
X112739411Y-139574580D01*
X112739411Y-139574580D02*
X112787030Y-139622200D01*
X112787030Y-139622200D02*
X112882268Y-139669819D01*
X112882268Y-139669819D02*
X113263220Y-139669819D01*
X113263220Y-139669819D02*
X113263220Y-138669819D01*
X113263220Y-138669819D02*
X112929887Y-138669819D01*
X112929887Y-138669819D02*
X112834649Y-138717438D01*
X112834649Y-138717438D02*
X112787030Y-138765057D01*
X112787030Y-138765057D02*
X112739411Y-138860295D01*
X112739411Y-138860295D02*
X112739411Y-138955533D01*
X112739411Y-138955533D02*
X112787030Y-139050771D01*
X112787030Y-139050771D02*
X112834649Y-139098390D01*
X112834649Y-139098390D02*
X112929887Y-139146009D01*
X112929887Y-139146009D02*
X113263220Y-139146009D01*
X112120363Y-139669819D02*
X112215601Y-139622200D01*
X112215601Y-139622200D02*
X112263220Y-139574580D01*
X112263220Y-139574580D02*
X112310839Y-139479342D01*
X112310839Y-139479342D02*
X112310839Y-139193628D01*
X112310839Y-139193628D02*
X112263220Y-139098390D01*
X112263220Y-139098390D02*
X112215601Y-139050771D01*
X112215601Y-139050771D02*
X112120363Y-139003152D01*
X112120363Y-139003152D02*
X111977506Y-139003152D01*
X111977506Y-139003152D02*
X111882268Y-139050771D01*
X111882268Y-139050771D02*
X111834649Y-139098390D01*
X111834649Y-139098390D02*
X111787030Y-139193628D01*
X111787030Y-139193628D02*
X111787030Y-139479342D01*
X111787030Y-139479342D02*
X111834649Y-139574580D01*
X111834649Y-139574580D02*
X111882268Y-139622200D01*
X111882268Y-139622200D02*
X111977506Y-139669819D01*
X111977506Y-139669819D02*
X112120363Y-139669819D01*
X111215601Y-139669819D02*
X111310839Y-139622200D01*
X111310839Y-139622200D02*
X111358458Y-139574580D01*
X111358458Y-139574580D02*
X111406077Y-139479342D01*
X111406077Y-139479342D02*
X111406077Y-139193628D01*
X111406077Y-139193628D02*
X111358458Y-139098390D01*
X111358458Y-139098390D02*
X111310839Y-139050771D01*
X111310839Y-139050771D02*
X111215601Y-139003152D01*
X111215601Y-139003152D02*
X111072744Y-139003152D01*
X111072744Y-139003152D02*
X110977506Y-139050771D01*
X110977506Y-139050771D02*
X110929887Y-139098390D01*
X110929887Y-139098390D02*
X110882268Y-139193628D01*
X110882268Y-139193628D02*
X110882268Y-139479342D01*
X110882268Y-139479342D02*
X110929887Y-139574580D01*
X110929887Y-139574580D02*
X110977506Y-139622200D01*
X110977506Y-139622200D02*
X111072744Y-139669819D01*
X111072744Y-139669819D02*
X111215601Y-139669819D01*
X110596553Y-139003152D02*
X110215601Y-139003152D01*
X110453696Y-138669819D02*
X110453696Y-139526961D01*
X110453696Y-139526961D02*
X110406077Y-139622200D01*
X110406077Y-139622200D02*
X110310839Y-139669819D01*
X110310839Y-139669819D02*
X110215601Y-139669819D01*
%TO.C,R8*%
X131354819Y-126933333D02*
X130878628Y-126600000D01*
X131354819Y-126361905D02*
X130354819Y-126361905D01*
X130354819Y-126361905D02*
X130354819Y-126742857D01*
X130354819Y-126742857D02*
X130402438Y-126838095D01*
X130402438Y-126838095D02*
X130450057Y-126885714D01*
X130450057Y-126885714D02*
X130545295Y-126933333D01*
X130545295Y-126933333D02*
X130688152Y-126933333D01*
X130688152Y-126933333D02*
X130783390Y-126885714D01*
X130783390Y-126885714D02*
X130831009Y-126838095D01*
X130831009Y-126838095D02*
X130878628Y-126742857D01*
X130878628Y-126742857D02*
X130878628Y-126361905D01*
X130783390Y-127504762D02*
X130735771Y-127409524D01*
X130735771Y-127409524D02*
X130688152Y-127361905D01*
X130688152Y-127361905D02*
X130592914Y-127314286D01*
X130592914Y-127314286D02*
X130545295Y-127314286D01*
X130545295Y-127314286D02*
X130450057Y-127361905D01*
X130450057Y-127361905D02*
X130402438Y-127409524D01*
X130402438Y-127409524D02*
X130354819Y-127504762D01*
X130354819Y-127504762D02*
X130354819Y-127695238D01*
X130354819Y-127695238D02*
X130402438Y-127790476D01*
X130402438Y-127790476D02*
X130450057Y-127838095D01*
X130450057Y-127838095D02*
X130545295Y-127885714D01*
X130545295Y-127885714D02*
X130592914Y-127885714D01*
X130592914Y-127885714D02*
X130688152Y-127838095D01*
X130688152Y-127838095D02*
X130735771Y-127790476D01*
X130735771Y-127790476D02*
X130783390Y-127695238D01*
X130783390Y-127695238D02*
X130783390Y-127504762D01*
X130783390Y-127504762D02*
X130831009Y-127409524D01*
X130831009Y-127409524D02*
X130878628Y-127361905D01*
X130878628Y-127361905D02*
X130973866Y-127314286D01*
X130973866Y-127314286D02*
X131164342Y-127314286D01*
X131164342Y-127314286D02*
X131259580Y-127361905D01*
X131259580Y-127361905D02*
X131307200Y-127409524D01*
X131307200Y-127409524D02*
X131354819Y-127504762D01*
X131354819Y-127504762D02*
X131354819Y-127695238D01*
X131354819Y-127695238D02*
X131307200Y-127790476D01*
X131307200Y-127790476D02*
X131259580Y-127838095D01*
X131259580Y-127838095D02*
X131164342Y-127885714D01*
X131164342Y-127885714D02*
X130973866Y-127885714D01*
X130973866Y-127885714D02*
X130878628Y-127838095D01*
X130878628Y-127838095D02*
X130831009Y-127790476D01*
X130831009Y-127790476D02*
X130783390Y-127695238D01*
D12*
%TO.C,U4*%
X124800000Y-133650000D02*
X128700000Y-133650000D01*
X124800000Y-138550000D02*
X124800000Y-133650000D01*
X124800000Y-138550000D02*
X128700000Y-138550000D01*
X128700000Y-138550000D02*
X128700000Y-133650000D01*
D13*
X124191421Y-139100000D02*
G75*
G03*
X124191421Y-139100000I-141421J0D01*
G01*
D12*
%TO.C,C9*%
X127950000Y-131450000D02*
X127250000Y-131450000D01*
X127250000Y-132650000D02*
X127950000Y-132650000D01*
%TO.C,R8*%
X129975000Y-128850000D02*
X129975000Y-130050000D01*
X131725000Y-130050000D02*
X131725000Y-128850000D01*
%TO.C,C11*%
X121700000Y-135500000D02*
X121700000Y-136200000D01*
X122900000Y-136200000D02*
X122900000Y-135500000D01*
%TO.C,NB1*%
D14*
X119811143Y-124332691D02*
X119826204Y-124339535D01*
X119909066Y-124404284D01*
X119958208Y-124492275D01*
X119973524Y-124591340D01*
X119954909Y-124689314D01*
X119902258Y-124774029D01*
X119815466Y-124833321D01*
X119768628Y-124848389D01*
X119663064Y-124852569D01*
X119570603Y-124819136D01*
X119497189Y-124756768D01*
X119448763Y-124674138D01*
X119431266Y-124579925D01*
X119450642Y-124482803D01*
X119512832Y-124391450D01*
X119591278Y-124333518D01*
X119696556Y-124308128D01*
X119811143Y-124332691D01*
G36*
X119811143Y-124332691D02*
G01*
X119826204Y-124339535D01*
X119909066Y-124404284D01*
X119958208Y-124492275D01*
X119973524Y-124591340D01*
X119954909Y-124689314D01*
X119902258Y-124774029D01*
X119815466Y-124833321D01*
X119768628Y-124848389D01*
X119663064Y-124852569D01*
X119570603Y-124819136D01*
X119497189Y-124756768D01*
X119448763Y-124674138D01*
X119431266Y-124579925D01*
X119450642Y-124482803D01*
X119512832Y-124391450D01*
X119591278Y-124333518D01*
X119696556Y-124308128D01*
X119811143Y-124332691D01*
G37*
X113157483Y-130537452D02*
X113250143Y-130583191D01*
X113315836Y-130656967D01*
X113351116Y-130748143D01*
X113352538Y-130846082D01*
X113316655Y-130940146D01*
X113240022Y-131019700D01*
X113233350Y-131024002D01*
X113163763Y-131050382D01*
X113082241Y-131061161D01*
X113073706Y-131060974D01*
X112978742Y-131035773D01*
X112894342Y-130976846D01*
X112833887Y-130896684D01*
X112810761Y-130807778D01*
X112825156Y-130708655D01*
X112878540Y-130612756D01*
X112965694Y-130550407D01*
X113080655Y-130527793D01*
X113157483Y-130537452D01*
G36*
X113157483Y-130537452D02*
G01*
X113250143Y-130583191D01*
X113315836Y-130656967D01*
X113351116Y-130748143D01*
X113352538Y-130846082D01*
X113316655Y-130940146D01*
X113240022Y-131019700D01*
X113233350Y-131024002D01*
X113163763Y-131050382D01*
X113082241Y-131061161D01*
X113073706Y-131060974D01*
X112978742Y-131035773D01*
X112894342Y-130976846D01*
X112833887Y-130896684D01*
X112810761Y-130807778D01*
X112825156Y-130708655D01*
X112878540Y-130612756D01*
X112965694Y-130550407D01*
X113080655Y-130527793D01*
X113157483Y-130537452D01*
G37*
X111937686Y-129096236D02*
X111994142Y-129120315D01*
X112050084Y-129173724D01*
X112100260Y-129253100D01*
X112122198Y-129358154D01*
X112104736Y-129461769D01*
X112050434Y-129551175D01*
X111961854Y-129613603D01*
X111949594Y-129618337D01*
X111849283Y-129629193D01*
X111746679Y-129600204D01*
X111660261Y-129536118D01*
X111623467Y-129486296D01*
X111588847Y-129382306D01*
X111602567Y-129275388D01*
X111664531Y-129173724D01*
X111719638Y-129120913D01*
X111775887Y-129096447D01*
X111857308Y-129090691D01*
X111937686Y-129096236D01*
G36*
X111937686Y-129096236D02*
G01*
X111994142Y-129120315D01*
X112050084Y-129173724D01*
X112100260Y-129253100D01*
X112122198Y-129358154D01*
X112104736Y-129461769D01*
X112050434Y-129551175D01*
X111961854Y-129613603D01*
X111949594Y-129618337D01*
X111849283Y-129629193D01*
X111746679Y-129600204D01*
X111660261Y-129536118D01*
X111623467Y-129486296D01*
X111588847Y-129382306D01*
X111602567Y-129275388D01*
X111664531Y-129173724D01*
X111719638Y-129120913D01*
X111775887Y-129096447D01*
X111857308Y-129090691D01*
X111937686Y-129096236D01*
G37*
X119759829Y-125681488D02*
X119857385Y-125722913D01*
X119931711Y-125799433D01*
X119971713Y-125904931D01*
X119974540Y-125930679D01*
X119958923Y-126037969D01*
X119904740Y-126130635D01*
X119820177Y-126193116D01*
X119796192Y-126203273D01*
X119724283Y-126225372D01*
X119662989Y-126221131D01*
X119586088Y-126190227D01*
X119569395Y-126181187D01*
X119496330Y-126114930D01*
X119442405Y-126025383D01*
X119421467Y-125934095D01*
X119425961Y-125901254D01*
X119462480Y-125821189D01*
X119523904Y-125746915D01*
X119595919Y-125697817D01*
X119650141Y-125681273D01*
X119759829Y-125681488D01*
G36*
X119759829Y-125681488D02*
G01*
X119857385Y-125722913D01*
X119931711Y-125799433D01*
X119971713Y-125904931D01*
X119974540Y-125930679D01*
X119958923Y-126037969D01*
X119904740Y-126130635D01*
X119820177Y-126193116D01*
X119796192Y-126203273D01*
X119724283Y-126225372D01*
X119662989Y-126221131D01*
X119586088Y-126190227D01*
X119569395Y-126181187D01*
X119496330Y-126114930D01*
X119442405Y-126025383D01*
X119421467Y-125934095D01*
X119425961Y-125901254D01*
X119462480Y-125821189D01*
X119523904Y-125746915D01*
X119595919Y-125697817D01*
X119650141Y-125681273D01*
X119759829Y-125681488D01*
G37*
X121870240Y-126385859D02*
X121945034Y-126441830D01*
X121999477Y-126529793D01*
X122017025Y-126629683D01*
X121998107Y-126729444D01*
X121943153Y-126817019D01*
X121852594Y-126880351D01*
X121847969Y-126882324D01*
X121784441Y-126901757D01*
X121739362Y-126903177D01*
X121725662Y-126899192D01*
X121667486Y-126891391D01*
X121657996Y-126889777D01*
X121610811Y-126864097D01*
X121555152Y-126817071D01*
X121512083Y-126762035D01*
X121479464Y-126667815D01*
X121485243Y-126572760D01*
X121523139Y-126485468D01*
X121586868Y-126414534D01*
X121670149Y-126368557D01*
X121766701Y-126356133D01*
X121870240Y-126385859D01*
G36*
X121870240Y-126385859D02*
G01*
X121945034Y-126441830D01*
X121999477Y-126529793D01*
X122017025Y-126629683D01*
X121998107Y-126729444D01*
X121943153Y-126817019D01*
X121852594Y-126880351D01*
X121847969Y-126882324D01*
X121784441Y-126901757D01*
X121739362Y-126903177D01*
X121725662Y-126899192D01*
X121667486Y-126891391D01*
X121657996Y-126889777D01*
X121610811Y-126864097D01*
X121555152Y-126817071D01*
X121512083Y-126762035D01*
X121479464Y-126667815D01*
X121485243Y-126572760D01*
X121523139Y-126485468D01*
X121586868Y-126414534D01*
X121670149Y-126368557D01*
X121766701Y-126356133D01*
X121870240Y-126385859D01*
G37*
X111532110Y-131137825D02*
X111618104Y-131156699D01*
X111697998Y-131211628D01*
X111750809Y-131266735D01*
X111775275Y-131322984D01*
X111781031Y-131404404D01*
X111775486Y-131484783D01*
X111751407Y-131541238D01*
X111697998Y-131597181D01*
X111682977Y-131610131D01*
X111603924Y-131657830D01*
X111514064Y-131671371D01*
X111496019Y-131670984D01*
X111410025Y-131652110D01*
X111330131Y-131597181D01*
X111277319Y-131542074D01*
X111252854Y-131485825D01*
X111247097Y-131404404D01*
X111252642Y-131324026D01*
X111276722Y-131267570D01*
X111330131Y-131211628D01*
X111345151Y-131198678D01*
X111424204Y-131150979D01*
X111514064Y-131137437D01*
X111532110Y-131137825D01*
G36*
X111532110Y-131137825D02*
G01*
X111618104Y-131156699D01*
X111697998Y-131211628D01*
X111750809Y-131266735D01*
X111775275Y-131322984D01*
X111781031Y-131404404D01*
X111775486Y-131484783D01*
X111751407Y-131541238D01*
X111697998Y-131597181D01*
X111682977Y-131610131D01*
X111603924Y-131657830D01*
X111514064Y-131671371D01*
X111496019Y-131670984D01*
X111410025Y-131652110D01*
X111330131Y-131597181D01*
X111277319Y-131542074D01*
X111252854Y-131485825D01*
X111247097Y-131404404D01*
X111252642Y-131324026D01*
X111276722Y-131267570D01*
X111330131Y-131211628D01*
X111345151Y-131198678D01*
X111424204Y-131150979D01*
X111514064Y-131137437D01*
X111532110Y-131137825D01*
G37*
X111532110Y-127044331D02*
X111618104Y-127063205D01*
X111697998Y-127118135D01*
X111750809Y-127173241D01*
X111775275Y-127229491D01*
X111781031Y-127310911D01*
X111775486Y-127391289D01*
X111751407Y-127447745D01*
X111697998Y-127503687D01*
X111682977Y-127516638D01*
X111603924Y-127564336D01*
X111514064Y-127577878D01*
X111496019Y-127577491D01*
X111410025Y-127558617D01*
X111330131Y-127503687D01*
X111277319Y-127448581D01*
X111252854Y-127392331D01*
X111247097Y-127310911D01*
X111252642Y-127230533D01*
X111276722Y-127174077D01*
X111330131Y-127118135D01*
X111345151Y-127105184D01*
X111424204Y-127057486D01*
X111514064Y-127043944D01*
X111532110Y-127044331D01*
G36*
X111532110Y-127044331D02*
G01*
X111618104Y-127063205D01*
X111697998Y-127118135D01*
X111750809Y-127173241D01*
X111775275Y-127229491D01*
X111781031Y-127310911D01*
X111775486Y-127391289D01*
X111751407Y-127447745D01*
X111697998Y-127503687D01*
X111682977Y-127516638D01*
X111603924Y-127564336D01*
X111514064Y-127577878D01*
X111496019Y-127577491D01*
X111410025Y-127558617D01*
X111330131Y-127503687D01*
X111277319Y-127448581D01*
X111252854Y-127392331D01*
X111247097Y-127310911D01*
X111252642Y-127230533D01*
X111276722Y-127174077D01*
X111330131Y-127118135D01*
X111345151Y-127105184D01*
X111424204Y-127057486D01*
X111514064Y-127043944D01*
X111532110Y-127044331D01*
G37*
X119983169Y-130545321D02*
X119990936Y-130562020D01*
X120008046Y-130621160D01*
X120029186Y-130710910D01*
X120051456Y-130819620D01*
X120100098Y-131073874D01*
X120021346Y-131096218D01*
X120008544Y-131099862D01*
X119475903Y-131274438D01*
X118976155Y-131484193D01*
X118510819Y-131728244D01*
X118081416Y-132005705D01*
X117689465Y-132315695D01*
X117336487Y-132657329D01*
X117270467Y-132727389D01*
X117202595Y-132797576D01*
X117153945Y-132845714D01*
X117132117Y-132864115D01*
X117114231Y-132855290D01*
X117065203Y-132820785D01*
X116995987Y-132767854D01*
X116916691Y-132704702D01*
X116837422Y-132639535D01*
X116768288Y-132580559D01*
X116719395Y-132535979D01*
X116700851Y-132514001D01*
X116716243Y-132489339D01*
X116758904Y-132434616D01*
X116822248Y-132358082D01*
X116899686Y-132267893D01*
X117097786Y-132053115D01*
X117473288Y-131703214D01*
X117879098Y-131391994D01*
X118311665Y-131121575D01*
X118767437Y-130894076D01*
X119242864Y-130711616D01*
X119734394Y-130576315D01*
X119787824Y-130565074D01*
X119882105Y-130548818D01*
X119951260Y-130541730D01*
X119983169Y-130545321D01*
G36*
X119983169Y-130545321D02*
G01*
X119990936Y-130562020D01*
X120008046Y-130621160D01*
X120029186Y-130710910D01*
X120051456Y-130819620D01*
X120100098Y-131073874D01*
X120021346Y-131096218D01*
X120008544Y-131099862D01*
X119475903Y-131274438D01*
X118976155Y-131484193D01*
X118510819Y-131728244D01*
X118081416Y-132005705D01*
X117689465Y-132315695D01*
X117336487Y-132657329D01*
X117270467Y-132727389D01*
X117202595Y-132797576D01*
X117153945Y-132845714D01*
X117132117Y-132864115D01*
X117114231Y-132855290D01*
X117065203Y-132820785D01*
X116995987Y-132767854D01*
X116916691Y-132704702D01*
X116837422Y-132639535D01*
X116768288Y-132580559D01*
X116719395Y-132535979D01*
X116700851Y-132514001D01*
X116716243Y-132489339D01*
X116758904Y-132434616D01*
X116822248Y-132358082D01*
X116899686Y-132267893D01*
X117097786Y-132053115D01*
X117473288Y-131703214D01*
X117879098Y-131391994D01*
X118311665Y-131121575D01*
X118767437Y-130894076D01*
X119242864Y-130711616D01*
X119734394Y-130576315D01*
X119787824Y-130565074D01*
X119882105Y-130548818D01*
X119951260Y-130541730D01*
X119983169Y-130545321D01*
G37*
X119668656Y-128094429D02*
X119778399Y-128103642D01*
X119903128Y-128117050D01*
X120033133Y-128133794D01*
X120158709Y-128153012D01*
X120236995Y-128166788D01*
X120694400Y-128274082D01*
X121124459Y-128422073D01*
X121525576Y-128609805D01*
X121896155Y-128836323D01*
X122234600Y-129100671D01*
X122539314Y-129401895D01*
X122808703Y-129739039D01*
X122813078Y-129745227D01*
X122896817Y-129868756D01*
X122949899Y-129960834D01*
X122974845Y-130028159D01*
X122974178Y-130077426D01*
X122950421Y-130115335D01*
X122928520Y-130133347D01*
X122891866Y-130143660D01*
X122836683Y-130134850D01*
X122748943Y-130106290D01*
X122663654Y-130078370D01*
X122521813Y-130037051D01*
X122353902Y-129991947D01*
X122173207Y-129946387D01*
X121993010Y-129903700D01*
X121826595Y-129867213D01*
X121687246Y-129840256D01*
X121392081Y-129796045D01*
X121062422Y-129761746D01*
X120744201Y-129743711D01*
X120455269Y-129743342D01*
X120139228Y-129753864D01*
X120095463Y-129612968D01*
X120059396Y-129502217D01*
X120002886Y-129338930D01*
X119935622Y-129152016D01*
X119862296Y-128954107D01*
X119787597Y-128757837D01*
X119716215Y-128575837D01*
X119652841Y-128420740D01*
X119642955Y-128397192D01*
X119596042Y-128284126D01*
X119557964Y-128190204D01*
X119532411Y-128124644D01*
X119523073Y-128096661D01*
X119532954Y-128092032D01*
X119583605Y-128090272D01*
X119668656Y-128094429D01*
G36*
X119668656Y-128094429D02*
G01*
X119778399Y-128103642D01*
X119903128Y-128117050D01*
X120033133Y-128133794D01*
X120158709Y-128153012D01*
X120236995Y-128166788D01*
X120694400Y-128274082D01*
X121124459Y-128422073D01*
X121525576Y-128609805D01*
X121896155Y-128836323D01*
X122234600Y-129100671D01*
X122539314Y-129401895D01*
X122808703Y-129739039D01*
X122813078Y-129745227D01*
X122896817Y-129868756D01*
X122949899Y-129960834D01*
X122974845Y-130028159D01*
X122974178Y-130077426D01*
X122950421Y-130115335D01*
X122928520Y-130133347D01*
X122891866Y-130143660D01*
X122836683Y-130134850D01*
X122748943Y-130106290D01*
X122663654Y-130078370D01*
X122521813Y-130037051D01*
X122353902Y-129991947D01*
X122173207Y-129946387D01*
X121993010Y-129903700D01*
X121826595Y-129867213D01*
X121687246Y-129840256D01*
X121392081Y-129796045D01*
X121062422Y-129761746D01*
X120744201Y-129743711D01*
X120455269Y-129743342D01*
X120139228Y-129753864D01*
X120095463Y-129612968D01*
X120059396Y-129502217D01*
X120002886Y-129338930D01*
X119935622Y-129152016D01*
X119862296Y-128954107D01*
X119787597Y-128757837D01*
X119716215Y-128575837D01*
X119652841Y-128420740D01*
X119642955Y-128397192D01*
X119596042Y-128284126D01*
X119557964Y-128190204D01*
X119532411Y-128124644D01*
X119523073Y-128096661D01*
X119532954Y-128092032D01*
X119583605Y-128090272D01*
X119668656Y-128094429D01*
G37*
X114828042Y-131063623D02*
X114844077Y-131081884D01*
X114900804Y-131147393D01*
X114978720Y-131238116D01*
X115069702Y-131344583D01*
X115165631Y-131457322D01*
X115174859Y-131468171D01*
X115294325Y-131606017D01*
X115428930Y-131757528D01*
X115562850Y-131905066D01*
X115680261Y-132030993D01*
X115937619Y-132301625D01*
X115847062Y-132450512D01*
X115716901Y-132682152D01*
X115558619Y-133013373D01*
X115411884Y-133375988D01*
X115280642Y-133759221D01*
X115168836Y-134152298D01*
X115080412Y-134544444D01*
X115073664Y-134578719D01*
X115047602Y-134703280D01*
X115023278Y-134808385D01*
X115003157Y-134883845D01*
X114989703Y-134919469D01*
X114954731Y-134944786D01*
X114893139Y-134945693D01*
X114832369Y-134909767D01*
X114814335Y-134887443D01*
X114769966Y-134814814D01*
X114715034Y-134709837D01*
X114654072Y-134582480D01*
X114591616Y-134442714D01*
X114532201Y-134300507D01*
X114480363Y-134165829D01*
X114440636Y-134048649D01*
X114387085Y-133862593D01*
X114342628Y-133673768D01*
X114312724Y-133491364D01*
X114295641Y-133301208D01*
X114289644Y-133089125D01*
X114293002Y-132840941D01*
X114294838Y-132779436D01*
X114304008Y-132570751D01*
X114317318Y-132398343D01*
X114335840Y-132250702D01*
X114360651Y-132116316D01*
X114373316Y-132060288D01*
X114421321Y-131875457D01*
X114481424Y-131672524D01*
X114548154Y-131468490D01*
X114616040Y-131280355D01*
X114679611Y-131125120D01*
X114747725Y-130972962D01*
X114828042Y-131063623D01*
G36*
X114828042Y-131063623D02*
G01*
X114844077Y-131081884D01*
X114900804Y-131147393D01*
X114978720Y-131238116D01*
X115069702Y-131344583D01*
X115165631Y-131457322D01*
X115174859Y-131468171D01*
X115294325Y-131606017D01*
X115428930Y-131757528D01*
X115562850Y-131905066D01*
X115680261Y-132030993D01*
X115937619Y-132301625D01*
X115847062Y-132450512D01*
X115716901Y-132682152D01*
X115558619Y-133013373D01*
X115411884Y-133375988D01*
X115280642Y-133759221D01*
X115168836Y-134152298D01*
X115080412Y-134544444D01*
X115073664Y-134578719D01*
X115047602Y-134703280D01*
X115023278Y-134808385D01*
X115003157Y-134883845D01*
X114989703Y-134919469D01*
X114954731Y-134944786D01*
X114893139Y-134945693D01*
X114832369Y-134909767D01*
X114814335Y-134887443D01*
X114769966Y-134814814D01*
X114715034Y-134709837D01*
X114654072Y-134582480D01*
X114591616Y-134442714D01*
X114532201Y-134300507D01*
X114480363Y-134165829D01*
X114440636Y-134048649D01*
X114387085Y-133862593D01*
X114342628Y-133673768D01*
X114312724Y-133491364D01*
X114295641Y-133301208D01*
X114289644Y-133089125D01*
X114293002Y-132840941D01*
X114294838Y-132779436D01*
X114304008Y-132570751D01*
X114317318Y-132398343D01*
X114335840Y-132250702D01*
X114360651Y-132116316D01*
X114373316Y-132060288D01*
X114421321Y-131875457D01*
X114481424Y-131672524D01*
X114548154Y-131468490D01*
X114616040Y-131280355D01*
X114679611Y-131125120D01*
X114747725Y-130972962D01*
X114828042Y-131063623D01*
G37*
X111850701Y-123292660D02*
X111860570Y-123345287D01*
X111870552Y-123430578D01*
X111879210Y-123537844D01*
X111896043Y-123794707D01*
X111694189Y-124007952D01*
X111406923Y-124330394D01*
X111047085Y-124798393D01*
X110730558Y-125291095D01*
X110458404Y-125806202D01*
X110231679Y-126341413D01*
X110051445Y-126894429D01*
X109918759Y-127462950D01*
X109834682Y-128044677D01*
X109826881Y-128141186D01*
X109818705Y-128321670D01*
X109814985Y-128530542D01*
X109815472Y-128756493D01*
X109819917Y-128988214D01*
X109828070Y-129214395D01*
X109839680Y-129423726D01*
X109854498Y-129604897D01*
X109872274Y-129746599D01*
X109924110Y-130036597D01*
X110027476Y-130488303D01*
X110156675Y-130916532D01*
X110316453Y-131336254D01*
X110511557Y-131762438D01*
X110782734Y-132258777D01*
X111102227Y-132741997D01*
X111459831Y-133194428D01*
X111852994Y-133613960D01*
X112279165Y-133998482D01*
X112735791Y-134345884D01*
X113220321Y-134654055D01*
X113730202Y-134920886D01*
X114262883Y-135144264D01*
X114815811Y-135322081D01*
X114948016Y-135357265D01*
X115311938Y-135441042D01*
X115665626Y-135501019D01*
X116023621Y-135538892D01*
X116400460Y-135556361D01*
X116810683Y-135555123D01*
X116950650Y-135551153D01*
X117241528Y-135536795D01*
X117503322Y-135513582D01*
X117750923Y-135479636D01*
X117999221Y-135433079D01*
X118263105Y-135372035D01*
X118592226Y-135290049D01*
X118818946Y-135436667D01*
X119045665Y-135583285D01*
X118756792Y-135675107D01*
X118622589Y-135715543D01*
X118281066Y-135802387D01*
X117911012Y-135876762D01*
X117527548Y-135935836D01*
X117145796Y-135976776D01*
X117053429Y-135983286D01*
X116750480Y-135992522D01*
X116420121Y-135987001D01*
X116078032Y-135967514D01*
X115739896Y-135934851D01*
X115421394Y-135889804D01*
X115075374Y-135822916D01*
X114501807Y-135672251D01*
X113947810Y-135476734D01*
X113415422Y-135238447D01*
X112906682Y-134959470D01*
X112423629Y-134641883D01*
X111968301Y-134287767D01*
X111542737Y-133899203D01*
X111148976Y-133478272D01*
X110789056Y-133027053D01*
X110465017Y-132547628D01*
X110178897Y-132042078D01*
X109932735Y-131512482D01*
X109728569Y-130960923D01*
X109568439Y-130389479D01*
X109454384Y-129800232D01*
X109448833Y-129762260D01*
X109418004Y-129491351D01*
X109396599Y-129190512D01*
X109384989Y-128875644D01*
X109383543Y-128562652D01*
X109392632Y-128267439D01*
X109412626Y-128005907D01*
X109473175Y-127560817D01*
X109597741Y-126962188D01*
X109769779Y-126381752D01*
X109989186Y-125819769D01*
X110255856Y-125276501D01*
X110569683Y-124752207D01*
X110930564Y-124247147D01*
X110978846Y-124187573D01*
X111057915Y-124095433D01*
X111153626Y-123987797D01*
X111260364Y-123870600D01*
X111372514Y-123749776D01*
X111484462Y-123631259D01*
X111590594Y-123520983D01*
X111685295Y-123424884D01*
X111762950Y-123348894D01*
X111817945Y-123298948D01*
X111844666Y-123280981D01*
X111850701Y-123292660D01*
G36*
X111850701Y-123292660D02*
G01*
X111860570Y-123345287D01*
X111870552Y-123430578D01*
X111879210Y-123537844D01*
X111896043Y-123794707D01*
X111694189Y-124007952D01*
X111406923Y-124330394D01*
X111047085Y-124798393D01*
X110730558Y-125291095D01*
X110458404Y-125806202D01*
X110231679Y-126341413D01*
X110051445Y-126894429D01*
X109918759Y-127462950D01*
X109834682Y-128044677D01*
X109826881Y-128141186D01*
X109818705Y-128321670D01*
X109814985Y-128530542D01*
X109815472Y-128756493D01*
X109819917Y-128988214D01*
X109828070Y-129214395D01*
X109839680Y-129423726D01*
X109854498Y-129604897D01*
X109872274Y-129746599D01*
X109924110Y-130036597D01*
X110027476Y-130488303D01*
X110156675Y-130916532D01*
X110316453Y-131336254D01*
X110511557Y-131762438D01*
X110782734Y-132258777D01*
X111102227Y-132741997D01*
X111459831Y-133194428D01*
X111852994Y-133613960D01*
X112279165Y-133998482D01*
X112735791Y-134345884D01*
X113220321Y-134654055D01*
X113730202Y-134920886D01*
X114262883Y-135144264D01*
X114815811Y-135322081D01*
X114948016Y-135357265D01*
X115311938Y-135441042D01*
X115665626Y-135501019D01*
X116023621Y-135538892D01*
X116400460Y-135556361D01*
X116810683Y-135555123D01*
X116950650Y-135551153D01*
X117241528Y-135536795D01*
X117503322Y-135513582D01*
X117750923Y-135479636D01*
X117999221Y-135433079D01*
X118263105Y-135372035D01*
X118592226Y-135290049D01*
X118818946Y-135436667D01*
X119045665Y-135583285D01*
X118756792Y-135675107D01*
X118622589Y-135715543D01*
X118281066Y-135802387D01*
X117911012Y-135876762D01*
X117527548Y-135935836D01*
X117145796Y-135976776D01*
X117053429Y-135983286D01*
X116750480Y-135992522D01*
X116420121Y-135987001D01*
X116078032Y-135967514D01*
X115739896Y-135934851D01*
X115421394Y-135889804D01*
X115075374Y-135822916D01*
X114501807Y-135672251D01*
X113947810Y-135476734D01*
X113415422Y-135238447D01*
X112906682Y-134959470D01*
X112423629Y-134641883D01*
X111968301Y-134287767D01*
X111542737Y-133899203D01*
X111148976Y-133478272D01*
X110789056Y-133027053D01*
X110465017Y-132547628D01*
X110178897Y-132042078D01*
X109932735Y-131512482D01*
X109728569Y-130960923D01*
X109568439Y-130389479D01*
X109454384Y-129800232D01*
X109448833Y-129762260D01*
X109418004Y-129491351D01*
X109396599Y-129190512D01*
X109384989Y-128875644D01*
X109383543Y-128562652D01*
X109392632Y-128267439D01*
X109412626Y-128005907D01*
X109473175Y-127560817D01*
X109597741Y-126962188D01*
X109769779Y-126381752D01*
X109989186Y-125819769D01*
X110255856Y-125276501D01*
X110569683Y-124752207D01*
X110930564Y-124247147D01*
X110978846Y-124187573D01*
X111057915Y-124095433D01*
X111153626Y-123987797D01*
X111260364Y-123870600D01*
X111372514Y-123749776D01*
X111484462Y-123631259D01*
X111590594Y-123520983D01*
X111685295Y-123424884D01*
X111762950Y-123348894D01*
X111817945Y-123298948D01*
X111844666Y-123280981D01*
X111850701Y-123292660D01*
G37*
X116695798Y-121490093D02*
X116991872Y-121493770D01*
X117250095Y-121503177D01*
X117481689Y-121519554D01*
X117697876Y-121544141D01*
X117909878Y-121578176D01*
X118128918Y-121622900D01*
X118366216Y-121679553D01*
X118783448Y-121797060D01*
X119357755Y-122002380D01*
X119906810Y-122251837D01*
X120430597Y-122545422D01*
X120929100Y-122883127D01*
X121402303Y-123264942D01*
X121850192Y-123690858D01*
X121857289Y-123698172D01*
X122262937Y-124152673D01*
X122625752Y-124634100D01*
X122944978Y-125140834D01*
X123219857Y-125671253D01*
X123449635Y-126223739D01*
X123633555Y-126796672D01*
X123770861Y-127388431D01*
X123860795Y-127997397D01*
X123881669Y-128268379D01*
X123891205Y-128574998D01*
X123889492Y-128898065D01*
X123876900Y-129221008D01*
X123853799Y-129527254D01*
X123820559Y-129800232D01*
X123779696Y-130042038D01*
X123643878Y-130635811D01*
X123460878Y-131211721D01*
X123231644Y-131767850D01*
X122957120Y-132302279D01*
X122638251Y-132813090D01*
X122275983Y-133298362D01*
X121871263Y-133756178D01*
X121868280Y-133759287D01*
X121765110Y-133866670D01*
X121692241Y-133937181D01*
X121643748Y-133969516D01*
X121613708Y-133962372D01*
X121596197Y-133914446D01*
X121585290Y-133824436D01*
X121575063Y-133691039D01*
X121559424Y-133485982D01*
X121738336Y-133284232D01*
X121796894Y-133217355D01*
X122163627Y-132755272D01*
X122487769Y-132267562D01*
X122768083Y-131756969D01*
X123003329Y-131226242D01*
X123192270Y-130678126D01*
X123333666Y-130115367D01*
X123426280Y-129540714D01*
X123439273Y-129407054D01*
X123453443Y-129173489D01*
X123461097Y-128914773D01*
X123462233Y-128646024D01*
X123456849Y-128382356D01*
X123444942Y-128138887D01*
X123426511Y-127930732D01*
X123388492Y-127654685D01*
X123272117Y-127081614D01*
X123107372Y-126522287D01*
X122895216Y-125979010D01*
X122636609Y-125454087D01*
X122332514Y-124949825D01*
X121983889Y-124468527D01*
X121927369Y-124399009D01*
X121781803Y-124231898D01*
X121612915Y-124050410D01*
X121431571Y-123865480D01*
X121248638Y-123688043D01*
X121074983Y-123529036D01*
X120921472Y-123399394D01*
X120915927Y-123394984D01*
X120439392Y-123048223D01*
X119937503Y-122744236D01*
X119413528Y-122484478D01*
X118870740Y-122270404D01*
X118312408Y-122103467D01*
X117741804Y-121985124D01*
X117344542Y-121933342D01*
X116792840Y-121900902D01*
X116235238Y-121911506D01*
X115680870Y-121964540D01*
X115138870Y-122059388D01*
X114618375Y-122195435D01*
X114506369Y-122230016D01*
X114281965Y-122100794D01*
X114215342Y-122061624D01*
X114133814Y-122011029D01*
X114077936Y-121972937D01*
X114057084Y-121953489D01*
X114057155Y-121952912D01*
X114082730Y-121936652D01*
X114148694Y-121909915D01*
X114246810Y-121875265D01*
X114368843Y-121835263D01*
X114506558Y-121792472D01*
X114651717Y-121749456D01*
X114796086Y-121708777D01*
X114931429Y-121672997D01*
X115049509Y-121644679D01*
X115190219Y-121614120D01*
X115390786Y-121574273D01*
X115575503Y-121543586D01*
X115755474Y-121520984D01*
X115941805Y-121505394D01*
X116145600Y-121495743D01*
X116377963Y-121490957D01*
X116650000Y-121489964D01*
X116695798Y-121490093D01*
G36*
X116695798Y-121490093D02*
G01*
X116991872Y-121493770D01*
X117250095Y-121503177D01*
X117481689Y-121519554D01*
X117697876Y-121544141D01*
X117909878Y-121578176D01*
X118128918Y-121622900D01*
X118366216Y-121679553D01*
X118783448Y-121797060D01*
X119357755Y-122002380D01*
X119906810Y-122251837D01*
X120430597Y-122545422D01*
X120929100Y-122883127D01*
X121402303Y-123264942D01*
X121850192Y-123690858D01*
X121857289Y-123698172D01*
X122262937Y-124152673D01*
X122625752Y-124634100D01*
X122944978Y-125140834D01*
X123219857Y-125671253D01*
X123449635Y-126223739D01*
X123633555Y-126796672D01*
X123770861Y-127388431D01*
X123860795Y-127997397D01*
X123881669Y-128268379D01*
X123891205Y-128574998D01*
X123889492Y-128898065D01*
X123876900Y-129221008D01*
X123853799Y-129527254D01*
X123820559Y-129800232D01*
X123779696Y-130042038D01*
X123643878Y-130635811D01*
X123460878Y-131211721D01*
X123231644Y-131767850D01*
X122957120Y-132302279D01*
X122638251Y-132813090D01*
X122275983Y-133298362D01*
X121871263Y-133756178D01*
X121868280Y-133759287D01*
X121765110Y-133866670D01*
X121692241Y-133937181D01*
X121643748Y-133969516D01*
X121613708Y-133962372D01*
X121596197Y-133914446D01*
X121585290Y-133824436D01*
X121575063Y-133691039D01*
X121559424Y-133485982D01*
X121738336Y-133284232D01*
X121796894Y-133217355D01*
X122163627Y-132755272D01*
X122487769Y-132267562D01*
X122768083Y-131756969D01*
X123003329Y-131226242D01*
X123192270Y-130678126D01*
X123333666Y-130115367D01*
X123426280Y-129540714D01*
X123439273Y-129407054D01*
X123453443Y-129173489D01*
X123461097Y-128914773D01*
X123462233Y-128646024D01*
X123456849Y-128382356D01*
X123444942Y-128138887D01*
X123426511Y-127930732D01*
X123388492Y-127654685D01*
X123272117Y-127081614D01*
X123107372Y-126522287D01*
X122895216Y-125979010D01*
X122636609Y-125454087D01*
X122332514Y-124949825D01*
X121983889Y-124468527D01*
X121927369Y-124399009D01*
X121781803Y-124231898D01*
X121612915Y-124050410D01*
X121431571Y-123865480D01*
X121248638Y-123688043D01*
X121074983Y-123529036D01*
X120921472Y-123399394D01*
X120915927Y-123394984D01*
X120439392Y-123048223D01*
X119937503Y-122744236D01*
X119413528Y-122484478D01*
X118870740Y-122270404D01*
X118312408Y-122103467D01*
X117741804Y-121985124D01*
X117344542Y-121933342D01*
X116792840Y-121900902D01*
X116235238Y-121911506D01*
X115680870Y-121964540D01*
X115138870Y-122059388D01*
X114618375Y-122195435D01*
X114506369Y-122230016D01*
X114281965Y-122100794D01*
X114215342Y-122061624D01*
X114133814Y-122011029D01*
X114077936Y-121972937D01*
X114057084Y-121953489D01*
X114057155Y-121952912D01*
X114082730Y-121936652D01*
X114148694Y-121909915D01*
X114246810Y-121875265D01*
X114368843Y-121835263D01*
X114506558Y-121792472D01*
X114651717Y-121749456D01*
X114796086Y-121708777D01*
X114931429Y-121672997D01*
X115049509Y-121644679D01*
X115190219Y-121614120D01*
X115390786Y-121574273D01*
X115575503Y-121543586D01*
X115755474Y-121520984D01*
X115941805Y-121505394D01*
X116145600Y-121495743D01*
X116377963Y-121490957D01*
X116650000Y-121489964D01*
X116695798Y-121490093D01*
G37*
X116827754Y-126262151D02*
X116837304Y-126375515D01*
X116842214Y-126522723D01*
X116846446Y-126639202D01*
X116854550Y-126755272D01*
X116865113Y-126846943D01*
X116876919Y-126900988D01*
X116880227Y-126909830D01*
X116889475Y-126951719D01*
X116883737Y-126998265D01*
X116859789Y-127062742D01*
X116814409Y-127158421D01*
X116789405Y-127207026D01*
X116630621Y-127451522D01*
X116433873Y-127666542D01*
X116205040Y-127847297D01*
X115949999Y-127988998D01*
X115674629Y-128086858D01*
X115642676Y-128094720D01*
X115437393Y-128126763D01*
X115211622Y-128136177D01*
X114986713Y-128122957D01*
X114784015Y-128087098D01*
X114575145Y-128018945D01*
X114320832Y-127891982D01*
X114092311Y-127727074D01*
X113893153Y-127529257D01*
X113726927Y-127303569D01*
X113597202Y-127055045D01*
X113514407Y-126809101D01*
X114033651Y-126809101D01*
X114054457Y-126910550D01*
X114108999Y-126997679D01*
X114197319Y-127058660D01*
X114262443Y-127081111D01*
X114387909Y-127092339D01*
X114499608Y-127054783D01*
X114598971Y-126968120D01*
X114650395Y-126883391D01*
X114668998Y-126782778D01*
X114649310Y-126686746D01*
X114597693Y-126602376D01*
X114520508Y-126536748D01*
X114424119Y-126496945D01*
X114314886Y-126490046D01*
X114199172Y-126523134D01*
X114173245Y-126537107D01*
X114093086Y-126610552D01*
X114046541Y-126705159D01*
X114033651Y-126809101D01*
X113514407Y-126809101D01*
X113507547Y-126788723D01*
X113461534Y-126509638D01*
X113462730Y-126222827D01*
X113464760Y-126200778D01*
X113476073Y-126109621D01*
X113493560Y-126048539D01*
X113524347Y-126000104D01*
X113575560Y-125946888D01*
X113682260Y-125866836D01*
X113836054Y-125802789D01*
X114004306Y-125777512D01*
X114175218Y-125792514D01*
X114336993Y-125849310D01*
X114463166Y-125929340D01*
X114613618Y-126062951D01*
X114754106Y-126227140D01*
X114875559Y-126411078D01*
X114968908Y-126603933D01*
X115020910Y-126735994D01*
X114974126Y-126782778D01*
X114860083Y-126896821D01*
X114839111Y-126918174D01*
X114739653Y-127031169D01*
X114660943Y-127140388D01*
X114609174Y-127236346D01*
X114590541Y-127309557D01*
X114592866Y-127320365D01*
X114630140Y-127358302D01*
X114705572Y-127398127D01*
X114809677Y-127437024D01*
X114932972Y-127472178D01*
X115065973Y-127500773D01*
X115199196Y-127519994D01*
X115323158Y-127527027D01*
X115367683Y-127526415D01*
X115490394Y-127513659D01*
X115589295Y-127478650D01*
X115680333Y-127413866D01*
X115779453Y-127311787D01*
X115826699Y-127252765D01*
X115899363Y-127142082D01*
X115961519Y-127024799D01*
X116005552Y-126915912D01*
X116023849Y-126830416D01*
X116022958Y-126804328D01*
X116005575Y-126758981D01*
X115962088Y-126723849D01*
X115886311Y-126696258D01*
X115772057Y-126673537D01*
X115613140Y-126653014D01*
X115343991Y-126623186D01*
X115285334Y-126509391D01*
X115283609Y-126506035D01*
X115192722Y-126290158D01*
X115177094Y-126228676D01*
X115538416Y-126228676D01*
X115563601Y-126326996D01*
X115632111Y-126420186D01*
X115695247Y-126466482D01*
X115809010Y-126504383D01*
X115929072Y-126500703D01*
X116039790Y-126454139D01*
X116054232Y-126443772D01*
X116133392Y-126356174D01*
X116171849Y-126252147D01*
X116169541Y-126143334D01*
X116126407Y-126041382D01*
X116042386Y-125957936D01*
X115956036Y-125915312D01*
X115849182Y-125900302D01*
X115749106Y-125921338D01*
X115661901Y-125971555D01*
X115593657Y-126044093D01*
X115550465Y-126132087D01*
X115538416Y-126228676D01*
X115177094Y-126228676D01*
X115137030Y-126071066D01*
X115116645Y-125856634D01*
X115131679Y-125654737D01*
X115182243Y-125473249D01*
X115268450Y-125320046D01*
X115343921Y-125243173D01*
X115475159Y-125164196D01*
X115629848Y-125115358D01*
X115796585Y-125098670D01*
X115963964Y-125116143D01*
X116120581Y-125169788D01*
X116241570Y-125242988D01*
X116399798Y-125383069D01*
X116543309Y-125562570D01*
X116667203Y-125775087D01*
X116766580Y-126014214D01*
X116784638Y-126069105D01*
X116811039Y-126165668D01*
X116826021Y-126252147D01*
X116827754Y-126262151D01*
G36*
X116827754Y-126262151D02*
G01*
X116837304Y-126375515D01*
X116842214Y-126522723D01*
X116846446Y-126639202D01*
X116854550Y-126755272D01*
X116865113Y-126846943D01*
X116876919Y-126900988D01*
X116880227Y-126909830D01*
X116889475Y-126951719D01*
X116883737Y-126998265D01*
X116859789Y-127062742D01*
X116814409Y-127158421D01*
X116789405Y-127207026D01*
X116630621Y-127451522D01*
X116433873Y-127666542D01*
X116205040Y-127847297D01*
X115949999Y-127988998D01*
X115674629Y-128086858D01*
X115642676Y-128094720D01*
X115437393Y-128126763D01*
X115211622Y-128136177D01*
X114986713Y-128122957D01*
X114784015Y-128087098D01*
X114575145Y-128018945D01*
X114320832Y-127891982D01*
X114092311Y-127727074D01*
X113893153Y-127529257D01*
X113726927Y-127303569D01*
X113597202Y-127055045D01*
X113514407Y-126809101D01*
X114033651Y-126809101D01*
X114054457Y-126910550D01*
X114108999Y-126997679D01*
X114197319Y-127058660D01*
X114262443Y-127081111D01*
X114387909Y-127092339D01*
X114499608Y-127054783D01*
X114598971Y-126968120D01*
X114650395Y-126883391D01*
X114668998Y-126782778D01*
X114649310Y-126686746D01*
X114597693Y-126602376D01*
X114520508Y-126536748D01*
X114424119Y-126496945D01*
X114314886Y-126490046D01*
X114199172Y-126523134D01*
X114173245Y-126537107D01*
X114093086Y-126610552D01*
X114046541Y-126705159D01*
X114033651Y-126809101D01*
X113514407Y-126809101D01*
X113507547Y-126788723D01*
X113461534Y-126509638D01*
X113462730Y-126222827D01*
X113464760Y-126200778D01*
X113476073Y-126109621D01*
X113493560Y-126048539D01*
X113524347Y-126000104D01*
X113575560Y-125946888D01*
X113682260Y-125866836D01*
X113836054Y-125802789D01*
X114004306Y-125777512D01*
X114175218Y-125792514D01*
X114336993Y-125849310D01*
X114463166Y-125929340D01*
X114613618Y-126062951D01*
X114754106Y-126227140D01*
X114875559Y-126411078D01*
X114968908Y-126603933D01*
X115020910Y-126735994D01*
X114974126Y-126782778D01*
X114860083Y-126896821D01*
X114839111Y-126918174D01*
X114739653Y-127031169D01*
X114660943Y-127140388D01*
X114609174Y-127236346D01*
X114590541Y-127309557D01*
X114592866Y-127320365D01*
X114630140Y-127358302D01*
X114705572Y-127398127D01*
X114809677Y-127437024D01*
X114932972Y-127472178D01*
X115065973Y-127500773D01*
X115199196Y-127519994D01*
X115323158Y-127527027D01*
X115367683Y-127526415D01*
X115490394Y-127513659D01*
X115589295Y-127478650D01*
X115680333Y-127413866D01*
X115779453Y-127311787D01*
X115826699Y-127252765D01*
X115899363Y-127142082D01*
X115961519Y-127024799D01*
X116005552Y-126915912D01*
X116023849Y-126830416D01*
X116022958Y-126804328D01*
X116005575Y-126758981D01*
X115962088Y-126723849D01*
X115886311Y-126696258D01*
X115772057Y-126673537D01*
X115613140Y-126653014D01*
X115343991Y-126623186D01*
X115285334Y-126509391D01*
X115283609Y-126506035D01*
X115192722Y-126290158D01*
X115177094Y-126228676D01*
X115538416Y-126228676D01*
X115563601Y-126326996D01*
X115632111Y-126420186D01*
X115695247Y-126466482D01*
X115809010Y-126504383D01*
X115929072Y-126500703D01*
X116039790Y-126454139D01*
X116054232Y-126443772D01*
X116133392Y-126356174D01*
X116171849Y-126252147D01*
X116169541Y-126143334D01*
X116126407Y-126041382D01*
X116042386Y-125957936D01*
X115956036Y-125915312D01*
X115849182Y-125900302D01*
X115749106Y-125921338D01*
X115661901Y-125971555D01*
X115593657Y-126044093D01*
X115550465Y-126132087D01*
X115538416Y-126228676D01*
X115177094Y-126228676D01*
X115137030Y-126071066D01*
X115116645Y-125856634D01*
X115131679Y-125654737D01*
X115182243Y-125473249D01*
X115268450Y-125320046D01*
X115343921Y-125243173D01*
X115475159Y-125164196D01*
X115629848Y-125115358D01*
X115796585Y-125098670D01*
X115963964Y-125116143D01*
X116120581Y-125169788D01*
X116241570Y-125242988D01*
X116399798Y-125383069D01*
X116543309Y-125562570D01*
X116667203Y-125775087D01*
X116766580Y-126014214D01*
X116784638Y-126069105D01*
X116811039Y-126165668D01*
X116826021Y-126252147D01*
X116827754Y-126262151D01*
G37*
X118415491Y-126544123D02*
X118502810Y-126698417D01*
X118844951Y-127339746D01*
X119161001Y-127992349D01*
X119445135Y-128643726D01*
X119691525Y-129281381D01*
X119718966Y-129360285D01*
X119757053Y-129475035D01*
X119799305Y-129606334D01*
X119842871Y-129744912D01*
X119884905Y-129881499D01*
X119922556Y-130006823D01*
X119952976Y-130111617D01*
X119973318Y-130186608D01*
X119980731Y-130222528D01*
X119961074Y-130235060D01*
X119903702Y-130252753D01*
X119821822Y-130270783D01*
X119535405Y-130334970D01*
X119143376Y-130452529D01*
X118747296Y-130602661D01*
X118361085Y-130779957D01*
X117998662Y-130979010D01*
X117853388Y-131070782D01*
X117577436Y-131266374D01*
X117300869Y-131487510D01*
X117035858Y-131723659D01*
X116794573Y-131964285D01*
X116589185Y-132198856D01*
X116441019Y-132383097D01*
X116257776Y-132211569D01*
X116080961Y-132041380D01*
X115729344Y-131677076D01*
X115371303Y-131273778D01*
X115011934Y-130837990D01*
X114656333Y-130376214D01*
X114309594Y-129894955D01*
X113976814Y-129400716D01*
X113663088Y-128900000D01*
X113497024Y-128613240D01*
X113181491Y-127993896D01*
X112907306Y-127345616D01*
X112674645Y-126669089D01*
X112559092Y-126243043D01*
X113175610Y-126243043D01*
X113177740Y-126523003D01*
X113224631Y-126823716D01*
X113314629Y-127115714D01*
X113444439Y-127392076D01*
X113610768Y-127645882D01*
X113810319Y-127870211D01*
X114039797Y-128058142D01*
X114107700Y-128101581D01*
X114259506Y-128184565D01*
X114429023Y-128263671D01*
X114596726Y-128330103D01*
X114743093Y-128375062D01*
X114837760Y-128394260D01*
X115011180Y-128416727D01*
X115195609Y-128428478D01*
X115371068Y-128428465D01*
X115517579Y-128415643D01*
X115630832Y-128394829D01*
X115937319Y-128305561D01*
X116223453Y-128173476D01*
X116484527Y-128002001D01*
X116715835Y-127794561D01*
X116912671Y-127554580D01*
X117070328Y-127285485D01*
X117133787Y-127148710D01*
X117192297Y-127001404D01*
X117232033Y-126863642D01*
X117256243Y-126720408D01*
X117268175Y-126556685D01*
X117271078Y-126357457D01*
X117271075Y-126356269D01*
X117269983Y-126207418D01*
X117266321Y-126095662D01*
X117258268Y-126007348D01*
X117244000Y-125928818D01*
X117221695Y-125846419D01*
X117189530Y-125746494D01*
X117173265Y-125699364D01*
X117040550Y-125399974D01*
X116868015Y-125130437D01*
X116658030Y-124893493D01*
X116412966Y-124691881D01*
X116135194Y-124528340D01*
X115995702Y-124464221D01*
X115839335Y-124406407D01*
X115682835Y-124367497D01*
X115509456Y-124343510D01*
X115302453Y-124330468D01*
X115108579Y-124329275D01*
X114851374Y-124352831D01*
X114611228Y-124408883D01*
X114373011Y-124500195D01*
X114333615Y-124518600D01*
X114066136Y-124674635D01*
X113826631Y-124869571D01*
X113618724Y-125098130D01*
X113446043Y-125355034D01*
X113312213Y-125635006D01*
X113220860Y-125932768D01*
X113175610Y-126243043D01*
X112559092Y-126243043D01*
X112483682Y-125965004D01*
X112334591Y-125234053D01*
X112227548Y-124476923D01*
X112162726Y-123694304D01*
X112140301Y-122886887D01*
X112141038Y-122689216D01*
X112144570Y-122451227D01*
X112150698Y-122224515D01*
X112159100Y-122014732D01*
X112169455Y-121827533D01*
X112181439Y-121668571D01*
X112194732Y-121543498D01*
X112209011Y-121457969D01*
X112223955Y-121417636D01*
X112249333Y-121416195D01*
X112316074Y-121434366D01*
X112417532Y-121471475D01*
X112548175Y-121524951D01*
X112702474Y-121592226D01*
X112874897Y-121670729D01*
X113059914Y-121757891D01*
X113251994Y-121851143D01*
X113445607Y-121947915D01*
X113635221Y-122045637D01*
X113815306Y-122141740D01*
X113980331Y-122233654D01*
X114177052Y-122347901D01*
X114738321Y-122696480D01*
X115261779Y-123058388D01*
X115757122Y-123440975D01*
X116234045Y-123851593D01*
X116702240Y-124297592D01*
X116886800Y-124484924D01*
X117185689Y-124805248D01*
X117455832Y-125120162D01*
X117705556Y-125440587D01*
X117943189Y-125777442D01*
X118177058Y-126141648D01*
X118304907Y-126357457D01*
X118415491Y-126544123D01*
G36*
X118415491Y-126544123D02*
G01*
X118502810Y-126698417D01*
X118844951Y-127339746D01*
X119161001Y-127992349D01*
X119445135Y-128643726D01*
X119691525Y-129281381D01*
X119718966Y-129360285D01*
X119757053Y-129475035D01*
X119799305Y-129606334D01*
X119842871Y-129744912D01*
X119884905Y-129881499D01*
X119922556Y-130006823D01*
X119952976Y-130111617D01*
X119973318Y-130186608D01*
X119980731Y-130222528D01*
X119961074Y-130235060D01*
X119903702Y-130252753D01*
X119821822Y-130270783D01*
X119535405Y-130334970D01*
X119143376Y-130452529D01*
X118747296Y-130602661D01*
X118361085Y-130779957D01*
X117998662Y-130979010D01*
X117853388Y-131070782D01*
X117577436Y-131266374D01*
X117300869Y-131487510D01*
X117035858Y-131723659D01*
X116794573Y-131964285D01*
X116589185Y-132198856D01*
X116441019Y-132383097D01*
X116257776Y-132211569D01*
X116080961Y-132041380D01*
X115729344Y-131677076D01*
X115371303Y-131273778D01*
X115011934Y-130837990D01*
X114656333Y-130376214D01*
X114309594Y-129894955D01*
X113976814Y-129400716D01*
X113663088Y-128900000D01*
X113497024Y-128613240D01*
X113181491Y-127993896D01*
X112907306Y-127345616D01*
X112674645Y-126669089D01*
X112559092Y-126243043D01*
X113175610Y-126243043D01*
X113177740Y-126523003D01*
X113224631Y-126823716D01*
X113314629Y-127115714D01*
X113444439Y-127392076D01*
X113610768Y-127645882D01*
X113810319Y-127870211D01*
X114039797Y-128058142D01*
X114107700Y-128101581D01*
X114259506Y-128184565D01*
X114429023Y-128263671D01*
X114596726Y-128330103D01*
X114743093Y-128375062D01*
X114837760Y-128394260D01*
X115011180Y-128416727D01*
X115195609Y-128428478D01*
X115371068Y-128428465D01*
X115517579Y-128415643D01*
X115630832Y-128394829D01*
X115937319Y-128305561D01*
X116223453Y-128173476D01*
X116484527Y-128002001D01*
X116715835Y-127794561D01*
X116912671Y-127554580D01*
X117070328Y-127285485D01*
X117133787Y-127148710D01*
X117192297Y-127001404D01*
X117232033Y-126863642D01*
X117256243Y-126720408D01*
X117268175Y-126556685D01*
X117271078Y-126357457D01*
X117271075Y-126356269D01*
X117269983Y-126207418D01*
X117266321Y-126095662D01*
X117258268Y-126007348D01*
X117244000Y-125928818D01*
X117221695Y-125846419D01*
X117189530Y-125746494D01*
X117173265Y-125699364D01*
X117040550Y-125399974D01*
X116868015Y-125130437D01*
X116658030Y-124893493D01*
X116412966Y-124691881D01*
X116135194Y-124528340D01*
X115995702Y-124464221D01*
X115839335Y-124406407D01*
X115682835Y-124367497D01*
X115509456Y-124343510D01*
X115302453Y-124330468D01*
X115108579Y-124329275D01*
X114851374Y-124352831D01*
X114611228Y-124408883D01*
X114373011Y-124500195D01*
X114333615Y-124518600D01*
X114066136Y-124674635D01*
X113826631Y-124869571D01*
X113618724Y-125098130D01*
X113446043Y-125355034D01*
X113312213Y-125635006D01*
X113220860Y-125932768D01*
X113175610Y-126243043D01*
X112559092Y-126243043D01*
X112483682Y-125965004D01*
X112334591Y-125234053D01*
X112227548Y-124476923D01*
X112162726Y-123694304D01*
X112140301Y-122886887D01*
X112141038Y-122689216D01*
X112144570Y-122451227D01*
X112150698Y-122224515D01*
X112159100Y-122014732D01*
X112169455Y-121827533D01*
X112181439Y-121668571D01*
X112194732Y-121543498D01*
X112209011Y-121457969D01*
X112223955Y-121417636D01*
X112249333Y-121416195D01*
X112316074Y-121434366D01*
X112417532Y-121471475D01*
X112548175Y-121524951D01*
X112702474Y-121592226D01*
X112874897Y-121670729D01*
X113059914Y-121757891D01*
X113251994Y-121851143D01*
X113445607Y-121947915D01*
X113635221Y-122045637D01*
X113815306Y-122141740D01*
X113980331Y-122233654D01*
X114177052Y-122347901D01*
X114738321Y-122696480D01*
X115261779Y-123058388D01*
X115757122Y-123440975D01*
X116234045Y-123851593D01*
X116702240Y-124297592D01*
X116886800Y-124484924D01*
X117185689Y-124805248D01*
X117455832Y-125120162D01*
X117705556Y-125440587D01*
X117943189Y-125777442D01*
X118177058Y-126141648D01*
X118304907Y-126357457D01*
X118415491Y-126544123D01*
G37*
%TD*%
M02*
